<?xml version="1.0" encoding="utf-8"?>
<!-- Generator: Adobe Illustrator 21.0.2, SVG Export Plug-In . SVG Version: 6.00 Build 0)  -->
<svg version="1.1" id="Layer_1" xmlns="http://www.w3.org/2000/svg" xmlns:xlink="http://www.w3.org/1999/xlink" x="0px" y="0px"
	 viewBox="0 0 500 316" style="enable-background:new 0 0 500 316;" xml:space="preserve">
<g>
	<path style="fill:#FFFFFF;stroke:#FFFFFF;stroke-width:3;stroke-linecap:round;stroke-linejoin:round;stroke-miterlimit:10;" d="
		M413.9,9.1c-6,3-20.5,16.6-21.3,17.5c0.2,4.5,1.2,5.1,3,2l0,0l0,0l0,0l0,0l0,0l0,0l0,0l0,0l0,0l0,0l0,0l0,0l0,0l0,0
		c3.2-4.6,7.1-8.4,11.8-11.4l0,0l0,0l0,0l0,0l0,0l0,0l0,0l0,0l0,0l0,0l0,0l0,0l0,0c-9,13.1-17.1,26-27.7,37.9
		C395.5,46.3,401.3,21.7,413.9,9.1"/>
	<path style="fill:#FFFFFF;stroke:#FFFFFF;stroke-width:3;stroke-linecap:round;stroke-linejoin:round;stroke-miterlimit:10;" d="
		M392.7,23.2c-14.3,4.1-22.9,30.5-29.8,41.7c-0.9,2.1-1.7,4.2-2.6,6.3c1.6-2.4,3.1-4.8,4.7-7.2l0,0l0,0c4.1-7.4,8.3-14.7,12.5-22.1
		l0,0C381,34.4,386,28.1,392.7,23.2"/>
	<path style="fill:#FFFFFF;stroke:#FFFFFF;stroke-width:3;stroke-linecap:round;stroke-linejoin:round;stroke-miterlimit:10;" d="
		M385.7,20.9c-10.1,0-36,44.8-30.5,50.3c-0.9-0.6,17.6-34.8,18.8-37.4l0,0l0,0l0,0l0,0l0,0l0,0l0,0l0,0l0,0c0.7-1,1.5-2.1,2.2-3.1
		l0,0l0,0l0,0l0,0l0,0l0,0l0,0l0,0l0,0l0,0l0,0l0,0l0,0l0,0l0,0l0,0l0,0l0,0l0,0c2.4-3.1,5.3-5.7,8.6-7.9l0,0l0,0l0,0l0,0l0,0l0,0
		l0,0l0,0l0,0l0,0C386.6,31.3,385.5,20.9,385.7,20.9"/>
	<path style="fill:#FFFFFF;stroke:#FFFFFF;stroke-width:3;stroke-linecap:round;stroke-linejoin:round;stroke-miterlimit:10;" d="
		M384.4,15c-9.6-4.8-21.4,17.1-21.4,24.4l0,0l0,0l0,0l0,0l0,0l0,0l0,0l0,0l0,0l0,0c-0.7,1.7-12.5,28.2-10.5,29.2
		c-0.6-0.3,17.5-52,28.4-52l0,0l0,0c0.1,0,0.1-0.1,0.2-0.1l0,0l0,0l0,0l0,0l0,0l0,0l0,0l0,0l0,0l0,0l0,0l0,0
		c-6.3,6.1-10.3,13.4-12,22C369.8,37.2,384.2,14.8,384.4,15"/>
	<path style="fill:#FFFFFF;stroke:#FFFFFF;stroke-width:3;stroke-linecap:round;stroke-linejoin:round;stroke-miterlimit:10;" d="
		M362.9,35.7c-5.6,0-9.9,21.9-13.2,21.9l0,0l0,0c-1.3,10.9-1.5,28.7-9.9,37.1c7.5-12.4,6.8-25.2,11.6-38l0,0l0,0l0,0
		C352.7,53.4,359.1,35.7,362.9,35.7"/>
	<path style="fill:#FFFFFF;stroke:#FFFFFF;stroke-width:3;stroke-linecap:round;stroke-linejoin:round;stroke-miterlimit:10;" d="
		M360.1,24.2c-9.7,0-13.5,24.3-16.1,24.3l0,0l0,0l0,0l0,0c-2,6-11.9,28.3-5.9,34.3c3.8,0,10.9-51.1,21.1-56.5
		c-0.6,1.7-9.4,31.5-9.2,31.5C350.8,55,355.9,24.2,360.1,24.2 M360,25.6L360,25.6L360,25.6L360,25.6z"/>
	<path style="fill:#FFFFFF;stroke:#FFFFFF;stroke-width:3;stroke-linecap:round;stroke-linejoin:round;stroke-miterlimit:10;" d="
		M344.5,39.9c-8.5-4.3-10.8,34-10.9,36.4c-0.5,7-1.3,14-2.4,20.9c15.7-9.6-0.7-42.6,12.5-55.8C346.1,50.8,344.3,39.7,344.5,39.9"/>
	<path style="fill:#FFFFFF;stroke:#FFFFFF;stroke-width:3;stroke-linecap:round;stroke-linejoin:round;stroke-miterlimit:10;" d="
		M335.1,32.4c-13.2,0-6.8,73.3-7.8,73.3c0.2-3.5,0.3-7,0.5-10.5l0,0l0,0c0.5-19.9,0.8-41,6.7-60.2c0.3,3.1,2.9,21.4,0.1,22.8
		C335.1,55.3,338,32.4,335.1,32.4"/>
	<path style="fill:#FFFFFF;stroke:#FFFFFF;stroke-width:3;stroke-linecap:round;stroke-linejoin:round;stroke-miterlimit:10;" d="
		M325.5,31c-5.8,0-5.7,34.1-5.7,38.5c0-2.3-0.1-0.3-0.3,6.1c1.2,10.4,2.3,20.8,3.1,31.3c3.4-11.7-1.3-25.6-1.6-37.3l0,0l0,0
		c0-3.4,0.2-36.7,3.8-36.7c1.3,7.1,9.5,33.2,3.1,39.6C329.3,69.8,326.8,31,325.5,31"/>
	<path style="fill:#FFFFFF;stroke:#FFFFFF;stroke-width:3;stroke-linecap:round;stroke-linejoin:round;stroke-miterlimit:10;" d="
		M313.4,37.1c-13.8,0,11.4,66.1,6.6,70.9c3.3-1.7-6.2-60.2-6.2-67.5c1.2,11.8,2.5,23.8,5.2,35.4C319,71.4,318.3,37.1,313.4,37.1"/>
	<path style="fill:#FFFFFF;stroke:#FFFFFF;stroke-width:3;stroke-linecap:round;stroke-linejoin:round;stroke-miterlimit:10;" d="
		M304.9,46.4c-13.8,0,15.7,74.6,15.7,74.6c0.6-0.3-16.4-63.5-16.1-70.8l0,0c4.3,8.9,6.7,18.3,7.3,28.2
		C312.9,75.2,311.2,46.4,304.9,46.4"/>
	<path style="fill:#FFFFFF;stroke:#FFFFFF;stroke-width:3;stroke-linecap:round;stroke-linejoin:round;stroke-miterlimit:10;" d="
		M296.4,57.4c-1.9,1.6-3.8,3.2-5.7,4.8c2.3,0.1,3.6-1,3.9-3.3l0,0l0,0l0,0c8.9,0,8.2,18.1,11.6,23.2l0,0c0,0,3.2,7.3-1.3-5.9
		C303.2,71.2,302.1,59.3,296.4,57.4"/>
	<path style="fill:#FFFFFF;stroke:#FFFFFF;stroke-width:3;stroke-linecap:round;stroke-linejoin:round;stroke-miterlimit:10;" d="
		M293.7,58.4c-4.5,1.1,18.4,50.7,21,55.9C312,109.4,289.9,60.3,293.7,58.4"/>
	<path style="fill:#FFFFFF;stroke:#FFFFFF;stroke-width:3;stroke-linecap:round;stroke-linejoin:round;stroke-miterlimit:10;" d="
		M288.5,60.2c-1.6,2.5-3.1,5-4.7,7.5c1.4-2.1,2.8-4.1,4.4-6c6.7,0,4,19.3,11.2,19.3C298.7,81,293.6,60.2,288.5,60.2"/>
	<path style="fill:#FFFFFF;stroke:#FFFFFF;stroke-width:3;stroke-linecap:round;stroke-linejoin:round;stroke-miterlimit:10;" d="
		M285.9,62.2c-1.6,15.7,15.5,48.4,25.9,58.8C304.7,121,288.8,60.8,285.9,62.2"/>
	<path style="fill:#FFFFFF;stroke:#FFFFFF;stroke-width:3;stroke-linecap:round;stroke-linejoin:round;stroke-miterlimit:10;" d="
		M281.6,64.3c-2.7-1.3,19.7,51.8,22.3,49.2c-5.4,2.7-19.4-47.5-22.6-47.5c8,5.1,8.2,16.7,14.6,23.1
		C293.5,79.5,288.7,71.2,281.6,64.3 M281,65.6 M280.9,65.6L280.9,65.6L280.9,65.6L280.9,65.6 M279,68.6L279,68.6
		C279.1,68.6,279.1,68.6,279,68.6C279.1,68.6,279.1,68.6,279,68.6"/>
	<path style="fill:#FFFFFF;stroke:#FFFFFF;stroke-width:3;stroke-linecap:round;stroke-linejoin:round;stroke-miterlimit:10;" d="
		M275.1,71.5c-0.9,6.6,28.1,48.8,29.1,47.8c-2,2-28-44.9-28.2-45.4l0,0l0,0c4.3,3.8,7.9,8.1,10.9,12.9
		C284.5,80.5,280.6,75.4,275.1,71.5"/>
	<path style="fill:#FFFFFF;stroke:#FFFFFF;stroke-width:3;stroke-linecap:round;stroke-linejoin:round;stroke-miterlimit:10;" d="
		M271.9,79.6c-1.6,1.1-3.3,2.3-4.9,3.4c18.6,0,20.7,41.8,36.4,40.7c-1.4-2.1-3-3.9-5-5.5c-3.4-4.2-24-37.5-29.3-36.9l0,0l0,0l0,0
		l0,0c2.8,1.7,9.4,3.1,12.6,7.8C278.4,85.9,275.2,82.8,271.9,79.6 M267.6,82L267.6,82L267.6,82z"/>
	<path style="fill:#FFFFFF;stroke:#FFFFFF;stroke-width:3;stroke-linecap:round;stroke-linejoin:round;stroke-miterlimit:10;" d="
		M262.9,83.7c0.4,6.7,27.6,27.7,33.5,32.3C286.5,104.2,277.1,90.8,262.9,83.7"/>
	<path style="fill:#FFFFFF;stroke:#FFFFFF;stroke-width:3;stroke-linecap:round;stroke-linejoin:round;stroke-miterlimit:10;" d="
		M261.8,84.6c17.4,0,31.5,40.1,45.4,49.3C306.9,134.2,266.4,84.6,261.8,84.6"/>
	<path style="fill:#FFFFFF;stroke:#FFFFFF;stroke-width:3;stroke-linecap:round;stroke-linejoin:round;stroke-miterlimit:10;" d="
		M267.4,98.1c-3.1-0.8-6.1-1.7-9.2-2.5c0,3.5,37.9,35.4,40.5,35.4c-12.6,0-24.9-26-34-32.8l0,0l0,0l0,0l0,0l0,0
		c4.3,0,25.9,22.1,27.2,20.8C287,112,277.6,98.1,267.4,98.1"/>
	<path style="fill:#FFFFFF;stroke:#FFFFFF;stroke-width:3;stroke-linecap:round;stroke-linejoin:round;stroke-miterlimit:10;" d="
		M264.1,106.1c-2.7-0.9-5.4-1.9-8.1-2.8c-6.3,6.3,41.6,28.7,45.9,32.3c-13.8-11.3-28.6-15.1-41-29.4c1.4,0.9,24.6,16.2,25.2,15.6
		C281.6,116.2,272.1,106.1,264.1,106.1 M256.7,104.4L256.7,104.4L256.7,104.4z"/>
	<path style="fill:#FFFFFF;stroke:#FFFFFF;stroke-width:3;stroke-linecap:round;stroke-linejoin:round;stroke-miterlimit:10;" d="
		M277.5,122.9c-2.6-1.3-17.5-3.4-18.5-6.3c0,8.9,36.9,24.6,44.6,24.6c-6.5-3.8-38.6-13.5-38.6-21.9l0,0l0,0l0,0
		C264.4,119.3,279.5,125.4,277.5,122.9"/>
	<path style="fill:#FFFFFF;stroke:#FFFFFF;stroke-width:3;stroke-linecap:round;stroke-linejoin:round;stroke-miterlimit:10;" d="
		M289.9,134.2c-1.8-0.9-28.7-12.9-30-10.4c-2.6,5.3,42.9,19,47.4,22c-9.5-9.5-24.6-6-34.1-15.5l0,0l0,0
		C273.3,130.4,290.8,137.9,289.9,134.2"/>
	<path style="fill:#FFFFFF;stroke:#FFFFFF;stroke-width:3;stroke-linecap:round;stroke-linejoin:round;stroke-miterlimit:10;" d="
		M328.2,156.4c-15.1,0-30.3,2.8-45.3-0.4l0,0l0,0l0,0l0,0c1.5,0,3,0,4.5,0c4.7-0.2,9.4-0.5,14.1-0.7c1.7,0,3.4-0.1,5.1-0.1l0,0l0,0
		l0,0l0,0l0,0l0,0c-3.7-2.8-6.1-2.7-11-2.7l0,0l0,0l0,0l0,0l0,0c0.3-0.5,0.5-0.9,0.8-1.4l0,0l0,0l0,0l0,0c3.1,0.3,6.2,0.7,9.4,1
		c-10.6-0.9-18.8-10.2-29.7-10.2l0,0l0,0l0,0c10.9,2.5,23.5,7.5,34.8,7.5c-10.2-4.2-25.9-3.8-34.1-12c1.4,0.5,24.4,8.7,25,7.5
		c1.9-3.7-39.4-12.3-39.4-12.2c0,4.9,22.3,10.5,26.2,10.5c-2.2-0.7-17.6-6.5-19.4-2.9c0,5.7,20.7,8,24.7,9c-5.3,0-32.7,0.9-10,1
		c-4.8,0.8-9.6,1.3-14.5,1.5c6.7,6.7,22.2,2.8,30.5,2.8c-2.4,0-21.3-1.4-21.3,2C283.1,170.2,324.3,154.5,328.2,156.4 M267.7,134.2
		c2.4,0.8,4.7,1.6,7.1,2.4C272.4,135.8,270.1,135,267.7,134.2 M292.5,150.3c0,0-0.1,0-0.1,0C292.4,150.3,292.4,150.3,292.5,150.3
		 M289.2,149.5C293.7,151.2,287.1,149,289.2,149.5 M287.2,151.3c2.7,0.3,5.3,0.7,8,1C287.3,154.2,284.6,153.8,287.2,151.3
		 M269.9,151.1L269.9,151.1L269.9,151.1"/>
	<path style="fill:#FFFFFF;stroke:#FFFFFF;stroke-width:3;stroke-linecap:round;stroke-linejoin:round;stroke-miterlimit:10;" d="
		M334,153.8c-0.5,0-1,0.1-1.5,0.1l0,0c-1.8,1.2-3.6,2.3-5.4,3.5C330,157.4,332.3,156.2,334,153.8"/>
	<path style="fill:#FFFFFF;stroke:#FFFFFF;stroke-width:3;stroke-linecap:round;stroke-linejoin:round;stroke-miterlimit:10;" d="
		M337.4,150.4c-1.6,1.1-3.2,2.1-4.8,3.2c2.1,0.1,4.3,0.3,6.4,0.7l0,0l0,0C338.5,153,337.9,151.7,337.4,150.4"/>
	<path style="fill:#FFFFFF;stroke:#FFFFFF;stroke-width:3;stroke-linecap:round;stroke-linejoin:round;stroke-miterlimit:10;" d="
		M422.8,6.4c-9.8,0-28.7,22.8-28.7,31.9l0,0l0,0l0,0l0,0l0,0l0,0l0,0l0,0l0,0l0,0l0,0c9-8.6,15.2-23.8,26.6-29.5
		c-10.3,11.2-18,27.7-26.3,40.5l0,0c-2.1,2.8-16.6,20.7-13.5,23.8C401.2,64.3,398.7,6.4,422.8,6.4"/>
	<path style="fill:#FFFFFF;stroke:#FFFFFF;stroke-width:3;stroke-linecap:round;stroke-linejoin:round;stroke-miterlimit:10;" d="
		M418.6,44.2c-9.8,0-21.2,7.3-27.3,14.5l0,0l0,0l0,0l0,0l0,0l0,0l0,0l0,0l0,0l0,0c6.5-6.5,14.2-10.5,23.2-12.1l0,0l0,0l0,0l0,0l0,0
		l0,0l0,0l0,0l0,0l0,0l0,0l0,0l0,0l0,0l0,0l0,0c-0.6,0.4-15.3,9.8-13.7,11C409.3,57.6,410.3,44.2,418.6,44.2 M414.7,44.8L414.7,44.8
		L414.7,44.8L414.7,44.8 M407.4,52.5L407.4,52.5L407.4,52.5"/>
	<path style="fill:#FFFFFF;stroke:#FFFFFF;stroke-width:3;stroke-linecap:round;stroke-linejoin:round;stroke-miterlimit:10;" d="
		M407.9,51.7c-0.3,0.3-0.5,0.5-0.8,0.8l0,0l0,0l0,0l0,0l0,0c-0.2,6.6-3.2,12.1-8.9,16.4l0,0c-1.9,1.5-2.4,3.3-1.7,5.5
		C397.9,71.9,407.1,52.1,407.9,51.7 M407.5,56.6L407.5,56.6L407.5,56.6"/>
	<path style="fill:#FFFFFF;stroke:#FFFFFF;stroke-width:3;stroke-linecap:round;stroke-linejoin:round;stroke-miterlimit:10;" d="
		M450,22.4c-16.6,0-29.5,21.4-41.2,30.7l0,0l0,0l0,0l0,0l0,0l0,0l0,0l0,0l0,0l0,0l0,0c11.6-4.4,23.8-12.4,32.8-20.9
		c1.5-1.1,3-2.4,4.3-3.7c0.1-0.1,0.3-0.3,0.4-0.4l0,0l0,0l0,0l0,0l0,0l0,0l0,0l0,0l0,0l0,0l0,0l0,0l0,0l0,0l0,0
		c-16.5,20.1-37.2,35-54.5,54.5c3.3,0.1,5.7-1.4,7.4-4.4l0,0C408.2,65.3,433.1,22.4,450,22.4"/>
	<path style="fill:#FFFFFF;stroke:#FFFFFF;stroke-width:3;stroke-linecap:round;stroke-linejoin:round;stroke-miterlimit:10;" d="
		M461.9,38.8c-6.3,0-48,11.3-46,19.3l0,0l0,0l0,0l0,0l0,0l0,0l0,0l0,0l0,0l0,0l0,0c12.8-5.5,26.3-17,40.9-17l0,0l0,0l0,0l0,0l0,0
		l0,0l0,0l0,0l0,0l0,0l0,0l0,0c-19.5,8.4-43.9,23.1-55.8,41.3C409.8,68.9,446.5,38.8,461.9,38.8"/>
	<path style="fill:#FFFFFF;stroke:#FFFFFF;stroke-width:3;stroke-linecap:round;stroke-linejoin:round;stroke-miterlimit:10;" d="
		M459.1,44.3c-3.3,2.6-6.9,3.9-10.7,3.9c0,0,0,0,0.1,0c-2.4,0-23.9,10.3-23.2,13.2l0,0l0,0l0,0l0,0l0,0l0,0
		c7.8-3.5,15.9-7.4,23-12.1l0,0l0,0l0,0l0,0l0,0l0,0l0,0l0,0l0,0l0,0l0,0l0,0l0,0l0,0l0,0c2-1.2,4.2-2.2,6.5-2.8l0,0l0,0l0,0l0,0
		l0,0l0,0l0,0l0,0l0,0l0,0l0,0l0,0l0,0l0,0c-4.9,3.8-54.8,48.2-57.4,46.9l0,0l0,0l0,0l0,0l0,0C404.5,88.9,451.3,40.4,459.1,44.3"/>
	<path style="fill:#FFFFFF;stroke:#FFFFFF;stroke-width:3;stroke-linecap:round;stroke-linejoin:round;stroke-miterlimit:10;" d="
		M460.6,54.4c-10.4,0-21.6,7.2-29,13.9c5.3-4.8,17.8-9.9,25.3-11.2l0,0l0,0l0,0l0,0l0,0l0,0l0,0l0,0l0,0l0,0l0,0l0,0
		c-7.1,5.2-47.5,42-49.6,40.4l0,0l0,0l0,0l0,0l0,0l0,0l0,0l0,0l0,0l0,0l0,0l0,0C421.3,88,443,54.4,460.6,54.4"/>
	<path style="fill:#FFFFFF;stroke:#FFFFFF;stroke-width:3;stroke-linecap:round;stroke-linejoin:round;stroke-miterlimit:10;" d="
		M468.9,51.5c-6.2,0-24.8,27-29.7,22.1c7.6,1.5,23.4-14,26.6-17.5l0,0l0,0l0,0l0,0l0,0l0,0l0,0l0,0l0,0l0,0l0,0l0,0
		c-7.3,11-20.1,24.5-32.3,30.7l0,0l0,0l0,0c-7.4,4.9-19,10-25.4,16.4C409.6,96.5,462.3,51.5,468.9,51.5"/>
	<path style="fill:#FFFFFF;stroke:#FFFFFF;stroke-width:3;stroke-linecap:round;stroke-linejoin:round;stroke-miterlimit:10;" d="
		M468.9,71.1c-6.5-3.3-20.1,6.9-24.9,10c5.8-3.7,16.3-8.4,23.3-8.4c-13.3,15.2-48.5,42.2-69.5,42.2
		C412.7,110.9,464.1,87.9,468.9,71.1 M468,71.9L468,71.9L468,71.9"/>
	<path style="fill:#FFFFFF;stroke:#FFFFFF;stroke-width:3;stroke-linecap:round;stroke-linejoin:round;stroke-miterlimit:10;" d="
		M485.7,75.7c-7.2-3.6-19.9,2.4-26.1,5.5l0,0l0,0l0,0l0,0l0,0c5.9-1.8,11.9-3,18-3.5l0,0l0,0l0,0l0,0l0,0l0,0l0,0l0,0
		c1.7,0,3.3-0.1,5-0.1l0,0l0,0l0,0l0,0l0,0l0,0l0,0l0,0l0,0l0,0l0,0l0,0l0,0l0,0c-7.4,2.6-85.2,43.7-86.4,41.4
		c3.5,3.5,36.5-15.2,39.2-16.1l0,0c0,0,0.1,0,0.1,0l0,0l0,0c2.3-0.7,4.4-1.7,6.4-3.1C450.4,99.8,481.2,80.7,485.7,75.7"/>
	<path style="fill:#FFFFFF;stroke:#FFFFFF;stroke-width:3;stroke-linecap:round;stroke-linejoin:round;stroke-miterlimit:10;" d="
		M475,88.9c-3.2-2.1-25,2.8-24.2,4.4c-0.8-1.5,24-3.4,26.7-1.3l0,0l0,0l0,0l0,0l0,0l0,0l0,0l0,0l0,0l0,0l0,0l0,0l0,0l0,0l0,0
		c-4.9,0.9-80.7,22.1-79.8,27.3c0,0,29.2-9.9,30.8-10.7C435.5,106.1,474,88.6,475,88.9"/>
	<path style="fill:#FFFFFF;stroke:#FFFFFF;stroke-width:3;stroke-linecap:round;stroke-linejoin:round;stroke-miterlimit:10;" d="
		M457.4,100.2c-9.5-3.2,7.5,6,5.9,4.8l0,0c0.9,0.9,1.9,1.9,2.8,2.8l0,0l0,0l0,0l0,0l0,0l0,0l0,0l0,0l0,0l0,0l0,0l0,0l0,0l0,0
		c-11.2-1.5-70.4,23.6-74.5,19.5l0,0l0,0l0,0l0,0l0,0l0,0l0,0l0,0l0,0l0,0c4.9-1,72-25.1,74.3-22.2
		C463.1,103.5,460.2,101.8,457.4,100.2"/>
	<path style="fill:#FFFFFF;stroke:#FFFFFF;stroke-width:3;stroke-linecap:round;stroke-linejoin:round;stroke-miterlimit:10;" d="
		M472.3,111.8c-2.6-1.3-20.7-4.7-21.9-1c8.7,1.7,21.6-1.9,25.7,8.5l0,0l0,0l0,0l0,0l0,0l0,0l0,0l0,0l0,0l0,0
		c-15.6-4.2-81.2,3.4-91.4,17.1c5.3-7.2,69.6-17.5,79.8-17.5c4.7,1,9.5,1.8,14.3,2.4C476.6,118.1,474.5,115,472.3,111.8
		 M470.3,119.1L470.3,119.1L470.3,119.1"/>
	<path style="fill:#FFFFFF;stroke:#FFFFFF;stroke-width:3;stroke-linecap:round;stroke-linejoin:round;stroke-miterlimit:10;" d="
		M480.2,122.9c-3.5-1.3-6.9-2.5-10.4-3.8l0,0l0,0l0,0l0,0l0,0l0,0l0,0c2.7,1.7,24.1,16.7,27.6,13.2
		C498.5,130.1,482.2,123.6,480.2,122.9"/>
	<path style="fill:#FFFFFF;stroke:#FFFFFF;stroke-width:3;stroke-linecap:round;stroke-linejoin:round;stroke-miterlimit:10;" d="
		M495.5,132.5C493.2,132.5,498.4,132.5,495.5,132.5"/>
	<path style="fill:#FFFFFF;stroke:#FFFFFF;stroke-width:3;stroke-linecap:round;stroke-linejoin:round;stroke-miterlimit:10;" d="
		M496.3,132.5c-0.7-0.3-2.2-1-3.1-1l0,0l0,0l0,0l0,0l0,0l0,0l0,0l0,0l0,0l0,0c-18.5-8.8-74.2-3.4-92.7,6.4
		C429.6,122.4,465.3,136.3,496.3,132.5"/>
	<path style="fill:#FFFFFF;stroke:#FFFFFF;stroke-width:3;stroke-linecap:round;stroke-linejoin:round;stroke-miterlimit:10;" d="
		M491.6,132.4c-11.9,0-28.5-6.2-39.9-2.4l0,0c13.8,0,14.5,0.5,28.3,2.3l0,0c2.1,0.2,4.3,0.5,6.4,0.7l0,0l0,0l0,0l0,0l0,0l0,0l0,0
		l0,0c-33.8,4.4-67.9,7.1-102,7.1l0,0C420.2,149.6,455.8,132.4,491.6,132.4"/>
	<path style="fill:#FFFFFF;stroke:#FFFFFF;stroke-width:3;stroke-linecap:round;stroke-linejoin:round;stroke-miterlimit:10;" d="
		M491,144.5c-2.8-1.4-5.6-1.4-8.4-1.4c-11.5-1.8-23.1-2.9-34.7-3.3c13.5,0,26.9,3.4,40.2,5.3c-22.4,3.3-45.1,2.4-67.6,0.7
		c-7.6-0.6-35.7-8.4-41.9-2.1l0,0l0,0l0,0l0,0l0,0l0,0l0,0C403.7,148.3,474.3,127.8,491,144.5 M483.3,143.2L483.3,143.2L483.3,143.2
		 M482.4,143.1h-0.1H482.4 M482.9,144.6L482.9,144.6L482.9,144.6 M482.9,144.6L482.9,144.6L482.9,144.6L482.9,144.6"/>
	<path style="fill:#FFFFFF;stroke:#FFFFFF;stroke-width:3;stroke-linecap:round;stroke-linejoin:round;stroke-miterlimit:10;" d="
		M493.8,167.8c-3,0-75.4-17.9-75.8-18.7C444.4,155.8,468.2,159.5,493.8,167.8"/>
	<path style="fill:#FFFFFF;stroke:#FFFFFF;stroke-width:3;stroke-linecap:round;stroke-linejoin:round;stroke-miterlimit:10;" d="
		M491.1,167.4c-1.4-0.3-2.7-0.7-4.1-1l0,0l0,0l0,0l0,0l0,0l0,0l0,0c-30.3-8.1-82.9,3.3-109.4-12.2
		C401.3,168.1,463.7,167.4,491.1,167.4"/>
	<path style="fill:#FFFFFF;stroke:#FFFFFF;stroke-width:3;stroke-linecap:round;stroke-linejoin:round;stroke-miterlimit:10;" d="
		M465.4,171.3c-7.4-3.7-26.8-3-30.9-11.2c3.3,2.9,56.9,20.3,48.4,33.1C486,191.2,468,173,465.4,171.3"/>
	<path style="fill:#FFFFFF;stroke:#FFFFFF;stroke-width:3;stroke-linecap:round;stroke-linejoin:round;stroke-miterlimit:10;" d="
		M461.5,175.2c-14.2-6.3-64.6-24-78.5-16.1c19.6-11.1,92.5,40.6,98.7,34.4c-1-1.6-2-3.1-3-4.7l0,0l0,0l0,0l0,0l0,0
		C473.9,183.1,468.1,178.6,461.5,175.2"/>
	<path style="fill:#FFFFFF;stroke:#FFFFFF;stroke-width:3;stroke-linecap:round;stroke-linejoin:round;stroke-miterlimit:10;" d="
		M434.6,169.5c-8.2-4.1,8.7,5.8,10.4,7.2c10.7,9.3,19.3,15.1,18.7,32.3l0,0l0,0l0,0l0,0l0,0l0,0l0,0c-5.6-27.1-60-44.6-85.7-44.6
		c17.2,0,41.4,12.5,56.2,20.6c3.9,2.1,28.7,26.9,29.5,26.7C480.9,206.8,442.5,172.6,434.6,169.5z"/>
	<path style="fill:#FFFFFF;stroke:#FFFFFF;stroke-width:3;stroke-linecap:round;stroke-linejoin:round;stroke-miterlimit:10;" d="
		M427.3,179.4c1.3-2.7,27,28.8,27,34.2l0,0l0,0l0,0l0,0l0,0l0,0c-6.3-20.9-49.4-36.6-68.7-41c1.9,11.3,38.2,14.4,47,20.6
		c5.6,4,19.4,29.6,24.3,29.6C464.7,222.8,438.4,162.8,427.3,179.4"/>
	<path style="fill:#FFFFFF;stroke:#FFFFFF;stroke-width:3;stroke-linecap:round;stroke-linejoin:round;stroke-miterlimit:10;" d="
		M327.5,157.2c-32.5,0-2.8,90.9-12.2,97.2c2.9-2.9,8.9-61.6,5.3-64c-6.7,18.3-7,38.3-6.4,57.5l0,0l0,0l0,0l0,0
		C310.8,227.1,303.5,169.2,327.5,157.2"/>
	<path style="fill:#FFFFFF;stroke:#FFFFFF;stroke-width:3;stroke-linecap:round;stroke-linejoin:round;stroke-miterlimit:10;" d="
		M320.4,202.2c-5.7,0,0.8,53.6,0.8,60.6l0,0l0,0c-0.2-8.6,1.5-25.2-5.2-31.9c-1.1,5.4-1.9,38.9,6,38.9
		C314.4,266,321.7,202.2,320.4,202.2"/>
	<path style="fill:#FFFFFF;stroke:#FFFFFF;stroke-width:3;stroke-linecap:round;stroke-linejoin:round;stroke-miterlimit:10;" d="
		M324.3,221.2c-3.2,0,1.9,45,3.4,49.6l0,0l0,0l0,0l0,0l0,0l0,0c-1.9-3.6-10.4-19.1-8.2-23.4c0,2.1,10.3,28.9,10.4,28.8
		c3.2-1.1-3.9-22.3-3.9-25.4l0,0C326,248.1,325.6,221.2,324.3,221.2"/>
	<path style="fill:#FFFFFF;stroke:#FFFFFF;stroke-width:3;stroke-linecap:round;stroke-linejoin:round;stroke-miterlimit:10;" d="
		M328.3,208.6c0,23,11.9,44.1,11.9,67l0,0l0,0c-1.5-3.5-8.6-24.2-13.4-24.8c0.9,0.1,13.6,31.1,15.9,28.8
		C354.4,267.9,328.3,223.3,328.3,208.6"/>
	<path style="fill:#FFFFFF;stroke:#FFFFFF;stroke-width:3;stroke-linecap:round;stroke-linejoin:round;stroke-miterlimit:10;" d="
		M330.9,213.2c-5.5,8.3,17.5,75.3,23.8,73.2c-14.4,0-0.2-63.1-15.1-63.1c-2.3,0.6,9.8,48.8,11.5,54.7
		C345.2,266.4,318.4,225.7,330.9,213.2"/>
	<path style="fill:#FFFFFF;stroke:#FFFFFF;stroke-width:3;stroke-linecap:round;stroke-linejoin:round;stroke-miterlimit:10;" d="
		M345.5,217.6c5.1,0,19.4,57.9,19.4,64.8c-3-6.9-9.9-38.7-19.2-38.7c1.2,4.8,19.9,47.2,22.7,45.8
		C382.1,280.4,338.8,230.1,345.5,217.6"/>
	<path style="fill:#FFFFFF;stroke:#FFFFFF;stroke-width:3;stroke-linecap:round;stroke-linejoin:round;stroke-miterlimit:10;" d="
		M350.8,220.6c1.2,0,16.4,61.5,23.8,68.9c-1.1-2.4-2.2-4.7-3.3-7.1c-0.4-1.5-3.9-14.6-6.2-14.6c-1.1-2.4-10.6-20.2-9.5-21.3
		c0,6.5,13.2,46.9,20.1,46.9C370.6,293.4,363.2,220.6,350.8,220.6"/>
	<path style="fill:#FFFFFF;stroke:#FFFFFF;stroke-width:3;stroke-linecap:round;stroke-linejoin:round;stroke-miterlimit:10;" d="
		M363.4,235.6c1.3-0.6,20.9,42.9,22.7,47.5c-1.4-2.4-23.1-36.8-24-35.7c4.4,9.5,16.6,48.1,30.5,48.1
		C391.4,295.5,363.2,235.8,363.4,235.6"/>
	<path style="fill:#FFFFFF;stroke:#FFFFFF;stroke-width:3;stroke-linecap:round;stroke-linejoin:round;stroke-miterlimit:10;" d="
		M356,222.3c-3.1,3.6,8.5,12.4,8.2,13.1C363.8,234.5,356.3,222,356,222.3"/>
	<path style="fill:#FFFFFF;stroke:#FFFFFF;stroke-width:3;stroke-linecap:round;stroke-linejoin:round;stroke-miterlimit:10;" d="
		M367.9,240.5C366.8,240.5,370.1,240.5,367.9,240.5"/>
	<path style="fill:#FFFFFF;stroke:#FFFFFF;stroke-width:3;stroke-linecap:round;stroke-linejoin:round;stroke-miterlimit:10;" d="
		M361.9,217.8c-0.2,0-0.4,0-0.6,0l0,0c4.4,6.3,16.1,17.9,16.1,25.9l0,0c7.9,9.2,19,22.6,19,35.5c-4.4-7.1-18.3-38.2-28.5-38.2
		c3.3,4.9,37.6,43.8,33.9,47.5C413.4,276.9,355.5,224.2,361.9,217.8"/>
	<path style="fill:#FFFFFF;stroke:#FFFFFF;stroke-width:3;stroke-linecap:round;stroke-linejoin:round;stroke-miterlimit:10;" d="
		M364.2,208.3c-1.7,6.4,30.1,53.3,32.3,62.3c-1.7-5-6.3-18.3-11.8-20.1c3.9,9.6,6.7,22.2,14.3,29.8c-17.9-11.9-4.7-72.1-34.6-72.1
		C364.3,208.2,364.3,208.3,364.2,208.3"/>
	<path style="fill:#FFFFFF;stroke:#FFFFFF;stroke-width:3;stroke-linecap:round;stroke-linejoin:round;stroke-miterlimit:10;" d="
		M363.7,199.1c20.9,0,40.2,55.5,40.2,70.7l0,0l0,0l0,0l0,0c-2-7.1-8.4-35.3-19.4-35.3c7.7,13.5,14.2,27.7,21.2,41.6
		C407.1,266.2,372.4,190.4,363.7,199.1"/>
	<path style="fill:#FFFFFF;stroke:#FFFFFF;stroke-width:3;stroke-linecap:round;stroke-linejoin:round;stroke-miterlimit:10;" d="
		M388.8,226.9c4.7-4.7,32.7,41.5,36.7,41.5c-0.4-2.6-0.9-5.1-1.3-7.7l0,0l0,0l0,0C417,252.1,399.9,229.9,388.8,226.9"/>
	<path style="fill:#FFFFFF;stroke:#FFFFFF;stroke-width:3;stroke-linecap:round;stroke-linejoin:round;stroke-miterlimit:10;" d="
		M371.6,197.2c6.2,3.1,60.7,68.3,54.7,69.8C439.3,260.5,378.4,203.3,371.6,197.2"/>
	<path style="fill:#FFFFFF;stroke:#FFFFFF;stroke-width:3;stroke-linecap:round;stroke-linejoin:round;stroke-miterlimit:10;" d="
		M389.9,203c-0.4,0.8,43.4,41,46.3,46.7l0,0l0,0l0,0l0,0l0,0l0,0l0,0c-8.7-8.3-25.6-29.8-39-29.8c5.3,5.1,33,36.5,40.3,32.8
		C414.3,252.7,416.3,203,389.9,203"/>
	<path style="fill:#FFFFFF;stroke:#FFFFFF;stroke-width:3;stroke-linecap:round;stroke-linejoin:round;stroke-miterlimit:10;" d="
		M363.1,180.8c3.5-0.4,21.3,24.6,27.5,22.6C388.5,201.1,365,179.5,363.1,180.8"/>
	<path style="fill:#FFFFFF;stroke:#FFFFFF;stroke-width:3;stroke-linecap:round;stroke-linejoin:round;stroke-miterlimit:10;" d="
		M366.4,172.8c8.4,31.3,69.7,29.7,69.7,72l0,0l0,0l0,0l0,0l0,0l0,0c-10-17.2-25.9-29.1-42.7-39.2c5.5,4.8,40.5,44.5,44.9,42.4
		c10.6-5-33.5-48.7-40.8-51.6C390.6,191.1,375.2,172.8,366.4,172.8"/>
	<path style="fill:#FFFFFF;stroke:#FFFFFF;stroke-width:3;stroke-linecap:round;stroke-linejoin:round;stroke-miterlimit:10;" d="
		M425.8,189.2c8.4,0,23.2,21.9,23.2,29.9l0,0l0,0l0,0l0,0l0,0l0,0c-11.8-32.4-57.9-29.6-80.1-51.2c14.8-3.4,90,56.4,82.1,64.3
		C447.2,232.2,443.1,189.2,425.8,189.2"/>
	<path style="fill:#FFFFFF;stroke:#FFFFFF;stroke-width:3;stroke-linecap:round;stroke-linejoin:round;stroke-miterlimit:10;" d="
		M415.5,195.5c13.8,0,23.5,34.3,23.5,44.4c-7.8-11.6-2.8-24.3-13.7-35.2l0,0l0,0C422,201.6,418.8,198.6,415.5,195.5"/>
	<path style="fill:#FFFFFF;stroke:#FFFFFF;stroke-width:3;stroke-linecap:round;stroke-linejoin:round;stroke-miterlimit:10;" d="
		M403.4,200c15,9.2,24.3,24.3,36.5,36.5l0,0l0,0l0,0l0,0l0,0c-3.9-8.9-14.5-31-26.9-31l0,0C409.8,203.7,406.6,201.8,403.4,200"/>
	<path style="fill:#FFFFFF;stroke:#FFFFFF;stroke-width:3;stroke-linecap:round;stroke-linejoin:round;stroke-miterlimit:10;" d="
		M408.3,50.7c-0.5-0.2-0.9,0.3-1.3,0.3c-9.7,7.5-14.5,18.9-23.2,27.6c7.8-6.4,12.6-23.2,22.7-26.1C402.9,63.6,412,50.7,408.3,50.7"
		/>
	<path style="fill:#FFFFFF;stroke:#FFFFFF;stroke-width:3;stroke-linecap:round;stroke-linejoin:round;stroke-miterlimit:10;" d="
		M397.9,113.4c-5.7,2.4-11.1,5.2-16.4,8.4l0,0l0,0l0,0l0,0l0,0l0,0l0,0l0,0l0,0l0,0l0,0c-5,2.7-9.6,5.9-13.8,9.8
		C370.5,128.9,393.6,113.4,397.9,113.4"/>
	<path style="fill:#FFFFFF;stroke:#FFFFFF;stroke-width:3;stroke-linecap:round;stroke-linejoin:round;stroke-miterlimit:10;" d="
		M407.3,104.1c-1.6,0.8-27.1,15.5-25.7,17.7C389.4,117.4,397.2,104.1,407.3,104.1"/>
	<path style="fill:#FFFFFF;stroke:#FFFFFF;stroke-width:3;stroke-linecap:round;stroke-linejoin:round;stroke-miterlimit:10;" d="
		M407.6,97L407.6,97L407.6,97L407.6,97L407.6,97L407.6,97L407.6,97L407.6,97L407.6,97L407.6,97L407.6,97L407.6,97L407.6,97L407.6,97
		c-12.3,7.3-22.9,16.8-34.3,25.4C377.9,117.6,403.5,97,407.6,97"/>
	<path style="fill:#FFFFFF;stroke:#FFFFFF;stroke-width:3;stroke-linecap:round;stroke-linejoin:round;stroke-miterlimit:10;" d="
		M397.6,94.3L397.6,94.3L397.6,94.3L397.6,94.3L397.6,94.3L397.6,94.3L397.6,94.3L397.6,94.3L397.6,94.3L397.6,94.3
		c-7.7,5.8-13.7,12.9-20.5,19.7C377.7,113.4,398.9,95.6,397.6,94.3"/>
	<path style="fill:#FFFFFF;stroke:#FFFFFF;stroke-width:3;stroke-linecap:round;stroke-linejoin:round;stroke-miterlimit:10;" d="
		M391.6,128.4L391.6,128.4L391.6,128.4L391.6,128.4c-2.2,0.2-19,3.1-19,6.9l0,0l0,0l0,0l0,0l0,0l0,0l0,0l0,0l0,0l0,0l0,0l0,0l0,0
		l0,0l0,0l0,0C375.4,133.8,388.1,126.7,391.6,128.4"/>
	<path style="fill:#FFFFFF;stroke:#FFFFFF;stroke-width:3;stroke-linecap:round;stroke-linejoin:round;stroke-miterlimit:10;" d="
		M383.8,136.9c-6,1.2-17.6,3-22.1,7.5C364.2,144.2,384.3,137.4,383.8,136.9"/>
	<path style="fill:#FFFFFF;stroke:#FFFFFF;stroke-width:3;stroke-linecap:round;stroke-linejoin:round;stroke-miterlimit:10;" d="
		M383.8,140.7c-4.6,1.5-10.4,3.7-15.3,3.7c-1.7,0.6-11.3,3.9-0.5,1.5C373.8,145.7,379,143.9,383.8,140.7"/>
	<path style="fill:#FFFFFF;stroke:#FFFFFF;stroke-width:3;stroke-linecap:round;stroke-linejoin:round;stroke-miterlimit:10;" d="
		M378.8,143.7c-1.5,0.5-18.8,2.3-18.8,4.4C360,151.2,377.6,143.7,378.8,143.7"/>
	<path style="fill:#FFFFFF;stroke:#FFFFFF;stroke-width:3;stroke-linecap:round;stroke-linejoin:round;stroke-miterlimit:10;" d="
		M376.5,151.6c-4,1.2-17.7-2.8-20.4,1.8C360.1,153.1,373.8,156.2,376.5,151.6"/>
	<path style="fill:#FFFFFF;stroke:#FFFFFF;stroke-width:3;stroke-linecap:round;stroke-linejoin:round;stroke-miterlimit:10;" d="
		M364.2,34.2c-0.7,1.5-1.4,3-2.1,4.5l0,0l0,0l0,0l0,0l0,0l0,0l0,0l0,0l0,0l0,0l0,0C362.8,37.2,363.5,35.7,364.2,34.2"/>
	<path style="fill:#FFFFFF;stroke:#FFFFFF;stroke-width:3;stroke-linecap:round;stroke-linejoin:round;stroke-miterlimit:10;" d="
		M391.1,24.6c-0.3,0.6-2.6,3.1-3.6,3.1c0.9-0.5,1.8-1.1,2.7-1.6c0,0,0.1,0,0.1,0C392.5,26.3,392.8,25.8,391.1,24.6"/>
	<path style="fill:#FFFFFF;stroke:#FFFFFF;stroke-width:3;stroke-linecap:round;stroke-linejoin:round;stroke-miterlimit:10;" d="
		M384.9,24.3c-0.4,1.3-0.7,2.6-1.1,3.9l0,0l0,0l0,0l0,0l0,0l0,0l0,0l0,0l0,0l0,0l0,0l0,0l0,0c-0.1,0.2-0.1,0.3-0.2,0.5l0,0l0,0
		C384.9,29.3,384.9,27,384.9,24.3z"/>
	<path style="fill:#FFFFFF;stroke:#FFFFFF;stroke-width:3;stroke-linecap:round;stroke-linejoin:round;stroke-miterlimit:10;" d="
		M393,23c-2.8-0.9-7.6,6-3,2.9c0,0,0.1,0,0.1,0C396.4,29,393.7,23,393,23"/>
	<path style="fill:#FFFFFF;stroke:#FFFFFF;stroke-width:3;stroke-linecap:round;stroke-linejoin:round;stroke-miterlimit:10;" d="
		M385.4,24.2c-0.2,0-0.3,0.1-0.5,0.1c-0.3,1.3-0.7,2.5-1,3.8l0,0l0,0l0,0l0,0l0,0l0,0l0,0l0,0l0,0l0,0l0,0l0,0l0,0
		c-0.1,0.2-0.1,0.3-0.2,0.5l0,0l0,0C383.9,31.5,384.4,30,385.4,24.2 M384.5,29.7C384.4,29.8,384.4,29.8,384.5,29.7"/>
	<path style="fill:#FFFFFF;stroke:#FFFFFF;stroke-width:3;stroke-linecap:round;stroke-linejoin:round;stroke-miterlimit:10;" d="
		M388.5,24.9c-1.3,1.5-2.6,3-3.9,4.5C385.9,27.9,387.2,26.4,388.5,24.9"/>
	<path d="M467.5,72.6c-30.4,8.2-51.2,30.9-78.7,44.7C415.4,104,446,94.1,467.5,72.6z"/>
	<path d="M487.8,145.2c-33.1-7.5-75.7-10.9-108.7-1.4C410.8,148.3,456.7,155.6,487.8,145.2z"/>
	<path style="fill:#FFFFFF;stroke:#FFFFFF;stroke-width:3;stroke-linecap:round;stroke-linejoin:round;stroke-miterlimit:10;" d="
		M385.8,250.8c-0.1,0-0.1,0-0.2,0C383.7,251.1,383.8,251.1,385.8,250.8"/>
	<path d="M420.7,9.1c-7.8,5.6-38.1,36.7-40.9,46.5c9.1-12,17.2-24.8,26.6-36.6c-4.7,1.5-7.5,10.6-12.7,10.9c3.5-0.2-2.2-3.5-3.3-3.5
		c-5.3,4.6-9.5,10-12.7,16.2l0,0c-4.3,6-10.9,14.9-12.6,22.2l0,0l0,0c-1.6,2.4-3.1,4.8-4.7,7.2c0.9-2.1,1.7-4.2,2.6-6.3
		c1.4-2.6,24.2-38.8,20.2-40.6c-6.5-2.9-26.3,47-27.5,46.4c-2.7-1.3,25.6-47.1,22.1-52.8c-7.2,6.8-16,50.6-25.3,50.6
		c-2.2-1.1,9.1-25.8,10.4-29.2c-5.5,0-9,13.4-10.7,16.8l0,0l0,0l0,0c-3,9.9-3.1,30.8-11.6,38c1.8-5.9,15.6-65.5,15.1-65.5
		c-2.2,5-15.5,53.6-17,53.6c5.2,0,1.6-38.9,4.2-40.2c-13.8,7.4-8.1,42.5-11.2,54.9c4.9-20.5,3.7-41.8,3.7-62.7
		c-13.3,13.3,8.3,62.8-7.3,70.6c-4.5,0,4.2-66.7-2.1-73c-16,16-2.2,54.7-2.2,74.3c-0.2-22.5-8.3-44.1-8.3-66.7
		c-1.4,13.7,16.2,57.4,6.2,67.4c1.3-0.7-11.1-54.8-15-58.7c-0.3,7,17.3,70.1,16.1,70.7c2.7-1.3-24.1-55.7-28-60.8
		c4.7,18,6.1,41.9,20,55.8c0.1-0.1-20.5-52.7-26.1-52.7c2,7.9,13.9,59.1,23.7,59.1c-11.3,0-17.2-55.5-31.5-55.5
		c2,5.3,24.3,45.9,22.6,47.6c-2.1,1.1-23.9-35.2-28.1-39.4c4.4,19.1,19,29.5,28.2,45.5c-1.2,1.2-28.3-39.2-34-39.2
		c-3.6,3.6,36.8,35.6,33.4,43.9c-16.2-5.1-20.3-38.5-40.2-38.5c0,19,32.9,35.3,44.3,47.4c-8.9-9.4-28.6-34.3-43-34.3
		c9.2,7.2,21.1,32.8,34,32.8c-14.3,0-25.1-20.1-37.7-25.1c10.8,11.6,31.1,18.9,39.5,30.7c-7.5-10.5-23.5-10.9-33.9-16.9
		c10.5,6.1,27.8,12.7,36.4,19.1c-7-5.3-20.1-7.1-28.7-9.3c9.9,5.8,21.9,15.5,34.1,15.5c-7.8-7.8-23.1-0.7-31.1-8.7
		c7.6,3.2,28.9,4.4,33.2,13.1c-10.7-3.9-22.3-7.5-33.7-8.5c6.3,2.5,40.9,13.4,19.2,10.6c3.7,0,7.8,2.7,11.2,2.7
		c-6.4,0.1-12.8,0.3-19.2,0.7c-2.9-0.4,52.2,1.3,51.7-1.4c-27.5,14.2-28.5,62.8-24.2,91.3c-0.2-18.9,0.2-38.5,6.6-56.5
		c-1.8-0.6,0.6,68.9,1,70.1c-1.7-5.2-6-57.6-1.1-57.6c-4.3,0,4.7,61.7,7.8,67.9c-2.9-11.6-14.1-39.3-3.9-49.5
		c-10.5,10.5,9.5,45.4,15.8,54.9c-4.5-14.8-19.3-50.8-9.7-66.2c-9,14.5,13.2,57.9,20.7,69.1c-1.6-5.1-15.7-53.3-11.6-54.7
		c7.4,0,21.1,51.9,24.8,59.2c-2.4-7.6-12.6-64.8-19.5-64.8c18.4,6.9,20.9,56.4,28.2,72.1c-6.8-23.2-18.9-44.8-23.7-68.6
		c20.8,10.4,23.9,45.4,36.1,63.1c-9.3-18.7-30.4-37.9-30.4-60c17.3,13.7,30.7,36,40.4,55.4c0-9.5-39.9-56.5-35.1-61.3
		c14.8,14.6,28.4,33.6,36.2,53c0-23.8-21.3-43.5-33.4-61.7c24.8,12.4,23.5,43.6,39.9,59.6c-4.9-22-19.2-49.1-35.3-65.2
		c11.8,10.3,49.4,37.8,54.2,52.4c-4.2-12.6-37.5-58.8-52.9-58.8c13.1-3.9,56.3,40.8,65.1,50.7c-3.3-4.8-3.9-6.1-1.9-3.9
		c-6.4-7.3-70.4-51.2-70.4-62.9l0,0c34.8,0,47.2,51.2,74.7,64.9c5.7-34.5-52.3-52.7-70.7-71.1c0,7.7,26.6,18.5,32.2,22.3
		c4.9,2.9,9.9,5.9,14.8,8.8l0,0c9.2,0,26.6,21.6,26.6,30.8c1.5-15.8-51.5-73-71-68.7c20.8,20.2,70.6,18.9,80.1,50.1
		c-3.6-14.1-63.6-49.8-65.1-46.7c24,0,54.1,26.8,69.6,42.3c0-29.8-51.8-49.2-75.9-49.2c13.7-0.2,33.7,9.1,46.5,13.5
		c24.1,8.3,22,13.8,39.3,31.1c1.4-41.4-51.4-41.3-79.8-48.4c-4.6-2.1,2.4-0.9,3-0.9c24.4,0,74.2,8.8,90.4,29.3
		c-10.9-22-37.7-25-59.2-28.3c-11-1.7-56.2-13-62-7.1c40.3,0,90,3.3,129,13.7c-5.7-3.3-126.7-29.1-126.7-17.3
		c0-1.8,16.8-4.4,18.2-4.4c-3.4,0.7-6.7,1.5-10.1,2.2c-3.4,2.7-4.7,2.5-3.8-0.7c6.5-2.4,13.2-4,20.1-4.7l0,0
		c28.2,0,82.6-7.9,95.8-7.9l0,0c-10.8-2.2-17.5-2.3-28.4-2.3l0,0c-2.8,0.5-52.8,9.5-52.8,8c20.6-15,69.3-12.4,91.9-7.2
		c-9.9-2.3-17.4-11.4-28-11.4c-15.6,2.4-87.5,9.2-98.5,23.1c13.3-3.2,101.5-35.8,109.2-24.5c-16.4-24.1-80.9,17.7-102,17.7
		c5.7-12,76.5-26.7,86.5-26.7c1.5,0,9,2.5,4.5-2l0,0c-13-5.3-20.6-0.5-34.1,4.3c-8.5,3.8-22.4,4.3-29.5,9.2
		c11.7-4.4,71.5-32.6,77.6-26.5c-14-7.1-21.6,7.8-34.4,7.8c-2.1,1-4.3,2.1-6.4,3.1l0,0l0,0c0,0-0.1,0-0.1,0l0,0
		c-3.1,1.7-36,19.4-39.3,16.1c1.4,2.7,85.1-41.4,81.3-41.4l0,0l0,0l0,0l0,0l0,0l0,0l0,0l0,0c-22.5,3.1-40.8,16.7-60.4,27.1
		c-13.9,7.4-38.6,13.3-49.6,24.2c16.9-16.8,44.1-32.3,65.3-42.9l0,0l0,0l0,0c4.3-2.7,28.8-30,31.6-30.1
		c-7.2,0.4-33.1,22.6-39.1,26.7c-16.1,11.1-39.3,23.4-52.7,37.3c26-21.9,58.7-39.9,82.6-63.3c-5,4.8-30,14.1-38.9,21
		c-13.6,10.6-26.7,21.9-39.6,33.4c17-26.3,55.1-48.4,79.6-67.4c-2.2,0.9-4.3,1.9-6.5,2.8C431,59.6,418,71.5,402.5,83.3
		c2.9-8.6,53.8-42,53.9-41.8c-16.2-9.7-47.4,25.2-57.3,35.4l0,0c-2.2,2.2-4.7,4.1-7.3,5.8c14.3-7.1,43.8-40.7,53.9-55.6
		c-1.3,1.3-2.8,2.6-4.3,3.7c-17.7,14.5-33.7,21.8-45.5,42.6c-0.8-2.2-0.2-4,1.7-5.5l0,0c7.1-4.2,9.5-9.6,7.2-16.1
		c-3,1.4-20.5,27.4-21.5,26.2c4.5-4.6,28.5-25.6,30.5-30c1-2.2-33.6,25.8-33.4,25.8c-3.8-3.8,12.7-19.7,13.7-23.8l0,0
		C400.8,35,410,21.4,420.7,9.1"/>
	<path style="fill:#FFFFFF;stroke:#FFFFFF;stroke-width:3;stroke-linecap:round;stroke-linejoin:round;stroke-miterlimit:10;" d="
		M328.5,208.5c0.8,2,1.5,4.1,2.3,6.1C330,212.6,329.3,210.5,328.5,208.5"/>
	<path style="fill:#FFFFFF;stroke:#FFFFFF;stroke-width:3;stroke-linecap:round;stroke-linejoin:round;stroke-miterlimit:10;" d="
		M320.6,157.2c-16.6,8.3-87,105.6-63.2,117.5C266.2,237.5,283.2,175.9,320.6,157.2 M316,161L316,161L316,161"/>
	<path style="fill:#FFFFFF;stroke:#FFFFFF;stroke-width:3;stroke-linecap:round;stroke-linejoin:round;stroke-miterlimit:10;" d="
		M305.3,173.6C305.3,173.5,305.3,173.5,305.3,173.6C305.3,173.5,305.3,173.5,305.3,173.6"/>
	<path style="fill:#FFFFFF;stroke:#FFFFFF;stroke-width:3;stroke-linecap:round;stroke-linejoin:round;stroke-miterlimit:10;" d="
		M324.2,161.8C323.3,163.7,323.3,163.7,324.2,161.8"/>
	<path style="fill:#FFFFFF;stroke:#FFFFFF;stroke-width:3;stroke-linecap:round;stroke-linejoin:round;stroke-miterlimit:10;" d="
		M320.6,170.3c-21.8,0-78.4,95.2-58.5,105.2C262.1,237.7,285.7,187.8,320.6,170.3"/>
	<path style="fill:#FFFFFF;stroke:#FFFFFF;stroke-width:3;stroke-linecap:round;stroke-linejoin:round;stroke-miterlimit:10;" d="
		M74.4,26.2C86.8,32.4,94,40.7,94,44l0,0l0,0l0,0l0,0l0,0l0,0l0,0l0,0l0,0l0,0l0,0l0,0l0,0l0,0c-3.2-4.7-7.4-8.2-12.6-10.5l0,0l0,0
		l0,0l0,0l0,0l0,0l0,0l0,0l0,0l0,0l0,0l0,0l0,0l0,0l0,0l0,0c8.4,9.8,16,20.8,25.1,29.9c1.9,1.8,3.9,3.6,5.8,5.4
		C94.7,61.3,92,32.1,74.4,26.2"/>
	<path style="fill:#FFFFFF;stroke:#FFFFFF;stroke-width:3;stroke-linecap:round;stroke-linejoin:round;stroke-miterlimit:10;" d="
		M96.8,38.3c15.6,4.5,24.7,26.9,33.6,38.7c1.1,2,2.2,4.1,3.3,6.1c-1.8-2.2-3.6-4.5-5.4-6.7l0,0l0,0c-4.7-6.9-9.5-13.7-14.4-20.5l0,0
		C111.6,51.4,103.1,38.3,96.8,38.3"/>
	<path style="fill:#FFFFFF;stroke:#FFFFFF;stroke-width:3;stroke-linecap:round;stroke-linejoin:round;stroke-miterlimit:10;" d="
		M103.6,35.4c7.3,0,35,46.7,34.5,47.2c0.5-0.3-20.7-33.1-21.8-35.7l0,0l0,0l0,0l0,0l0,0l0,0l0,0l0,0l0,0l0,0c-0.8-1-1.6-1.9-2.4-2.9
		l0,0l0,0l0,0l0,0l0,0l0,0l0,0l0,0l0,0l0,0l0,0l0,0l0,0l0,0l0,0l0,0l0,0l0,0l0,0l0,0l0,0c-2.7-2.8-5.9-5.1-9.4-6.9l0,0l0,0l0,0l0,0
		l0,0l0,0l0,0l0,0l0,0l0,0l0,0C103.2,45.5,103.7,35.4,103.6,35.4"/>
	<path style="fill:#FFFFFF;stroke:#FFFFFF;stroke-width:3;stroke-linecap:round;stroke-linejoin:round;stroke-miterlimit:10;" d="
		M104.3,29.4c11.6-5.8,20,15.2,23.4,22.2l0,0l0,0l0,0l0,0l0,0l0,0l0,0l0,0l0,0l0,0l0,0c1.4,3.2,10.6,28.2,12.7,28.2
		c-18,0-9.9-49.1-32.4-49.1l0,0l0,0l0,0l0,0c-0.1,0-0.1,0-0.2,0l0,0l0,0l0,0l0,0l0,0l0,0l0,0l0,0l0,0l0,0l0,0l0,0l0,0l0,0l0,0
		c5.2,6.5,9.8,13.4,13.8,20.7C120.9,50.2,105.5,28.2,104.3,29.4"/>
	<path style="fill:#FFFFFF;stroke:#FFFFFF;stroke-width:3;stroke-linecap:round;stroke-linejoin:round;stroke-miterlimit:10;" d="
		M127.7,48c11.7,0,25.4,56.1,26.5,56.1c-3.7-13.6-7.6-23.7-13.6-36.3l0,0l0,0l0,0C139,64.4,131.8,48,127.7,48"/>
	<path style="fill:#FFFFFF;stroke:#FFFFFF;stroke-width:3;stroke-linecap:round;stroke-linejoin:round;stroke-miterlimit:10;" d="
		M129.3,36.3c11.8,0,9.1,22.8,18.2,22.8l0,0c1,3.3,8.7,33.7,9,33.7c-16-8-0.5-54.1-25.3-54.1l0,0l0,0l0,0c0.9,1.9,10.7,30,12,30
		C138.9,57.8,134.2,47,129.3,36.3 M129.6,37.7L129.6,37.7L129.6,37.7L129.6,37.7z"/>
	<path style="fill:#FFFFFF;stroke:#FFFFFF;stroke-width:3;stroke-linecap:round;stroke-linejoin:round;stroke-miterlimit:10;" d="
		M146.4,50.6c5.9-5.9,13.9,35.9,13.8,35.1c1,6.9,2.3,13.8,4,20.6c-16.1-11.9-3-40.3-17.1-54.4C145.4,61.8,146.9,50.6,146.4,50.6"/>
	<path style="fill:#FFFFFF;stroke:#FFFFFF;stroke-width:3;stroke-linecap:round;stroke-linejoin:round;stroke-miterlimit:10;" d="
		M155,42.2c14.3,0,10.4,72,14.7,72c-0.5-3.5-1-6.9-1.5-10.4l0,0l0,0c-2.1-20.1-5.4-40.7-13-59.6c0.3,2.1,2.5,22.5,2,22.5
		C156.3,64.3,151.2,42.2,155,42.2"/>
	<path style="fill:#FFFFFF;stroke:#FFFFFF;stroke-width:3;stroke-linecap:round;stroke-linejoin:round;stroke-miterlimit:10;" d="
		M164.4,39.9c1.1-0.6,10.1,40.7,10.1,43.9l0,0c-0.2,10.5-0.4,21.1-0.7,31.6c-2.9-12.3-0.1-25-1.7-37.4l0,0l0,0
		c-0.8-11.8-2.1-25.4-7-36.3c0.2,2.7,2.6,39.8,1,39.8C164.6,81.5,164.4,42.7,164.4,39.9"/>
	<path style="fill:#FFFFFF;stroke:#FFFFFF;stroke-width:3;stroke-linecap:round;stroke-linejoin:round;stroke-miterlimit:10;" d="
		M177,44.9c9.2,0,5.1,71.3,0,71.3c-5.1-2.5,0.3-59.9,0.3-67.8c-0.1,11.8-0.2,24-2.3,35.6C174.9,80,173.5,44.9,177,44.9"/>
	<path style="fill:#FFFFFF;stroke:#FFFFFF;stroke-width:3;stroke-linecap:round;stroke-linejoin:round;stroke-miterlimit:10;" d="
		M186.3,53.3c7.7,0-2,75.7-8.9,75.7c8.3,0,10.3-64,9.5-71.7l0,0c-3.1,9-4.7,18.2-4.7,27.7C178.2,76.1,183.8,61.8,186.3,53.3"/>
	<path style="fill:#FFFFFF;stroke:#FFFFFF;stroke-width:3;stroke-linecap:round;stroke-linejoin:round;stroke-miterlimit:10;" d="
		M195.9,63.6c2.1,1.5,4.2,2.9,6.3,4.4c-2.4,0.5-3.8-0.5-4.2-2.9l0,0l0,0c-4,7.7-7.1,15.7-9.3,24.1l0,0l0,0
		C187.2,83.5,187.5,66.4,195.9,63.6"/>
	<path style="fill:#FFFFFF;stroke:#FFFFFF;stroke-width:3;stroke-linecap:round;stroke-linejoin:round;stroke-miterlimit:10;" d="
		M198.6,64.3c3.6,0.9-11.2,52.8-15.6,57.2C186.8,112.1,207.2,72.9,198.6,64.3"/>
	<path style="fill:#FFFFFF;stroke:#FFFFFF;stroke-width:3;stroke-linecap:round;stroke-linejoin:round;stroke-miterlimit:10;" d="
		M204,65.6c1.8,2.4,3.5,4.7,5.3,7.1c-4.8,0-2.1-11.4-6-1.6c-1.2,3.1-4.7,16.2-7.8,16.2C196.1,83.4,198.1,65.6,204,65.6"/>
	<path style="fill:#FFFFFF;stroke:#FFFFFF;stroke-width:3;stroke-linecap:round;stroke-linejoin:round;stroke-miterlimit:10;" d="
		M206.7,67.3c2.1,8.4-12.8,61.3-20.8,61.3C188.1,129.7,203.9,67.3,206.7,67.3"/>
	<path style="fill:#FFFFFF;stroke:#FFFFFF;stroke-width:3;stroke-linecap:round;stroke-linejoin:round;stroke-miterlimit:10;" d="
		M211.2,69c1-0.5-4.3,50.7-17.5,50.7c4.1,2,16.6-49.4,17.8-49.4c-4.7,7.9-8.8,16.1-12.5,24.6C199.3,86.1,205.1,75.1,211.2,69
		 M212,70.3L212,70.3L212,70.3L212,70.3 M212,70.3L212,70.3L212,70.3L212,70.3 M214.2,73C214.1,73.1,214.2,73.1,214.2,73"/>
	<path style="fill:#FFFFFF;stroke:#FFFFFF;stroke-width:3;stroke-linecap:round;stroke-linejoin:round;stroke-miterlimit:10;" d="
		M218.3,75.6L218.3,75.6c4.8,0-21.6,52.6-24.1,50.1c-2.3-2.3,23-40.8,24.1-48.1l0,0l0,0c-3.9,4.2-7.2,8.8-9.9,13.9
		C210.6,85.5,213.9,80.2,218.3,75.6"/>
	<path style="fill:#FFFFFF;stroke:#FFFFFF;stroke-width:3;stroke-linecap:round;stroke-linejoin:round;stroke-miterlimit:10;" d="
		M222.3,83.4c-7.8,3.9-11.9,44-27.4,47.4c8.4,3.2,22.2-41.1,29.7-45.4l0,0l0,0l0,0c-4.4,2.3-8.4,5.2-11.9,8.7
		C215.9,90.5,219.1,87,222.3,83.4 M226.8,85.3L226.8,85.3L226.8,85.3z"/>
	<path style="fill:#FFFFFF;stroke:#FFFFFF;stroke-width:3;stroke-linecap:round;stroke-linejoin:round;stroke-miterlimit:10;" d="
		M231.7,86.7c-2.7-0.5-26.8,31.5-30.4,35.1C209.9,109.3,217.5,93.8,231.7,86.7"/>
	<path style="fill:#FFFFFF;stroke:#FFFFFF;stroke-width:3;stroke-linecap:round;stroke-linejoin:round;stroke-miterlimit:10;" d="
		M232.8,87.4c-17.2,0-27.1,44.1-40.8,53.3C191.7,140.4,226.8,87.4,232.8,87.4"/>
	<path style="fill:#FFFFFF;stroke:#FFFFFF;stroke-width:3;stroke-linecap:round;stroke-linejoin:round;stroke-miterlimit:10;" d="
		M228.5,101.3c3-1,5.9-2.1,8.9-3.1c-5.7,7-28,39.4-37,39.4c12.5,0,22-29.2,30.8-35.8l0,0l0,0c-1.9,1.7-22.8,24.3-25,23.2
		C213,116.5,220.5,108.6,228.5,101.3"/>
	<path style="fill:#FFFFFF;stroke:#FFFFFF;stroke-width:3;stroke-linecap:round;stroke-linejoin:round;stroke-miterlimit:10;" d="
		M232.5,109c2.6-1.2,5.2-2.4,7.8-3.6c7.4,7.4-38,31.5-42.2,35.9c7-5.5,14.5-10.3,22.4-14.4l0,0c5.7,0,13.2-14.5,16.4-18.4
		c-2.1,1.6-21.1,19.2-23.8,17.9C219,120,225.5,114.2,232.5,109 M239.7,106.6L239.7,106.6L239.7,106.6"/>
	<path style="fill:#FFFFFF;stroke:#FFFFFF;stroke-width:3;stroke-linecap:round;stroke-linejoin:round;stroke-miterlimit:10;" d="
		M220.7,127c1.2-0.6,18-7.2,18-7.9c0,16-33.6,19.8-42.2,28.6c10.4-10.6,24.3-17.4,36.3-25.8c-3.6,3-7.6,5.1-12,6.5
		C220.8,127.9,220.7,127.5,220.7,127"/>
	<path style="fill:#FFFFFF;stroke:#FFFFFF;stroke-width:3;stroke-linecap:round;stroke-linejoin:round;stroke-miterlimit:10;" d="
		M209.4,139.4c3.4-1.7,29-7.4,29-12.8c0.6,1.1-39.5,32.7-45.3,26.9c2.3,2.3,29.3-17.7,32.5-20.1l0,0l0,0
		C220.6,136.6,215.2,138.6,209.4,139.4"/>
	<path style="fill:#FFFFFF;stroke:#FFFFFF;stroke-width:3;stroke-linecap:round;stroke-linejoin:round;stroke-miterlimit:10;" d="
		M236.2,134.6c-14.6,0-22.1,16.6-36.6,16.6c7.8-3.8,15.9-6.2,23.5-10c-6.1,2.3-29.8,8.6-31.8,16.5c11.9,0,21.8-9.7,33.2-11.6
		c-9.1,2.8-20.4,6.6-28,12.6c3.1-0.6,6.1-1.3,9.2-1.9l0,0l0,0c0.3,0.4,0.5,0.9,0.8,1.3c-2.9,0.4-8.5,3.9-10.7,3.6l0,0l0,0l0,0l0,0
		l0,0l0,0c1.7-0.1,3.4-0.2,5.1-0.3l0,0c6.2,0.4,12.4,0.3,18.6-0.4c-15.9,4.4-29.3-0.2-44.3,2.1c5.8-0.9,43.6,13.6,49.1-2.9
		c0-2.7-19.2-0.2-21.4-0.2c8.4-1.4,23.2,1,30-5.8c-1.5,1.5-12.4,0-14.5,0c19.6-1.2-1.5-4.2-10,0c4.4-2.2,23.7-4.3,23.7-11.1
		c0,0.2-17.3,4-19.2,4.8C220.4,143.1,228.2,138.6,236.2,134.6 M226.6,139.3c1.8-0.7,3.5-1.3,5.3-2
		C230.3,138.1,227.9,138.6,226.6,139.3 M210.6,154.9C215.5,153.3,209.5,155.5,210.6,154.9 M206,157.8c2.8-0.5,5.6-1,8.4-1.5
		C211.6,156.8,208.8,157.3,206,157.8 M208.3,155.6h0.1C208.4,155.6,208.3,155.6,208.3,155.6L208.3,155.6L208.3,155.6"/>
	<path style="fill:#FFFFFF;stroke:#FFFFFF;stroke-width:3;stroke-linecap:round;stroke-linejoin:round;stroke-miterlimit:10;" d="
		M167.3,163c2.8-0.5,5.1,0.7,7.1,3.4C171.7,166,169.3,164.9,167.3,163"/>
	<path style="fill:#FFFFFF;stroke:#FFFFFF;stroke-width:3;stroke-linecap:round;stroke-linejoin:round;stroke-miterlimit:10;" d="
		M163.6,159.9c1.7,1,3.4,1.9,5.1,2.9c-2.2,0.3-4.4,0.9-6.5,1.6l0,0l0,0l0,0C162.7,162.9,163.1,161.4,163.6,159.9"/>
	<path style="fill:#FFFFFF;stroke:#FFFFFF;stroke-width:3;stroke-linecap:round;stroke-linejoin:round;stroke-miterlimit:10;" d="
		M65.3,24.4c9.2,0,31.6,20.1,31.6,29.4l0,0l0,0l0,0l0,0l0,0l0,0l0,0l0,0l0,0l0,0l0,0c-11.2-7.7-17.9-19.4-29.4-27
		C78.8,36,88.2,53,97.2,64.5l0,0c5.5,7.3,10.6,14.9,15.5,22.6C113.1,86.7,74,24.4,65.3,24.4"/>
	<path style="fill:#FFFFFF;stroke:#FFFFFF;stroke-width:3;stroke-linecap:round;stroke-linejoin:round;stroke-miterlimit:10;" d="
		M73,61.7c11.4,0,17.6,11.8,28.8,11.8l0,0l0,0l0,0l0,0l0,0l0,0l0,0l0,0l0,0l0,0c-7.4-5.6-15.6-9-24.8-10.1l0,0l0,0l0,0l0,0l0,0l0,0
		l0,0l0,0l0,0l0,0l0,0l0,0l0,0l0,0l0,0l0,0l0,0l0,0l0,0c2.5,1.6,12,9.9,14.9,9.9C85.7,69.3,79.4,65.4,73,61.7 M76.9,61.9L76.9,61.9
		L76.9,61.9L76.9,61.9 M84.9,68.9L84.9,68.9L84.9,68.9"/>
	<path style="fill:#FFFFFF;stroke:#FFFFFF;stroke-width:3;stroke-linecap:round;stroke-linejoin:round;stroke-miterlimit:10;" d="
		M84.3,68.1c0.3,0.2,0.7,0.4,1,0.6l0,0l0,0l0,0l0,0l0,0c1,6.5,4.3,11.8,10,15.9l0,0c1.9,1.3,2.7,3.1,2.4,5.3
		C95.7,86.4,78.8,73.2,84.3,68.1 M85.1,72.9L85.1,72.9L85.1,72.9"/>
	<path style="fill:#FFFFFF;stroke:#FFFFFF;stroke-width:3;stroke-linecap:round;stroke-linejoin:round;stroke-miterlimit:10;" d="
		M39.7,42.8c17.2,0,31.2,17.9,44.3,26.7l0,0l0,0l0,0l0,0l0,0l0,0l0,0l0,0l0,0l0,0l0,0c-12.5-4-25-11-35.4-19.1
		c-1.6-1.1-3.1-2.3-4.7-3.4l0,0c-0.1-0.1-0.3-0.2-0.4-0.3l0,0l0,0l0,0l0,0l0,0l0,0l0,0l0,0l0,0l0,0l0,0l0,0l0,0l0,0l0,0
		C61.6,64.8,84,78.7,103,95.6c-3.2,1.6-4.7-0.7-7.8-3.7l0,0C81.9,79.4,59.2,42.8,39.7,42.8"/>
	<path style="fill:#FFFFFF;stroke:#FFFFFF;stroke-width:3;stroke-linecap:round;stroke-linejoin:round;stroke-miterlimit:10;" d="
		M29.3,60.2c5.2,0,49.3,10.2,47.7,15.1l0,0l0,0l0,0l0,0l0,0l0,0l0,0l0,0l0,0l0,0l0,0c-13.4-4.8-27.9-13.4-42.5-13.4l0,0l0,0l0,0l0,0
		l0,0l0,0l0,0l0,0l0,0l0,0l0,0l0,0l0,0l0,0l0,0c12.4,3,55.5,21,59.7,35.5C90.7,85.2,39.2,60.2,29.3,60.2"/>
	<path style="fill:#FFFFFF;stroke:#FFFFFF;stroke-width:3;stroke-linecap:round;stroke-linejoin:round;stroke-miterlimit:10;" d="
		M32.7,65.5c2.9,0.7,36.4,10.2,35.2,13.9l0,0l0,0l0,0l0,0l0,0l0,0l0,0c-3.6-0.6-24.5-5.1-24.5-9.6l0,0l0,0l0,0l0,0l0,0l0,0l0,0l0,0
		l0,0l0,0l0,0l0,0l0,0c-2.3-0.8-4.6-1.5-6.9-2l0,0l0,0l0,0l0,0l0,0l0,0l0,0l0,0l0,0l0,0l0,0l0,0l0,0l0,0c3.3,2.2,61.6,41.3,61,41.9
		l0,0l0,0l0,0l0,0C77.1,100.9,54.8,65.5,32.7,65.5"/>
	<path style="fill:#FFFFFF;stroke:#FFFFFF;stroke-width:3;stroke-linecap:round;stroke-linejoin:round;stroke-miterlimit:10;" d="
		M32,75.6c8,0,32.4,10.4,28.7,10.4c-7.2-3.9-14.9-6.4-23.1-7.4c-0.8-0.1-1.5-0.2-2.3-0.3l0,0l0,0l0,0l0,0l0,0l0,0l0,0l0,0l0,0l0,0
		l0,0l0,0l0,0l0,0l0,0c7.3,4.4,47.9,39.3,53.4,35.5l0,0l0,0l0,0l0,0l0,0l0,0l0,0l0,0l0,0l0,0C83.7,110.9,31.5,76.1,32,75.6"/>
	<path style="fill:#FFFFFF;stroke:#FFFFFF;stroke-width:3;stroke-linecap:round;stroke-linejoin:round;stroke-miterlimit:10;" d="
		M23.5,73.5C35.3,73.5,41,91.8,51,91.8c-9-3.2-17.6-7.1-24.4-14.2l0,0l0,0l0,0l0,0l0,0l0,0l0,0l0,0l0,0l0,0l0,0l0,0
		c7.1,11.5,22.7,22.3,34.9,27.8l0,0c2,1,23.5,15.7,27.7,15.7C82,117.9,16.2,80.8,23.5,73.5"/>
	<path style="fill:#FFFFFF;stroke:#FFFFFF;stroke-width:3;stroke-linecap:round;stroke-linejoin:round;stroke-miterlimit:10;" d="
		M25.4,93c6.8-3.4,21,4.7,26.3,8c-7.7-4-15.9-6.1-24.6-6.3c6.1,4,71.9,38.2,73.5,35.1C89.9,129.1,24.9,93.5,25.4,93 M26.3,93.8
		L26.3,93.8L26.3,93.8"/>
	<path style="fill:#FFFFFF;stroke:#FFFFFF;stroke-width:3;stroke-linecap:round;stroke-linejoin:round;stroke-miterlimit:10;" d="
		M9.1,99.1c5.7-5.7,20.8,0.5,26.5,2.6l0,0l0,0l0,0l0,0l0,0c-5.3-0.6-10.6-1.3-15.9-1.9c-0.8,0-1.6,0-2.4,0l0,0l0,0l0,0l0,0l0,0l0,0
		l0,0l0,0c-1.7,0.1-3.3,0.3-5,0.4l0,0l0,0l0,0l0,0l0,0l0,0l0,0l0,0l0,0l0,0l0,0l0,0l0,0l0,0l0,0l0,0l0,0c17.3,7,34.8,11.4,51.7,19.8
		l0,0c2.6,1.1,37.8,13.7,38.1,13.2c-3.5,3.5-15.5-4.9-19.1-4.9l0,0c-5.5-2.7-15.2-7.6-21.5-7.6l0,0l0,0
		C45.4,112.9,27.8,99.1,9.1,99.1"/>
	<path style="fill:#FFFFFF;stroke:#FFFFFF;stroke-width:3;stroke-linecap:round;stroke-linejoin:round;stroke-miterlimit:10;" d="
		M20.9,111.3c3.2-2.2,24.6,1.9,24.4,2.3c-1,2-20.9-3.3-26.3,1.4l0,0l0,0l0,0l0,0l0,0l0,0l0,0l0,0l0,0l0,0l0,0l0,0l0,0l0,0l0,0l0,0
		l0,0c8.3,1.3,82.9,17.9,82.1,20.5c-0.1,0.3-18.6-4.5-21.7-4.5l0,0c-20.5-5.7-41.3-10.4-62.1-14.5C18.5,114.8,19.7,113,20.9,111.3z"
		/>
	<path style="fill:#FFFFFF;stroke:#FFFFFF;stroke-width:3;stroke-linecap:round;stroke-linejoin:round;stroke-miterlimit:10;" d="
		M39.5,120.9c7.7-2.6-5.7,5.4-5.5,5.3l0,0c-0.9,1-1.9,2.1-2.8,3.1l0,0l0,0l0,0l0,0l0,0l0,0l0,0l0,0l0,0l0,0l0,0l0,0l0,0l0,0l0,0l0,0
		c2.4-0.5,4.7-0.9,7.1-1.4c15.7,0,31.3,5.2,46.3,9c3.3,0.9,19.1,6.9,22.5,5.2l0,0l0,0l0,0l0,0l0,0l0,0l0,0l0,0l0,0l0,0l0,0
		c-15.4-1.6-30.4-5.7-45.7-7.7C56,133.7,13,126.8,39.5,120.9"/>
	<path style="fill:#FFFFFF;stroke:#FFFFFF;stroke-width:3;stroke-linecap:round;stroke-linejoin:round;stroke-miterlimit:10;" d="
		M25.7,133.8c2.4-1.2,20.6-6.3,21.8-2.8c-8.4,7.7-20.4-3.8-24.6,10.5l0,0l0,0l0,0l0,0l0,0l0,0l0,0l0,0l0,0l0,0
		c14.3-4.5,88.9,14.8,93.1,9.7C89,151.8,62.3,140,35.2,140c-4.9-0.1-9.6,1.1-14.1,3.5C22.6,140.3,24.2,137,25.7,133.8 M28.4,140.9
		L28.4,140.9L28.4,140.9"/>
	<path style="fill:#FFFFFF;stroke:#FFFFFF;stroke-width:3;stroke-linecap:round;stroke-linejoin:round;stroke-miterlimit:10;" d="
		M18.9,145.6c3.3-1.6,6.7-3.2,10-4.8l0,0l0,0l0,0l0,0l0,0l0,0l0,0c-6.1,4.3-18.2,14.4-26.2,15.8C1.8,154.7,17.6,146.5,18.9,145.6"/>
	<path style="fill:#FFFFFF;stroke:#FFFFFF;stroke-width:3;stroke-linecap:round;stroke-linejoin:round;stroke-miterlimit:10;" d="
		M4.5,156.6C6.7,156.6,1.9,156.6,4.5,156.6"/>
	<path style="fill:#FFFFFF;stroke:#FFFFFF;stroke-width:3;stroke-linecap:round;stroke-linejoin:round;stroke-miterlimit:10;" d="
		M3.7,156.7c1-0.5,2-0.9,3-1.4l0,0l0,0l0,0l0,0l0,0l0,0l0,0l0,0c16.6-9.9,34.9-7.1,53.1-5.9c5.8,0.4,35.1,7.4,40.2,3.1
		C75.1,163.4,31.9,150.4,3.7,156.7"/>
	<path style="fill:#FFFFFF;stroke:#FFFFFF;stroke-width:3;stroke-linecap:round;stroke-linejoin:round;stroke-miterlimit:10;" d="
		M8.3,156.1c11-5.5,27.2-6.4,39.5-6.4c-9.6,0.5-19,2.3-28.1,5.2c-2.1,0.4-4.3,0.8-6.4,1.2l0,0l0,0l0,0l0,0l0,0l0,0l0,0l0,0l0,0l0,0
		l0,0l0,0l0,0l0,0c34,0,68.5,2.3,102.4-2.1c-22.8,2.3-45.4,4.7-68.3,3.3C38.1,156.8,15.7,148.7,8.3,156.1"/>
	<path style="fill:#FFFFFF;stroke:#FFFFFF;stroke-width:3;stroke-linecap:round;stroke-linejoin:round;stroke-miterlimit:10;" d="
		M10.1,168.2c-1.9,1-3.8,2-5.7,3c12.5-7.7,34.4-11.9,48.1-11.9c-13.2,3.1-26.6,5.3-39.7,9c20.2,0,42.7-0.5,62.7-3.5
		c13.4-2,32.6-12.8,46-8.2l0,0l0,0l0,0l0,0l0,0l0,0l0,0c-5.8,3.4-13.1,5-20.2,6C71.3,168.2,40.5,168.2,10.1,168.2 M17.6,166.1
		L17.6,166.1L17.6,166.1 M18.5,165.9h0.1H18.5 M18.1,167.5L18.1,167.5L18.1,167.5 M18.2,167.5L18.2,167.5L18.2,167.5L18.2,167.5"/>
	<path style="fill:#FFFFFF;stroke:#FFFFFF;stroke-width:3;stroke-linecap:round;stroke-linejoin:round;stroke-miterlimit:10;" d="
		M9.4,191.6c11.9,0,69-15.2,74.3-25.8c-12,2.9-25.3,3.1-37.1,6.9C32.8,177.3,22.9,187,9.4,191.6"/>
	<path style="fill:#FFFFFF;stroke:#FFFFFF;stroke-width:3;stroke-linecap:round;stroke-linejoin:round;stroke-miterlimit:10;" d="
		M12,190.9c1.3-0.4,2.7-0.9,4-1.3l0,0l0,0l0,0l0,0l0,0l0,0l0,0c6.2-2.3,12.5-4.4,18.8-6.3c17.5,0,74.3-5,89-16
		c-8.2,6.2-23.2,8.6-33.2,8.6C71.2,178.6,29.8,201.2,12,190.9"/>
	<path style="fill:#FFFFFF;stroke:#FFFFFF;stroke-width:3;stroke-linecap:round;stroke-linejoin:round;stroke-miterlimit:10;" d="
		M38,192.5c9.5-4.7,22.4-6,30.2-13.8c-4.9,2.8-54.4,31.5-45.6,37.4C19,213.7,35.2,194.4,38,192.5"/>
	<path style="fill:#FFFFFF;stroke:#FFFFFF;stroke-width:3;stroke-linecap:round;stroke-linejoin:round;stroke-miterlimit:10;" d="
		M42.3,196c1.6-0.6,3.2-1.3,4.8-1.9c20.7-7.3,45.2-20.5,67.3-20.5c-11-3.6-94.2,37.8-90,42c0.8-1.7,1.6-3.3,2.4-5l0,0l0,0l0,0l0,0
		l0,0C31.1,204.8,36.3,199.9,42.3,196"/>
	<path style="fill:#FFFFFF;stroke:#FFFFFF;stroke-width:3;stroke-linecap:round;stroke-linejoin:round;stroke-miterlimit:10;" d="
		M68.5,187.8c-13.5,6.7-25,27.2-25,41.9l0,0l0,0l0,0l0,0l0,0l0,0l0,0c5.2-31.3,54.9-50.8,82.5-53.9c-17,2-39.1,15.4-52.6,25.2
		c-2.3,1.7-30.5,31-30.1,31.1C24.8,229.2,62.3,192.4,68.5,187.8z"/>
	<path style="fill:#FFFFFF;stroke:#FFFFFF;stroke-width:3;stroke-linecap:round;stroke-linejoin:round;stroke-miterlimit:10;" d="
		M76.7,197c-0.3-0.6-23.9,29.9-23.9,37.1l0,0l0,0l0,0l0,0l0,0l0,0c3.5-16.7,47.8-49.1,65.6-49.1c-6.2,0-13.5,14.3-21,14.3
		c-9.3,6.1-37.2,43.2-44.9,43.2C39.1,242.5,68.5,184.7,76.7,197"/>
	<path style="fill:#FFFFFF;stroke:#FFFFFF;stroke-width:3;stroke-linecap:round;stroke-linejoin:round;stroke-miterlimit:10;" d="
		M174,165.7c21.2,0,22.9,73.4,21.4,88l0,0l0,0l0,0c-1-5.4-14.1-55.2-11.6-56.4c0.3,4.2,11,63.8,11.2,63.8
		C181.3,256.5,205,165.7,174,165.7"/>
	<path style="fill:#FFFFFF;stroke:#FFFFFF;stroke-width:3;stroke-linecap:round;stroke-linejoin:round;stroke-miterlimit:10;" d="
		M185.2,209.9c7.4,0,4.6,53.8,4.6,60.5l0,0l0,0c0-4-2.4-29.8,2.4-32.2c2.6,0,2.4,39.2-2.7,39.2C195.5,274.4,185.3,209.9,185.2,209.9
		"/>
	<path style="fill:#FFFFFF;stroke:#FFFFFF;stroke-width:3;stroke-linecap:round;stroke-linejoin:round;stroke-miterlimit:10;" d="
		M183.1,229.2c5.2,0,1.2,44.7,0.4,49.7l0,0l0,0l0,0l0,0l0,0l0,0c-0.4-6.1,0.1-19.6,4.8-24.3c4,0-3.5,31-6.6,30
		c-4-1.3,1.5-22.2,1.5-25.6l0,0C183,256.3,181.7,229.2,183.1,229.2"/>
	<path style="fill:#FFFFFF;stroke:#FFFFFF;stroke-width:3;stroke-linecap:round;stroke-linejoin:round;stroke-miterlimit:10;" d="
		M178,217.1L178,217.1c4.8,0-5.1,61.7-5.1,68l0,0l0,0c0.5-1.5,9.3-26.5,10.9-25.9c-2.6-0.9-7.4,28.2-11,28.2
		C165,285.7,182.1,225.3,178,217.1"/>
	<path style="fill:#FFFFFF;stroke:#FFFFFF;stroke-width:3;stroke-linecap:round;stroke-linejoin:round;stroke-miterlimit:10;" d="
		M175.8,221.8c6.2,9.3-3.7,75.1-17.1,75.1c-4.2-4.2,7.7-63.9,9.5-63.9c4,1-4.9,49.3-6.3,55.6C170.8,267.8,175.8,244.5,175.8,221.8"
		/>
	<path style="fill:#FFFFFF;stroke:#FFFFFF;stroke-width:3;stroke-linecap:round;stroke-linejoin:round;stroke-miterlimit:10;" d="
		M161.7,227.5c-6.3,0-6.3,59.7-13,66.4c1.7-5.2,8.4-40.4,15.8-40.4c-2.8,0-15.7,49.5-18.5,48.1C146.1,301.6,156.9,227.5,161.7,227.5
		"/>
	<path style="fill:#FFFFFF;stroke:#FFFFFF;stroke-width:3;stroke-linecap:round;stroke-linejoin:round;stroke-miterlimit:10;" d="
		M156.7,231c-5.1,0-16.9,64.1-16.9,71.2c2.7-7.4,18.4-37.8,15.2-44.1c0,6-9.4,48.5-15.5,48.5C141.1,306.6,148.8,231,156.7,231"/>
	<path style="fill:#FFFFFF;stroke:#FFFFFF;stroke-width:3;stroke-linecap:round;stroke-linejoin:round;stroke-miterlimit:10;" d="
		M145.5,247.1c0.9,0.5-16.5,44.4-18,49.2c3.1-6.7,10.7-37.8,19.7-37.8c-16.5,0-6.2,50.8-25.2,50.8
		C116.1,303.4,138,250.3,145.5,247.1"/>
	<path style="fill:#FFFFFF;stroke:#FFFFFF;stroke-width:3;stroke-linecap:round;stroke-linejoin:round;stroke-miterlimit:10;" d="
		M151.6,233.2c3.9,2-7.5,12.8-6.9,14.1C145,246.3,150.2,232.5,151.6,233.2"/>
	<path style="fill:#FFFFFF;stroke:#FFFFFF;stroke-width:3;stroke-linecap:round;stroke-linejoin:round;stroke-miterlimit:10;" d="
		M141.5,252.4C143.8,253.2,137.2,252.4,141.5,252.4"/>
	<path style="fill:#FFFFFF;stroke:#FFFFFF;stroke-width:3;stroke-linecap:round;stroke-linejoin:round;stroke-miterlimit:10;" d="
		M145.4,229.2c-1.2,0.2-13.2,23-13.2,26.8l0,0c-6.9,10.3-15.3,24.3-15.3,37.2c6.3-14.5,13.1-29.4,24.4-40.7
		c-5.1,0-31,48.9-29.4,50.5C105.3,296.4,134.9,229.2,145.4,229.2"/>
	<path style="fill:#FFFFFF;stroke:#FFFFFF;stroke-width:3;stroke-linecap:round;stroke-linejoin:round;stroke-miterlimit:10;" d="
		M142.2,220c3.4,9.4-21.6,54.6-25.8,65.8c1.3-3.5,5.2-22.2,9.8-22.2c-1.4,3-15.6,28.1-12.3,31.4C99.9,281,132.7,231.4,142.2,220"/>
	<path style="fill:#FFFFFF;stroke:#FFFFFF;stroke-width:3;stroke-linecap:round;stroke-linejoin:round;stroke-miterlimit:10;" d="
		M141.9,210.8c-23.7,0-33.4,57.3-33.4,74.1l0,0l0,0l0,0l0,0c0.7-2.4,14.7-38,15.9-36.8c-12.9,10.5-10.5,29.3-17.3,43
		C103.2,271.4,117.6,219.5,141.9,210.8"/>
	<path style="fill:#FFFFFF;stroke:#FFFFFF;stroke-width:3;stroke-linecap:round;stroke-linejoin:round;stroke-miterlimit:10;" d="
		M119.5,240.8c-1.8-1.8-28.3,40.4-32.5,44.6c-0.3-2.6-0.2-5.1,0.3-7.7l0,0l0,0l0,0C89.5,274.3,115.1,237.8,119.5,240.8"/>
	<path style="fill:#FFFFFF;stroke:#FFFFFF;stroke-width:3;stroke-linecap:round;stroke-linejoin:round;stroke-miterlimit:10;" d="
		M133.8,209.6c-10.5,5.2-50,73.6-47.8,74.2C78.1,281.8,128.1,215.8,133.8,209.6"/>
	<path style="fill:#FFFFFF;stroke:#FFFFFF;stroke-width:3;stroke-linecap:round;stroke-linejoin:round;stroke-miterlimit:10;" d="
		M116.2,217.1c-0.4-0.5-40.4,43.9-42.1,50.6l0,0l0,0l0,0l0,0l0,0l0,0l0,0c7.2-8.4,23.4-33.2,35.6-33.2c-8.3,9.8-22.5,36.4-37.2,36.4
		C75.6,270.9,100.5,217.1,116.2,217.1"/>
	<path style="fill:#FFFFFF;stroke:#FFFFFF;stroke-width:3;stroke-linecap:round;stroke-linejoin:round;stroke-miterlimit:10;" d="
		M140.7,192.5c-0.5,0-24.8,20.4-24.8,24.9C118.3,213.8,141.1,194,140.7,192.5"/>
	<path style="fill:#FFFFFF;stroke:#FFFFFF;stroke-width:3;stroke-linecap:round;stroke-linejoin:round;stroke-miterlimit:10;" d="
		M136.8,184.9c0.2-1.7-71,78.2-62.8,78.2l0,0l0,0l0,0l0,0l0,0l0,0c8.8-17.9,22-33.7,39.2-44.1c-4.4,5.1-37.3,47.9-40.6,46.6
		c-12.1-4.8,28.7-50.7,35.5-54.8C113.7,205.6,129.3,184.9,136.8,184.9"/>
	<path style="fill:#FFFFFF;stroke:#FFFFFF;stroke-width:3;stroke-linecap:round;stroke-linejoin:round;stroke-miterlimit:10;" d="
		M79.1,206.6c-8.8,0-20.5,24.3-20.5,32l0,0l0,0l0,0l0,0l0,0l0,0c10.5-32.7,54.5-35.4,75.2-59c-7.4-1.2-29.3,23.9-36.9,28.8
		c-10.9,7-23.3,9.5-31.3,20.5c-1.6,2.2-7.3,21.9-7.8,21.9C51.1,250.8,65.7,206.6,79.1,206.6"/>
	<path style="fill:#FFFFFF;stroke:#FFFFFF;stroke-width:3;stroke-linecap:round;stroke-linejoin:round;stroke-miterlimit:10;" d="
		M90,212c-7,0-29.2,43.3-19.3,46.6c-13.2-6.6,6-30,11.3-36.1l0,0l0,0C84.7,219,87.3,215.5,90,212"/>
	<path style="fill:#FFFFFF;stroke:#FFFFFF;stroke-width:3;stroke-linecap:round;stroke-linejoin:round;stroke-miterlimit:10;" d="
		M102.4,215.3c-10.8,6.6-32.8,25.8-32.8,39.5l0,0l0,0l0,0l0,0l0,0C75.8,235.1,87,227.1,102.4,215.3"/>
	<path style="fill:#FFFFFF;stroke:#FFFFFF;stroke-width:3;stroke-linecap:round;stroke-linejoin:round;stroke-miterlimit:10;" d="
		M83.8,67.1c4.9,0.4,10.4,6.2,12.5,10l0,0c4.9,5,9,11.3,14.6,15.7c-6.3-4.3-11.8-9.4-16.5-15.5c-4.6-9.9-7.9-11.1-9.8-3.7
		C84.1,71.5,83.8,69.3,83.8,67.1"/>
	<path style="fill:#FFFFFF;stroke:#FFFFFF;stroke-width:3;stroke-linecap:round;stroke-linejoin:round;stroke-miterlimit:10;" d="
		M99.9,128.6c6.1,1.5,11.8,3.8,17.2,6.9l0,0l0,0l0,0l0,0l0,0l0,0l0,0l0,0l0,0l0,0l0,0c2,1,15.5,4.8,14.7,8.9
		C124.4,140.6,108.7,128.6,99.9,128.6"/>
	<path style="fill:#FFFFFF;stroke:#FFFFFF;stroke-width:3;stroke-linecap:round;stroke-linejoin:round;stroke-miterlimit:10;" d="
		M89.7,120.2L89.7,120.2c3.8,0,27.2,9.9,27.2,15.4C112.5,140,93.1,116.8,89.7,120.2"/>
	<path style="fill:#FFFFFF;stroke:#FFFFFF;stroke-width:3;stroke-linecap:round;stroke-linejoin:round;stroke-miterlimit:10;" d="
		M88.8,113.2L88.8,113.2L88.8,113.2L88.8,113.2L88.8,113.2L88.8,113.2L88.8,113.2L88.8,113.2L88.8,113.2L88.8,113.2L88.8,113.2
		L88.8,113.2L88.8,113.2L88.8,113.2L88.8,113.2c3.4,1.7,38.7,18.4,38.4,23.3C127.3,135.6,89.9,113.2,88.8,113.2z"/>
	<path style="fill:#FFFFFF;stroke:#FFFFFF;stroke-width:3;stroke-linecap:round;stroke-linejoin:round;stroke-miterlimit:10;" d="
		M98.5,109.6L98.5,109.6L98.5,109.6L98.5,109.6L98.5,109.6L98.5,109.6L98.5,109.6L98.5,109.6L98.5,109.6L98.5,109.6L98.5,109.6
		L98.5,109.6c3.3,2,23,12.3,22.1,17.4C120.8,127.1,96.9,111.2,98.5,109.6"/>
	<path style="fill:#FFFFFF;stroke:#FFFFFF;stroke-width:3;stroke-linecap:round;stroke-linejoin:round;stroke-miterlimit:10;" d="
		M107.6,143L107.6,143L107.6,143L107.6,143L107.6,143L107.6,143L107.6,143L107.6,143L107.6,143L107.6,143L107.6,143L107.6,143
		L107.6,143L107.6,143L107.6,143L107.6,143L107.6,143c2.9,0.2,19.3,2,19.3,4.9l0,0l0,0l0,0l0,0l0,0l0,0l0,0l0,0l0,0l0,0l0,0l0,0l0,0
		l0,0l0,0C122.7,146.6,111.5,141.1,107.6,143"/>
	<path style="fill:#FFFFFF;stroke:#FFFFFF;stroke-width:3;stroke-linecap:round;stroke-linejoin:round;stroke-miterlimit:10;" d="
		M116.1,150.8c7.9,0.7,15.5,2.7,22.8,5.9C132.2,155.5,122.7,150.1,116.1,150.8"/>
	<path style="fill:#FFFFFF;stroke:#FFFFFF;stroke-width:3;stroke-linecap:round;stroke-linejoin:round;stroke-miterlimit:10;" d="
		M116.5,154.5c6.3,0.3,12.5,1.3,18.6,2.8c4.8,0.9,4,1.2-2.3,0.9l0,0C127.1,158.3,121.6,157.1,116.5,154.5"/>
	<path style="fill:#FFFFFF;stroke:#FFFFFF;stroke-width:3;stroke-linecap:round;stroke-linejoin:round;stroke-miterlimit:10;" d="
		M121.7,157.1c2.3,0.5,19.1,1.2,19.1,2.7C140.8,162.2,123.2,158.6,121.7,157.1"/>
	<path style="fill:#FFFFFF;stroke:#FFFFFF;stroke-width:3;stroke-linecap:round;stroke-linejoin:round;stroke-miterlimit:10;" d="
		M124.8,164.7c5.2,1.6,13.4-0.4,19.1,0.4C140,164.6,128.8,164.7,124.8,164.7"/>
	<path style="fill:#FFFFFF;stroke:#FFFFFF;stroke-width:3;stroke-linecap:round;stroke-linejoin:round;stroke-miterlimit:10;" d="
		M126.2,46.7c0.9,1.4,1.7,2.9,2.6,4.3l0,0l0,0l0,0l0,0l0,0l0,0l0,0l0,0l0,0l0,0C127.9,49.6,127.1,48.1,126.2,46.7"/>
	<path style="fill:#FFFFFF;stroke:#FFFFFF;stroke-width:3;stroke-linecap:round;stroke-linejoin:round;stroke-miterlimit:10;" d="
		M98.5,39.5c4,4,3.7,1.3,1.1,1.6l0,0C97.4,41.8,97.1,41.2,98.5,39.5"/>
	<path style="fill:#FFFFFF;stroke:#FFFFFF;stroke-width:3;stroke-linecap:round;stroke-linejoin:round;stroke-miterlimit:10;" d="
		M104.7,38.7c0.5,1.3,1,2.6,1.5,3.9l0,0l0,0l0,0l0,0l0,0l0,0l0,0l0,0l0,0l0,0l0,0l0,0l0,0c0.1,0.1,0.3,0.3,0.4,0.4l0,0
		C106.7,45.9,106.1,44.4,104.7,38.7z"/>
	<path style="fill:#FFFFFF;stroke:#FFFFFF;stroke-width:3;stroke-linecap:round;stroke-linejoin:round;stroke-miterlimit:10;" d="
		M96.5,38.2c1.8-0.9,10.7,2.1,3.1,3l0,0C92.6,46.3,97.2,38.2,96.5,38.2"/>
	<path style="fill:#FFFFFF;stroke:#FFFFFF;stroke-width:3;stroke-linecap:round;stroke-linejoin:round;stroke-miterlimit:10;" d="
		M104.1,38.6c0.2,0,0.3,0,0.5,0c0.5,1.3,1,2.5,1.5,3.8l0,0l0,0l0,0l0,0l0,0l0,0l0,0l0,0l0,0l0,0l0,0l0,0l0,0
		c0.1,0.1,0.3,0.3,0.4,0.4l0,0C103.8,42.4,103,41,104.1,38.6 M105.5,44L105.5,44C105.6,44,105.6,44.1,105.5,44
		C105.6,44.1,105.6,44,105.5,44"/>
	<path style="fill:#FFFFFF;stroke:#FFFFFF;stroke-width:3;stroke-linecap:round;stroke-linejoin:round;stroke-miterlimit:10;" d="
		M101.1,39.6c1.6,1.2,3.3,2.5,4.9,3.7C104.4,42.1,102.7,40.8,101.1,39.6"/>
	<path d="M26.9,94.4L26.9,94.4c30.2,0,56.5,24.5,82.1,37.3C82.2,118.3,49,116.5,26.9,94.4z"/>
	<path d="M13.4,168.6c31.8-10.4,75.2-17.5,108.4-11.2C85.5,165.6,50.6,168.6,13.4,168.6L13.4,168.6z"/>
	<path style="fill:#FFFFFF;stroke:#FFFFFF;stroke-width:3;stroke-linecap:round;stroke-linejoin:round;stroke-miterlimit:10;" d="
		M124.6,264.4C128.1,264.4,126.1,264.4,124.6,264.4"/>
	<path d="M67.6,26.9C75,31.2,109,60.5,112,69.2c-11-10.2-19-23.1-29.3-34c5.2-0.3,8.2,10.5,13.7,10.2c-0.7-3.6,0.2-5.1,2.9-4.7l0,0
		c7,3.4,10,7.9,14.2,14.6l0,0c5.7,6.6,10.6,13.6,14.8,21.2l0,0l0,0c1.8,2.2,3.6,4.5,5.4,6.7c-1.1-2-2.2-4.1-3.3-6.1
		c-2.3-3.3-27.4-37.6-24.3-38.3c8.7-2,31.2,44.5,32,43.9c4-2-29.6-45.1-26.6-50.4c9.4,6.8,18,48,29.1,48c-1.6,0-11.1-24.9-12.7-28.1
		c3.6-1.8,11.1,14,12.1,15.7l0,0l0,0l0,0c4.4,9.6,6.7,29.9,15.7,36.5C146.9,83.1,136.3,62,131,39.5c2.2,9.3,16.9,49.5,24.8,53.4
		c-5.5-2.7-10.9-35.4-6.7-39c6.7,8.2,3.7,53.3,14.7,54.6c-7-0.8-9-56.5-9-63.8c6.7,6.7,8.5,70.3,14.5,70.3c-2.8,0-4.7-65.9-4.7-72.5
		c19,19-2.1,51.8,8.8,73.6c-0.3-21.5,9.2-44.9,3.5-66.2c2.6,9.7-8.2,63.1-0.8,66.7c-4.5-2.3,9.7-52.6,9.7-59.7c0.7,6.9-2,72-8.6,72
		c7.7,0,13.8-56.9,19.8-63.8c-3.2,19.3-14.4,37.6-14.4,57.4c-1.5-1.5,16.1-54.7,20.8-54.7c-0.4,5.7-17.9,61.5-18.7,61.1
		c1.6,0.8,22-58.7,26.5-58.7c7.2,3.2-21,47.9-18,49.4c-1.5-0.8,24.6-37.7,24.6-42.1c-0.8,4.9-11.4,37.4-17.5,37.4
		c-2.1,3.8-4.3,7.5-6.4,11.3c0.7,0.7,24.9-44.5,30.7-41.2c-11,0-22.2,37.5-28.9,44.2c0.9,0.8,32.4-37.3,36-40.9
		c0,14.7-27.2,44.5-39.3,52.6c13.5-12,21.9-30.4,38.6-38.7c-6.3,7.7-19.5,35-30.8,35c12.8,0,25.4-22.7,35.6-28.8
		c-3.2,3.9-10.5,18.4-16.3,18.4l0,0c-5.5,4.1-15.8,15.1-22.9,15.1c-0.1-0.6,30.6-18,33.3-18.8c-8.4,0-29.5,18.3-33.5,24.9
		c5.6-9,21.2-6.6,28.5-14c-4.5,3.1-27.1,23.1-32.1,19.8c4.2,4.2,22.9-12.2,29.8-12.2c-5.5,0-29.8,9.7-31.5,16.4
		c11.7,0,22-9.2,33.1-11.5c-9,4.4-19.7,6.2-27.8,12.6c3.2-1,6.4-1.2,9.7-0.5c-3.7,1.4-7.5,2.7-11.3,3.8c1.9-0.1,3.7-0.3,5.6-0.4l0,0
		c4.7,0,9.4,0,14.1,0c-7.6,0-51.9,2.3-52,2.7c30.8,0,33.9,68.3,33.4,88.2c-0.4-5.8-14.7-54-11.8-55.5c1.9,24.7,12.1,45.7,6.3,71.1
		c1.3-5.8,1.5-58.1-5.5-58.1c-13.4,13.4,7.3,50.6-1.4,68.1c1.2-8,10.3-44.5,0.1-49.6c11.2,5.6-6.8,47.8-11.1,56.3
		c1.1-6.5,10-67,4.5-67c2.2,23.8-8.4,48.9-15.8,71c1.3-5,4.4-55.7,6.4-55.7c-4.4,0-16.8,54.8-19.4,61.3c1.7-6.7,9.7-66.4,13-66.4
		c-1.6,0-19.1,66.1-21.8,73.6c3.5-18.3,0.7-58.6,17.2-71.2c-10.8,21.3-18.1,44.2-29.4,65.3c1.6-6.5,26.2-62.3,24.1-63.3
		c1.7,0.9-34.4,53.9-34.4,60.3c0-9.7,34.2-58.8,29-64c-10.6,17.4-26.1,35.7-30.2,56.2c0-24.4,26.7-40,26.7-63.7
		c-17,17-16.2,45.3-33.5,61.7c2.4-21,28.4-51.6,28.4-67.4c-9.5,9.8-14.7,23.4-23.7,33.6c-4.8,5.5-24,17.1-25.3,23.2
		c1.8-8.4,39.3-67.3,46.7-63.6c-5.6-2.8-53.9,50.7-59.5,58.1c8.8-20.7,66.7-54.9,66.7-75c-28.5,18.4-45.5,48.7-69,72.2
		c-10.8-32.3,50.1-54.2,63.4-77.5c0,7.4-23.5,20.3-29,24.1c-17.4,12.5-28.2,24.7-37.8,44c-2.6-14.5,43.8-77,63.5-74.1
		C117.5,199,58.2,211,58.2,240C54,220.3,83.7,207.5,97,200.8c7.3-3.9,14.4-8.2,21.3-12.8c-16.8,0-65.8,29.1-65.8,47.8
		c0-32.2,45.9-54.6,72.4-60.2c-24.4,5.3-82,21.8-82,54.3c-2.7-35.9,43.6-50.4,71.1-56.4c-22.7,5.4-44.8,15.5-67.3,20.4
		c-8.2,3.7-14.8,9.2-19.9,16.6c8.6-22.6,44-31.5,65.2-35.2c17.7,0,33.9-10.3,52.3-10c-23.5,0-45.5,10.7-69,10.7
		c-13,1.7-26.1,6.7-39.3,6.7c-6.3,2-12.6,4.1-18.8,6.3c26.1-17.5,55.2-18.6,84.9-25.2c3-0.6,39-7.5,39-3.5c0-1.1-16.1-2.6-18.4-2.8
		c3.4,0.5,6.7,0.9,10.1,1.4l0,0c16.3-2.5-20.2-4-16.8-3.8c-11.7-0.5-24.8,2.7-36.6,2.9c-9.6,0.1-19.2-0.9-28.7-1.1
		C46.7,156.8,4,156,20,156c9.2-2.9,18.6-4.6,28.2-5.2l0,0c10.7,0,44.1,10.6,53.3,2.8c-16.9,14.3-67.1-14.8-91.1,1.2
		c4.8-3.2,18.4-13.3,25.7-13.3c34.4,0,66.7,11.3,100.3,16.3c-29.7-4.4-83.9-30.3-112.2-16.5c-6.5-11.5,35.6-7.7,36.1-7.6
		c20.6,2.6,43.5,9.2,63.7,14.2c1.1-1.9-42.3-9.7-39.6-9.2c-14.8-3.4-30.9-9.1-46.3-9.1c-1.2,0.4-10.8,2.6-4.3-1.7l0,0
		c14.9-7.6,29,3.9,44.6,3.9l0,0c4.8,0,15.7,0.9,20,3.4c-8-0.6-74-27.4-78.9-20.8c15-7.7,26.8,7,41.4,7l0,0l0,0
		c4.8,0,17.6,6.5,21.5,7.5l0,0c3.6,0,15.6,8.4,19.1,4.9c-0.3,0.6-35.9-12.6-38.1-13.1l0,0c-11-5.3-23.2-8.5-34.1-13.5
		c-1.3-0.6-24.5-6.8-12.6-6.8l0,0l0,0l0,0l0,0l0,0l0,0l0,0l0,0c0.8,0,1.6,0,2.4,0c35.1,0,79,31.9,112.2,43c1.8-8-60.9-33.8-68.6-38
		l0,0c-5-2.9-30.9-27-34.8-27.4c14.9,1.4,99.5,50.3,98.7,56.9c0.9-7.3-83.9-56.7-89.1-56.7c25.3,0,42.6,34.5,63.9,34.5
		c2.7,0,17.3,12.3,18.3,13C101.9,103.5,61.9,80.4,36.4,68c15.5,4.2,42.9,29.4,56.5,29.4C90,92.9,36.8,59.1,36.1,62.2
		C58,61.4,79.5,79.1,95.4,92.3l0,0c2.9,1.8,5.5,3.9,8.7,5.2c-18.3-7.5-47.3-36-60.8-50.7l0,0c1.6,1.1,3.1,2.3,4.7,3.4
		c14.7,9.6,27.2,16.7,40.3,27.9C89.3,78.9,102,94,96,85l0,0c-7.9-3.8-10.6-8.9-7.9-15.5c7.7,5.4,16.2,16.6,23.1,23.5
		c-5-5-9.6-10.7-14.6-15.7l0,0c-4.6-7.6-15.5-7.5-19-13.6c6.6,0.2,36.7,24.6,36.4,24.7c-4.3,0-13.5-19.4-16.1-23.3l0,0
		C91.6,53.5,79.3,33.7,67.6,26.9"/>
	<path style="fill:#FFFFFF;stroke:#FFFFFF;stroke-width:3;stroke-linecap:round;stroke-linejoin:round;stroke-miterlimit:10;" d="
		M177.8,216.9c-0.6,2.1-1.1,4.2-1.7,6.3C176.7,221.1,177.2,219,177.8,216.9"/>
	<path style="fill:#FFFFFF;stroke:#FFFFFF;stroke-width:3;stroke-linecap:round;stroke-linejoin:round;stroke-miterlimit:10;" d="
		M181.6,165.4c20,10,67.1,109.6,73.8,109.6C248.1,253,215.2,165.4,181.6,165.4"/>
	<path style="fill:#FFFFFF;stroke:#FFFFFF;stroke-width:3;stroke-linecap:round;stroke-linejoin:round;stroke-miterlimit:10;" d="
		M197.8,180C197.7,180,197.7,180,197.8,180"/>
	<path style="fill:#FFFFFF;stroke:#FFFFFF;stroke-width:3;stroke-linecap:round;stroke-linejoin:round;stroke-miterlimit:10;" d="
		M178.3,170C175.3,170,180.3,170,178.3,170"/>
	<path style="fill:#FFFFFF;stroke:#FFFFFF;stroke-width:3;stroke-linecap:round;stroke-linejoin:round;stroke-miterlimit:10;" d="
		M185.4,178.6c21.2,8.9,58.3,65,65.8,95C239.8,236.6,222.7,197.2,185.4,178.6z"/>
	<path style="fill:#FFFFFF;stroke:#FFFFFF;stroke-width:3;stroke-linecap:round;stroke-linejoin:round;stroke-miterlimit:10;" d="
		M250.3,273.7c-3.5,1.4,1.4,13.1,2.1,12.4c-0.2-2.6-0.4-5.1-0.6-7.7l0,0C251.3,276.8,250.8,275.3,250.3,273.7"/>
	<path style="fill:#FFFFFF;stroke:#FFFFFF;stroke-width:3;stroke-linecap:round;stroke-linejoin:round;stroke-miterlimit:10;" d="
		M260.8,274.3c-0.1,2.9-0.3,5.8-0.4,8.7C260.5,280.1,260.7,277.2,260.8,274.3"/>
	<path style="fill:#FFFFFF;stroke:#FFFFFF;stroke-width:3;stroke-linecap:round;stroke-linejoin:round;stroke-miterlimit:10;" d="
		M262.2,283.5c0.7,2.1,1.4,4.1,2.1,6.2C263.6,287.6,262.9,285.6,262.2,283.5 M265.8,288.3L265.8,288.3L265.8,288.3"/>
	<path style="fill:#FFFFFF;stroke:#FFFFFF;stroke-width:3;stroke-linecap:round;stroke-linejoin:round;stroke-miterlimit:10;" d="
		M251.9,284.6c-2.8,1.4-5.5,2.7-8.3,4.1C244.8,291.7,253.9,286.6,251.9,284.6"/>
	<path style="fill:#FFFFFF;stroke:#FFFFFF;stroke-width:3;stroke-linecap:round;stroke-linejoin:round;stroke-miterlimit:10;" d="
		M270.5,291.1c-2.1-0.5-4.1-0.9-6.2-1.4l0,0l0,0l0,0c0.7,0.1-20.5-1.6-20.5-0.2c0-3.1,15.6,8.3,15.7,8.3
		C255.6,288,259.3,285.8,270.5,291.1 M253.5,292.2"/>
</g>
</svg>
