<?xml version="1.0" encoding="utf-8"?>
<!-- Generator: Adobe Illustrator 21.0.2, SVG Export Plug-In . SVG Version: 6.00 Build 0)  -->
<svg version="1.1" id="Layer_2" xmlns="http://www.w3.org/2000/svg" xmlns:xlink="http://www.w3.org/1999/xlink" x="0px" y="0px"
	 viewBox="0 0 500 500" style="enable-background:new 0 0 500 500;" xml:space="preserve">
<g>
	<g>
		<path style="fill:#D61D1D;" d="M205.9,283.9l-2.9,0.2c0,0,1.7,12-2.5,23.7c-4.2,11.7-8.6,15.8-8.9,15.9
			c-0.4,0.1-14.9,5.1-14.8,6.4c0.1,1.4-0.3,12.6-1,15.2c-0.7,2.6-8.7,6.1-10.4,8.9s0.5,6.3-1.6,9.9c-2,3.6-8.7,4.8-10.6,6.7
			c-1.9,1.8-5.3,9.3-6.3,10.2c-4,3.7-39.6,13.4-44.8,14.2l-0.1,2.9c0,0,25.7,5.1,29.9,3.1c4.2-2,5.5-2.6,9.2-6.2
			c0,0,7.4-5.2,22.2-7.9c14.9-2.6,29.3-24,29.3-24s7.6,0.4,14.6-5.3c5-4.1,1.5,15.6,1,17.5c-0.5,2,0.4,8.6,0.4,8.6s-7,16.7-7.6,18.1
			c-0.6,1.3-4,6.8-4,6.8s-7,3.2-9.2,10c-2.2,6.8-10.2,8.5-10.2,13.5c-0.1,5,6.8,24.3,10.4,27.7l2.1-0.7c0,0-2.4-14.6-1.6-18.2
			c0.8-3.5,3.5-5.9,8.5-6.9c4.9-1,8.5-0.5,10.2-10.1c1.8-9.6,20.2-15.2,23.1-20.1c2.9-4.9-0.9-7.3,3.4-11.3
			c4.3-4.1,6.4-1.3,12.2-6.1c5.8-4.8,4.3-8.7,5.5-9.3c1.2-0.6,2.3-0.9,2.8,0c0.6,0.8,7.2,14,8.5,17.7c1.3,3.7,4.4,9.2,4.5,14.7
			c0.1,5.5-1.8,11.4-6,17s-7.1,8.8-7,13.6c0.1,4.8,2.3,6.6,2.9,10s0.3,15.6,1.4,18.7c0,0,5.5-10.8,7.4-17.4
			c1.9-6.6,0.6-8.7,2.4-11.8c1.9-3.1,10.6-9.8,11.6-14.4c1-4.6,1.7-7.9,3.2-13.3c1.5-5.4,3.2-9.2,3.1-11.6c-0.2-2.5-1-7.7-0.1-9.8
			c1-2.1,5.3-9.9,5-14.1s-3.2-8.2-1.3-9c1.9-0.8,5.9,3.3,10.7,7.6s8.8,8.9,9,11.4c0.1,2.4-2.1,6.7-1.7,11.1s7.5,8,11.1,10.7
			s6.7,8,8.6,12.5c1.9,4.5,2.8,10.7,2.3,13.8c-0.5,3.1-2.9,6.8-4,10.9s-5.3,18.6-5.3,18.6s0.8,0.5,0.8,0.3c0-0.2,7.5-10.1,12.1-17.6
			c4.6-7.6,9.1-13.8,8.5-20.1c-0.5-6.2-5.4-13.3-6.1-17.2s0.1-10-2.9-14.8c-3-4.8-5.7-8.1-6.7-12.8c-1-4.7,1.6-9.8,0.7-11.7
			c-0.9-1.9-12.9-18.1-9.8-20c3.1-1.9,10.6,8.5,18.8,16.8c8.1,8.3,14.4,16.5,17,19.6s2.2,6.6,5,9.9s3.5,4.4,9.8,6.1
			s21.4,6.3,25.7,6.2s-9.4-4.1-14.1-8.5s-7.9-13.9-12-17.6c-4.1-3.8-5.5-6.1-6.5-11c-1.1-4.8-0.2-10-2.8-14.5
			c-2.6-4.5-3.4-8.8-7.8-8.6c-4.4,0.2-6.5-0.5-7-1.9c-0.5-1.5-1.4-5.5-5.2-7.6c-3.8-2.1-7.2-2.1-8.9-7.6s-2.5-9.9-4-10.9
			c-1.5-1.1-10.8-1.4-15.2-3.5c-4.4-2.1-11.2-12.5-11.2-12.5l-97.8-20.6"/>
		<path style="fill:#FFFFFF;" d="M201.4,283.9c0,0,3.9,12.2-0.3,23.9c-4.2,11.7-8.6,15.8-8.9,15.9c-0.4,0.1-14.9,5.1-14.8,6.4
			c0.1,1.4-0.3,12.6-1,15.2c-0.7,2.6-8.7,6.1-10.4,8.9s0.5,6.3-1.6,9.9c-2,3.6-8.7,4.8-10.6,6.7c-1.9,1.8-5.3,9.3-6.3,10.2
			c-4,3.7-39.6,13.4-44.8,14.2l-0.1,2.9c0,0,25.7,5.1,29.9,3.1c4.2-2,5.5-2.6,9.2-6.2c0,0,7.4-5.2,22.2-7.9
			c14.9-2.6,29.3-24,29.3-24s7.6,0.4,14.6-5.3c5-4.1,1.5,15.6,1,17.5c-0.5,2,0.4,8.6,0.4,8.6s-7,16.7-7.6,18.1c-0.6,1.3-4,6.8-4,6.8
			s-7,3.2-9.2,10c-2.2,6.8-10.2,8.5-10.2,13.5c-0.1,5,6.8,24.3,10.4,27.7l2.1-0.7c0,0-2.4-14.6-1.6-18.2c0.8-3.5,3.5-5.9,8.5-6.9
			c4.9-1,8.5-0.5,10.2-10.1c1.8-9.6,20.2-15.2,23.1-20.1c2.9-4.9-0.9-7.3,3.4-11.3c4.3-4.1,6.4-1.3,12.2-6.1
			c5.8-4.8,4.3-8.7,5.5-9.3c1.2-0.6,2.3-0.9,2.8,0s7.2,14,8.5,17.7c1.3,3.7,4.4,9.2,4.5,14.7c0.1,5.5-1.8,11.4-6,17s-7.1,8.8-7,13.6
			c0.1,4.8,2.3,6.6,2.9,10c0.6,3.5,0.3,15.6,1.4,18.7c0,0,5.5-10.8,7.4-17.4c1.9-6.6,0.6-8.7,2.4-11.8c1.9-3.1,10.6-9.8,11.6-14.4
			c1-4.6,1.7-7.9,3.2-13.3c1.5-5.4,3.2-9.2,3.1-11.6c-0.2-2.5-1-7.7-0.1-9.8c1-2.1,5.3-9.9,5-14.1c-0.3-4.1-3.2-8.2-1.3-9
			c1.9-0.8,5.9,3.3,10.7,7.6c4.7,4.3,8.8,8.9,9,11.4c0.1,2.4-2.1,6.7-1.7,11.1s7.5,8,11.1,10.7s6.7,8,8.6,12.5s2.8,10.7,2.3,13.8
			c-0.5,3.1-2.9,6.8-4,10.9s-5.3,18.6-5.3,18.6s0.8,0.5,0.8,0.3c0-0.2,7.5-10.1,12.1-17.6c4.6-7.6,9.1-13.8,8.5-20.1
			c-0.5-6.2-5.4-13.3-6.1-17.2s0.1-10-2.9-14.8c-3-4.8-5.7-8.1-6.7-12.8c-1-4.7,1.6-9.8,0.7-11.7c-0.9-1.9-12.9-18.1-9.8-20
			c3.1-1.9,10.6,8.5,18.8,16.8c8.1,8.3,14.4,16.5,17,19.6c2.6,3.1,2.2,6.6,5,9.9c2.8,3.3,3.5,4.4,9.8,6.1c6.3,1.7,21.4,6.3,25.7,6.2
			c4.4-0.1-9.4-4.1-14.1-8.5c-4.7-4.4-7.9-13.9-12-17.6c-4.1-3.8-5.5-6.1-6.5-11s-0.2-10-2.8-14.5c-2.6-4.5-3.4-8.8-7.8-8.6
			c-4.4,0.2-6.5-0.5-7-1.9c-0.5-1.5-1.4-5.5-5.2-7.6c-3.8-2.1-7.2-2.1-8.9-7.6s-2.5-9.9-4-10.9c-1.5-1.1-10.8-1.4-15.2-3.5
			c-4.4-2.1-11.2-12.5-11.2-12.5l-0.9,11.3c0,0,12,5.8,15,7.2c3,1.4,4.5,2.4,6.1,0.6c1.5-1.7,2.4,4.9,3,6.4c0.7,1.5,0.6,4.7,3.6,6
			c3,1.3,5.1,1.1,6.4,3.8c1.4,2.7-0.5,4.8,6.5,9.1c7,4.3,7.6,3.2,9.4,4.1c1.8,0.9,3.3,2.6,4.4,5.5c1,2.8,3.8,7.8,4.3,11.3
			c0.5,3.5,2.1,7.8,0.8,10.9c0,0-2.7-3.5-4.2-7.2c-1.5-3.7-4.8-8-8.4-9.3s-9.5-4.3-13.6-9.9c-4.1-5.6-5.9-7.3-9.5-8.1
			s-6.6-0.7-8.5-2.3c-1.9-1.5-1.9-1.4-2.7-1.1c-0.8,0.3-2.2,4.7-1,9s2.3,10,5.5,13.5s5.6,6.3,5.7,8.6c0.1,2.3-1.5,4.2-1.4,7.4
			c0.1,3.2,3.8,13.1,4.5,14.6c0.7,1.5,2.7,6.5,3.5,7.6c0.8,1.1,4,6,3.7,6.8c-0.3,0.8-1.9-0.1-3.7-2c-1.7-1.9-9.1-9.5-9.9-11.5
			c-0.9-1.9-2.6-2.3-1.8-6.9c0.8-4.6-2.7-9.7-5.8-14.3c-3.2-4.5-16.3-14-21.8-13.6s-4.8,4-4.5,7.7c0.4,3.7-0.4,5.9-1.2,9
			s-1.1,3.7-0.6,6.2c0.5,2.5-1.3,6.1-1.9,7.2c-0.6,1.1-2.5,3.7-2.5,7.5c0,3.7,0.3,7.5,0.6,10.9c0.3,3.4-1.1,9.2-2.9,11.4
			c-1.8,2.2-8.2,8.1-8.2,8.1s4.1-9.1,5.1-14c1-4.8,0.7-10.6-2.5-20.8c-3.3-10.2-4.5-9.5-4.4-12s-0.5-5.9-5.5-10.2
			c-5-4.3-7-4.4-7.7-4.1c-0.7,0.3-4.3,5.4-6.3,6.6s-7.8,5.6-12.2,6.2c-4.4,0.5-7.6,8.3-7.7,10.1c-0.1,1.8,0.2,5-0.5,5.9
			c-0.7,0.8-4.3,3.5-4.9,4.3c-0.7,0.8-2,2.8-7.6,5.8s-4,5.8-5.8,6.7c-1.8,0.9-9.2,8.3-11.2,7.8c-1.9-0.5-2.6-5.4,2.9-9.9
			c5.5-4.4,9.4-11.2,10.4-14.7c1-3.5,4.4-7.4,4.5-8.7c0.1-1.3-1.5-7.6-0.4-8.9c1.1-1.3,4-5.2,4.2-10.5c0.2-5.2,1.3-6.9-1.6-10.4
			c-2.9-3.5-1.2-10.7-6.5-10.4c-5.3,0.3-3,4.1-8.4,6.5c-5.4,2.5-5.9-0.4-12.3,4.3c-6.4,4.7-4,5.6-5.8,7.4c-1.8,1.8-7.9,5.2-10.5,6.8
			s-9.4,4-12.4,5.2s-6.8,2.6-6.8,2.6s1-6.6,6.3-8.7s8.5-7,9.5-9.5c1-2.5-0.2-5.5,4.5-8.3c4.7-2.8,5-6.5,5.9-7.6s3.1-7.7,3.7-10.3
			c0.6-2.6,0.7-3.2,2.2-4c1.5-0.8,7.9-5,10.2-7.5c2.3-2.5,9.6-10.1,9.6-10.1l-0.6-32L201.4,283.9z"/>
	</g>
	<path style="fill:#FFFFFF;" d="M249.6,359.4c-3.2-0.1-5.9,5-12.5,5.2s-13.4-12-15.9-19.3c-2.5-7.4-13.5-27.1-19.9-28.5
		c0,0,3.4-10.5,2.9-19.9c-0.5-9.4-2.2-11.9-5-17.3s-11.1-11.8-10.5-22c0.7-10.2,4.1-29.6,4.1-29.6l11.1-61.7l85.6-8.1l37.5,35.1
		l-8.3,51.2c0,0,1.1,10.4-1.1,17.7c-2.2,7.3-3.7,15.4-13.4,21.8c0,0-5.5,17.6-3,31.5c0,0-6.6,7.3-14,17.2
		c-7.5,9.8-11.7,30.5-23.8,32C251.4,366.3,257.2,359.7,249.6,359.4z"/>
	<linearGradient id="SVGID_1_" gradientUnits="userSpaceOnUse" x1="241.2132" y1="189.4967" x2="257.4284" y2="180.1348">
		<stop  offset="0" style="stop-color:#FFFFFF"/>
		<stop  offset="8.810942e-02" style="stop-color:#F8F8F8"/>
		<stop  offset="0.2164" style="stop-color:#E5E5E5"/>
		<stop  offset="0.3693" style="stop-color:#C5C5C5"/>
		<stop  offset="0.5413" style="stop-color:#989898"/>
		<stop  offset="0.729" style="stop-color:#5F5F5F"/>
		<stop  offset="0.9271" style="stop-color:#1B1B1B"/>
		<stop  offset="1" style="stop-color:#000000"/>
	</linearGradient>
	<path style="opacity:0.49;fill:url(#SVGID_1_);" d="M228,166.7c0,0,12.6,6.9,20.2,18.7c3.3,5.2,12.3,23.4,12.3,23.4
		s-4-29.3-3.9-29.8C257.1,176,228,166.7,228,166.7z"/>
	<path style="fill:#D61D1D;" d="M190.9,243.4c0,0-7.1-0.7-7.1-9.2c0-8.5,5.3-4.8,2.2-7.6c-3-2.8-3.4-5.7-3.6-8.4
		c-0.2-2.7,4.3-7.1,4.8-10.5c0.5-3.4-3.3-10.6-3.3-10.6c-5.9,1.7-21.8-6.2-24-4.9c-0.6,0.3-9.6,34.3-9.6,34.3s1.4,10.2,0.9,13.6
		c-1.3,7.7-21.4,13.4-18.7,20.6c2.7,7.2,17.9,19.7,19,20.4c1,0.8,11.2,5.3,11.5,6.8c0.3,1.5-5.6,12.5-5.6,12.5s5.1,4.4,3.9,10.3
		c-1.2,5.8-8.3,5.7-11.8,4.5s-7-6.8-4.3-10.9c2.7-4.2,11-4.3,11-4.3s2.2-8.9,0.8-9.7c0,0-13.3-7-17.8-10.4
		c-4.5-3.4-13.8-16.5-15.5-20.5c-1.7-4-0.8-5.2,4.2-10.2c5-5,6.9-11.2,9.5-15.7c2.6-4.5,4.7-5.8,4.8-9.7c0-3.9-0.7-20.9-0.5-29.7
		c0.2-8.8-0.3-21.9,1-23.7c1.3-1.8,2.4-4.8,5-4.9s25.9,1.9,28.9,1.6c2.9-0.3,7.2-3,9.3-4.6c2.2-1.6,10.1-5.6,17.6-7.8
		c7.6-2.2,9.9-3.2,11.7-2.7s16.4,17.1,16.4,17.1s-12.6-0.4-23.6,17.5c-11,17.9-9.7,32-7.9,45.4C200,232.1,193.9,237.8,190.9,243.4z"
		/>
	<path style="fill:#FFFFFF;" d="M333.4,18.5c0,0-10.7,10.5-19.2,13.5c-8.5,3.1-26.8,1.1-27.9,0.9c0,0-6.1-2.1-13-0.1
		c-6.9,2-11.4,12.5-15.3,14.4c0,0-15.7,8.1-17.7,9.1c-2,1-16.2,5.8-18.5,10.8c-2.2,5.1,0,18.4,0.2,23c0.1,4.6,0.3,25.5,0.1,26.9
		c-0.1,1.4-3.3,6.7-3.3,6.7s-0.3,0.9,0.7,2.3s-9.3-3.8-17.1-0.8c-7.7,3-30.1,18.5-30.4,19c-0.3,0.5-4,4.6-4,4.6s-12.3,1.1-16.7,0.4
		c-4.4-0.6-16.2-2.5-18.8-0.9c-2.6,1.6-6.2,10.7-5.7,18.5c0.4,7.8,1.8,46.4,2.1,49.1c0.3,2.7,0.4,13.7,0.4,13.7l-9.8,14.6
		c0,0-5.7,5.5-5.1,10.4c0.5,5,20.5,25.2,20.5,25.2s15.5,7,21.6,10.2c0,0-13-6.8-17.4-10.2c-4.5-3.4-13.8-16.5-15.5-20.5
		c-1.7-4-0.8-5.2,4.2-10.2c5-5,6.9-11.2,9.5-15.7c2.6-4.5,4.7-5.8,4.8-9.7c0-3.9-0.7-20.9-0.5-29.7c0.2-8.8-0.3-21.9,1-23.7
		c1.3-1.8,2.4-4.8,5-4.9s25.9,1.9,28.9,1.6c2.9-0.3,7.2-3,9.3-4.6c2.2-1.6,10.1-5.6,17.6-7.8c7.6-2.2,9.9-3.2,11.7-2.7
		s16.4,17.1,16.4,17.1s8.4,1.4,13.7,8.2c5.2,6.8,6.7,8.2,9.4,14.1c2.8,5.9,5.8,17.3,5.8,17.3s4.9-23.1,5.4-28
		c0.5-4.9,1.6-7.3-0.9-16.6c-2.5-9.3-2.4-14.7-1.9-17.2c0.5-2.5,7.6-14.2,7.9-15.5s-0.7-5.8-1.2-8.5c-0.5-2.8-3.7-10.5-4.8-13.8
		c-1.1-3.3-2.5-11.1-0.3-16.3c2.1-5.2,2.9-9.9,4.5-11.9c1.6-2,4.4-7.4,5.1-8.9s4.1-11.6,3.9-12.1c-0.1-0.5,0-8.1,2.3-10.1
		c2.3-2,22.5-4.6,27.7-5.8c5.2-1.3,16.7-4.2,19.9-10.1c3.2-5.9,6.4-15.3,6.4-15.3L333.4,18.5z"/>
	<path style="fill:#D61D1D;" d="M260.5,208.8c0,0,4.9-23.1,5.4-28c0.5-4.9,1.6-7.3-0.9-16.6c-2.5-9.3-2.4-14.7-1.9-17.2
		c0.5-2.5,7.6-14.2,7.9-15.5s-0.7-5.8-1.2-8.5c-0.5-2.8-3.7-10.5-4.8-13.8c-1.1-3.3-2.5-11.1-0.3-16.3c2.1-5.2,2.9-9.9,4.5-11.9
		c1.6-2,4.4-7.4,5.1-8.9s4.1-11.6,3.9-12.1c0,0-0.7,21.2,0.9,26.7c1.6,5.5,2.5,9,10.2,14c7.7,4.9,7.8,13,8.3,17.8
		s-1.8,12.9,8.5,12.7c10.3-0.2,12.3,14.2,12.9,16.6s1.2,6.1,7,5.4c0,0-9.9,2.5-13.6,4.8c-3.7,2.3-24.5,15.2-24.5,15.2
		s-6.3,0.1-14.1,10.5C266.2,194.1,260.5,208.8,260.5,208.8z"/>
	<g>
		<g>
			<path style="fill:#D61D1D;" d="M208.2,282.9c0,0,4.9,18.2,2.7,22.5c0,0,10.1,6.9,13.5,10.6c3.3,3.6,9.2,11.2,12.7,11.7
				c3.5,0.5,27.9,2.8,30.9,1.2s10.1-9.5,14.5-12.8c4.3-3.4,7.9-5.3,7.9-5.3s-0.2-8.2,2.2-13.2c2.4-5,4.1-11.9,4.1-11.9
				s-10.4,14.3-20.3,17c-9.8,2.6-37.9,0.7-41.9-0.8C230.3,300.3,224,299.1,208.2,282.9z"/>
			<path style="fill:#B70808;" d="M208.2,283C208.3,283.1,208.3,283,208.2,283C208.3,282.9,208.3,283,208.2,283l0.1,0l0.1,0.2
				l0.1,0.3l0.2,0.7l0.4,1.4c0.3,0.9,0.5,1.8,0.8,2.8c0.5,1.9,0.9,3.7,1.3,5.6c0.4,1.9,0.7,3.8,0.9,5.7c0.1,1,0.2,2,0.2,3
				c0,1-0.1,2-0.6,3.2l-0.3-1.3c3.3,2.2,6.6,4.4,9.7,6.9c1.6,1.2,3.2,2.5,4.5,4.1l3.9,4.4c1.3,1.4,2.6,2.9,4,4.1
				c0.7,0.6,1.4,1.2,2.1,1.7c0.4,0.2,0.7,0.4,1,0.5c0.2,0,0.3,0.1,0.5,0.1l0.7,0.1c3.9,0.5,7.8,1,11.7,1.4c3.9,0.4,7.8,0.7,11.7,0.9
				c1.9,0.1,4,0.2,5.8-0.2c0.2,0,0.4-0.1,0.6-0.2c0.2-0.1,0.4-0.2,0.6-0.3c0.4-0.3,0.8-0.5,1.2-0.8c0.8-0.6,1.5-1.2,2.2-1.9
				c2.9-2.6,5.6-5.5,8.6-8.1c1.5-1.3,3.1-2.6,4.7-3.7c1.6-1.2,3.2-2.3,5-3.3l-0.4,0.6c-0.1-2.2,0-4.4,0.2-6.6
				c0.3-2.2,0.6-4.4,1.5-6.6c0.9-2,1.6-4,2.2-6c0.6-2,1.2-4.1,1.7-6.2l2.3,1.1c-2.6,3.5-5.4,6.7-8.5,9.8c-1.6,1.5-3.2,2.9-5,4.2
				c-1.8,1.3-3.7,2.4-5.9,3.3c-2.2,0.9-4.4,1.1-6.6,1.4c-2.2,0.2-4.3,0.4-6.5,0.4c-4.3,0.1-8.6,0-12.8-0.2
				c-4.3-0.2-8.5-0.6-12.8-1.2c-1.1-0.1-2.1-0.3-3.2-0.5c-0.6-0.1-1.1-0.2-1.7-0.4c-0.3-0.1-0.6-0.2-0.9-0.3l-0.7-0.3
				c-2-0.7-4.1-1.6-5.9-2.7c-3.8-2.2-7.1-4.9-10.2-7.8c-0.8-0.7-1.6-1.5-2.3-2.2c-0.8-0.7-1.5-1.5-2.2-2.3c-0.7-0.8-1.5-1.6-2.1-2.3
				C209.6,284.7,209,283.9,208.2,283z M208.1,282.8c0.7,0.7,1.6,1.4,2.5,2.1c0.9,0.8,1.6,1.4,2.4,2.2c0.8,0.7,1.6,1.4,2.4,2.1
				c0.8,0.7,1.6,1.4,2.4,2c3.3,2.7,6.7,5.1,10.4,7c1.8,0.9,3.7,1.6,5.7,2.3l0.8,0.3c0.3,0.1,0.4,0.1,0.7,0.2c0.4,0.1,1,0.2,1.4,0.3
				c1,0.1,2,0.3,3.1,0.4c4.2,0.4,8.4,0.6,12.6,0.8c4.2,0.1,8.4,0.2,12.6,0c2.1-0.1,4.2-0.2,6.2-0.4c2-0.3,4.1-0.5,5.8-1.2
				c3.6-1.3,7-3.9,10-6.6c3-2.8,5.9-5.9,8.4-9.2l4-5l-1.7,6.1c-0.6,2.2-1.3,4.2-2,6.3c-0.7,2.1-1.6,4.2-2.6,6.1
				c-0.9,1.8-1.4,3.9-1.7,6c-0.3,2.1-0.5,4.3-0.5,6.4l0,0.4l-0.4,0.2c-3.4,1.8-6.7,4-9.7,6.5c-2.9,2.6-5.7,5.4-8.6,8.1
				c-0.7,0.7-1.5,1.3-2.2,2c-0.4,0.3-0.8,0.6-1.2,0.9c-0.2,0.1-0.4,0.3-0.7,0.4c-0.2,0.1-0.6,0.2-0.8,0.3c-1.1,0.3-2,0.3-3,0.4
				c-1,0.1-2,0.1-3,0.1c-4,0.1-7.9-0.1-11.9-0.3c-4-0.2-7.9-0.4-11.8-0.8L237,329c-0.3,0-0.6-0.1-1-0.2c-0.6-0.2-1.1-0.5-1.6-0.8
				c-1-0.6-1.8-1.2-2.5-1.9c-1.5-1.4-2.9-2.8-4.2-4.3l-3.9-4.5c-1.2-1.4-2.7-2.6-4.2-3.9c-3-2.5-6.2-4.8-9.3-7.1l-0.7-0.5l0.4-0.8
				c0.3-0.6,0.5-1.5,0.5-2.4c0.1-0.9,0.1-1.8,0-2.8c-0.1-1.9-0.3-3.7-0.5-5.6c-0.2-1.9-0.5-3.8-0.9-5.6l-0.5-2.8l-0.3-1.4l-0.1-0.7
				l-0.1-0.4l0-0.2l0-0.1l0-0.1C208,282.9,208.1,282.8,208.1,282.8z"/>
		</g>
		<g>
			<g>
				<polygon style="fill:#FFFFFF;" points="217.6,291.9 217.2,300.7 219.7,305.9 223.8,305.7 224.7,297.3 				"/>
				<path style="fill:#848484;" d="M217.7,291.9c-0.1,3-0.1,5.9-0.2,8.8l0-0.1l2.6,5.1l-0.3-0.2l4.1-0.3l-0.4,0.4l0.4-4.2
					c0.1-1.4,0.3-2.8,0.5-4.2l0.2,0.4c-1.1-0.9-2.2-1.8-3.3-2.8C220,294,218.9,293,217.7,291.9z M217.6,291.8l3.6,2.4
					c1.3,0.8,2.5,1.7,3.8,2.6l0.2,0.2l0,0.3c-0.1,1.4-0.3,2.8-0.5,4.2l-0.6,4.2l0,0.4l-0.3,0l-4.1,0.2l-0.2,0l-0.1-0.2l-2.4-5.2
					l0-0.1l0-0.1L217.6,291.8z"/>
			</g>
			<g>
				<path style="fill:#FFFFFF;" d="M225.5,297.8c0,0-1.3,7.8-0.9,9c0.4,1.2,3.4,7.7,7.3,8.2c4,0.6,4.6-0.7,4.6-0.7s-1-4.4-0.3-5.8
					c0.7-1.4-4.5-7.6-4.5-7.6L225.5,297.8z"/>
				<path style="fill:#848484;" d="M225.5,297.8c-0.2,2-0.5,4.2-0.7,6.3c0,0.5-0.1,1.1-0.1,1.6c0,0.3,0,0.5,0,0.8
					c0,0.1,0,0.2,0.1,0.3c0,0.1,0.1,0.2,0.1,0.4c0.4,1,0.9,1.9,1.5,2.8c1.1,1.7,2.4,3.5,4.2,4.4l0.7,0.3l0.7,0.2
					c0.5,0.1,1,0.1,1.5,0.1c0.5,0,1,0,1.5-0.1c0.2-0.1,0.5-0.1,0.7-0.2c0.2-0.1,0.4-0.3,0.4-0.3l0,0.3c-0.3-1.2-0.5-2.5-0.6-3.8
					c0-0.6-0.1-1.3,0.1-2l0.1-0.4c0-0.1,0-0.2,0-0.3c0-0.2-0.1-0.5-0.3-0.8c-0.5-1.1-1.2-2.1-1.9-3.1c-0.7-1-1.4-2-2.2-3l0.1,0.1
					c-1-0.5-1.9-1.1-2.9-1.7L225.5,297.8z M225.5,297.7l3.1,1.4c1.1,0.5,2.2,1,3.3,1.5l0.1,0l0.1,0.1c0.8,1,1.6,1.9,2.4,2.9
					c0.8,1,1.5,2,2,3.2c0.1,0.3,0.3,0.6,0.3,1c0,0.2,0.1,0.4,0,0.7c-0.1,0.3-0.1,0.4-0.2,0.5c-0.1,0.5-0.1,1.1-0.1,1.7
					c0,1.2,0.2,2.4,0.5,3.6l0,0.2l-0.1,0.1c-0.3,0.4-0.5,0.5-0.8,0.7c-0.3,0.1-0.6,0.2-0.8,0.3c-0.6,0.1-1.1,0.1-1.7,0.1
					c-0.5,0-1.1-0.1-1.6-0.2c-0.3-0.1-0.6-0.1-0.8-0.2l-0.8-0.3c-2-1.1-3.3-2.9-4.4-4.7c-0.5-0.9-1-1.9-1.4-2.9
					c-0.1-0.1-0.1-0.3-0.1-0.4c0-0.1-0.1-0.3-0.1-0.4c0-0.3,0-0.5,0-0.8c0-0.5,0.1-1.1,0.1-1.6C224.7,301.9,225,299.9,225.5,297.7z"
					/>
			</g>
			<g>
				<path style="fill:#FFFFFF;" d="M246.6,303.5l-6.8-0.6c0,0-3.3,6.2-3.2,11.6c0,0,1.5,4,4.6,5.1c3.1,1.1,8.6,0,8.6,0l-0.6-10.3
					L246.6,303.5z"/>
				<path style="fill:#848484;" d="M246.6,303.5l-6.8-0.5l0.2-0.1c-0.9,1.8-1.6,3.7-2.2,5.6c-0.5,1.9-0.9,3.9-0.9,5.9l0-0.1
					c0.5,1.2,1.2,2.3,2.1,3.2c0.9,0.9,1.9,1.6,3.1,1.9c1.2,0.3,2.5,0.3,3.8,0.2c1.3-0.1,2.6-0.2,3.8-0.5l-0.4,0.5
					c-0.1-1.7-0.2-3.4-0.2-5.1c-0.1-1.7-0.1-3.4-0.2-5.1l0,0.1C248.1,307.5,247.4,305.6,246.6,303.5z M246.6,303.4
					c1,1.8,2,3.8,3,5.8l0,0l0,0.1c0.2,1.7,0.3,3.4,0.4,5.1c0.1,1.7,0.2,3.4,0.3,5.1l0,0.5l-0.4,0.1c-1.3,0.2-2.7,0.4-4,0.4
					c-1.3,0-2.7,0-4.1-0.3c-0.7-0.2-1.3-0.4-1.9-0.8c-0.6-0.4-1.1-0.9-1.6-1.4c-0.9-1-1.6-2.2-2.1-3.5l0-0.1l0-0.1
					c0-2.1,0.4-4.1,1-6c0.6-1.9,1.4-3.8,2.4-5.6l0-0.1l0.1,0L246.6,303.4z"/>
			</g>
			<g>
				<path style="fill:#FFFFFF;" d="M255.3,303.9c0,0-4.2,4.4-4.5,5.5c-0.3,1.1-0.3,10.4-0.3,10.4s2.8,2.8,6.6,1.2
					c3.8-1.6,5.6-3,5.6-3s0.1-7.4-0.5-9.6c-0.6-2.2-2.5-4.4-2.5-4.4L255.3,303.9z"/>
				<path style="fill:#848484;" d="M255.3,303.9c-0.9,1.1-1.9,2.2-2.8,3.3c-0.5,0.6-0.9,1.1-1.3,1.7c-0.1,0.2-0.2,0.3-0.2,0.5
					c0,0.2-0.1,0.3-0.1,0.5c0,0.4,0,0.7-0.1,1.1c-0.1,2.9,0,5.8,0,8.7l-0.1-0.2c0.8,0.7,1.8,1.2,2.8,1.4c1,0.2,2.1,0.1,3.1-0.2
					c1-0.4,2-0.9,3-1.4c1-0.5,1.9-1.1,2.8-1.7l-0.2,0.4c0-2.4,0-4.9-0.2-7.3c0-0.6-0.1-1.2-0.2-1.8c-0.1-0.6-0.3-1.1-0.5-1.7
					c-0.5-1.1-1.1-2.1-1.8-3.1l0.2,0.1C258.3,304.2,256.8,304.1,255.3,303.9z M255.3,303.8c1.4-0.1,2.9-0.1,4.4-0.2l0.1,0l0.1,0.1
					c0.8,0.9,1.6,2,2.2,3.1c0.3,0.6,0.5,1.2,0.7,1.8c0.1,0.6,0.2,1.3,0.3,1.9c0.1,1.2,0.2,2.5,0.2,3.7c0,1.2,0,2.5,0,3.7l0,0.3
					l-0.2,0.1c-1,0.7-2,1.2-3,1.7c-1,0.5-2,1-3.1,1.4c-1.1,0.4-2.4,0.5-3.5,0.2c-1.2-0.3-2.2-0.9-3.1-1.7l-0.1-0.1l0-0.1
					c0-2.9,0.1-5.8,0.3-8.8c0-0.4,0-0.7,0.1-1.1c0-0.2,0-0.4,0.1-0.6c0.1-0.2,0.2-0.4,0.3-0.5c0.4-0.6,0.9-1.2,1.4-1.7
					C253.3,306,254.2,304.9,255.3,303.8z"/>
			</g>
			<g>
				<path style="fill:#FFFFFF;" d="M266.1,303.9c0,0-3.7,3.1-3.9,4.5c-0.2,1.3,0.5,9.6,0.5,9.6s4.7,0.4,7.2-1.3s4.2-3.7,4.2-3.7
					l-1.4-9.6L266.1,303.9z"/>
				<path style="fill:#848484;" d="M266.1,303.9c-0.9,0.9-1.9,1.8-2.8,2.7c-0.4,0.5-0.9,1-1,1.6c-0.1,0.6,0,1.3,0,1.9
					c0.2,2.6,0.4,5.2,0.7,7.8l-0.3-0.3c1.1,0.1,2.1,0,3.2-0.1c1-0.1,2.1-0.3,3-0.8c0.5-0.2,0.9-0.5,1.3-0.9c0.4-0.3,0.8-0.7,1.2-1
					c0.8-0.7,1.6-1.5,2.3-2.2l-0.1,0.4c-0.5-3.2-0.9-6.4-1.3-9.7l0.4,0.3C270.6,303.8,268.4,303.9,266.1,303.9z M266.1,303.8
					c2.1-0.3,4.4-0.6,6.6-0.9l0.3,0l0.1,0.4c0.6,3.2,1.1,6.4,1.5,9.6l0,0.2l-0.2,0.2c-0.8,0.8-1.6,1.6-2.4,2.3
					c-0.4,0.4-0.9,0.7-1.3,1c-0.4,0.3-0.9,0.7-1.5,0.9c-1.1,0.5-2.2,0.7-3.3,0.8c-1.1,0.1-2.2,0.1-3.3,0l-0.3,0l0-0.3
					c-0.2-2.6-0.4-5.2-0.4-7.8c0-0.7-0.1-1.3,0.1-2c0.2-0.7,0.7-1.2,1.1-1.7C264.1,305.5,265.1,304.7,266.1,303.8z"/>
			</g>
			<g>
				<path style="fill:#FFFFFF;" d="M282.9,299.7l0.3,6.1c0,0-0.8,2.2-2.9,3.6c-2.1,1.4-6.2,3.6-6.2,3.6l-1.4-9.2
					c0,0,2.7-0.3,5.9-1.9C281.9,300.3,282.9,299.7,282.9,299.7z"/>
				<path style="fill:#848484;" d="M282.9,299.6l0.5,6.1l0,0l0,0c-0.4,1-0.9,1.8-1.6,2.6c-0.7,0.8-1.5,1.3-2.4,1.9
					c-1.7,1.1-3.4,2.1-5.1,3.1l-0.5,0.3l-0.1-0.6l-0.8-4.6c-0.3-1.5-0.5-3.1-0.7-4.6l-0.1-0.5l0.5-0.1c0.8-0.1,1.7-0.3,2.6-0.5
					c0.9-0.2,1.7-0.5,2.5-0.9c0.8-0.3,1.7-0.8,2.6-1.1L282.9,299.6z M282.8,299.7c-0.8,0.5-1.6,1-2.4,1.5c-0.8,0.5-1.4,0.9-2.3,1.3
					c-0.8,0.4-1.7,0.8-2.6,1.1c-0.9,0.3-1.8,0.5-2.7,0.7l0.4-0.6c0.2,1.5,0.4,3.1,0.6,4.6l0.6,4.6l-0.6-0.3c1.7-0.9,3.5-1.9,5.1-2.9
					c0.8-0.5,1.7-1,2.3-1.7c0.7-0.7,1.2-1.5,1.6-2.4l0,0.1L282.8,299.7z"/>
			</g>
			<g>
				<path style="fill:#FFFFFF;" d="M282.4,316.1l0.9-9c0,0-4.8,4.2-6.9,5.4s-2.1,1.3-2.1,1.3s-0.6,2.3-0.3,3.7
					c0.3,1.4,2.4,4.1,2.4,4.1L282.4,316.1z"/>
				<path style="fill:#848484;" d="M282.4,316.1l0.7-9l0.4,0.2c-1.4,1.3-2.8,2.5-4.3,3.7c-0.7,0.6-1.5,1.2-2.3,1.7l-2.4,1.5l0.2-0.3
					c-0.1,0.7-0.2,1.4-0.3,2c0,0.7-0.1,1.4,0.2,1.9c0.2,0.6,0.6,1.2,1,1.8c0.4,0.6,0.8,1.2,1.2,1.7l-0.7,0c1-0.9,2-1.7,3.1-2.6
					C280.2,317.8,281.3,316.9,282.4,316.1z M282.5,316.1c-0.9,1-1.8,1.9-2.8,2.9c-1,1-2,1.9-3,2.9l-0.3,0.3l-0.3-0.4
					c-0.5-0.6-0.9-1.1-1.3-1.7c-0.4-0.6-0.8-1.2-1.1-2c-0.3-0.8-0.2-1.6-0.2-2.3c0.1-0.7,0.2-1.4,0.4-2.2l0-0.2l0.2-0.1
					c0.8-0.5,1.6-0.9,2.4-1.4c0.8-0.5,1.5-1,2.3-1.6c1.5-1.1,2.9-2.3,4.4-3.5l0.5-0.4l-0.1,0.6L282.5,316.1z"/>
			</g>
			<g>
				<path style="fill:#FFFFFF;" d="M273.1,324.7l-4,3.5l-5.1,0.3l-2.3-4.7l0.9-4.7c0,0,6.6-1.1,8.1-2.7c1.5-1.6,2.9-2.3,2.9-2.3
					L273.1,324.7z"/>
				<path style="fill:#848484;" d="M273.1,324.7l-4,3.6l0,0l-0.1,0l-5.1,0.4l-0.2,0l-0.1-0.1l-2.3-4.7l0-0.1l0-0.1l0.9-4.7l0-0.3
					l0.3-0.1c2-0.4,4-0.9,5.9-1.6c0.5-0.2,0.9-0.4,1.3-0.6c0.2-0.1,0.4-0.2,0.5-0.4c0.2-0.1,0.4-0.4,0.5-0.5
					c0.8-0.7,1.6-1.4,2.7-1.9l0.8-0.4l-0.1,0.9c-0.2,1.8-0.3,3.6-0.5,5.3C273.6,321.3,273.4,323,273.1,324.7z M273.1,324.7
					c0-1.8,0-3.6,0-5.4c0-1.8,0.1-3.5,0.2-5.2l0.7,0.5c-0.8,0.4-1.6,1-2.3,1.7c-0.2,0.2-0.3,0.3-0.6,0.5c-0.2,0.2-0.5,0.4-0.7,0.5
					c-0.5,0.3-1,0.5-1.5,0.7c-2,0.7-4,1.1-6.1,1.4l0.3-0.3l-1,4.7l0-0.2l2.2,4.7l-0.2-0.1l5.1-0.2l-0.1,0L273.1,324.7z"/>
			</g>
			<g>
				<path style="fill:#FFFFFF;" d="M250.6,320.5l0.5,8.7l8.1,0.2l2.7-10.9c0,0-3,2.9-5.5,2.9C253.8,321.4,250.6,320.5,250.6,320.5z"
					/>
				<path style="fill:#848484;" d="M250.6,320.5l0.7,8.7l-0.2-0.2l8.1,0.1l-0.3,0.3c0.9-3.6,1.6-7.3,2.5-10.9l0.9,0.5
					c-0.8,0.7-1.6,1.4-2.6,1.9c-0.9,0.5-1.9,0.9-3.1,1c-1.1,0-2.1-0.2-3.1-0.4C252.5,321.2,251.5,320.9,250.6,320.5z M250.5,320.4
					c1.1,0.2,2,0.3,3.1,0.4c1,0.1,2,0.2,3,0.1c0.9-0.1,1.8-0.5,2.6-1c0.8-0.5,1.6-1.1,2.3-1.8l1.3-1.2l-0.4,1.7
					c-0.9,3.6-1.9,7.2-2.9,10.8l-0.1,0.3l-0.3,0l-8.1-0.3l-0.2,0l0-0.2L250.5,320.4z"/>
			</g>
			<g>
				<path style="fill:#FFFFFF;" d="M249,320.7l-1.8,8l-8.3-0.8l-1.7-12.2c0,0,1.3,3.3,5.5,4.2C246.9,320.8,249,320.7,249,320.7z"/>
				<path style="fill:#848484;" d="M249.1,320.6l-1.6,8.1l0,0.2l-0.2,0l-8.3-0.6l-0.3,0l0-0.3l-1.9-12.2l-0.6-3.9l1.6,3.6
					c0.4,0.9,1.1,1.8,1.9,2.4c0.8,0.7,1.8,1.2,2.8,1.5c1.1,0.3,2.2,0.5,3.3,0.7C246.8,320.4,247.9,320.5,249.1,320.6z M249,320.7
					c-0.5,0.1-1.1,0.1-1.7,0.1c-0.6,0-1.1,0-1.7-0.1c-1.1-0.1-2.3-0.2-3.4-0.5c-1.1-0.3-2.3-0.7-3.2-1.5c-1-0.7-1.7-1.6-2.3-2.8
					l1-0.3l1.5,12.2l-0.3-0.3l8.3,0.9l-0.2,0.2L249,320.7z"/>
			</g>
			<g>
				<path style="fill:#FFFFFF;" d="M217.4,303.7l0.4,6.7l4,2.9l2.1-2l-0.2-4.4c0,0-2.4-0.5-3.9-1
					C218.2,305.4,217.4,303.7,217.4,303.7z"/>
				<path style="fill:#848484;" d="M217.4,303.7c0.1,2.3,0.4,4.5,0.6,6.7l-0.1-0.2l4.1,2.8l-0.5,0l2-2.1l-0.1,0.3
					c-0.1-1.5-0.3-2.9-0.3-4.4l0.4,0.5c-1.2-0.3-2.4-0.6-3.6-1c-0.6-0.2-1.2-0.6-1.6-1.1c-0.2-0.2-0.4-0.5-0.6-0.8
					C217.6,304.3,217.4,304,217.4,303.7z M217.4,303.6c0.3,0.3,0.4,0.5,0.6,0.7c0.2,0.2,0.4,0.4,0.6,0.6c0.5,0.4,0.9,0.6,1.5,0.7
					c1.1,0.3,2.4,0.5,3.5,0.7l0.4,0.1l0,0.4c0.1,1.5,0.1,2.9,0.2,4.4l0,0.2l-0.1,0.1l-2.1,2l-0.2,0.2l-0.2-0.2l-3.9-3l-0.1-0.1
					l0-0.1C217.4,308.1,217.5,305.8,217.4,303.6z"/>
			</g>
			<g>
				<path style="fill:#FFFFFF;" d="M233.9,326.1l3.6-4.7l-0.8-5.6c0,0-3.8,0.6-6.6-0.7s-5.4-5.7-5.4-5.7l0.4,7.5L233.9,326.1z"/>
				<path style="fill:#848484;" d="M233.9,326l3.5-4.7l0,0.1l-0.9-5.6l0.3,0.2c-1.2,0.2-2.5,0.2-3.7,0.1c-1.2-0.1-2.5-0.4-3.6-1.1
					c-1.1-0.7-2-1.5-2.8-2.5c-0.8-0.9-1.6-1.9-2.3-3l0.8-0.3c0.2,2.5,0.3,5,0.4,7.5l-0.1-0.3c1.4,1.5,2.8,3.1,4.2,4.6L233.9,326z
					 M233.9,326.1l-4.6-4.3c-1.5-1.5-3.1-3-4.6-4.6l-0.1-0.1l0-0.2c-0.2-2.5-0.2-5-0.3-7.5l-0.1-1.7l0.9,1.5c0.6,1,1.3,2,2.1,2.9
					c0.8,0.9,1.6,1.8,2.6,2.4c1,0.6,2.1,0.9,3.3,1.1c1.2,0.2,2.4,0.1,3.6,0l0.3,0l0,0.2l0.7,5.7l0,0.1l0,0L233.9,326.1z"/>
			</g>
		</g>
	</g>
	<g>
		<g>
			<path d="M204,223.4c0.7,1.2,1,2.2,1.4,3.3l0.6,1.6c0.2,0.5,0.4,1,0.7,1.7c-0.7-0.1-1.3-0.5-1.7-1c-0.5-0.5-0.8-1.1-1-1.7
				c-0.2-0.6-0.3-1.2-0.3-1.9C203.6,224.6,203.7,224,204,223.4z"/>
		</g>
		<g>
			<path d="M203.8,231.3c0.4-0.1,0.7-0.2,1-0.2c0.3,0,0.6,0.1,0.8,0.2c0.2,0.1,0.5,0.3,0.7,0.5c0.2,0.2,0.4,0.5,0.5,0.8
				c-0.4,0.2-0.7,0.2-1,0.2c-0.3,0-0.6-0.1-0.8-0.2c-0.3-0.1-0.5-0.3-0.7-0.5C204.1,231.9,203.9,231.7,203.8,231.3z"/>
		</g>
		<g>
			<path d="M200.1,281.1c2,0.7,4.1,1.3,6.1,1.5c0.5,0,1,0,1.5-0.1c0.2,0,0.5-0.1,0.7-0.2l0.8-0.2l3.1-0.7c2.1-0.5,4.1-0.9,6.2-1.5
				c2-0.6,4.1-1.1,5.9-2c0.9-0.4,1.8-1,2.2-1.6c0.5-0.8,0.9-1.8,1.3-2.8c0.8-1.9,1.4-4,2.4-6c0.3-0.5,0.5-1,1-1.5
				c0.4-0.4,0.8-0.7,1.3-1c1-0.6,2.1-1,3.2-1c0.1,0,0.3,0,0.5,0c0.2,0,0.3,0.1,0.5,0.2c0.3,0.2,0.5,0.4,0.6,0.6
				c0.3,0.5,0.6,1,0.8,1.5c0.4,1,0.7,2,0.9,3.1c-0.3-1-0.7-2-1.2-2.9c-0.2-0.5-0.5-0.9-0.9-1.3c-0.2-0.2-0.3-0.3-0.5-0.4
				c-0.1,0-0.2-0.1-0.3-0.1c-0.1,0-0.2,0-0.3,0c-1,0.1-1.9,0.5-2.7,1.1c-0.4,0.3-0.8,0.6-1.1,1c-0.3,0.3-0.5,0.8-0.7,1.2
				c-0.8,1.9-1.4,4-2.1,6c-0.4,1-0.8,2-1.4,3c-0.8,1.2-1.9,1.6-2.8,2.1c-4.1,1.8-8.3,2.5-12.5,3.3l-3.2,0.5l-0.8,0.1
				c-0.2,0-0.5,0.1-0.8,0.1c-0.6,0.1-1.1,0-1.7-0.1C204,283,202,282.2,200.1,281.1z"/>
		</g>
		<g>
			<path d="M271,269c0.6-0.7,1.3-1.4,2.2-1.7c0.4-0.2,0.9-0.3,1.5-0.2c0.5,0.1,1,0.3,1.4,0.5c1.7,0.9,3.1,2.1,4.4,3.4
				c0.2,0.2,0.3,0.3,0.5,0.5c0.1,0.1,0.2,0.2,0.3,0.4c0.1,0.1,0.1,0.2,0.2,0.4c0.2,0.5,0.3,0.9,0.5,1.4c0.2,0.9,0.4,1.8,0.6,2.7
				c0.2,0.9,0.4,1.8,0.8,2.4c0.5,0.7,1,1.4,1.6,2.1c2.2,2.7,5.1,5.1,8.7,4.5c3.6-0.2,7.2-0.7,10.8-1.2c-3.5,1.1-7.1,2-10.7,2.4
				c-0.5,0.1-0.9,0.1-1.4,0.1c-0.5,0-1,0-1.5-0.1c-1-0.2-1.9-0.5-2.8-1c-1.7-1-3.1-2.3-4.3-3.8c-0.6-0.7-1.1-1.5-1.7-2.3
				c-0.6-1-0.7-1.9-0.9-2.8c-0.2-0.9-0.3-1.8-0.5-2.7c-0.1-0.4-0.2-0.8-0.4-1.2l-0.1-0.2c0-0.1-0.1-0.1-0.1-0.2l-0.4-0.5
				c-1.2-1.3-2.5-2.6-3.9-3.6c-0.4-0.2-0.7-0.5-1.1-0.6c-0.4-0.1-0.8-0.1-1.2,0.1C272.5,267.9,271.7,268.4,271,269z"/>
		</g>
		<g>
			<path d="M206.9,284.1c1,2.9,1.8,5.8,2.3,8.8c0.3,1.5,0.4,3,0.5,4.6c0,1.5,0,3-0.1,4.6c-0.2,3-0.5,6.1-1.3,9.1
				c-0.2,0.7-0.4,1.5-1,2.2c-0.2,0.2-0.3,0.4-0.7,0.5c-0.1,0.1-0.4,0.1-0.4,0.1l-0.1,0c0,0,0,0,0,0l0,0c0,0,0.1-0.1,0.2-0.1
				c0,0,0.1-0.2,0.1-0.3c0,0,0-0.1,0-0.1l0,0l0,0c0,0,0,0,0,0c0,0,0,0,0.1,0.1l0.2,0.1l0.5,0.3c0.7,0.4,1.3,0.7,2,1.2
				c0.6,0.4,1.4,0.9,1.5,1.7c-0.1-0.4-0.5-0.6-0.8-0.8c-0.3-0.2-0.6-0.4-1-0.5c-0.7-0.3-1.4-0.6-2.1-0.8l-0.5-0.2l-0.3-0.1
				c-0.1,0-0.1,0-0.2-0.1c0,0-0.1,0-0.1-0.1l0-0.1l0,0c0,0,0-0.1,0-0.1c0-0.2,0-0.3,0.1-0.4c0.1-0.1,0.2-0.2,0.2-0.2l0.1,0
				c0.1,0,0.1,0,0.1,0c0.1,0,0.1,0,0.2,0l0.1,0c0,0,0,0,0,0c0,0,0,0,0,0c0,0,0.1-0.1,0.2-0.2c0.3-0.5,0.5-1.3,0.6-2
				c0.3-1.4,0.5-2.9,0.6-4.4c0.1-1.5,0.3-3,0.3-4.5c0.1-1.5,0.2-3,0.2-4.5c0-1.5-0.1-2.9-0.2-4.4
				C207.8,290.1,207.3,287.1,206.9,284.1z"/>
		</g>
		<g>
			<path d="M231.8,331.3c1.2,1.6,2.4,3.2,3.9,4.6c0.7,0.7,1.5,1.3,2.3,1.8c0.2,0.1,0.4,0.2,0.6,0.3c0.2,0.1,0.4,0.1,0.6,0.1
				c0.4,0,0.9,0,1.4-0.1c1.9-0.4,3.7-1.3,5.6-2c1-0.4,2-0.7,3-0.8c0.5-0.1,1.1-0.2,1.6-0.2c0.6,0,1.2,0.1,1.8,0.3
				c1.1,0.4,2,1.2,2.8,1.9c0.8,0.7,1.4,1.4,2.2,1.8c0.8,0.4,1.6,0.5,2.5,0.3c0.9-0.2,1.8-0.6,2.7-1c1.8-0.8,3.6-1.8,5.4-2.8
				c1.8-1,3.5-2,5.2-3.1c-3.1,2.6-6.4,5-10.1,6.9c-0.9,0.5-1.9,0.9-2.9,1.2c-1.1,0.3-2.4,0.3-3.4-0.3c-1.1-0.5-1.8-1.3-2.6-1.9
				c-0.7-0.7-1.5-1.2-2.3-1.5c-0.4-0.1-0.8-0.2-1.2-0.2c-0.4,0-0.9,0.1-1.4,0.1c-0.9,0.2-1.9,0.4-2.8,0.7c-1.9,0.6-3.8,1.5-5.9,1.8
				c-0.5,0.1-1.1,0.1-1.7,0.1c-0.3,0-0.6-0.1-0.9-0.2c-0.3-0.1-0.5-0.2-0.7-0.4c-0.9-0.6-1.7-1.4-2.3-2.1
				C233.8,334.8,232.7,333.1,231.8,331.3z"/>
		</g>
		<g>
			<path d="M253.7,346.5c-0.4-1.3-0.8-2.5-1.2-3.7c-0.2-0.6-0.4-1.2-0.7-1.7c-0.3-0.5-0.6-0.9-0.9-0.9c-0.2-0.1-0.6,0.2-1,0.6
				c-0.4,0.4-0.7,0.9-1.1,1.5c-0.6,1.1-1.2,2.2-1.9,3.4c0.1-1.3,0.4-2.7,0.9-3.9c0.2-0.6,0.6-1.3,1-1.9c0.2-0.3,0.5-0.6,0.9-0.8
				c0.2-0.1,0.4-0.2,0.6-0.3c0.2,0,0.5-0.1,0.8-0.1c0.5,0.1,1,0.4,1.3,0.7c0.3,0.3,0.5,0.6,0.7,1c0.3,0.7,0.5,1.3,0.6,2
				C253.8,343.8,253.9,345.1,253.7,346.5z"/>
		</g>
		<g>
			<path d="M208.7,283.5c2.4,0,4.6,0.3,6.9,0.4c1.1,0.1,2.2,0.1,3.3,0.1c1.1,0,2.2-0.1,3.4-0.3c-0.9,0.8-2.1,1.2-3.3,1.4
				c-1.2,0.3-2.4,0.3-3.6,0.2c-1.2-0.1-2.4-0.3-3.5-0.6C210.8,284.5,209.7,284.1,208.7,283.5z"/>
		</g>
		<g>
			<path d="M298.8,285.6l-1.5,8.2c-0.2,1.4-0.5,2.7-0.6,4.1c0,0.3,0,0.7-0.1,1c0,0.3,0,0.6,0,1l0,2.1c0,2.8,0,5.5-0.1,8.3
				c0,0.7,0,1.4,0,2.1c0,0.3,0,0.7,0,1c0,0.1,0,0.2,0,0.2c0,0.1,0,0.1,0,0.1c0,0-0.1-0.1-0.1-0.1l0.1,0c0,0,0.1,0,0.1,0.1l0.1,0.1
				c0,0,0.1,0.1,0.1,0.2c0,0.1,0,0.2,0,0.3c0,0-0.1,0.1-0.1,0.1l0,0c0,0-0.1,0.1-0.1,0.1c-0.1,0-0.1,0-0.2,0.1
				c-0.7,0.2-1.2,0.4-1.7,0.9c-0.3,0.2-0.5,0.5-0.7,0.7c-0.2,0.3-0.4,0.6-0.4,0.9c-0.1-0.7,0.4-1.4,0.8-1.9c0.4-0.6,1.1-1,1.8-1.3
				c0,0,0.1,0,0.1,0c0,0,0,0,0,0l0,0c0,0-0.1,0.1-0.1,0.1c0,0.1,0,0.1,0,0.2c0,0.1,0.1,0.2,0.1,0.2l0,0c0,0,0,0,0,0l0,0
				c0,0-0.1-0.1-0.2-0.1c-0.1-0.2-0.1-0.3-0.2-0.4c0-0.1,0-0.2-0.1-0.3c-0.1-0.4-0.1-0.7-0.2-1.1c-0.1-0.7-0.1-1.4-0.2-2.1
				c-0.2-2.8-0.2-5.6-0.2-8.3l0-2.1c0-0.3,0-0.7,0-1.1c0-0.4,0.1-0.7,0.1-1.1c0.2-1.4,0.5-2.8,0.8-4.1
				C296.9,290.8,297.8,288.1,298.8,285.6z"/>
		</g>
		<g>
			<path d="M268.6,246c0.9,1.2,1.7,2.5,2.5,3.9c0.7,1.3,1.4,2.7,2,4.1c0.3,0.7,0.6,1.4,0.9,2.1c0.1,0.4,0.3,0.7,0.4,1.1
				c0,0.2,0.1,0.4,0.1,0.7c0,0.3,0,0.5,0,0.7c-0.2,0.9-0.6,1.6-1.1,2.2c-0.5,0.6-1,1.2-1.6,1.7c0.3-0.7,0.7-1.4,0.9-2.1
				c0.3-0.7,0.5-1.4,0.5-2c0-0.3-0.1-0.5-0.2-0.8c-0.1-0.3-0.3-0.7-0.4-1l-0.9-2.1C270.5,251.8,269.4,249,268.6,246z"/>
		</g>
		<g>
			<path d="M208,225.2c0.5-2.3,1.4-4.5,2.3-6.6c1-2.1,2.2-4.2,3.8-6c0.8-0.9,1.7-1.7,2.9-2.3c1.1-0.6,2.4-0.9,3.7-0.8
				c2.4,0.2,4.7,0.8,7,1.7c4.4,1.9,8.2,4.9,11.3,8.4c1.5,1.8,2.9,3.6,4.2,5.6c0.6,1,1.2,2,1.6,3.1c0.5,1.1,0.9,2.2,0.9,3.4
				c-0.2-1.2-0.7-2.2-1.2-3.2c-0.6-1-1.2-2-1.9-2.9c-1.4-1.9-2.9-3.6-4.4-5.3c-1.6-1.7-3.3-3.1-5.1-4.5c-1.8-1.3-3.8-2.5-5.9-3.3
				c-2.1-0.9-4.3-1.4-6.5-1.6c-1-0.1-2.1,0.1-3,0.6c-1,0.5-1.8,1.2-2.6,1.9c-1.6,1.6-2.9,3.5-4,5.5C209.9,221,208.9,223.1,208,225.2
				z"/>
		</g>
		<g>
			<path d="M209.6,226.4c1.4-2.4,3.6-4.4,6.4-5.4c1.4-0.5,2.9-0.6,4.4-0.3c0.4,0.1,0.7,0.1,1.1,0.2l1,0.3c0.7,0.2,1.3,0.4,2,0.7
				c2.6,1,5.2,2.2,7.6,3.6c1.2,0.7,2.4,1.5,3.5,2.3c1.1,0.9,2.2,1.8,2.9,3c-0.9-1-2.1-1.7-3.3-2.4c-1.2-0.7-2.4-1.3-3.6-1.9
				c-2.5-1.2-5-2.3-7.5-3.2c-0.6-0.2-1.3-0.5-1.9-0.7l-1-0.3l-0.9-0.2c-1.2-0.3-2.5-0.2-3.8,0.1
				C213.8,222.8,211.5,224.4,209.6,226.4z"/>
		</g>
		<g>
			<path d="M208.8,239.2c1.8,2.3,3.6,4.6,5.6,6.7c1,1,2,2.1,3.1,2.9c1.1,0.9,2.2,1.7,3.5,2.3c0.6,0.3,1.2,0.5,1.9,0.6
				c0.6,0.1,1.3,0.1,2,0c1.4-0.1,2.8-0.4,4.1-0.8c2.7-0.8,5.3-2.1,7.7-3.8c-2,2.1-4.6,3.8-7.3,4.9c-1.4,0.6-2.9,0.9-4.4,1.1
				c-0.7,0.1-1.6,0.1-2.4,0c-0.8-0.1-1.5-0.4-2.3-0.7c-2.8-1.4-4.9-3.5-6.8-5.8C211.7,244.4,210.1,241.9,208.8,239.2z"/>
		</g>
		<g>
			<path d="M210.4,250.7c1.2,1,2.3,1.9,3.6,2.7c1.2,0.8,2.5,1.6,3.9,2.2c2.7,1.3,5.6,1.9,8.4,1.4c0.4,0,0.7-0.1,1-0.2l1-0.3
				c0.7-0.3,1.3-0.6,1.9-0.9c1.3-0.7,2.6-1.5,3.9-2.3c1.3-0.8,2.5-1.6,3.7-2.6c0.6-0.5,1.2-0.9,1.7-1.5c0.3-0.3,0.5-0.5,0.7-0.8
				c0.2-0.3,0.5-0.6,0.6-1c-0.1,0.8-0.6,1.4-1,2.1c-0.5,0.6-1,1.2-1.5,1.8c-1.1,1.1-2.3,2.1-3.5,3c-1.2,0.9-2.5,1.7-3.8,2.6
				c-0.7,0.4-1.4,0.7-2.2,1l-1.2,0.3c-0.4,0.1-0.8,0.2-1.2,0.3c-3.2,0.5-6.5-0.3-9.1-1.9C214.6,255.1,212.2,253.1,210.4,250.7z"/>
		</g>
		<g>
			<path d="M246.8,237.7c-0.1,2-0.5,3.9-0.9,5.8c-0.5,1.9-1.1,3.8-1.9,5.6c-0.9,1.9-2,3.4-2.8,5.1c-0.4,0.9-0.8,1.7-1,2.6
				c-0.3,0.9-0.4,1.8-0.2,2.8c-0.5-0.8-0.6-1.9-0.6-2.9c0.1-1,0.3-2,0.7-2.9c0.3-1,0.8-1.9,1.2-2.7c0.5-0.9,0.9-1.7,1.3-2.5
				c0.8-1.7,1.4-3.5,2.1-5.3C245.5,241.4,246.1,239.5,246.8,237.7z"/>
		</g>
		<g>
			<path d="M268.8,235.1c1.1-4.2,3.6-8,6.6-11.2c3.1-3.1,6.9-5.6,11.1-7.1l1.6-0.5c0.5-0.2,1.1-0.3,1.6-0.4c1.1-0.3,2.2-0.4,3.3-0.5
				c2.3-0.1,4.6,0.4,6.6,1.5c0.5,0.3,0.9,0.7,1.4,1c0.4,0.4,0.8,0.8,1.2,1.2c0.3,0.5,0.7,0.9,1,1.4c0.3,0.5,0.6,1,0.8,1.5
				c0.8,2.1,1.1,4.3,0.8,6.5c0-2.2-0.4-4.3-1.4-6.2c-0.9-1.9-2.5-3.4-4.3-4.3c-1.8-0.9-3.9-1.3-6-1.1c-1,0.1-2.1,0.2-3.1,0.5
				c-0.5,0.1-1,0.2-1.5,0.4l-1.5,0.5c-4,1.4-7.7,3.7-10.8,6.5c-1.6,1.4-3,3-4.2,4.8C270.7,231.2,269.6,233.1,268.8,235.1z"/>
		</g>
		<g>
			<path d="M276.2,232.8c1.5-1.9,3.4-3.6,5.4-4.9c1-0.7,2.1-1.3,3.2-1.8c1.1-0.5,2.3-0.9,3.5-1.2c1.2-0.3,2.5-0.4,3.8-0.4
				c1.3,0.1,2.5,0.2,3.7,0.7c2.4,0.8,4.5,2.5,5.5,4.7c-1.6-1.8-3.7-3.1-5.9-3.6c-2.2-0.5-4.6-0.5-6.8,0.1c-2.3,0.5-4.4,1.4-6.5,2.6
				C280.1,230.1,278.2,231.4,276.2,232.8z"/>
		</g>
		<g>
			<path d="M306.3,233.8c0.1-0.5,0.4-1,0.6-1.4c0.2-0.4,0.5-0.8,0.7-1.1c0.3-0.4,0.5-0.7,0.8-1c0.3-0.3,0.6-0.6,0.9-1.1
				c0.3,0.5,0.3,1.1,0.2,1.6c-0.1,0.5-0.4,1-0.7,1.4c-0.3,0.4-0.7,0.8-1.1,1.1C307.3,233.5,306.8,233.7,306.3,233.8z"/>
		</g>
		<g>
			<path d="M305.8,236.1c0.2-0.4,0.5-0.6,0.7-0.8c0.2-0.2,0.5-0.3,0.8-0.4c0.3-0.1,0.5-0.1,0.8-0.1c0.1,0,0.3,0,0.4,0
				c0.1,0,0.3,0.1,0.4,0c0.2,0.2,0.1,0.5,0,0.6c-0.1,0.2-0.2,0.3-0.3,0.4c-0.3,0.2-0.5,0.4-0.8,0.5c-0.3,0.1-0.6,0.1-0.9,0.1
				C306.5,236.4,306.1,236.3,305.8,236.1z"/>
		</g>
		<g>
			<path d="M274.7,249.8c2,1.2,4.1,2.2,6.3,2.9c2.1,0.7,4.4,1.2,6.6,1.1c1.1,0,2.2-0.2,3.3-0.5c1.1-0.3,2.1-0.7,3.1-1.1
				c2-1,3.8-2.5,5-4.5c-0.7,2.3-2.4,4.2-4.5,5.5c-2.1,1.3-4.5,2-6.9,2.1l-0.9,0l-0.9-0.1c-0.6,0-1.2-0.2-1.8-0.3
				c-1.2-0.3-2.3-0.7-3.4-1.2C278.4,252.7,276.4,251.4,274.7,249.8z"/>
		</g>
		<g>
			<path d="M273.5,251.2c1.7,2,3.7,3.8,6,5c0.5,0.3,1.1,0.6,1.7,0.9c0.6,0.2,1.2,0.5,1.8,0.6c1.2,0.4,2.5,0.5,3.7,0.5
				c0.6,0,1.2-0.1,1.9-0.1c0.6-0.1,1.3-0.2,1.9-0.3c1.3-0.2,2.5-0.6,3.8-0.9c2.4-0.8,4.9-1.9,6.9-3.6c-1.5,2.2-4,3.7-6.5,4.7
				c-1.3,0.5-2.6,0.9-3.9,1.2c-0.7,0.2-1.3,0.2-2,0.4c-0.7,0.1-1.4,0.1-2.1,0.2c-2.8,0-5.6-0.9-7.8-2.5
				C276.5,255.6,274.7,253.5,273.5,251.2z"/>
		</g>
		<g>
			<path d="M252.5,231.3c0.3,6.4,0.4,12.8-0.1,19.2c-0.1,1.6-0.3,3.2-0.5,4.8c-0.2,1.6-0.6,3.2-0.9,4.7c-0.6,3.1-1.3,6.3-2.5,9.3
				c-0.6,1.5-1.3,3.1-2.7,4.2c-0.4,0.3-0.8,0.5-1.2,0.7c-0.5,0.1-1,0.1-1.4,0.1c-0.2,0-0.4,0-0.7-0.1c-0.2,0-0.5-0.2-0.7-0.3
				c-0.5-0.3-0.8-0.8-1-1.3c-0.2-0.9-0.2-1.6-0.6-2c-0.3-0.4-1.1-0.6-1.8-0.7c-1.2-0.1-1.9,1.3-2.1,2.8c-0.2,1.5-0.1,3.1,0.2,4.6
				c0.1,0.8,0.3,1.5,0.6,2.2c0.3,0.7,0.6,1.3,1.1,1.9c2,2.4,4.4,4.5,6.8,6.5l-1,0.9c-1-1.5-1.9-3.1-2.4-5c-0.1-0.5-0.2-1-0.1-1.6
				c0.1-0.6,0.5-1.2,1.1-1.5c1.1-0.6,2.3-0.4,3.2-0.1c0.9,0.4,1.7,1,2.4,1.6c0.7,0.6,1.3,1.3,1.9,2c0.6,0.7,1.1,1.4,1.6,2.1
				c0.5,0.7,1,1.5,1.6,1.7c0.7,0.4,1.5,0.7,2.1,0.7c0.3,0,0.4-0.1,0.5-0.2l0.6-1.1c0.9-1.6,1.9-3.2,3.3-4.4c0.7-0.6,1.6-1.1,2.6-1.4
				c0.2-0.1,0.5-0.1,0.8-0.1c0.2,0,0.5,0,0.8,0c0.5,0,1.2,0.2,1.6,0.8c0.5,0.6,0.4,1.2,0.4,1.8c-0.1,0.5-0.2,1-0.4,1.4
				c-0.3,0.9-0.8,1.7-1.3,2.5l-0.8-1c2.5-1,5-2.6,6.7-4.7c0.9-1.1,1.5-2.2,1.9-3.5c0.3-1.3,0.4-2.7,0.4-4.1c0-0.7-0.1-1.4-0.2-2
				c-0.2-0.6-0.4-1.2-0.8-1.5c-0.2-0.1-0.4-0.2-0.7-0.2c-0.1,0-0.1,0-0.2,0c-0.1,0-0.1,0-0.1,0c-0.1,0-0.2,0.1-0.4,0.2
				c-0.6,0.3-1.1,0.8-1.7,1.2c-0.6,0.4-1.2,0.9-1.9,1.2c-0.4,0.2-0.7,0.4-1.2,0.4c-0.2,0-0.5,0.1-0.8-0.1c-0.2-0.1-0.3-0.1-0.3-0.2
				c-0.1-0.1-0.2-0.1-0.3-0.2c-0.6-0.6-0.9-1.3-1.2-2c-0.3-0.7-0.6-1.4-0.8-2.1c-0.5-1.4-0.9-2.8-1-4.3c0-0.2,0-0.4,0-0.6
				c0-0.2,0-0.3,0-0.5l0.1-1.1l0.1-2.2c0.1-2.9,0.3-5.8,0.5-8.6c0.1-1.4,0.3-2.9,0.5-4.3c0.2-1.4,0.6-2.8,0.8-4.2l1.8-8.5l-1.5,8.5
				c-0.2,1.4-0.5,2.8-0.7,4.2c-0.2,1.4-0.3,2.9-0.4,4.3c-0.2,2.9-0.2,5.7-0.3,8.6l-0.1,2.2l0,1.1c0,0.2,0,0.4,0,0.6
				c0,0.2,0,0.3,0,0.5c0.1,1.3,0.5,2.7,1,4.1c0.2,0.7,0.5,1.3,0.8,1.9c0.3,0.6,0.7,1.2,1.1,1.7c0,0,0.1,0.1,0.1,0.1
				c0,0,0.1,0.1,0.1,0.1c0,0,0.1,0,0.3,0c0.3,0,0.6-0.2,0.8-0.3c0.6-0.3,1.1-0.8,1.7-1.2c0.6-0.4,1.1-0.9,1.8-1.3
				c0.2-0.1,0.4-0.2,0.6-0.3c0.3-0.1,0.5-0.1,0.7-0.1c0.4,0,0.9,0.2,1.3,0.4c0.8,0.6,1.1,1.4,1.3,2.2c0.2,0.8,0.3,1.5,0.3,2.3
				c0,1.5,0,2.9-0.4,4.5c-0.4,1.5-1.1,2.9-2.1,4.1c-1,1.2-2.1,2.2-3.3,3c-1.2,0.9-2.5,1.6-3.9,2.1l-1.9,0.8l1.1-1.8
				c0.4-0.7,0.8-1.5,1.1-2.2c0.3-0.7,0.4-1.6,0.1-1.9c-0.2-0.3-1.1-0.3-1.8-0.2c-0.7,0.2-1.4,0.6-2,1.1c-1.2,1-2.2,2.5-3,4l-0.3,0.6
				l-0.1,0.3c-0.1,0.1-0.1,0.2-0.2,0.4c-0.2,0.3-0.5,0.6-0.8,0.7c-0.3,0.2-0.7,0.2-1,0.2c-1.2,0-2-0.5-2.9-0.9l-0.3-0.2
				c-0.1-0.1-0.3-0.2-0.4-0.3c-0.2-0.2-0.4-0.4-0.5-0.6c-0.3-0.4-0.6-0.7-0.8-1.1c-0.5-0.7-1.1-1.4-1.6-2.1
				c-1.1-1.3-2.3-2.6-3.7-3.2c-0.7-0.3-1.4-0.3-1.9-0.1c-0.2,0.1-0.3,0.3-0.4,0.6c-0.1,0.3,0,0.7,0,1c0.3,1.5,1.2,3.1,2.1,4.5
				l2.6,3.9l-3.6-3c-2.5-2.1-4.9-4.2-7-6.7c-0.3-0.3-0.5-0.7-0.7-1.1c-0.2-0.4-0.4-0.8-0.5-1.2c-0.3-0.8-0.5-1.6-0.7-2.4
				c-0.3-1.6-0.4-3.3-0.2-5c0.1-0.8,0.3-1.7,0.8-2.5c0.2-0.4,0.6-0.8,1.1-1c0.5-0.3,1-0.3,1.5-0.3c0.3,0,0.5,0.1,0.7,0.1
				c0.2,0.1,0.4,0.1,0.7,0.2c0.4,0.2,0.9,0.4,1.2,0.8c0.4,0.4,0.6,0.9,0.7,1.3c0.1,0.4,0.1,0.8,0.2,1.1c0.1,0.3,0.2,0.5,0.4,0.6
				c0.1,0.1,0.2,0.1,0.4,0.2c0.2,0,0.3,0.1,0.5,0.1c0.4,0,0.7,0,1,0c0.3-0.1,0.6-0.2,0.9-0.5c1.1-0.9,1.8-2.3,2.4-3.8
				c1.2-2.9,1.9-6,2.6-9.1c0.7-3.1,1.3-6.2,1.6-9.4C252.4,244.2,252.5,237.7,252.5,231.3z"/>
		</g>
		<g>
			<path d="M295.2,287.6c-0.9,0.4-1.9,0.6-2.9,0.7c-1,0.1-2,0.1-3,0c-1-0.1-2-0.3-3-0.8c-0.9-0.4-1.9-1.2-2.1-2.3
				c0.7,0.7,1.6,1,2.5,1.2c0.9,0.2,1.8,0.3,2.8,0.4l2.9,0.3C293.2,287.3,294.2,287.4,295.2,287.6z"/>
		</g>
		<g>
			<path d="M250.1,295.7c0.7,1.2,1.3,2.4,2.1,3.4c0.4,0.4,0.9,0.7,1.1,0.6c0.1,0,0.5-0.2,0.8-0.3c0.3-0.1,0.6-0.3,0.8-0.5
				c0.5-0.3,0.8-0.6,0.8-1.1c0.1-0.5-0.1-1.1-0.1-1.9c-0.1-1.4,0-2.8,0.3-4.2c0.3,1.4,0.6,2.7,0.8,4c0.1,0.6,0.4,1.3,0.3,2.2
				c0,0.4-0.2,0.9-0.5,1.3c-0.3,0.4-0.6,0.6-0.9,0.9c-0.3,0.2-0.7,0.4-1,0.5c-0.4,0.1-0.5,0.3-1.1,0.4c-0.2,0.1-0.5,0-0.8,0
				c-0.2-0.1-0.5-0.2-0.7-0.3c-0.4-0.3-0.6-0.6-0.8-0.9C250.5,298.5,250.2,297.1,250.1,295.7z"/>
		</g>
	</g>
	<g>
		<polygon style="fill:#FFFFFF;" points="222.9,228.8 213.4,230.1 212.7,237.2 224.6,245.4 240.8,242 241.6,236.6 230.8,230.5 		"/>
		<path d="M242.8,236.2c0,0-13.3-7.3-15.7-8.5c-2.4-1.2-4.5-1.8-5.4-4.8c-0.9-2.9-3.1-5.3-2.8-7.3c0,0-3,1.9-1.5,5.8
			c1.5,3.8,1.7,4.3,1.1,4.4c-0.6,0-2.1,1-4.4,1.8c-2.3,0.8-5.9,2.2-6.2,3.8c-0.3,1.6,0,3.7,2.7,7.7s7.1,5.7,7.3,6.6s-1,3.1-0.2,10.8
			c0,0,2.4-8,3.9-8.4c1.5-0.4,2.9,3,9.9,0c7.1-3,4.7-3.2,7.1-3c2.4,0.2,5.3,0.2,6.1-2.7C245.5,239.4,243.9,236.8,242.8,236.2z
			 M234,242.9c-7.4,2-12-1.2-14.8-2s-7-5.8-5.3-8.7c1.8-2.9,9.5-2.4,12.9-1.5c3.4,0.9,7.8,3.5,11.1,5
			C240.5,237,241.4,240.9,234,242.9z"/>
	</g>
	<g>
		<polygon style="fill:#FFFFFF;" points="294.1,230.6 285.3,232.3 276.4,235.5 271.4,238.8 273.1,245 284.4,247.4 293.8,245.9 
			300.8,240.8 303.2,235.6 298.7,231.6 		"/>
		<path d="M268.2,243.3c0.6,3,3.6,3.1,6,3.1c2.4-0.1-0.3,1.4,6.6,4.9c6.9,3.4,11-2.6,12.4-2.1c1.4,0.5,3.9,11,3.9,11
			c1.3-7.6-0.3-12.3,0-13.2c0.3-0.8,2.6-1.1,5.5-4.8s3.4-5.9,3.1-7.5c-0.3-1.6-3.7-3.2-6-4.2s-1.8-1.1-2.4-1.2
			c-0.6-0.1-1.1-1.1-0.5-5.2c0.5-3.6-3.2-6.7-3.2-6.7c0.2,2,0.7,4.6-0.3,7.5c-1,2.9-4,3.9-6.5,5c-2.5,1-16.2,7.5-16.2,7.5
			C269.4,237.7,267.6,240.3,268.2,243.3z M275.4,237.1c3.4-1.4,7.9-3.7,11.4-4.4c3.5-0.6,11.2-0.7,12.8,2.3c1.6,3-3,7.7-5.8,8.4
			c-2.8,0.6-7.6,3.5-14.8,1.1C271.7,242,272.7,238.2,275.4,237.1z"/>
	</g>
	<g>
		<g>
			
				<ellipse transform="matrix(0.9985 -5.550492e-02 5.550492e-02 0.9985 -25.5435 11.332)" style="fill:#D61D1D;" cx="191.2" cy="465.5" rx="7.7" ry="7.3"/>
			
				<ellipse transform="matrix(0.9985 -5.550492e-02 5.550492e-02 0.9985 -25.632 18.5097)" style="fill:#D61D1D;" cx="320.4" cy="470.7" rx="7.7" ry="7.7"/>
			
				<ellipse transform="matrix(0.9985 -5.550492e-02 5.550492e-02 0.9985 -14.9877 21.8353)" style="fill:#D61D1D;" cx="385.6" cy="280.7" rx="9" ry="9"/>
		</g>
		<g>
			
				<ellipse transform="matrix(0.9985 -5.550492e-02 5.550492e-02 0.9985 -21.9565 5.9464)" style="fill:#FFFFFF;" cx="96.1" cy="398.2" rx="7.7" ry="7.3"/>
			
				<ellipse transform="matrix(0.9985 -5.550492e-02 5.550492e-02 0.9985 -25.9056 14.9717)" style="fill:#FFFFFF;" cx="256.6" cy="473.9" rx="8.4" ry="7.6"/>
			
				<ellipse transform="matrix(0.9985 -5.550492e-02 5.550492e-02 0.9985 -0.5081 18.7062)" style="fill:#FFFFFF;" cx="336.5" cy="18.5" rx="8.4" ry="7.6"/>
			
				<ellipse transform="matrix(0.9944 -0.1057 0.1057 0.9944 -41.3841 44.5434)" style="fill:#FFFFFF;" cx="399.6" cy="412.8" rx="7.4" ry="6.7"/>
		</g>
	</g>
	<path style="fill:#FFFFFF;" d="M302.7,178.9c0,0,1.1-0.3,2.6,0.2c1.5,0.5,4.1,4.3,6.4,4.5c2.2,0.2,7.8-2.2,10.8-2.1
		c3,0.1,8.1,4.8,9.9,3.9s11.6-6.3,15.4-8.8c3.8-2.5,15-6.4,16.6-8.1s2.2-2,3.4-1.9s2.2,3.3,3.5,5.6c1.3,2.4,8.2,21,11.6,23.1
		s15.5,7,15.6,7.8s-8.1,12.7-10.3,16.4c-2.1,3.7-9.5,17.2-10.3,18.6c-0.8,1.4-3.1,6.5-2.8,11.9s1.2,6.5,1.2,6.5
		c-0.2-2.1-0.1-4.1,0.3-5.3c0.8-2.8,3.3-5.9,7-7.8c3.7-2,6.5-8.4,9-12.2c2.5-3.9,5.1-8.2,9.3-12.6c4.2-4.4,7.4-8.9,9.3-13.2
		c1.9-4.3-0.5-7.5-2.8-10c-2.2-2.4-8.4-3.5-10.5-5.1c-2.1-1.6-5.2-8.3-5.4-10c-0.2-1.7-6.4-10.3-11.9-18c-5.5-7.7-11.1-15.1-15-16
		s-9.7-0.4-19.2,1.6s-20.1,5.1-20.1,5.1s-9.9,2.5-13.6,4.8c-3.7,2.3-24.5,15.2-24.5,15.2c5.2,0.6,10,2.8,14.1,6.2L302.7,178.9z"/>
	<path style="fill:#D61D1D;" d="M302.1,179.3c5.7,4.7,10,11.6,12,19c3.4,12.7-5.7,32-2.5,36.4c3.3,4.6,5.4,12.8,7.5,13.1
		c3.5,0.4,5.2-4.9,4.5-6.2c-0.7-1.2-2.4-4-2.2-6c0.2-2,1.8-0.7,3.1-2.4c1.3-1.7,1.5-7.1,1.5-7.1l-4.6-2.9c1.6,2.4,13.1,1,15.2-2.1
		c1.8-2.6,3.1-1.9,7-7.2s9.3-11,12.7-14.1s7.8-6.6,10-8.7s1.3-7.3,1.3-7.3s1.5,11.1,2.5,16.5s9.4,13.9,12.4,13.7s4.4-2.8,4.4-2.8
		s-7.8,12.5-13.6,20.4s-7.8,8.8-4.2,22.9s12.4,19.9,12.4,19.9s-1.8-5.8-3.6-9.7c-1-2.2-1.6-5.2-1.8-8c0,0-0.9-1.1-1.2-6.5
		s2-10.6,2.8-11.9c0.8-1.4,8.2-14.9,10.3-18.6c2.1-3.7,10.4-15.6,10.3-16.4s-12.3-5.7-15.6-7.8s-10.3-20.7-11.6-23.1
		c-1.3-2.4-2.2-5.5-3.5-5.6s-1.8,0.2-3.4,1.9s-12.8,5.5-16.6,8.1c-3.8,2.5-13.5,8-15.4,8.8s-7-3.8-9.9-3.9c-3-0.1-8.5,2.3-10.8,2.1
		c-2.2-0.2-4.8-4-6.4-4.5c-1.5-0.5-2.6-0.2-2.6-0.2L302.1,179.3z"/>
</g>
</svg>
