<?xml version="1.0" encoding="utf-8"?>
<!-- Generator: Adobe Illustrator 21.0.2, SVG Export Plug-In . SVG Version: 6.00 Build 0)  -->
<svg version="1.1" id="Layer_1" xmlns="http://www.w3.org/2000/svg" xmlns:xlink="http://www.w3.org/1999/xlink" x="0px" y="0px"
	 viewBox="0 0 1000 1000" style="enable-background:new 0 0 1000 1000;" xml:space="preserve">
<style type="text/css">
	.st0{fill:none;stroke:#B21E28;stroke-miterlimit:10;}
	.st1{fill:none;stroke:#000000;stroke-miterlimit:10;}
</style>
<path class="st0" d="M243.1,1000.4c0.4-8.4,1.9-17,4.5-25.5c10.7-34.5,39.3-69.2,85.1-103.1c46.2-34.2,108.8-66.7,186-96.6
	c156.2-60.5,361.5-106.6,593.7-133.2"/>
<path class="st1" d="M1110.1,622.1c-469.8,54-832.8,188.9-881.6,346.9c-3.2,10.3-5,20.5-5.4,30.6"/>
<path class="st0" d="M1022.9,593.1c-265.2,27.7-500.2,75.6-679.5,138.7C253,763.6,179.1,798.6,124,835.7
	C64.7,875.5,27.1,918,12.2,961.8C8,974,5.6,986.4,5,998.6"/>
<path class="st1" d="M1025,613C495.3,668.3,86.2,806.5,31.1,968.2c-3.6,10.5-5.6,21-6.1,31.3"/>
</svg>
