<?xml version="1.0" encoding="utf-8"?>
<!-- Generator: Adobe Illustrator 21.0.2, SVG Export Plug-In . SVG Version: 6.00 Build 0)  -->
<svg version="1.1" id="Layer_1" xmlns="http://www.w3.org/2000/svg" xmlns:xlink="http://www.w3.org/1999/xlink" x="0px" y="0px"
	 viewBox="0 0 1000 1000" style="enable-background:new 0 0 1000 1000;" xml:space="preserve">
<style type="text/css">
	.st0{stroke:#000000;stroke-miterlimit:10;}
	.st1{fill:#FFFFFF;stroke:#000000;stroke-width:2;}
</style>
<g>
	<path class="st0" d="M357.8,516.5c-8.9,0-12.7,6.1-20.1,9.7l0,0c-8.7,5.1-14.4,14.3-18,23.4c-0.1,0.5-0.3,1-0.6,1.5l0,0l0,0
		c-1.9,3.9-2.4,8.2-2.7,12.4c-0.2,4.7-0.1,9.3-0.1,14l0,0l0,0c-0.1,3.1,0.6,6.2,0.9,9.3c1.1,2.2,2.4,4.5,3.5,6.7
		c-0.2-0.3,0-0.1,0,0.1l0,0l0,0l0,0l0,0l0,0l0,0l0,0l0,0l0,0l0,0c0.6,1.2,1.4,2.2,2,3.4l0,0l0,0l0,0l0,0c1.6,2.2,3.4,4.3,4.8,6.6
		l0,0l0,0c2,2.8,4,6.6,6.9,8.5c0.8,0.6,1.6,1.3,2.4,1.9c4.4,3.6,13.3,5.6,18.9,6.4c9.1,1.3,18,1.1,26.9-1.1c2.7-0.7,5.6-1.1,8-2.4
		c3.4-2.3,7.4-4,11-5.8l0,0l0,0c2.6-1.4,5.2-3.1,7.4-5.1l0,0l0,0c0.2-0.2,0.4-0.5,0.5-0.8c0.9-1.1,2-1.9,3-2.9
		c1.2-1.6,2.3-3.2,3.6-4.7l0,0l0,0c1.8-3.2,3.3-6.5,5-9.7c2.1-3,1.5-5.9,1.7-9.4c0-7.2-1.6-13.6-4.3-20.2c-1.9-4.8-4.1-9.5-7.1-13.8
		c-2.4-3.4-5.5-6.2-8.3-9.3c-1.3-1.4-2.3-3.1-4-4.2c-5-3.1-9.6-6.4-14.9-9c-3.7-2.1-10.1-4.6-14.5-4.6l0,0
		C366.1,517,361.1,516.5,357.8,516.5 M362.8,542c4.2,0,8.5-0.2,12.7-0.2c3.3,0,9.7-1.2,12.3,1.4c1.5,1.8,2.7,11.6,1.2,13.1
		c-1,4.9-11.5,3.9-15.6,3.9c-7.8,0-16.1,1-23.9,0c-3.6,0.1-4.9-2.3-5.2-5.6c-0.4-4.2-1.6-11.5,3.6-12.9
		C351.6,540.7,359.3,541.3,362.8,542z"/>
	<path class="st0" d="M372.6,670.4c-9.3,0-18.7,0.9-28,1.1c-10.9,0.3-21.9-0.5-32.8-0.4c-8.3,0.1-16.5,1.3-24.8,1.7l0,0
		c-12.4,0.2-24.6,0.7-37,0.8c0,0.8,0.1,1.5,0.1,2.3c-0.1,3.1-0.3,6.3-0.8,9.3c0,0.3-0.1,0.7-0.2,1c-0.1,0.9-0.2,1.9-0.2,2.8
		c0.1,0.8,0.1,1.8-0.2,2.6c-0.3,1.5-0.4,3-0.4,4.5c1.7,6.4,11.2,4.6,16.3,4.6l0,0l0,0l0,0l0,0c-2-2-2-4.5-2-7.1
		c0.3-2.5,0.2-4.8,1.1-7.3c3.2-8.8,14.1-12.9,22.8-11.8l0,0c4.2,0.4,7.2,2.5,10.2,5.5c2.2,2.8,3.2,5.6,3.2,9.2
		c0,1.2-0.1,2.4-0.4,3.5c-0.3,2.1-1,5.4-2.6,7c4.4,0.9,10.3,0,14.9,0.2c6,0.2,12,0.4,18,0.4c11.3,0.1,23.4-0.3,34.6,0.8l0,0
		c10.4-0.1,20.8,1.4,31.1,1.3l0,0c-0.1-0.5-0.7-1.6-0.8-2.3c-0.3-0.9-0.4-1.9-0.4-2.8c-0.4-4.6-0.6-9.2,1.7-13.4
		c4.5-8.3,15.8-11.1,24.4-8.2c2.8,1.2,4.8,3.4,6.1,6.1c3,6.6,5.6,13.4,1.9,20.6c1.1,0,2.2,0,3.3,0l0,0l0,0l0,0l0,0l0,0l0,0l0,0l0,0
		l0,0l0,0l0,0l0,0l0,0l0,0l0,0l0,0l0,0l0,0l0,0c9.2,0.1,18.8,1.9,27.8-0.5l0,0l0,0l0,0l0,0c-1.2-5.1,0.7-11.4,0.6-16.6
		c-0.1-2.7-0.4-11.7-3.8-11.7l0,0c-1,0-2-0.2-2.9-0.4c-1.6-0.4-3.3-0.5-5-0.6l0,0c-6.5,0.4-13,0.2-19.5,0.2l0,0c-0.1,0-0.3,0-0.4,0
		l0,0l0,0c0,0,0.1,0,0.1,0c0,0-0.1,0-0.1,0l0,0l0,0l0,0l0,0l0,0l0,0l0,0l0,0l0,0l0,0l0,0l0,0l0,0l0,0l0,0c-3.8,0.1-7.6-0.5-11.5-0.5
		l0,0l0,0l0,0l0,0l0,0l0,0l0,0l0,0l0,0l0,0l0,0l0,0l0,0l0,0l0,0l0,0l0,0l0,0l0,0c-11.9,0-23.7-1.1-35.6-1.1l0,0l0,0l0,0l0,0l0,0l0,0
		l0,0l0,0l0,0c-0.2,0-0.4,0-0.6,0l0,0c-0.6,0-1.1,0-1.7,0C376.9,671.2,374.4,670.4,372.6,670.4"/>
	<path class="st0" d="M481.9,550.3c-5.2,0-10.6-0.1-15.8,0.1l0,0c0,0-0.1,0-0.1,0l0,0c1.7,4.5,2.4,8.7,3,13.5
		c0.7,8.9,0.6,17.3-2.5,25.7c-0.3,0.8-0.6,1.7-1,2.5c-0.6,1.2-0.8,2.5-1.4,3.7c-0.5,0.7-0.8,1.5-1.1,2.3c-0.6,1.7-1.6,3.3-2.9,4.6
		c-1.1,1.1-2.1,2.5-3.2,3.5l0,0c0.8,1.9,1.1,4.4,2.2,6.2c0.9,3.8,2.5,7.8,3.6,11.6l0,0l0,0l0,0l0,0c1.2,4.7,2.5,9.1,4,13.7
		c0.6,1.8,1,3,2,4.5c2.4,3.7,2.9,4.1,7,4.1c3.3-1.2,7.5-0.2,10.9-1.2l0,0c6.4-0.4,15-1.5,21-3.5c2.4-0.8,2-0.4,2.5-2.8
		c0.3-1.5,0.4-3.1,0.7-4.6c0.4-2.2,1-4.5,1.3-6.7c0.7-4.8,2.8-9,5.3-13.1l0,0l0,0c0.2-0.4,0.7-1.3,1.1-1.5c0-0.1,0-0.1,0.1-0.1
		c-0.3,0-0.5,0-0.8,0l0,0c-3.6,0-8,0.9-11.6,0.3c-2.1-0.4-4.8-2.3-1.5-4.3c0.9-0.6,3.2-0.3,4.1-0.3l0,0c0,0,0.1,0,0.1,0l0,0l0,0l0,0
		l0,0l0,0l0,0l0,0l0,0l0,0l0,0l0,0c4,0,9-1.2,12.9,0.2c4.5,1.6,7.8,6.1,9.9,10.3c0.3-2.6,0.2-5.3,0.5-7.9c0,0,0-0.1,0-0.1
		c0.3-2.2,0.6-4.7,0.6-7c0.2-0.8,0.3-1.7,0.5-2.5l0,0l0,0l0,0l0,0c0-0.2,0.1-0.4,0.1-0.6l0,0l0,0c0.1-0.5,0.2-0.9,0.3-1.4
		c1.1-3.5,1.7-7.1,4.1-10.1c1.1-2,2-3.7,3.8-5.2c2.1-1.7,6.9-1.6,7.1-4.6c1.8-6.1,1.6-11.6,1.1-17.9c-0.2-3.2-0.2-9.5-3.2-10.7
		c-2.5-1-7.7,0.3-10.1,0.3l0,0c0,0-0.1,0-0.1,0l0,0c-2-0.1-4,0-6,0c3.6,8.6,3.1,18.2,1,27.1c-0.5,2.2-2.7,13.9-6.5,14
		c-1.9,0-2.9-2.1-1.8-3.6c0.1-0.2,0.1-0.4,0.2-0.6c1.4-3,2.4-6.5,3.2-9.7l0,0l0,0l0,0l0,0l0,0l0,0l0,0l0,0l0,0l0,0l0,0l0,0
		c0.3-1.4,0.7-2.8,0.7-4.3c1-8.5,1.2-15-1.7-23c-3.4-0.2-6.7,0.1-10.1,0.1l0,0c-1.8,0.3-3.6,0.1-5.4,0.1l0,0l0,0l0,0
		c1.8,9.1,2.6,17.2,1.3,26.3c-0.9,6.2-2.6,12.4-4.4,18.4c-0.2,0.5-0.3,1-0.4,1.5c-0.7,2-1.3,6.3-3.6,6.7c-2,0.4-2.7-0.9-2.7-2.7
		c0-2.5,2.3-6.1,3-8.6c1.2-4.2,2.6-8.8,3.1-13.1c1.3-5.7,2.2-11.8,1.2-17.6c-0.3-1.5-0.6-2.9-0.7-4.4c-0.6-2.3-0.8-4.7-1.3-7
		c-1.7-0.3-3.5-0.3-5.2-0.6c-4.6-0.1-9.1-0.6-13.7-0.6l0,0c0,0-0.1,0-0.1,0l0,0c3,15.4,2.3,33.4-3.3,48.3c-0.4,1.1-4.3,12.4-6.8,7.4
		l0,0l0,0l0,0l0,0l0,0l0,0c-0.1-0.1-0.2-0.3-0.2-0.4l0,0l0,0c-0.4-2.3,2.1-5.9,2.6-8.3c1.9-5.5,2.8-11.3,3.8-17
		c1.1-6.4,1.4-12.9,0.9-19.4C483.2,558.3,482.4,550.4,481.9,550.3z M478.4,639.9L478.4,639.9c-0.3,0-0.5-0.1-0.8-0.1l0,0
		c-4.1-0.4-1.8-7.2-1-8.9c2.7-5.9,11.1-4.5,16.9-4.6c2.5,0,5.8-0.5,8.1,0.6c2.4,1.2,2.2,3.4,2.8,5.7c0.4,1.7,2.7,7.1-1.1,7.1l0,0
		c-1.4-0.8-2.4-0.6-4-0.6c-4.2-0.1-9.7-0.6-13.8,0.4C483.2,639.7,480.8,639.9,478.4,639.9C478.5,639.9,478.5,639.9,478.4,639.9"/>
	<path class="st0" d="M486.6,498.9c-0.2,0.2-0.9,0.2-1.2,0.2l0,0l0,0l0,0c0.7,1.6,2.2,2.8,3.6,3.9l0,0l0,0c0.8,0.6,1.5,1.3,2.2,2
		l0,0l0,0c1.7,1.3,3.2,3.4,3.7,5.5c0.9,5.8-7.1,4-10.4,2.7l0,0l0,0c-2.2-0.7-4.5-0.9-6.7-1.2c-2.6-0.4-5.3-0.5-8-0.6l0,0
		c-3.5,0-7.1-0.1-10.6-0.5l0,0c-1.3-0.2-2.4-1-3.7-1.1l0,0c-1.2,0-2.4,0.1-3.6,0.1l0,0c-4.2,0.3-8.6,0.2-12.9,0.2l0,0
		c-2.1,0.3-4.2,0.6-6.4,0.6l0,0c1.1,0.8,2.4,1.5,3.3,2.4l0,0l0,0l0,0l0,0l0,0l0,0l0,0l0,0l0,0l0,0l0,0l0,0l0,0l0,0
		c3.6,2.4,7.3,5,10.4,8.1c1.3,1.2,2.5,2.4,3.8,3.7c4,3.8,7.9,8.1,10.6,12.9c0.8,1.4,1.3,3.1,2.4,4.2c2.7,2.6,12.7,0.7,17,1.3
		c-1.3-2.8-3.2-5.3-4.6-8.1c-3.5-5.5-7.5-9.2-12.9-12.8l0,0l0,0l0,0l0,0c-1.1-0.9-2.3-1.7-3.5-2.3c-1.2-0.6-4.6-2.2-5.1-3.4
		c-1.2-2.7,1.1-3.4,3.1-3c4,0.9,8.6,5.3,12,7.5c0.1,0.1,0.1,0.1,0.2,0.2c0.7,0.5,1.5,1,2.2,1.5c3.3,2.6,5,6.1,7.3,9.5l0,0l0,0
		c2.2,3.6,4.5,7.3,6.3,11.1l0,0c6.4,0,12.8,0.4,19.2,0.4c0-0.5-0.4-1.6-0.6-2.1l0,0l0,0c-0.1-1-0.7-2-1.3-2.8l0,0l0,0l0,0l0,0
		c-2.9-5.5-7.2-8.6-11.4-12.8c-1.3-1-8.7-6.6-2.5-7.2l0,0l0,0l0,0c4,0,14,11.9,15.6,14.2c2,3,3,7,5,9.8c2.1,3,9.8,0.7,13.7,0.7l0,0
		c0.6,0-0.8-1.7-0.9-2c-2.2-3.8-4.4-7.2-7.3-10.6c-1.3-1.5-5.6-4.8-2.8-6.9c3.9-3,12.9,13.5,14.3,15.8c1.9,3.1,1.6,3.9,4.9,3.9
		c2.4,0,4.9,0,7.3,0c-0.1,0-0.1,0-0.2,0c0.1,0,0.2,0,0.3,0l0,0c0,0,0.1,0,0.1,0c0,0-0.1,0-0.1,0l0,0l0,0l0,0l0,0l0,0l0,0l0,0l0,0
		l0,0l0,0l0,0l0,0c0.7,0,1.4,0,2.1,0l0,0c0.4,0,0.8,0,1.2,0.1l0,0c1.5,0,2.9,0.1,4.4,0.2l0,0l0,0l0,0c-0.1-0.7-0.6-1.9-1-2.7
		c-1.1-3-3.1-5.9-5-8.4c-5-6.5-10.5-12.5-17.7-16.7c-5.8-3.4-11-4.7-17.3-6.3c0,0-0.1,0-0.1,0l0,0c0.2,1.4,0.1,3.7,1.2,4.8
		c0.9,1.9-0.7,3.7-2.7,3.3l0,0c-3.7-1.4-3.2-10.3-3.7-13.1c-0.3-1.4-0.2-2.7-1.4-3.8C496.7,499.6,488.8,497.7,486.6,498.9
		L486.6,498.9z"/>
	<path class="st0" d="M504.1,504.2c-0.2,0-0.3,0-0.5,0l0,0l0,0l0,0c0,0.5,0,1.1,0.1,1.6l0,0c3,0,5.7,1.2,8.6,1.8
		c14.1,3.4,25.3,15.3,33,26.9c0.5,0.8,1,1.7,1.6,2.4c1.2,2.2,2.6,4.7,3.1,7.2l0,0l0,0l0,0c0.7-0.4,2.2-0.5,2.7-1
		c-0.4-1.6-0.5-3.3-0.5-5c0-2,0.1-4.1,0.1-6.1c0.8-8.2-2.4-22.1-11.6-24.4c-4.3-0.6-8.3-1.3-12.6-1.6c-3.4-0.2-6.8-0.3-10.2-0.3
		C513.3,505.6,508.5,504.2,504.1,504.2"/>
	<path class="st0" d="M526.2,500.6c-0.9,0.1-1.9,0.3-2.8,0.5c2.8,0,5.6,0.3,8.4,0.3l0,0c1.6,0,3.3,0,4.9,0.3l0,0l0,0l0,0
		c15.3,0.2,20,17.7,20.1,30.3c-0.3,3.3-0.3,6.8,0.5,10c3.9,0,8-0.6,11.9-0.8l0,0c0.5,0,0.9-0.1,1.4-0.1l0,0c1.1,0,2.1-0.1,3.2-0.1
		l0,0c1.1,0,2.2,0,3.3,0c-0.3-3.3-0.5-6.6-0.5-9.9l0,0l0,0l0,0l0,0c0.1-1.4-0.1-2.8-0.4-4.1c0,0,0-0.1,0-0.1
		c-0.9-4.8-4.1-17-7.8-19.7c-1.5-1.4-3.5-2-5.4-2.5l0,0c0,0-0.1,0-0.1,0l0,0c-4.7-1.9-10-2.7-15.1-3l0,0l0,0l0,0l0,0l0,0
		c-1.8-0.1-3.5-0.3-5.3-0.3l0,0c-1,0-1.9,0-2.9-0.1C535.2,500.7,530.6,500.6,526.2,500.6"/>
	<path class="st0" d="M577.3,548.8c-6.2,0-12.3,2.1-18.3,2.1l0,0l0,0l0,0c0,0.1,0.1,0.1,0.1,0.2c2.4,6.4,2.9,19.4,0.7,26
		c-0.4,2.4-1,4.7-1.7,7c-0.8,2.7-0.6,2.1,0.6,4.4c0.8,1.6,1.8,3,2.5,4.7c0.4,0.9,2,6.2,2.4,5.7l0,0l0,0c0-0.1,0-0.1,0.1-0.1l0,0l0,0
		l0,0l0,0c0.1,0,0.2-0.1,0.3-0.2l0,0l0,0c1.2-1.2,2.4-2.5,3.3-3.9l0,0l0,0c0.5-0.7,0.9-1.3,1.3-2c0,0,0.1-0.2,0.2-0.2l0,0l0,0l0,0
		l0,0l0,0l0,0l0,0l0,0l0,0l0,0l0,0l0,0l0,0l0,0l0,0l0,0c0.1-0.1,0.2-0.2,0.2-0.3c1.1-1.9,2.3-3.7,3.1-5.7c1.9-5.3,4-10.2,5.1-15.9
		C577.8,568.4,579.7,548.8,577.3,548.8"/>
	<path class="st0" d="M513.4,484.8c-0.9,0.1-1.9,0.1-2.8,0.3c-1.1,0.2-2.1,0.4-3.1,0.7c-6.1,1.8-15.9,3.8-20.4,8.5
		c-0.1,0-0.1,0-0.1,0.1l0,0l0,0l0,0c3.1,0,7.3,1.4,10.2,2.5c2.9,1.1,3.8,3,6.8,3c3-2.5,8.7-2.7,12.5-2.6l0,0
		c0.2-0.7,0.1-2.3,0.1-3.5c-0.2-3-0.7-6-0.9-9l0,0l0,0C514.9,484.8,514.2,484.8,513.4,484.8z"/>
	<path class="st0" d="M523.8,484.1c-0.2,0-0.3,0-0.5,0l0,0c-1.1,0.1-2.7,0.1-3.6,0.4c0.5,2.4,0.9,4.7,0.9,7.1
		c0.1,1.8,0.5,3.6,0.4,5.4c1.4-0.1,2.8-0.3,4.2-0.5l0,0l0,0l0,0l0,0c0.8-0.1,1.6-0.1,2.4-0.1l0,0c17,0,46.2-1.6,49.6,20.1l0,0l0,0
		c1,2.9,2.1,5.8,2.8,8.8c0.6,2.9,0.2,6,0.6,8.9c0.2,1.8-0.5,7.4,1.5,7.3l0,0c0.5,0.1,0.9,0.2,1.4,0.2l0,0c1.5,0,3.9,0.8,4.3,2.5
		c0.6,2.5-2.1,2.9-3.7,3.5c-0.7,0.3-4.4,0.6-1.8,2.6c0.8,0.6,4.7-0.5,6-0.5c2.8-0.1,5.6-0.2,8.4,0.1l0,0c4.1,0.1,8.2,1.5,12,3
		c0-0.2,0-0.5,0-0.7c0-2.4-0.3-4.7-0.2-7.1c0.4-2.9,0.4-6.1,0.4-9l0,0l0,0c0-0.7-0.2-1.5-0.2-2.2c-0.2-2.4-0.8-4.6-0.7-7.1
		c0-1.3,0.2-2.4,0.2-3.7c-0.3-4.4-0.7-6.2-4.5-8.8c-2.3-1.5-4.2-4.4-6.3-6.3c-2.6-2.3-5.5-4.1-8.5-5.8c-5.5-3.2-11.3-6.6-17.3-8.7
		c-1-0.4-2.1-0.9-3.2-1.1l0,0c-0.1,0-0.3-0.1-0.4-0.1c-5.4-1.3-10.4-4.3-15.9-5.3l0,0c-2.3-0.5-4.6-0.5-7-0.7l0,0
		c-0.7,0-4.5-0.9-5.1-0.5c-1.1,0.7-0.9,3.1-1.2,4.3c-0.5,1.9-1.8,5.8-4.4,3.6c-2.2-1.9,0.9-6.8,0.9-8.8c-1.5,0-2.9,0.1-4.4-0.1l0,0
		l0,0l0,0c0,0.3-0.1,0.7-0.3,0.9c0,0.3,0,0.5,0,0.8c0,1.1,0,2.1,0,3.2c0,0.5,0,1,0,1.6c-0.1,2.8-3,6.2-4.5,2
		c-0.7-2.1,0.1-6.7,0.4-8.9l0,0l0,0c-0.3,0-0.7-0.1-1-0.1l0,0c-0.5,0-1.1,0-1.6,0C523.8,484.3,523.8,484.2,523.8,484.1z
		 M590.2,539.7c-10-0.4-4.2-13.6-6.9-19c0-0.1,0-0.1,0-0.2l0,0l0,0c-0.1-0.9-0.1-1.9-0.1-2.8c-0.2-3-0.4-6.3,1-9
		c1.2-2.4,5.4-5.3,7.3-1.9l0,0l0,0l0,0c0.8,0.6,1.6,1.4,2.4,2.2c4,4.3,6.2,6.1,6.5,12.3c0.2,4.4,0.3,8.9-0.1,13.3
		C599.9,538.3,593.6,540.8,590.2,539.7"/>
	<path class="st0" d="M593.6,554c-4.3,0-3.8,0.7-3.4,4.9c0.5,4.1,0.9,8.5,0.8,12.6l0,0l0,0c0,5.7,0.5,11.3,0.7,17
		c-0.1,6.3,1,12.7,1,19c0,0,0,0.1,0,0.1c0.2,2,0.4,4.1,0.4,6.1c0.1,2.6,0.5,5.3,0.9,7.9c0,0,0,0.1,0,0.1c0,0.2,0,0.3,0,0.5
		c0,0,0,0.1,0,0.1l0,0l0,0l0,0l0,0l0,0l0,0l0,0l0,0l0,0l0,0l0,0l0,0c-0.1,0.5,0,1.1,0.5,1.1l0,0l0,0l0,0c2.7-0.4,5.7-0.9,8.3-1.7
		c0,0,1.9-0.3,1.9-0.4c0.9-0.9,0.4-2.8,0.6-4.1c0-0.2,0-0.5,0-0.7c0.4-8.2,1.2-16.6,1.2-24.8l0,0l0,0c-0.1-6.5,0.5-13.2,0.8-19.7
		c0.1-1.8,0.2-3.7,0.3-5.5c0.1-2,0.7-4.8,0.3-6.7c-0.5-2.5,0.5-1.2-1.7-2.5c-3.3-1.9-9.5-2.6-13.3-2.6
		C593.5,554.7,593.7,554.6,593.6,554z"/>
	<path class="st0" d="M584.2,554.8c-0.2,0-0.4,0.1-0.6,0.1l0,0c0.4,3.7,0.3,7.4,0,11.1c-0.7,5.6-1.9,11-3.8,16.3l0,0l0,0
		c0,0,0,0.1,0,0.1c-0.5,1.7-1.5,3.2-2.1,4.9c-1,2.4-3.4,7-5.4,9c-0.2,0.3-0.4,0.6-0.7,0.8c-0.8,1.3-1.9,2.5-3,3.6
		c-0.8,1-2.4,2.3-3.8,1.4l0,0l0,0c-0.1-0.1-0.2-0.1-0.3-0.2l0,0l0,0l0,0l0,0l0,0l0,0l0,0l0,0c0,3.7,0.4,7.7,0.9,11.3
		c0,0,0,0.1,0,0.1l0,0l0,0l0,0l0,0l0,0c0,0,0-0.1,0-0.1c0,0,0,0.1,0,0.1l0,0l0,0l0,0l0,0c0,0.1,0,0.3,0,0.4
		c0.8,4.9,2.1,9.8,2.1,14.8l0,0l0,0l0,0l0,0c1.5,3.6,0,3.6,4.5,3.1c0.8-0.1,4.9,0,5.7-0.8c0.8-0.7-0.2-9.5-0.2-11.5
		c0-0.8-0.1-3.4,0.5-4c0.7-1.9,1.8-3.5,2.7-5.3c2-3.3,4.1-4.4,7.7-4.4c0-6-0.7-12-1-17.9c-0.5-9.3,0.1-19-1.3-28.3
		c-0.1-1.1-0.3-2.1-0.3-3.2c0.1-0.7-0.1-1.4-0.1-2.1C585.3,554.5,584.8,554.7,584.2,554.8"/>
	<path class="st0" d="M549.2,586.6c-1.3,0-5.8,1.7-5.8,3.7c-1.1,2.3-2.6,4.2-3.4,6.5c-0.8,2.4-1.1,5-1.7,7.5c0.2-0.2,0.1-0.1,0-0.1
		l0,0l0,0l0,0l0,0l0,0l0,0l0,0l0,0l0,0l0,0l0,0l0,0l0,0c-0.9,5.8-0.6,11.7-1.5,17.5c-0.5,3-0.2,5.9-0.2,8.9c0.3,2.3-0.2,4.6,0.2,6.9
		l0,0l0,0l0,0l0,0l0,0c1.5-0.2,2.9-0.4,4.4-0.6l0,0c2.1-0.3,5.4,0.3,5-2.7c0.3-1.4,0.1-2.8,0.4-4.1l0,0l0,0l0,0l0,0l0,0l0,0l0,0l0,0
		l0,0l0,0l0,0l0,0c0-0.2,0-0.5,0.1-0.7c0.2-0.9,0.4-1.8,0.4-2.7c0.2-2.3,0.5-4.7,1.5-6.8c0.2-0.3,0.4-0.7,0.5-1.1
		c0.1-0.5,0.3-1,0.5-1.5l0,0l0,0l0,0l0,0l0,0l0,0l0,0l0,0l0,0l0,0l0,0l0,0c0-0.1,0.1-0.2,0.1-0.3l0,0l0,0c0.1-0.2,0.2-0.5,0.3-0.8
		c0.9-2.1,2.1-6.3,5-6.3l0,0c2-0.4,4.1,0.4,5.5,1.9l0,0l0,0c0-0.4,0-0.7,0-1.1c-0.2-6.6-1.1-14.5-5.3-19.9
		C554.1,588.8,551.5,586.4,549.2,586.6z"/>
	<path class="st0" d="M429,550.1c1.7,2.5,3.1,5.5,3.1,8.6c0.7,2.4,1,5.1,1.2,7.6c0.6,6.7,0.6,14.5-0.9,21.2
		c-0.7,2.9-1.6,7.9-3.8,10.1c-0.1,0.2-0.2,0.4-0.3,0.6c-1.3,2.6-3.1,5.2-5.1,7.3c-0.8,0.8-1.5,1.8-2.5,2.4l0,0l0,0l0,0l0,0
		c0.3-0.2,0.2-0.1,0-0.1l0,0l0,0l0,0l0,0l0,0l0,0l0,0l0,0l0,0l0,0l0,0l0,0l0,0c-0.4,0.3-2.8,2.6-2.8,3.5l0,0l0,0l0,0l0,0
		c0.1-0.1,0.2-0.2,0,0l0,0l0,0l0,0l0,0l0,0l0,0l0,0l0,0c-1.1,1.5-2.2,2.7-3.6,3.9c-0.7,0.5-1.4,1.5-2.2,1.9l0,0l0,0
		c-1.2,1.1-2.3,2.2-3.8,2.9c-2.5,1.5-5.3,3.2-8,4l0,0c-0.8,0.3-1.5,0.7-2.1,1.2c-1.6,1.9-4.2,0.6-5.3,2.8l0,0
		c-5.8,2.9-12.5,4-18.9,4.3l0,0c-3.9,1.2-8.1,0.9-12.1,0.4l0,0c-2.7-0.7-5.3-1.1-7.9-1.9c-1.9-0.6-6.6-0.6-8.1-2.1
		c-0.5-0.2-1-0.4-1.5-0.5l0,0l0,0l0,0c-4-1.5-7.9-3.2-11.7-5.1l0,0c-2.5,4.7-4.7,11.1-6.2,16.2c-0.4,3.7-3,3.2-5.7,3.3
		c-2.9,0.2-5.7,1-8.6,1.2l0,0c-0.2,0-0.5,0.1-0.7,0.1c3.1,0,6.2,0,9.3,0c0,0-0.1,0-0.1,0c0,0,0.1,0,0.1,0l0,0l0,0l0,0l0,0l0,0l0,0
		l0,0l0,0l0,0l0,0l0,0l0,0l0,0c2.3,0,4.7-0.1,7-0.1l0,0c0.8-0.1,1.7-0.1,2.5-0.1l0,0l0,0l0,0c8.5,0,17.1-0.1,25.6-0.1
		c9,0,18,1,26.9,1l0,0c21.7,0.7,43.5-0.5,65.2,0.8c6.1,0.4,12.3,1.4,18.4,1.4c-0.3-0.3-0.5-0.8-0.8-1.1l0,0l0,0l0,0l0,0l0,0l0,0l0,0
		l0,0l0,0l0,0l0,0l0,0l0,0l0,0l0,0l0,0l0,0l0,0c0,0-0.1-0.1-0.1-0.1l0,0l0,0l0,0l0,0l0,0l0,0l0,0l0,0l0,0l0,0
		c-0.7-0.5-1.7-1.6-1.5-2.5c-4.5-11.4-5.6-24.2-11.1-35.3c-0.2-0.5-0.4-0.9-0.6-1.4c-0.7-1.7-4.4-9.4,0.9-7.6
		c1.2,0.9,1.5,2.3,2.2,3.6c0,0.1,0.1,0.1,0.1,0.2c2.9-3.3,5.6-7.6,6.7-11.9c4.2-9.1,4.5-20.4,2.6-30.2c-0.3-1.4-0.4-2.5-0.9-3.8
		c-0.9-2.5-0.8-4.8-3-5.7c-0.8-0.3-2.6,0-3.4,0l0,0c-9.4-0.2-19.2,0-28.6,0.1C428.9,550.8,429,550.4,429,550.1L429,550.1L429,550.1
		L429,550.1z"/>
	<path class="st0" d="M414.6,501c-0.5,0-0.9,0-1.4,0l0,0c-7.1,0.3-14.8,0.1-21.8,1.3c-0.5,0.1-1,0.1-1.5,0.1l0,0l0,0l0,0l0,0
		c0,0,0.1,0,0.1,0l0,0l0,0l0,0l0,0l0,0l0,0l0,0l0,0l0,0l0,0l0,0l0,0c0,0-0.1,0-0.1,0l0,0l0,0l0,0l0,0l0,0l0,0l0,0l0,0l0,0l0,0l0,0
		l0,0l0,0l0,0l0,0l0,0l0,0c-3.4,0-9.3-0.4-12.6,0.7c-1.5,0.5-0.7-0.3-1.5,0.7c-0.3,0.4-1.3,2.8-1.5,3.4c-0.2,0.6-0.8,0.4-0.8,1.3
		c0,1.5,3.9,1.5,5.4,1.6c4.4,1,8.7,3.2,13,4l0,0l0,0c0.5,0.2,1.1,0.4,1.6,0.6l0,0c0,0,0.1,0,0.1,0l0,0l0,0l0,0l0,0l0,0l0,0
		c3,1.3,6.2,2.6,8.5,4.9l0,0l0,0c0.7,0.4,1.4,1,1.9,1.7l0,0l0,0c4,2.6,9.7,7.2,12.3,11.1c0,0,0.1,0.1,0.1,0.1l0,0l0,0l0,0l0,0l0,0
		l0,0l0,0l0,0l0,0l0,0l0,0l0,0l0,0l0,0l0,0l0,0c0.1,0.1,0.2,0.2,0.2,0.3l0,0l0,0c1.4,1.7,3.3,3.6,4.3,5.4l0,0l0,0
		c2.6,2.9,2.5,5.3,6.8,5c4.6-0.3,9.1-0.2,13.7-0.4c3.9-0.1,7.9-0.1,11.8-0.1l0,0c1.3,0,2.5,0.1,3.8,0.1l0,0l0,0l0,0
		c-1.9-5.3-7-10.6-11-14.6c-3-3-6.1-5.7-9.3-8.4c-2.8-2.1-5.7-4-8.7-5.9c-1-0.7-2.1-1-3.3-1.2c-1.3-0.2-2.5-0.1-3.8-0.1l0,0
		C414.9,513.1,417.1,500.2,414.6,501"/>
	<path class="st0" d="M297.5,737.1c-1.3,2.6,3.2,8.2,4.5,10.3l0,0l0,0l0,0l0,0c0.3,0.6,0.7,1.2,1.1,1.7l0,0l0,0
		c0.8,1.5,2,2.3,3.1,3.4l0,0l0,0c2.3,1.9,5.1,3.3,7.9,4.3c0.4,0.1,0.8,0.2,1.2,0.3l0,0l0,0c0.6,0.1,1.2,0.2,1.8,0.4l0,0
		c0.1,0,0.3,0,0.4,0l0,0l0,0c0.3-0.2,0.7-0.2,1.1-0.2c11.9,0.9,24.2-1.2,36.1-1.8c13.8-0.7,27.5-0.5,41.4-0.5l0,0
		c10.7,0,21.4-0.5,32.1-0.5c-0.1-5.5-0.3-10.9-0.2-16.4c-19.6,0-39.3-1.1-59-1.1c0.3,0,0.7,0,1,0c-12.7,0-25.5-0.4-38.2-0.1
		c-4.5,0.1-9,0.1-13.5,0.1c-2.7,0-5.3,0-8,0C307.5,737,298.8,735.8,297.5,737.1"/>
	<path class="st0" d="M298.1,704.2c-1.3-0.1-3.5,3.2-4.5,4.2c-1.5,1.5-2,3.2-3.1,5.1c-2,2.6-1.8,7.6-2.1,10.8
		c-0.6,6.5,0.3,13.2,1,19.6c0.5,4.9,1.1,10.1,1.1,15c0,0,0-0.1,0-0.1c0,0.1,0,0.1,0,0.2l0,0l0,0l0,0l0,0l0,0l0,0l0,0l0,0l0,0l0,0
		l0,0l0,0c0.1,5.7,2.6,14.9,7.1,18.2l0,0c0.7,1.1,1.9,1.6,3.3,1.2l0,0c2.1,0,4.8,0.1,6.7-0.7c1.2-1.3,2.1-2.9,2.9-4.4
		c0.6-0.9,1.1-1.8,1.9-2.6l0,0l0,0l0,0l0,0l0,0l0,0l0,0l0,0l0,0l0,0l0,0l0,0l0,0l0,0l0,0l0,0l0,0l0,0l0,0l0,0
		c1.6-2.8,2.9-5.3,3.9-8.4c-1.7-1-4.8-1.5-6.9-2.6l0,0l0,0c-1.3-0.6-2.7-1.4-3.9-2.1l0,0l0,0c-0.2-0.2-0.4-0.5-0.7-0.6
		c-3.1-2.9-6.8-6.3-8.7-10.2c-0.7-1.2-1.4-2.5-1.9-3.8c-0.8-2.4-1.1-4.2-1.1-6.4c0-1.2,0.1-2.4,0.1-3.7l0,0l0,0
		c0-0.4,0.1-0.7,0.1-1.1c0-0.2,0.1-0.3,0.1-0.5c0,0,0,0.1,0,0.1l0,0l0,0l0,0l0,0l0,0l0,0l0,0l0,0l0,0l0,0l0,0l0,0l0,0l0,0
		c1-5.1,1.2-10.3,2.7-15.2c0.8-2.4,2.4-10.5,5-11.8l0,0l0,0l0,0l0,0l0,0l0,0l0,0c-0.1-0.1-0.7-0.1-1.1-0.1l0,0
		C299.2,704.5,298.2,704.3,298.1,704.2z"/>
	<path class="st0" d="M377,759.6c-2.3,0-4.5,0-6.8,0.1l0,0l0,0c-0.3,0-0.7,0-1,0l0,0c-0.1,0-0.2,0-0.3,0l0,0
		c0.8,2.3,6.3,8.6,9.5,8.3l0,0c2.4-0.9,4.1-5.8,4.9-8.2l0,0l0,0C381.6,759.4,378.9,759.6,377,759.6"/>
	<path class="st0" d="M282.2,678.6c-6.9,0.4-14.9,4.9-15.4,12.5c-0.4,6,2,8.6,7.1,11.3c4.1,2.2,8.2,2.6,12.6,1.7l0,0
		c0,0,0.1,0,0.1,0l0,0l0,0l0,0l0,0l0,0l0,0l0,0l0,0l0,0l0,0l0,0l0,0l0,0l0,0l0,0l0,0c2.2-0.7,3.8-2.8,4.9-4.7c0.7-1,1.2-2,1.7-3.1
		c1-2.3,1.7-6.3,1.4-8.7c-0.3-1.7-1.1-3.1-2.2-4.4c-1.4-1.6-3-2.8-5-3.4C285.9,679.3,282.3,680.2,282.2,678.6z"/>
	<path class="st0" d="M414.6,679.2c-1.7,0-3.8,0.5-5.4,1c-1.3,0.7-2-0.2-3,0c-2.6,0.5-5.4,3.3-6.7,5.4c-1.5,2.4-2.1,5.6-1.8,8.4
		c0.4,4.1,1,7.6,4.5,10.2c1.5,1,3,2.2,4.7,2.8c1.9,0.7,8.6,2,10.4,0.1l0,0l0,0c6.1-2.5,8.7-11.9,7.1-17.5
		C423.1,685.2,419.7,679.2,414.6,679.2"/>
	<path class="st0" d="M705.5,626.9c-1.4,0.5-2.9,0.5-4.3,1c-1.4,0.5-2.9,1-4.3,1.4c-2,0.6-4.1,1-6.2,1.5c-1.3,0.3-2.5,0.6-3.8,1
		c-1.6,0.4-7.2,0.9-8.3,2c-10.1,1.1-20.3,3.6-30.2,5.6c-6.9,0.5-15.8,3.1-22.5,5.1l0,0c-1.9,0.1-1.2,2.4-2,3.9
		c2.3,2.7,0.7,10.7,0.6,14.2c-0.1,4.6-0.4,9.1-0.4,13.7c0.2,6.1-0.6,12.8,0.2,18.8l0,0c0.6,0,1.3,0,1.9,0c-0.6-3.1,2.2-3,4.3-3.4
		c3.1-0.6,5.3-1.6,8-3c0,0,0.1-0.1,0.1-0.1c1.6-3.4,0.8-8.2,0.7-12c-0.1-2.4-0.8-7.9,1.1-9.8l0,0l0,0c1.6-2,1.8-5.6,2-8
		c0.3-3.2,0.5-6.4,0.8-9.6c0.2-1.7-0.2-4.7,2.5-4.6c2.3,0.2,2,2.4,2,4.1c-0.2,3.1-0.6,6.2-0.8,9.3c-0.1,1.6,0.2,5.6-0.9,6.8l0,0l0,0
		l0,0l0,0l0,0c3.5,0,7.3-0.6,8.6,2.9c1.2,3.5,0.5,8.6,2.8,11.8c1.3,1.8,3.3,2.2,5.7,1.6c4.3-1,3.6-6.5,3.9-10.3
		c0.2-2.3,0.5-8.2,2.3-10.3c1.5-1.7,3-1.3,4.9-1.8c3.1-0.8,8.8-3.1,8.8,2.3c1,4.4,1.3,9,2.9,13.2c2.3-0.8,5.4-1.6,6.8-3.6
		c2.3-3.3,1.5-8,2.1-11.7c0.5-3.4,1.5-6,5.1-6.4c2.4-0.3,5-0.4,7.5-0.6c0-1.5,0.1-3.6-1.3-4.3l0,0l0,0c-1.9-1.4-1.6-4.3-1.6-6.4
		c-0.1-4.8,0.8-9.8,0.8-14.7C705.8,626.6,705.9,626.8,705.5,626.9 M683,639c-0.5-0.4-1.6-3.3-0.2-3.3c2.3-2.4,7.3-3,10.4-2.5
		c1.4,0.2,5,1.8,3,3.8c-1.1,1.5-2.5,2.7-3.8,4c6.6,0,1.9,5.8-0.6,8.3c5.1-0.2,0.7,5,0.7,6.3l0,0l0,0l0,0l0,0l0,0l0,0
		c1.7,2,0.5,3.9-0.7,5.7c1.3,4.1-4.8,3.9-4.8,0c0-1,0.4-1.9,1.2-2.5c-4.2-0.1-2.9-3.4-1-5.3c-3,0-3.5-3.2-1.9-5.1
		c0.9-1,2.3-1.4,3.2-2.3c-0.7,0-1.5,0.1-2.2,0.2l0,0c-2.7,1-4.1-1.5-2.9-3.6c0.9-1.6,4.4-3.4,6-4.7c-0.9,0-2.4,0.3-3.1,0.8
		C685.4,639.9,684.2,639.9,683,639 M655.2,647.3c-6.6-3.3,5.2-5.5,6.3-5.5c8.2-0.3,4.8,5.1,0.5,8.8l0,0c0.1,0,0.3,0.1,0.4,0.1l0,0
		c0.3,0,0.6,0.1,0.9,0.2c1.6,0.4,8,2.6,3.4,4.9c-1.2,0.6-2.8,1.6-3.6,2.2l0,0c0.5,0.1,1,0.1,1.5,0.2l0,0c3.5,0.1,3.9,4,0.9,5.3l0,0
		l0,0l0,0c-0.5,0.2-1.1,0.8-1.5,1.2c2.6,0.6,1.7,3.6,0.5,5.1c-0.5,0.6-1,1.4-1.2,2c3.2,2.6,0,6.3-3.4,2.9c-2.4-1.5-1-4.2,0.2-6.1
		c-1.9,0-5.3-3-2.2-4.2c0,0-0.1,0-0.1,0c0,0,0.1,0,0.1,0l0,0c0,0,0.1,0,0.1,0c0.8-0.6,1.7-1.3,2.4-2c0.7-0.7-4.9-1.3-4.3-4.3
		c0.3-1.7,2.7-2.6,4-3.2c-1.4,0-4.6-0.9-4-2.8l0,0l0,0c0.4-1.9,2.8-3.8,4.1-5.1c-0.8,0-1.8,0.3-2.6,0.5l0,0
		C656.3,648.8,656.5,647.3,655.2,647.3 M629.9,649.9c-1.7-0.6-1-3-0.3-3.9c0.9-1,2.9-1.3,4.1-1.6c1.3-0.3,2.7-0.4,4-0.4l0,0
		c3.1-0.2,7,0.3,4.3,4.3c-1.1,1.1-2,2.4-3.1,3.5l0,0l0,0l0,0c0.3,0,0.9,0.2,1.1,0.4c2.7,1.8,0.4,4.6-1.3,6c0.7,1.7,3.1,3.2-0.6,5.6
		c-1,3.4-5.7,1.7-4.7-1.4c-5.2-0.8-0.3-5.4,1.5-6.6c-0.9,0-2.8-0.4-3.4-1.1c-2.5-2.7,2.1-4.8,4-6c-0.8,0-2.2,0.2-2.8,0.8
		c-0.1,0-0.1,0-0.1,0.1C631.6,650.2,630.9,650.1,629.9,649.9"/>
	<path class="st0" d="M599.8,639.9c-4.3,0-8.7,1.3-13,1.9l0,0c0,0,0.4,0.6,0.8,0.9l0,0l0,0c0.1,0.1,0.2,0.2,0.3,0.3
		c1.4,1.3,2.5,2.8,3.6,4.4c1.2,1.5,2.3,4,2.3,5.9c0.1,1,0.5,2.1,0.8,3.1l0,0l0,0c1,2.6,0.4,5,2.4,6.2c1.3,0.9,2.9,0.9,4.3,2
		c3.5,2.7,3,5.8,2,9.6c-0.3,3.6-3.3,6.3-3.7,9.6c-0.9,6.5,0.2,13.8,0.2,20.4c4,0,8.3,0.9,12.5,0.6c3-0.2,5.9-0.7,8.8-1l0,0
		c0.1,0,0.1,0,0.2,0l0,0c1.8-0.2,5,0.2,6.6-0.7c0.2-0.3,0.2-0.5,0.2-0.8l-0.3-0.7l0,0l0,0l0,0c-0.5-0.2-0.8,0.4-1.3,0.4l-0.3-0.7
		c-5.8,0.1-6.9-4.5-6.9-9.3c-0.1,0-0.2,0-0.3,0.1c-0.4,0.2-0.8,0.4-1.2,0.6c-0.2,0.1-0.4,0.2-0.5,0.4c-3,0.4-0.6,3.9-2.5,5.5
		c-4.3,3.8-3.2-4.5-3.1-6.3c1.2-12.6,0.4-25.9-0.4-38.5c-0.3-0.6,0-0.1-0.5-0.4c-2.9-1.4-4.6,0.7-6.7-3.6l0,0l0,0
		c-1-3-1.1-6.3-2.5-9.1C601.3,640.4,600.5,639.8,599.8,639.9"/>
	<path class="st0" d="M620,651.3c-0.4,0.1-0.8,0.3-1.2,0.4c-3,0.8-2.8,0.2-2.9,3c-0.1,3.3,0.5,6.7,0.4,10.1c0.9-0.5,2.4-1.4,3.5-1.4
		l0,0c0,0,0.1,0,0.1,0c0-4,0.2-8,0.2-12C620.1,651.4,620.1,651.3,620,651.3z"/>
	<path class="st0" d="M619.5,668.1c-1,0-1.9,1.3-3,1.3l0,0l0,0l0,0c0,6.5,0.5,13.1,0,19.6c2.2-1.3,3.1-0.3,3.5-3.1
		c0.1-0.6,0-1.3,0-1.8c-0.1-5.1-0.8-10.6-0.2-15.7C619.8,668.1,619.7,667.9,619.5,668.1"/>
	<path class="st0" d="M474.9,679.2L474.9,679.2c-0.2,0.2-0.5,0.5-0.7,0.7l0,0l0,0l0,0l0,0l0,0l0,0c-0.3,0.4-0.7,0.7-1.2,0.9
		c-1.9,1.1-3.9,0.7-5.9,1.4c-3.6,1.3-4.8,5-4,8.8c0.2,1.4,0.3,2.7,0.3,4.1c-0.1,3.3,0.7,9.5-2.8,10.7c0,0-0.1,0-0.1,0l0,0
		c3.3,6,4.9,12.7,6.8,19.3c0.1,0.8,0.3,1.7,0.4,2.5c0-0.3,0.4-0.5,0.5-0.7l0,0l0,0l0,0l0,0c0.1-0.1,0.2-0.1,0.3-0.2l0,0l0,0l0,0
		c1.1-0.6,2.1-1.5,2.9-2.5l0,0l0,0l0,0l0,0l0,0l0,0l0,0l0,0l0,0l0,0l0,0l0,0l0,0l0,0l0,0l0,0c0,0,0.1-0.1,0.1-0.1s0.1-0.1,0.1-0.1
		c1.9-2.4,3.8-4.7,5.4-7.4l0,0l0,0l0,0l0,0c3.8-6.7,4.3-16.9,1.8-24.5c-0.1-0.6-0.2-1.6-0.5-2.1c0,0,0-0.1,0-0.1l0,0l0,0
		c-1-3.4-2-6.3-3.4-9.6c0,0,0-0.1,0-0.1C474.8,679.9,474.8,679.5,474.9,679.2L474.9,679.2L474.9,679.2L474.9,679.2L474.9,679.2
		L474.9,679.2z"/>
	<path class="st0" d="M375.5,546.2c-7.5,0-14.9,0.2-22.4,0.2l0,0l0,0l0,0l0,0l0,0l0,0l0,0c-1.3-0.1-2.7-0.1-4-0.1
		c-0.7,1.7-0.9,5.3-0.3,7.4c0.5,1.7,0.1,1.6,1.9,2.2c2.2,0.7,7.4,0,9.8,0c2.3,0,4.5-0.1,6.8-0.2l0,0c5.5,0,10.9-0.4,16.4-0.4l0,0
		c2.5-0.1,0.9-5.5,0.9-7.4C384.9,545.4,377.5,546.2,375.5,546.2"/>
	<path class="st0" d="M371.5,655.1c-0.6,0.2-1.2,0.2-1.8,0.2l0,0l0,0l0,0c-1.6,1.7,0.7,7.9,0,10.8c2.3,0,4.5-0.1,6.8-0.1l0,0l0,0
		c0-0.3-0.1-0.6-0.1-0.9c-0.1-0.3-0.1-0.6-0.1-0.9c-0.3-3-1-6.2-1-9.2C374,655,372.7,654.9,371.5,655.1"/>
	<path class="st0" d="M596.2,666.9L596.2,666.9c-0.5,0.2-0.1,0.1-0.5,0.5c-2.1,2.3-0.4,3.1-3.8,4.2c-1.3,0.4-3,0.3-4.3,0.4
		c-3.1,0.3-7,0.4-9.9,1.5c-2.9,1.1-2.6,1.4-5.5,0.3c-2.9-1-6.7-2.5-9.4-0.5c-0.7,0.4-1.4,0.9-2.1,1.3c-0.1,0-0.1,0.1-0.2,0.1l0,0
		l0,0l0,0l0,0l0,0l0,0l0,0c0.1-0.1,0.3-0.2,0.1,0l0,0l0,0l0,0l0,0l0,0l0,0l0,0l0,0l0,0l0,0l0,0l0,0c-0.3,0.2-0.6,0.5-1,0.6l0,0l0,0
		l0,0l0,0l0,0l0,0l0,0l0,0l0,0l0,0c-0.6,0.2-1.3,0.3-2,0.3l0,0c-3,0.1-6,1-9,0.9l0,0c-1.8-0.4-2.1,1-3.6,1.2
		c-1.8,0.2-2.8-0.5-4.8-0.1c-1.8,0.4-3.7,0.7-5.5,1.2c-3.6,1-15.3,6.9-15.3,0.2c0.1-2.5,1.2-4.8,1.5-7.3c0-0.1,0-0.1,0-0.2
		c0-0.4,0.1-0.9,0.1-1.3l0,0l0,0l0,0l0,0l0,0l0,0l0,0l0,0c-5.5,0.5-10.9,1.7-16.5,1.7l0,0c-0.8,0-4,0.1-3.6,0.5
		c0.5,0.5-0.1-0.1-0.2-0.2c-0.3-0.2-0.7-0.4-1.1-0.4l0,0l0,0l0,0l0,0l0,0c-1-0.1-2.1,0.3-2.6,1.3c0,0.1-0.1,0.2-0.1,0.3
		c-0.4,1.5,0.6,2,1.4,2.8l0,0c0.2,0,0.3,0.1,0.5,0.1l0,0c5.2,0,14.7-0.3,14.1,7.8c-0.3,3.5-3.8,4.4-6.7,4.7
		c-1.4,0.1-6.3,0.9-7.4-0.3c-0.1,0-0.1,4.5,0.7,5.1c0.8,0.6,8.7-0.6,9.8-0.4c7.2,1.6,2.7,9.5-1.2,11.9c-1,0.6-8.4,3.1-8.4,1.7
		c-0.1,0.9-0.3,1.7-0.5,2.6c-0.1,0.2-0.1,0.5-0.1,0.5c0.2-0.1,0.6-0.5,0.9-0.5l0,0l0,0l0,0l0,0c4.3-1.4,9-2.3,13.4-3.3
		c2-0.4,4.8-0.6,6.4-1.9c-0.1-1.9-1.6-3.6-1.6-5.8c-0.1-1.2,0-2.4,0.4-3.6c1.6-3.7,4.8-4.7,8.4-5.6l0,0c7.1-0.6,14.1-2,21-3.4
		c3.2-0.6,6.7-1.6,9.9-1.8c2.9-0.2,4.5,2,7.2,1.9c2.2-0.1,3.3-1.5,4.7-3c0.4-0.3,0.7-0.7,1.1-1c2.9-2.7,9.5-2.3,13.3-3
		c2.4-0.4,4.9-1.3,7.3-1.6c3.1-0.3,4.6,2.9,6.4,0.2c1-2.5,2.2-5,2.2-7.8l0,0l0,0C599.8,669.5,596.3,666.9,596.2,666.9"/>
	<path class="st0" d="M507.6,654.4c-0.4,0-0.9,0-1.3,0.1l0,0c-0.1,0-0.1,0-0.2,0l0,0l0,0l0,0c-6.7,1.5-13.5,3.1-20.3,4.2
		c-0.8,0.2-1.7,0.4-2.5,0.4l0,0c-1.4,0.1-3.5,0.2-4.5,0.6c0,0.1,0,0.3,0,0.4c0,0.3,0,0.6-0.1,0.9c1.8,0,3.6-0.2,5.3-0.1
		c3.7,0.1,3.8,1.2,5.1,4.5c1.6,3.8,4,7.8,5.6,11.8l0,0l0,0l0,0l0,0l0,0l0,0l0,0l0,0l0,0c1.1-0.2,2.3-0.3,3.4-0.3
		c-0.8-0.3-1.8-2.8-1.5-2.8l0,0c-1.6,0.6-3.3-0.5-3.1-2.3c0.3-1.9,3.1-2.6,4.7-3l0,0c1-0.2,1.9-0.4,2.9-0.5l0,0l0,0l0,0
		c0.1,0,0.2,0,0.3,0l0,0c1.3-0.1,2.7-0.1,4-0.1l0,0l0,0l0,0l0,0c0-0.1,0-0.1,0-0.2l0,0l0,0C505.6,663.9,506,658.3,507.6,654.4
		L507.6,654.4z"/>
	<path class="st0" d="M500.7,681.3c-0.1,0-0.1,0-0.2,0l0,0l0,0l0,0l0,0l0,0l0,0l0,0c-1.4,0.1-2.7,0.1-4.1,0.3l0,0l0,0l0,0
		c0.5,1.3,1.5,3.1,1.5,4.4c0-2.4,7.9-1.5,9.4-1.5c1.7-0.4,0.9-1.6-0.2-2.5C505.5,680.7,502.5,680.8,500.7,681.3"/>
	<path class="st0" d="M504.9,698L504.9,698c-1.1,0-3-0.2-3.8,0.2c-2.1,0.9-1.1,2.1-1.1,4.7l0,0c1,0,2,0,2.9-0.2l0,0
		c1.7-0.1,3.4-1.2,4.5-2.4c0.4-0.6,0.6-1.2,0.9-1.9l0,0l0,0l0,0l0,0l0,0l0,0c0,0,0-0.1,0-0.1l0,0l0,0
		C507.2,698.4,506,697.8,504.9,698"/>
	<path class="st0" d="M508.2,712.3c-0.9,0.2-1.7,0.3-2.6,0.5l0,0c0,0-0.1,0-0.1,0c1.5,1.3,1.8,5,2,7c0.6,4.9,0.3,9.6,0.3,14.5
		c0,4.3,3,9.4,5.9,13.1c1.6,2.1,1.7,2.2,4,2.2c0,0-0.1-0.1-0.1-0.1c-0.5-0.6-0.9-1.2-1.2-1.8l0,0l0,0c-0.3-0.7-0.6-1.4-1-2
		c-0.9-1.8-1.7-4.4-2-6.4c-0.1-0.5-0.2-1-0.3-1.5c-1.3-5-1.6-10.2-2.6-15.2c-0.7-3.4-1.7-7-1.8-10.5
		C508.6,712.2,508.4,712.2,508.2,712.3z"/>
	<path class="st0" d="M484.7,728.2L484.7,728.2c-0.7,0.2-1.4,0.5-2.1,0.8l0,0l0,0l0,0c1.5,2.9,1,8.2,1.2,11.4c0,0,0,0.1,0,0.1l0,0
		l0,0c0.3,3.4,1.1,6.8,1.9,10.1c0.5,1.6,0.9,4.1,2.1,5.3c1.4,1.4,1.8,0.7,3.8,0.3l0,0l0,0c0-0.1-0.1-0.2-0.2-0.3
		c-1.5-3.4-2.5-7.9-2.8-11.5c-0.5-2.5-1.1-5.1-1.1-7.7c-0.2-3-0.7-6-0.8-9.1C486,727.8,485.4,728,484.7,728.2"/>
	<path class="st0" d="M478.5,730.3c-0.4,0.4-0.1,4.7,0,5.2l0,0l0,0c0.1,0.8,0.2,1.6,0.3,2.4c1.3,6.4,0.7,13.3,3.7,19.3
		c0.2,0.5,0.5,1,0.9,1.4c0.5,0.7,1,1.4,1.7,1.9l0,0l0,0c-0.1-0.2-0.2-0.3-0.3-0.4c-0.1-0.1-0.3-0.2-0.3-0.4l0,0l0,0
		c-0.4-0.9-0.8-1.7-1.3-2.5c-1-2.4-2.5-5.6-2.7-8.3c-1.1-6.4-2.2-12.8-2.2-19.3l0,0l0,0C478.4,729.8,478.4,730.1,478.5,730.3z"/>
	<path class="st0" d="M506.7,745.6c-0.4,2.5-0.7,3.5,0.6,5.6c0.5,1,1.1,1.9,1.9,2.6c0.6,0.5,1.2,0.6,1.8,0.9l0,0l0,0l0,0l0,0l0,0
		c0.1,0,0.1,0,0.2,0l0,0c0.2,0,0.3-0.1,0.5-0.1l0,0l0,0l0,0c0.4,0,0.8-0.1,1.2-0.1l0,0l0,0c-1.3-1.8-6.6-6.2-6.6-9
		C506.4,745.5,506.6,745.6,506.7,745.6z"/>
	<path class="st0" d="M536.1,729.5c-0.2,1-1.5,4-1.2,5c0.5,2.5,4.8,6.3,7.2,7.5l0,0l0,0l0,0l0,0l0,0l0,0l0,0l0,0l0,0l0,0l0,0l0,0
		l0,0l0,0l0,0l0,0l0,0l0,0l0,0l0,0c0.3,0.1,0.8,0.3,1.1,0.3c-0.6-0.6-1.1-1.3-1.5-2.1c-1.2-2.1-2.4-4.3-3.3-6.5c0,0,0-0.1,0-0.1
		c-0.8-1.4-1.3-3.1-1.7-4.6C536.4,729.2,536.3,729.3,536.1,729.5z"/>
	<path class="st0" d="M538.5,692.1c-0.7,0-0.3,0.4-0.3,1.1c0,0,0-0.1,0-0.1c0,0,0,0.1,0,0.1l0,0l0,0l0,0l0,0l0,0l0,0l0,0l0,0l0,0
		l0,0l0,0l0,0c0.7,8.7,0.8,18.7-0.6,27.3c3.1,1,2.9,7.9,4.3,11c0.6,1.3,2.6,3.7,2.6,5.2c0.4,1.1,1.1,2.1,1.9,3
		c0.1,0.1,0.2,0.2,0.3,0.3c0,0,0.1,0.1,0.1,0.1l0,0l0,0c0,0,0-0.1,0-0.1l0,0l0,0l0,0l0,0l0,0l0,0l0,0l0,0l0,0l0,0l0,0l0,0l0,0l0,0
		c0.2,0.3,0.6,0.6,0.9,0.8c0.5-0.7,1.3-1.3,2.1-1.6l0,0c0.1,0,0.1-0.1,0.2-0.1l0,0l0,0l0,0l0,0l0,0l0,0c0,0-0.1-0.1-0.1-0.1
		c-2.9-2.9-4.7-6.4-6.2-10.2c-2.7-6-4.4-13-4.2-19.5c0-2.7,0-5.4,0.2-8.1l0,0l0,0l0,0l0,0c0-3.1,0-6.4,0.6-9.4
		C539.7,691.9,539.1,692,538.5,692.1"/>
	<path class="st0" d="M574.3,684.3c-1.9,1.1-0.8,7.5-0.4,9.6c0.4,2.2,0.8,4.4,0.9,6.7c0.5,4.5,0.9,9.2,2.1,13.6c0.8,3,1.2,6,1.6,9.1
		c0-0.1,0-0.1,0-0.2c0,0,0,0.1,0,0.1l0,0l0,0l0,0l0,0l0,0l0,0l0,0l0,0l0,0l0,0l0,0l0,0c0.2,1.9,2,6,4.4,5.3l0,0l0,0l0,0l0,0l0,0l0,0
		l0,0c1.4,0,3,0,1.9-1.6c-4.2-5.7-5.7-11.6-7.9-18.1l0,0l0,0c-0.5-4.3-1.5-8.4-1.5-12.9c0.1-2.4-0.3-4.8-0.5-7.2c0-0.1,0-0.2,0-0.3
		c0,0,0,0.1,0,0.1c0,0,0-0.1,0-0.1l0,0l0,0l0,0l0,0l0,0l0,0l0,0l0,0l0,0l0,0l0,0l0,0C574.8,687.1,574.6,685.3,574.3,684.3
		C574.4,684.3,574.3,684.3,574.3,684.3z"/>
	<path class="st0" d="M570.8,705.3c0,3.6-2.2,9.3-0.5,12.7c0.8,4.3,2,10.4,5.1,13.5l0,0c0.2,0,0.3,0,0.5,0.1l0,0l0,0l0,0l0,0l0,0
		l0,0l0,0l0,0l0,0l0,0l0,0l0,0l0,0l0,0l0,0l0,0l0,0c0.5,0,1.1,0,1.6,0l0,0c0,0,0.1,0,0.1,0c0,0,0-0.1,0-0.1
		c-0.2-0.3-0.5-0.6-0.7-0.8c-1.5-2.4-2.6-4.7-3.1-7.5l0,0l0,0c-1-5.6-2.2-11.1-3-16.7C570.7,706.1,570.7,705.6,570.8,705.3
		C570.8,705.3,570.8,705.3,570.8,705.3L570.8,705.3z"/>
	<path class="st0" d="M546.1,648.6c-3.5,0.3-7,1.6-10.5,1.6c2.6,4.5,2.4,9.1,3.2,13.9c0.1,1.4,0.2,2.9,0.2,4.3l0,0l0,0
		c0,1.7-0.1,3.3-0.4,5c1.8,0,2.8-0.2,3.4-1.3c0.9-1.5,0.6-6.6,0.9-8.4c0.7-3.8,1.7-7.6,2.5-11.4c0.3-1.4,0.7-2.8,1.2-4.1
		C546.4,648.3,546.3,648.5,546.1,648.6z"/>
	<path class="st0" d="M576.9,643.6c-3.4,0-6.7,1.2-10.1,1.2c0.5,0.7,0.9,1.5,1.3,2.4c1.9,2.9,2.1,6.5,2.4,9.9c0,0.5,0,1.3,0.2,1.7
		c0-5.1,1.6-11.1,5.2-14.7C576.2,643.7,576.5,643.5,576.9,643.6L576.9,643.6L576.9,643.6L576.9,643.6L576.9,643.6L576.9,643.6z"/>
	<path class="st0" d="M643.9,670.3c0.1,3.2-0.3,6.2-0.1,9.4c0,8.5,0.3,17.7,5.6,24.9l0,0l0,0c0.3,0.3,0.5,0.7,0.8,1
		c1.6,1.6,1.9,1.4,3.4,0.6l0,0l0,0l0,0l0,0l0,0l0,0l0,0c-2.2-3.6-3.9-7.6-4.7-12.2c0-4.3-1.7-8.5-1.7-12.9c0-2.2-0.1-4.3,0.1-6.5
		c0.4-4.4,1.6-5.5-3.3-5.4C644.2,669.6,644.1,670,643.9,670.3"/>
	<path class="st0" d="M619.4,707.9c-0.2,0.1-0.3,0.1-0.5,0.1l0,0l0,0l0,0l0,0l0,0c0.1,0.2,0.2,0.5,0.3,0.7c0,0,0.1,0.1,0.1,0.1
		c1.1,1.9,2.5,6.4,5.1,6.4l0,0l0,0l0,0l0,0l0,0l0,0l0,0l0,0C623.3,713.6,620.9,707.4,619.4,707.9z"/>
	<path class="st0" d="M676.8,663c-0.1,0-0.2,0.1-0.3,0.1l0,0c-3.1,2-1.2,13.2-0.6,16.8c0.5,3.2,1.2,6.3,1.7,9.4c0.3,2.1,1,6,2.6,7.6
		c0.1,0.4,0.8,1.3,1.1,1.6c0.3-0.3,0.4-0.5,0.5-0.8c0.3-0.6,0.7-0.9,1.3-1.2l0,0l0,0c-0.6-0.9-2-2.7-2-3.9
		c-2.2-4.1-3.5-8.7-4.3-13.3c-0.5-2.9-0.7-5.7-0.7-8.6C676.2,669.5,677.4,663.6,676.8,663L676.8,663z"/>
	<path class="st0" d="M619.6,560.7L619.6,560.7c-2.3,0.5-4.3-0.1-6.6-0.1l0,0l0,0l0,0l0,0l0,0l0,0l0,0c-0.3,8.9-0.1,17.9-0.7,26.7
		c-0.2,7-0.7,14-1.1,21c-0.3,3.8-0.6,7.6-0.5,11.4c-0.2,1.9-0.6,4.9,0.3,6.7c0.9,1.6,3.3,1.8,3.3,4.5c0.3,3.2-1.9,8.1,0.6,10.6
		c0,0,0.1,0.1,0.1,0.1l0,0c1.4,0,2.6-0.4,4-0.4l0,0l0,0c0-1.7,0.2-3.5,0.2-5.2c0,0,0,0,0,0c0-0.4,0-0.7,0-1.1
		c0.4-14.8,0.8-29.7,0.8-44.5c0-9.8,0.7-19.7,0.8-29.5c0-0.2,0-0.5-0.1-0.7C620.4,560.5,620,560.7,619.6,560.7"/>
	<path class="st0" d="M612.4,515.4c0,0.2,0.2,0.5,0.2,0.7c0.5,1.7,0.4,3.4,0.4,5.1c0.2,2.3,0.1,4.5,0.1,6.8c0,0.7,0.1,1.5,0.2,2.2
		c0.8,4.8,1,9.2,0.6,14.2c-0.1,1.1-0.1,2.3-0.1,3.4c0,2,1.1,6.9,0.3,8.6l0,0c0.7,0,1.4,0.1,2.1,0.2c0.2-6.5,0.1-13.2,0.7-19.6
		c0.6-4.3,0.2-8.6,0.3-12.9c0.1-1.9,0.1-3.2,1.3-4.7c0.4-0.5,2-0.5,2-1C620.7,517.4,613.3,515.4,612.4,515.4
		C612.5,515.4,612.5,515.4,612.4,515.4C612.5,515.4,612.5,515.4,612.4,515.4L612.4,515.4L612.4,515.4L612.4,515.4L612.4,515.4z"/>
	<path class="st0" d="M577.9,490.8c4.8,2.3,11,4.4,15.2,7.7c2.3,1.4,4.6,2.7,6.6,4.5c1.7,1.2,3.4,3,4.9,4.5c2.3,3.2,3.2,3.3,7.1,3.5
		c2.7,0.1,5.4,0.6,8,1.2c3.5,0.8,5.7,0.8,6.1,4.5c0.3,2.6,0.2,6.2-3.4,5.8c0,0-0.1,0-0.1,0l0,0l0,0l0,0c0,0.2,0,0.4,0,0.6
		c0,0.1,0,0.1,0,0.2l0,0l0,0l0,0c0.3,7.8-0.4,15.5-0.4,23.3c0,0,0-0.1,0-0.1c1.8-2.9,2.7-4.4,2.7-8.3l0,0l0,0c0-0.8-0.1-1.5-0.1-2.3
		l0,0l0,0c0,0,0,0.1,0,0.1c0,0,0-0.1,0-0.1l0,0l0,0l0,0l0,0l0,0l0,0l0,0l0,0l0,0l0,0l0,0l0,0c0-0.1,0-0.1,0-0.2l0,0l0,0
		c0,0,0-0.1,0-0.1c-0.8-7.1,1.1-20,10.6-20l0,0c2.7,0.6,5.1,0.4,7.9,0c5.7-0.9,11.5-0.7,17.3-0.7c-2.6-0.3-5.3-0.4-8-0.7
		c-2.5-0.3-4.8-1.1-7.3-1.3c-3.2-0.2-6.3,0.8-9.4,0.7l0,0l0,0l0,0c-4.4-0.2-7.6,0.2-10.4-3.8c-1.1-0.7-2.2-1.2-3.4-1.6l0,0l0,0
		c-0.2,2.2-2.8,2.8-4.2,1.2l0,0l0,0c-0.1-0.1-0.1-0.1-0.2-0.2c-0.3-0.2-0.5-0.4-0.8-0.6c-3.4-2.8-6.9-5.6-10.8-7.9
		c-0.6-0.5-1.4-1-2.1-1.3l0,0c-1.2-0.8-2.5-1.5-3.8-2.3c-2.9-1.3-5.7-2.9-8.9-3.7c-3.3-1-6.6-1.8-10.1-2.1l0,0
		C579.9,491.2,578.6,491.3,577.9,490.8z"/>
	<path class="st0" d="M482.8,665.7L482.8,665.7c-0.9,0-1.9,0-2.8,0l0,0c-0.3,0-0.7,0-1,0l0,0c-0.2,0.8-1.1,2.3-1.4,3.3
		c-0.3,1.6,0,3.8-0.3,5.5l0,0l0,0l0,0l0,0l0,0l0,0l0,0l0,0l0,0l0,0l0,0l0,0c0,0.1,0,0.1,0,0.2c0.1,0.8,1.7,2.3,2.3,3.4
		c1.2,2,2,4.2,2.6,6.4c0.5,1.9,1,3.8,1.5,5.7c1.8,7.9,2.5,17.9-1.3,25.4c-1.8,3.6-3.7,7.2-6.4,10.2c0,0.1,0.5-0.1,0.9-0.3l0,0l0,0
		l0,0c1.1-0.3,2.3-0.8,3.4-1.1l0,0l0,0c6.8-2.2,12.2-3.9,13.7-11.3c2.2-10.8,1.3-20.3-1.8-30.8c0,0,0,0.1,0,0.1c0-0.1,0-0.1-0.1-0.1
		l0,0c0,0,0-0.1,0-0.1l0,0l0,0l0,0l0,0l0,0l0,0l0,0l0,0c-0.5-2.1-1.3-4-2.3-5.9c0,0,0-0.1,0-0.1c-0.8-1.6-1.4-3.1-2.2-4.7
		c-0.5-1-3.8-5.1-3.2-6.3C484,665.4,483.4,665.6,482.8,665.7"/>
	<path class="st0" d="M471,673c-1.3,0.4-2.7,0.8-4.1,1.1l0,0c-1.5,0.5-3,0.6-4.5,0.8c0.3,1.3,0.4,2.6,0.2,3.9l0,0
		c2.4-0.6,6.2-0.7,8.3-2.1c0.5-0.4,0.9-0.8,1.2-1.3c0.5-0.6,0.7-1.2,0.7-2c0,0,0,0.1,0,0.1c0,0.1,0,0.1,0,0.2c0-0.1,0-0.1,0-0.2l0,0
		l0,0l0,0l0,0l0,0l0,0l0,0l0,0l0,0l0,0l0,0l0,0c0-0.4,0-0.9,0-1.3C472.3,672.6,471.7,672.9,471,673"/>
	<path class="st0" d="M396.9,470.5c-0.8,0-1.5,0.1-2.3,0.1l0,0l0,0l0,0l0,0l0,0l0,0l0,0c-1.9,0-3.8,0.1-5.7,0.1l0,0
		c-5.6,0-11.5-0.4-17,0.5c-0.8,0.2-2.1,1-3,1c0.5,0.8,1,1.6,1.5,2.3c2.9,3.9,5.4,5,6.7,10.1c0.8,2.6,1,5.6,1.4,8.3
		c0,0.3,0.2,4.9,0.6,5.3c1.3,1,6.4-0.4,8-0.5c6.2-0.6,12.5-0.9,18.7-1.3l0,0c1.8,0,3.7-0.3,5.5-0.3c-1-5.7,0.8-10.7,2.6-16
		c0.3-0.7,0.5-1.5,0.8-2.2c0.1-0.4,0.2-0.9,0.3-1.3c0.3-1.8,1.4-3.1,2.7-4.4l0,0l0,0l0,0l0,0l0,0l0,0c-1.4-0.4-3-1-4.5-1l0,0l0,0
		c0,0,0.1,0,0.1,0l0,0l0,0l0,0l0,0l0,0l0,0l0,0l0,0l0,0l0,0l0,0l0,0l0,0l0,0c-2.2-0.1-4.3-0.7-6.5-0.7l0,0c-2.2-0.2-4.3-0.4-6.5-0.4
		l0,0C399.1,469.9,398.1,470.5,396.9,470.5"/>
	<path class="st0" d="M473,485.2L473,485.2c-2.8,0.1-5.6,0.3-8.4,0.3l0,0c4.7,6.8-2.2,14.6-4.7,20.7l0,0l0,0l0,0l0,0l0,0
		c4.8,0.4,9.6,0.1,14.4,0.5c5.5,0.5,10.6,1.9,16,3.1l0,0c0,0,0.1,0,0.1,0l0,0l0,0c-1.3-1.4-2.6-2.7-4.1-3.8c-4.9-4-5.1-8.1-5.1-13.7
		c0-0.8-0.1-2.5,0.4-3c0.1-0.6,0.5-3.5,1.1-3.5l0,0l0,0c-0.9-0.2-1.7-0.3-2.6-0.3l0,0C477.7,485.3,475.3,485.2,473,485.2"/>
	<path class="st0" d="M523.1,615.3L523.1,615.3c-1,0.8-1.8,2.2-2.5,3.4c-0.5,0.6-1,1.3-1.2,2c-3.1,5.2-2.8,12-4.3,17.8l0,0l0,0l0,0
		l0,0c-0.1,0.5-0.2,1-0.3,1.5l0,0l0,0l0,0l0,0l0,0c5.9-0.6,11.7-0.9,17.5-1.8c-0.1-0.8-0.2-1.6-0.3-2.4c0-0.1,0-0.2,0-0.3l0,0l0,0
		c-0.2-1.6-0.2-3.1,0-4.7l0,0l0,0l0,0l0,0C531.3,626.9,528,615.3,523.1,615.3"/>
	<path class="st0" d="M556.1,613.4c-0.1,0-0.1,0.1-0.2,0.1c-0.1,0.1-0.1,0.1-0.2,0.2c-0.1,0.3-0.2,0.5-0.3,0.8
		c-0.4,1.1-1.5,2.4-1.5,3.5l0,0l0,0l0,0l0,0l0,0l0,0l0,0l0,0l0,0l0,0l0,0l0,0c-0.2,1-0.4,2.2-0.9,3.1c0,0.1-0.1,0.1-0.1,0.2
		c-1,1.9-1.4,4.5-1.4,6.7c0,1-0.1,2-0.3,2.9c-0.1,0.5-0.1,1-0.1,1.6c0,0.9-0.1,1.9-0.4,2.8l0,0l0,0l0,0l0,0l0,0
		c3.2-0.6,6.5-1.2,9.7-1.7c2.1-0.3,4.8,0.2,3.3-2.5l0,0l0,0l0,0l0,0l0,0l0,0l0,0l0,0l0,0l0,0l0,0l0,0l0,0l0,0l0,0l0,0
		c-1.2-1.9-1-5.8-1.9-8l0,0l0,0l0,0l0,0C561.5,622,557.2,612.3,556.1,613.4"/>
	<path class="st0" d="M586.9,610.1L586.9,610.1c-3.9,1.8-4.6,6.7-5,10.4l0,0l0,0c-0.2,2.4-0.5,5.7,0.6,8c0,0.4,0,1.2,0.3,1.5l0,0
		l0,0l0,0c2.2-0.3,4.4-1.1,6.5-1.7l0,0c0.9-0.3,2.1-0.5,3-0.9l0,0c0,0,0.1,0,0.1,0c-0.4,0-1.2-0.7-1.4-0.9
		c-2.2-2.8-1.8-12.7-1.9-15.8c-0.2,0-0.6-0.1-0.8-0.2C587.8,610.6,587.3,610.5,586.9,610.1z"/>
	<path class="st0" d="M604,629.4c-0.1,0-0.3,0-0.4,0l0,0l0,0l0,0l0,0l0,0l0,0l0,0l0,0l0,0l0,0l0,0c-4,0.7-7.9,1.8-11.9,2.6l0,0
		c-4.2,0.2-8.9,2-13,2.8c-4.2,0.8-8.5,0.8-12.8,1.5l0,0c-1.6,0.4-3.3,0.8-4.9,0.8l0,0c-5.9,0.5-11.6,2.5-17.6,2.8l0,0l0,0l0,0l0,0
		l0,0l0,0l0,0l0,0l0,0l0,0l0,0l0,0l0,0l0,0l0,0c-0.1,0-0.1,0-0.2,0l0,0c-4.2,1.1-8.5,1.8-12.4,3c-3.6,1.1-9,1.6-12.6,1.6l0,0
		c-6.2-0.2-13.1,2-19.2,3c-6.4,1-13.2,2.4-19.7,2.4l0,0l0,0l0,0l0,0l0,0c0.1,0.8,0.1,1.6,0.1,2.4c0,0,0,0.1,0,0.1l0,0l0,0l0,0l0,0
		l0,0l0,0l0,0l0,0l0,0l0,0l0,0l0,0l0,0l0,0l0,0l0,0l0,0l0,0c0,0.7,0.1,1.5,0.1,2.2l0,0l0,0l0,0c2.8,0,6.2-0.6,8.8-1.5l0,0
		c0.2,0,0.3-0.1,0.5-0.1l0,0l0,0l0,0l0,0l0,0l0,0l0,0l0,0l0,0l0,0l0,0l0,0l0,0l0,0l0,0l0,0l0,0l0,0l0,0c1.1-0.1,2.2-0.7,3.2-0.7l0,0
		l0,0l0,0l0,0l0,0l0,0l0,0l0,0l0,0l0,0l0,0l0,0l0,0l0,0l0,0l0,0l0,0l0,0l0,0l0,0c8.9-1.7,17.8-3.2,26.8-4.4c1.4-0.2,2.9-0.4,4.3-0.6
		c3.7-0.4,7.4-1.1,11.1-1.6c5.8-0.7,12.3-1.5,17.9-3.2l0,0c0,0,0.1,0,0.1,0c4.3-1.6,8.9-1.4,13.3-2.3l0,0l0,0
		c6.3-0.8,12.8-2.2,19.2-2.5c5.2-1.1,22.9-6.3,22.9,3.3c0.1,1.5,0.4,5.5,1.7,6.8l0,0c1.6,0.2,3.2,0,4.8-0.1c1.7-0.2,5.7,0,6.8-1.5
		l0,0l0,0l0,0l0,0c-3.4-1.1-6.4,1.3-9.3-1.9c-2.2-2.5-1.9-5.8-1.7-8.9C610.2,631.1,609.6,628.2,604,629.4"/>
	<path class="st0" d="M493.2,630.7c-2.6,0-11.9-1-12.7,1.8c0,0.1-0.1,0.1-0.1,0.2l0,0l0,0l0,0l0,0c-0.5,0.7-0.7,1.5-0.7,2.4
		c5.8-0.4,11.5-0.3,17.3-0.5c1.1,0,2.9,0.4,3.3-0.5c0.1-0.3-0.8-3-0.8-3C498.6,630.1,494.8,630.3,493.2,630.7z"/>
	<path class="st0" d="M588.2,510.3L588.2,510.3C588.2,510.3,588.2,510.3,588.2,510.3c0,0.1-0.2,0.3-0.3,0.6c0,0,0,0.1,0,0.1
		c-1.7,5.3,0.2,12.7,0.2,18.2l0,0l0,0l0,0l0,0l0,0l0,0l0,0l0,0c0,0.6,0,1.3,0,1.9c0,0,0,0.1,0,0.1s0,0.1,0,0.1l0,0l0,0
		c0,0.1,0,0.1,0,0.2l0,0l0,0c-0.1,2.6,0.9,3.5,3.3,3.7c5.3,0.4,4.1-2.9,4.4-7.3c0.2-2.8,0.7-10-1.9-11.9c-0.5-0.6-1.1-1.1-1.7-1.6
		C591.8,514,588.2,511.1,588.2,510.3L588.2,510.3"/>
	<path class="st0" d="M361.6,502.4c-1.8,0.7-5.3,3.9-5.3,5.9l0,0c1-0.2,2.1-0.4,3.2-0.4l0,0c2.3,0,4.6-0.4,7-0.1l0,0
		C366.6,507.8,364.8,501.3,361.6,502.4"/>
	<path class="st0" d="M453.6,500.1c-4.9,0-3.4,2.7-6.1,5.4c1.4,0.1,6.3,0.7,7.6-0.1c1.1-0.7,1.6-3.7,2.7-4.8
		C456.8,500.1,454.9,500.1,453.6,500.1L453.6,500.1L453.6,500.1z"/>
	<path class="st0" d="M443.4,707.7c0,1.2-0.7,2.1-1.8,2.7c-0.5,0.4-0.9,0.8-1.3,1.2l0,0l0,0c-0.1,0.1-0.2,0.2-0.3,0.3
		c-5.8,7.3-5,16.3-6.7,24.8l0,0l0,0l0,0l0,0l0,0l0,0c-1,11.3-0.4,23.8,3.2,34.6c0,0.1,0.1,0.1,0.1,0.2c1,1.5,2.2,2.9,3.5,4.2
		c1.7,1.6,4.7,1.6,7,1.5c-0.1-0.3-0.3-0.5-0.6-0.7c-5-6.1-6.8-16.2-7.9-24c-0.8-6.5,0.1-12.6,0.1-19l0,0l0,0
		c0.2-1.3,0.6-2.8,0.6-4.1c0.1-1.1,0.3-2.2,0.3-3.3l0,0l0,0c0,0.1,0,0.1,0,0.2c0-0.1,0-0.1,0-0.2l0,0l0,0l0,0l0,0l0,0l0,0l0,0l0,0
		c0.2-0.9,0.4-1.8,0.5-2.7l0,0l0,0l0,0l0,0c0.4-2.9,0.8-5.8,1.7-8.6c1-2.3,1.7-4.7,2.7-7l0,0l0,0l0,0l0,0l0,0l0,0
		C444.1,707.8,443.7,707.7,443.4,707.7L443.4,707.7L443.4,707.7L443.4,707.7C443.4,707.6,443.4,707.6,443.4,707.7"/>
	<path class="st0" d="M443.8,729.8c0,0.4-0.1,0.7-0.1,1.1c0,0.9-0.1,1.9-0.2,2.8l0,0l0,0l0,0l0,0c-0.1,0.5-0.2,1-0.2,1.5
		c-0.5,8.1-0.6,15.2,1.1,23.2c0.7,3.1,3.9,20.5,9,14c-1-0.8-2.2-2-2.8-3.2c-0.3-0.6-0.6-1.1-1-1.6c0,0-0.1-0.1-0.1-0.1l0,0l0,0l0,0
		l0,0l0,0l0,0l0,0l0,0l0,0l0,0l0,0l0,0l0,0l0,0l0,0l0,0l0,0l0,0c0-0.1,0-0.2-0.1-0.2l0,0l0,0l0,0l0,0l0,0
		c-4.4-4.8-4.6-14.6-5.1-20.7C443.9,741.2,443.8,735.1,443.8,729.8L443.8,729.8z"/>
	<path class="st0" d="M284.4,716.1c-4.8,12.6-2.3,26.8-2.3,39.9c0,0,0,0.1,0,0.1c-0.1,7.2,1.5,10.4,4.6,16.7l0,0l0,0
		c0.2,0.2,0.3,0.3,0.5,0.5c1,0.8,1.4,0.2,2.7,0.2l0,0l0,0l0,0c0.2,0,0.1-0.2,0-0.3c-1.1-2.2-1.7-4.7-2.4-7
		c-1.1-5.3-1.9-10.7-2.2-16.1c-0.5-9-2.6-18.9-1-27.8c0.2-1.6-0.2-6,0.8-7C284.9,715.6,284.6,715.8,284.4,716.1z"/>
	<path class="st0" d="M362.6,759.8c-3.1,0-6.2,0.3-9.3,0.5c0.2,0.3,0.2,0.8,0.4,1.1l0,0c0,0.1,0,0.2,0,0.3c0.1,0.2,0.2,0.4,0.3,0.6
		c0.1,0.1,0.2,0.3,0.2,0.4c0.2,0.5,0.5,1,0.9,1.5c4.1,4.8,7.9,9.2,14.6,8.5c1.5-0.2,3.2-0.5,4.5-1c0,0,0-0.1,0-0.1
		c-0.5-0.2-0.9-0.6-1.3-1c-0.9-0.8-2-1.4-2.9-2.3c-1.9-1.6-3.3-3.2-4.6-5.3C364.6,761.7,364.4,759.4,362.6,759.8z"/>
	<path class="st0" d="M700.2,661.4c0,1.1,0.2,4.5-0.5,5.2l0,0l0,0l0,0l0,0l0,0c1.3,0,4.7,0.2,6-0.3c3.3-1.3,2.4-5.3-1.7-4.9l0,0
		C702.7,661.4,701.5,661.4,700.2,661.4z"/>
	<path class="st1" d="M494.3,626.2c-5.6,0-14.6-1.5-17.5,4c-0.9,1.8-3.6,9.1,0.7,9.5l0,0c0.3,0,0.5,0.1,0.8,0.1l0,0
		c2.4,0,4.9-0.1,7.3-0.2l0,0c4.6,0,9.2-0.5,13.8-0.4c1.6,0,2.6-0.2,4,0.6l0,0c3.6,0,1.8-4.7,1.3-6.5c-0.4-1.4-0.4-3.7-1.1-4.8
		C501.8,625.7,496.9,626.2,494.3,626.2 M492.8,630.7c1.8,0,5.5-0.5,6.5,0.6c0,0,0.9,2.7,0.8,3c-0.4,0.9-2.2,0.5-3.3,0.5
		c-5.8,0.2-11.5,0.1-17.3,0.5c0-0.9,0.2-1.7,0.7-2.4l0,0l0,0l0,0l0,0c0-0.1,0.1-0.1,0.1-0.2C481.1,630.1,490.3,630.7,492.8,630.7"/>
	<path class="st1" d="M458.3,728.7c-5.6,0-7.4,13.7-2.6,16c6.6,3.1,5.8-8.5,5.8-11.8C461.1,730.9,460.9,728.7,458.3,728.7"/>
	<path class="st1" d="M498.3,721.8c-2.9,0-3.1,4.5-3.2,6.6c0,6.5,9,1.4,6.6-4.1c-0.4-1-1.8-2.4-3-2.4l0,0
		C498.6,721.9,498.4,721.8,498.3,721.8L498.3,721.8L498.3,721.8z"/>
	<path class="st1" d="M397.1,466c-0.8,0-1.6,0.1-2.4,0.1l0,0c0,0-0.1,0-0.1,0l0,0c-1.3,0.1-2.7,0.2-4,0.2l0,0l0,0l0,0l0,0l0,0l0,0
		l0,0c-3.5,0-7.1,0-10.6,0c-4.3,0-9.2-0.2-13.1,2c-5.2,3-1.4,8.1,1.7,11.2c0.5,0.5,1,1,1.5,1.6c1.4,1.6,2,3.6,2.6,5.6
		c0.5,2.4,2.8,9.7,1.7,11.9c-0.4,0.8-2.2,1.8-2.8,3c-0.9,1.7-0.1,1.3-1.2,2.7c-0.7-3.6-5.3-7.1-8.9-6.7c-3.2,0.4-5.8,3-7.5,5.5
		c-1.2,1.7-1.7,5.5-2.8,6.6c-1.2,1.2-5.6,2.1-6.9,2.7c-2.8,1.4-5.7,2.9-8.2,4.9l0,0l0,0c-11.7,7.3-21.1,19-26.5,31.6
		c-2.2,6.2-2.6,12.3-3,18.7c-0.3,4,0,8,0.3,12c0.6,6.7,3.7,11.8,5.4,18.1c0.4,1.5,1.2,2.9,1.8,4.4c0.3,0.7,1.1,2.1,1.6,3
		c0.1,0.2,0.2,0.5,0.4,0.7c0.5,1,1.2,1.9,2,2.7c2,2.2,3.6,4.7,5.6,6.9c1,1.2,2.2,2.3,3.3,3.4c1.2,1.2,1.6,1.2,1.6,2.8
		c0.1,1.5-1.4,4-2,5.4c-0.7,2.1-2.5,8.9-3.8,10.2c-1.1,1.1-6,1.1-7.9,1.4c-7.3,1-14.5,2.3-21.8,3.4c-4.7,0.7-9.5,1-14.1,2.5
		c-3.3,1.1-5.1,3.1-6.5,6.4c-2.1,5.3-2.2,10.5-2.2,16c0.1,0.4,0.2,0.7,0.2,1.1c-3.4-0.3-6.5,0.9-9.9,0.9c0,0,0.1,0,0.1,0
		c-4.5,0.2-14.6-1.9-15.6,3.6c-0.4,2.2,0,5-0.2,7.2c-0.3,3.3-0.9,6.7-0.9,10c0,0.9-0.2,1.7-0.4,2.6c-2.2,10.3,7.6,13.3,16,13.3
		c3.7,0,6.5,0.4,10,1.3c0.6,0.1,1.3-0.4,1.8-0.3c1.2,0.3,2.2,1.2,3.4,1.6c2.1,0.8,4.5,1.1,6.8,1.1c-0.5,5.6-4.1,10.6-4.2,16.5
		c0,0,0,0.1,0,0.1c-0.6,10.2-0.4,20.2-0.1,30.4c0.2,7,0.9,15.2,6.2,20.5l0,0l0,0c0.8,1,1.8,1.7,3.1,2l0,0c1.1,0,3.3-0.8,4.2-0.4
		c0.9,0.4,0.6,1.6,1.1,2.3c2.4,3.1,5.5,2.4,9.1,2.4l0,0c1.7,0,3.3-0.1,5-0.3c5.6-0.9,5.6-4.1,8.8-7.2c0.4-0.7,0.9-1.4,1.3-2.1
		c0,0-0.1,0-0.1,0c0.7-0.8,1.2-1.7,1.7-2.6c0.5-0.7,1-1.5,1.3-2.3l0,0l0,0c1.6-4.8,0.5-5.8,5.2-5.9c1.4,0,2.7-0.2,4-0.3
		c2.6-0.2,5.2-0.4,7.9-0.7c3-0.3,9.1-2.1,12-0.9c0.6,0.2,0.8,1.8,1,2.3c1.6,3,3,5.4,5.7,7.7c0.8,0.7,1.6,1.5,2.4,2.3
		c2,2.2,4.7,3.9,7.7,4.2l0,0c3.5,0,7.6,0.2,10.9-1.1c2.2-0.8,1.5-1.9,2.7-3c0.4-0.4,1.1-0.4,1.7-0.8c2.8-2.2,3.8-3.8,5.2-7
		c0.6-1.3,1.7-4.8,2.4-5.4c1.2-1,8.1,0.1,10.1,0.1c1.9,0,3.7,0,5.5-0.1c4.9-0.2,9.9-0.2,14.9-0.3c2.2-0.1,4.3-0.1,6.4-0.1
		c0.4,0,0.8,0,1.2,0c2.9-0.1,2.3-0.4,3.1,1.9c0.6,1.6,0.4,3.4,1.2,5c0.3,1.4,0.7,2.7,0.9,4.1c1.2,5.2,5.3,10.2,10.7,11.2
		c2.7,0.5,9.9,1,9.9-3.5l0,0c3.5,0,4.5-2.9,6.5-4.8c2.6-2.4,3.8-3.8,5.4-7.1c1.2-2.8,2.4-5.8,2.9-8.9c1.9-7.8,2.9-17.5,1.6-25.5
		c1.1,1.1,4.3,0.8,5.6,0.6c0,5.5,1.2,10.9,1.9,16.4c0.5,3.9,0.8,10.8,4.4,13.7c1.4,1.6,4,4.1,6.2,4.5c1.5,0.3,2.9,0,3.8-1.3
		c0.8-1.1,0.2-3,0.9-3.8c0.9-0.9,3.8-0.7,4.8-0.7c4.5-0.1,6.2-2,8.3-6.2c0.6,0.9,1.1,1.9,2.1,2.5c2.7,2.8,5.5,2.2,8.7,1.8
		c2.4-0.3,5.3-1.8,3.8-4.8l0,0c0.3,0,0.6-0.2,0.9-0.2l0,0c1.7-0.1,4.7-1.8,6.2-3c3.7-2.9,5.4-7.2,7.1-11.4c3.1,3.7,6,7.1,11.2,7.1
		l0,0l0,0l0,0c1.6,0,3.5,0.2,5-0.5c1.5-0.7,2.6-2.3,3.9-3.3c1.5-1.1,3.6-1.5,5.3-2.6c5.3-3.4,7.4-11,9.2-16.6
		c1.1,4.5,3.1,10.8,7.9,12c1.3,0.3,3.4,0.5,4.7,0.3c2.3-0.4,2.3-1.9,4-2.8c1.7-0.9,3.1-0.5,4.6-1.8c0.5-0.4,0.7-1.1,1.3-1.5
		c2.8-1.8,5.9-1.8,7-6.1c1.3-3.4,2.3-6.6,2.7-10.2c0.1-1.4-0.1-3.5,0.3-4.8c0-0.3,0-0.7,0.1-1c2,1,5.5,0.7,7.9,0.8
		c1.5,0.1,4.7-0.7,5.9-0.1c1.8,0.8,4,7.1,5.4,9.2c1.5,2.2,9,3.9,8.1-0.4c3.4,1.7,5.2-2.3,7.1-4.2c1.7-2.2,2.4-4.4,3.3-7
		c0.4-2.2,1.2-12.1,2.6-12.6c0.3,1.6,1,3.1,1.4,4.7l0,0l0,0c1.2,4.4,3.4,10,7.7,12.5c2.2,1.2,8.2,2,7.5-2.3
		c3.6,3.6,8.9-9.2,9.3-10.4c1.1-3.4,2.1-7,2.3-10.6c0.2-3.6,1.7-5.1,2.5-8.8c0.8,6.1,1.5,14,4.7,19.3c1.4,2.2,3.2,5.5,6.3,5.2
		c1-0.1,3.7-1.6,3.7-3c0.6-1.5,1.2-0.1,2.6-0.5c2.4-0.7,3-2.2,3.8-4.4c1.7-4.3,1.4-8.8,1.4-13.4l0,0l0,0l0,0l0,0l0,0l0,0
		c0-0.4,0-0.9,0-1.3c0-0.4-0.1-0.9-0.1-1.3c-0.2-0.8-0.1-1.7-0.6-2.5c2.6-0.5,3.4-2.7,5-4.4c1-1.1,0.2-0.8,1.5-1.4
		c0.8-0.3,3.1-0.1,3.8-0.2c1.9-0.1,4.6,0.1,6.2-1c2.3-1.5,2.3-4.6,2.3-7.1c0-3.7-2-5.5-5.8-5.9c4.7-0.8,6.9-1.3,6.5-6.8
		c-0.1-0.7,0-1.8-0.2-2.5c-0.5-1.5-1.6-1.9-2.2-3c-1.2-2.3,0-5.8,0.3-8.3c0.4-3.6,0.1-7.2,0.4-10.7c0.3-3.6,0.5-5.4-1.3-8.6
		c-2.6-4.5-2.3-9.3-2.3-14.5c0-1,0-1.9,0-2.9c0.4-6.2,1-12.5,1.2-18.7c0.7-6.1,0.8-12.2,0.8-18.4c0-3.7-1-8.6-0.1-12.1
		c0.5-2,1.4-2.1,3.1-3.5l0,0l0,0l0,0c2.3,0,2.2-5.3,2.2-6.4l0,0l0,0c0-1.7-0.5-4-0.9-5.8c-0.9-3.6-2-5-5.4-6.8c-1.6-0.8-3-1.4-4-3
		c-0.9-1.2-1.1-2.5-1.8-3.8c-1.2-2.1-3.6-3.4-5.8-4.2c-5.6-2.1-11.8-2.2-17.7-2.2l0,0c-1.5,0.1-2-1.3-3.5-1.3l0,0l0,0l0,0l0,0l0,0
		c-2.2-0.5-4.4-0.7-6.6-1.2c-1.5-0.5-3.2-0.8-4.7-1.2l0,0c-2.9-0.8-5.9-1.1-8.9-1.5c-2.1,0-4.2-0.3-6.2-0.9l0,0l0,0
		c-6.1-1.4-14.5,2.6-19.7-1.3c-1.1-0.8-1.7-1.8-2.9-2.5c-2.9-1.7-5.6-0.6-8.4-1.3c-1.3-0.3-3.3-2.6-4.4-3.4
		c-2.1-1.6-4.3-3.1-6.5-4.5c-8.4-4.8-15.6-8.2-25.4-9.6c-2.6-0.3-5.1-0.4-7.6-0.9l0,0c-2.1-0.5-4.3-0.8-6.5-0.8l0,0
		c-0.3,0-0.6,0-0.9,0c-2.2,0-3.4,0.3-5.6-0.3c-1.6-0.4-3.2-1.2-4.8-1.6c-5.1-1.4-11.1-2.2-16.4-2.2l0,0c-2.8-0.3-5.6-0.2-8.5-0.4
		l0,0c-3.6-0.6-7.1,0.1-10.7,0.1l0,0c-4.6-0.1-9.3,0.4-13.7,1.4l0,0c-5.7,1.3-16.7,3.9-21,8.2c0.2-1.3,0.7-2.3,1.7-3
		c2.2-0.3,6.4-1.1,4-4.2c-1-1.3-2.3-0.9-3.7-1c-6.1-0.4-12-0.4-18.2-0.2l0,0c-1.8,0-17,0.4-9.5,6l0,0l0,0c0,0,0,0.1,0,0.1
		c2.7,2.5,2.1,8.4-1.2,9c-1.9,0.3-4.2-0.7-6.1-0.5c-2.3,0.2-4.8,0.7-6.5,2.3c-1.8,1.8-2.1,6.2-3.8,7.2c-1.9,1.2-7.4,0.7-9.8,1l0,0
		c-0.9,0-1.8,0.1-2.7,0.3c-2.6,0.5-4.8,1.6-7.3,1.6l0,0c-0.1,0-0.3,0-0.4,0l0,0l0,0l0,0c-1.3-0.2-0.9-7.9-2.6-9.6
		c-1.4-2.6-3.1-1.2-4-3.7c-0.4-1.1,0-4.8,0.3-6.2c0.3-1.7,1-3.3,1.5-4.9c0.6-1.4,1.2-2.8,1.6-4.3c0.1-0.9,0.4-2,1.1-2.7
		c1.8-2,6.8-3.6,3.6-6.9c-0.9-0.9-2.8-1.3-4-1.5l0,0c-2-0.6-4-1.1-6.1-1.4c0.1,0,0.1,0.1,0.2,0.1c-2.7-0.5-5.8-1-8.6-1l0,0l0,0l0,0
		c-2-0.2-3.9-0.2-5.9-0.2l0,0C398.6,465.9,397.8,466,397.1,466 M383.3,471c1.8,0,3.7,0,5.5-0.1l0,0c1.9,0,3.8-0.1,5.7-0.1l0,0l0,0
		l0,0l0,0l0,0l0,0l0,0c3.5-0.3,9-0.8,12.4,0.3l0,0c2.2,0,4.3,0.6,6.5,0.7c1.1,0.3,3.1,0.7,4.6,1.1c-1.3,1.1-2.6,2.7-2.9,4.4
		c-0.1,0.4-0.2,0.9-0.3,1.3c-0.2,0.7-0.5,1.5-0.8,2.2c-1.3,2.9-2.3,6-2.7,9.2c-0.2,1.6,0.6,4.8-0.1,6.1c-0.6,1.2-3.5,1.1-5.4,1.1
		l0,0c-6.2,0.2-12.5,0.7-18.7,1.3c-1.5,0.1-6.7,1.5-8,0.5c-0.6-0.4-0.6-4.4-0.7-5c-0.4-2.9-0.8-5.8-1.5-8.6c-1.3-5-3.8-6.3-6.7-10.1
		c-0.5-0.7-1-1.5-1.5-2.3c0.9,0,2.1-0.8,3-1C375.1,471,380.6,472.9,383.3,471z M521.2,496.7c0.6-1.3-0.4-4.1-0.4-5.3
		c0-2.4-0.5-4.7-0.9-7.1c0.9-0.2,2.5-0.4,3.6-0.4l0,0c0.7,0,1.5,0,2.2,0l0,0c0.3,0,0.7,0.1,1,0.1c-0.3,2.2-1.1,6.8-0.4,8.9
		c1.5,4.2,4.4,1,4.5-1.9c0-0.5,0-1.1,0-1.6c0-1.1,0-2.1,0-3.2c0-0.3,0-0.5,0-0.8c0.5-1.6,3.1-0.8,4.7-0.8c-0.6,1.6-3.3,8.4-0.1,9.3
		c2.7,0.8,3.3-2.8,3.7-4.6c1.2-4.9,1.7-3.3,6.3-3.3l0,0c2.3,0.2,4.7,0.1,7,0.7l0,0c5.5,1,10.5,3.9,15.9,5.3c0.1,0,0.3,0.1,0.4,0.1
		l0,0c1.1,0.2,2.2,0.7,3.2,1.1c5.9,2.7,11.7,5.4,17.3,8.7c2.9,1.6,5.9,3.4,8.3,5.6c2.2,1.9,4,4.9,6.4,6.4c1.2,1,3.6,2.6,4.1,3.7
		c0.6,1.2,0.3,4,0.4,5.1c0,1.3-0.2,2.5-0.2,3.7c0,2.5,0.5,4.7,0.7,7.1c0.1,0.7,0.2,1.5,0.2,2.2l0,0l0,0c-0.1,3,0,6.1-0.4,9
		c-0.1,2.4,0.2,4.8,0.2,7.2c0,0.2,0,0.5,0,0.7c-3.7-1.7-7.9-3-12-3.1l0,0c-2.6-0.4-5.1-0.3-7.6-0.2c-1,0.1-6,1.1-6.7,0.6
		c-2.6-2,1.1-2.3,1.8-2.6c1.7-0.8,3.9-0.7,3.8-3c-0.1-2-2.5-3-4.3-3l0,0c-0.5,0-0.9-0.1-1.4-0.2l0,0c-2,0.2-1.4-5.5-1.6-7.3
		c-0.2-3,0-6-0.6-8.9c-0.6-3-2.1-5.8-2.8-8.8l0,0l0,0c-1.4-5.7-3.3-11.4-8.8-14.2c-5.9-3.1-13.1-4.4-19.6-5
		c-7-0.7-14.3-0.9-21.3-0.9l0,0c-0.8,0-1.6,0.1-2.4,0.1l0,0l0,0l0,0l0,0l0,0C524.1,496.3,522.6,496.4,521.2,496.7L521.2,496.7z
		 M501.8,499.7L501.8,499.7c-2.3-3.6-10.6-5.4-14.7-5.4l0,0l0,0c0.1,0,0.1,0,0.1-0.1c4.7-4.8,14.2-6.6,20.4-8.5c1-0.3,2-0.6,3.1-0.7
		c1.5-0.2,3.1-0.3,4.6-0.4c0,3,0.8,6,0.9,9c0,1.2,0,2.4,0.2,3.5c-3.5,0.3-10.9-0.3-12.9,2.7C501.7,500.2,501.8,499.7,501.8,499.7
		 M465.2,485.6c4.7,0,9.5-0.8,14.2-0.3l0,0c0.9,0,1.7,0.2,2.6,0.3c-0.6,1-0.9,2.3-1.1,3.5c-0.3,1-0.4,2-0.4,3
		c0,5.6,0.3,9.7,5.1,13.7c1.4,1.1,2.9,2.4,4.1,3.8l0,0l0,0c-7.8-2.6-15.7-3.2-23.9-3.6c0.1,0,0.1,0,0.2,0c-2.1,0-4.3,0.1-6.4-0.1
		c2.5-6.1,9.4-14,4.7-20.7l0,0C464.7,485.2,464.7,485.8,465.2,485.6 M606.4,509.9c-0.6-0.9-1.5-1.7-2.1-2.6
		c-1.4-1.5-3.2-3.3-4.9-4.5c-2-1.7-4.3-3.2-6.6-4.5c-4-3.3-10.8-5.8-15.5-7.8c0.9,0.2,2-0.1,2.9,0.2l0,0c3.4,0.3,6.8,1,10.1,2.1
		c3.1,0.8,5.9,2.4,8.9,3.7c1.3,0.7,2.6,1.5,3.8,2.3l0,0c0.7,0.3,1.5,0.8,2.1,1.3c3.7,2.2,7,6,10.7,7.9c0.3,0.2,0.5,0.4,0.8,0.6
		c0.1,0.1,0.1,0.1,0.2,0.2l0,0l0,0c1.3,1.5,4.2,1.1,4.2-1.2c1.2,0.4,2.4,0.9,3.5,1.6c2.8,4.7,6,2.9,10.4,3.8l0,0l0,0l0,0
		c3.2,0.1,6.3-0.9,9.5-0.7c2.5,0.2,4.8,1,7.2,1.3c2.7,0.3,5.4,0.4,8,0.7c-5.7-0.5-11.8-0.3-17.4,0.6c-2.8,0.3-5.2,0.6-7.9,0l0,0
		c-10.1,0.3-10.6,12.7-10.6,20c0,0,0,0.1,0,0.1l0,0l0,0c0,0.1,0,0.1,0,0.2c0,0,0-0.1,0-0.1c0,0.8,0.1,1.5,0.1,2.3l0,0l0,0
		c0,3.9-0.9,5.4-2.7,8.3c-0.9-7.1,0.8-15.6,0.4-23.2c0-0.1,0-0.1,0-0.2c0.2-1.5,3-0.9,3.6-3.5c0.4-2,0-5.1-1.6-6.1
		c-1.7-1.1-5.5-1.4-7.5-1.8C614.4,510.5,607.3,510.8,606.4,509.9 M485.5,499.2c4.8,0,12.2,0.3,13.3,5.8c0.7,3.4-0.2,11.6,3.7,13.6
		l0,0c1.8,0.4,3.8-1.4,2.7-3.3c-0.9-1.3-1.2-3.2-1.2-4.8c15,2.1,26.1,11.6,35.2,23.1c1.8,2.2,4.3,5.6,5,8.4c0.4,0.9,0.8,1.8,1.1,2.7
		c-1.5-0.1-3-0.2-4.5-0.2l0,0c-0.4,0-0.8-0.1-1.2-0.1l0,0c-0.7,0-1.4,0-2.1,0c0,0,0.1,0,0.1,0c-1,0-2.1,0-3.1,0c0.2,0,0.3,0,0.5,0
		c-1.6,0-3.4,0.3-5,0c-2.7-0.5-2.4-1.1-4.2-3.9c-1.3-2.4-10.5-18.8-14.3-15.7c-2.7,2.1,1.6,5.4,2.8,6.8c2.9,3.4,5.2,6.9,7.3,10.7
		c0.5,0.5,0.8,1.4,1.1,2c-3.9,0-11.8,2.3-13.9-0.7c-2.1-2.9-3.2-7.2-5.3-10.3c-1.6-2.3-11.5-14.2-15.6-14.2l0,0l0,0l0,0
		c-6.3,0.5,1.3,6.3,2.5,7.2c4.3,4.3,8.4,7.4,11.4,12.8l0,0l0,0l0,0l0,0c0.5,0.9,1.2,1.8,1.3,2.8l0,0l0,0c0.1,0.7,0.3,1.5,0.7,2.1
		c-6.4,0.1-12.8-0.4-19.2-0.4l0,0c-1.6-3.8-4.1-7.6-6.3-11.1l0,0l0,0c-2-3.5-4.1-6.9-7.3-9.5c-0.7-0.5-1.5-1-2.2-1.5
		c-0.1-0.1-0.1-0.1-0.2-0.2c-3.5-2.2-7.9-6.6-12-7.5c-2-0.4-4.3,0.3-3.1,3c0.5,1.2,3.9,2.8,5.1,3.4c1.3,0.6,2.4,1.4,3.5,2.3l0,0l0,0
		l0,0l0,0c5.1,3.6,10,7,12.9,12.8c1.8,2.5,3.3,5.4,4.6,8.1c-4.4-0.7-14.4,1.3-17.1-1.4c-1.1-1.1-1.5-2.7-2.3-4.1
		c-2.6-4.4-6.4-9.7-10.6-12.9c-1.3-1.2-2.6-2.5-3.8-3.7c-4.1-4.2-9.8-6.3-13.8-10.3c2.2,0,4.3-0.6,6.4-0.6l0,0
		c4.2,0.1,8.7,0.1,12.9-0.2c1.2-0.1,2.4-0.1,3.6-0.1l0,0c1.3,0.1,2.4,0.9,3.7,1.1l0,0c3.5,0.4,7,0.5,10.6,0.5l0,0
		c2.7,0.2,5.4,0.2,8,0.6c2.1,0.3,4.6,1.2,6.7,1.2l0,0l0,0c3.7,1.3,10.4,3.2,10.4-2.7c-0.5-2.1-2-4.2-3.7-5.5l0,0l0,0
		c-0.7-0.7-1.4-1.4-2.2-2l0,0l0,0C486.6,501.8,486,500.8,485.5,499.2L485.5,499.2L485.5,499.2L485.5,499.2L485.5,499.2L485.5,499.2z
		 M447.7,505.3c-0.1-5.6,5.8-5.8,10.1-5c-0.8,0.9-1.6,4.3-2.5,4.9C454.3,505.9,448.8,505.5,447.7,505.3 M557.6,542.2L557.6,542.2
		c-0.9-3.2-0.5-6.6-0.5-9.9c-0.1-12.4-4.8-30.4-20.1-30.3l0,0l0,0l0,0c-1.6-0.2-3.3-0.3-4.9-0.3l0,0c-2.8,0-5.7-0.4-8.5-0.3
		c5.3-0.6,11.1-0.7,16.4,0.2c1,0.1,1.9,0.1,2.9,0.1l0,0c1.8,0,3.5,0.3,5.3,0.3l0,0l0,0l0,0l0,0l0,0c5.3,0.3,10.1,1.6,15.1,3l0,0
		c0,0,0.1,0,0.1,0l0,0c1.9,0.5,3.9,1.1,5.4,2.5c4.1,3.6,6.4,14.2,7.8,19.7c0,0,0,0.1,0,0.1c0.3,1.4,0.4,2.7,0.4,4.1l0,0l0,0l0,0l0,0
		c-0.2,3.3,0.2,6.6,0.5,9.9c-1.1,0-2.2,0-3.3,0l0,0c-1.1,0-2.1,0.1-3.2,0.1l0,0c-0.5,0-1,0.1-1.5,0.1l0,0
		C565.6,541.6,561.4,542.1,557.6,542.2z M391.5,502.4L391.5,502.4c7.1-0.8,14.7-1.3,21.9-1.3l0,0c7.5-0.3,0.1,11.8,8.2,11.8l0,0
		c1.3,0,2.5-0.1,3.8,0.1c1.3,0.1,2.2,0.6,3.3,1.2c3,1.9,5.8,3.8,8.7,5.9c3.2,2.7,6.3,5.4,9.3,8.4c4.4,4.2,8.3,9.2,11.1,14.6
		c-1.3,0-2.7,0.2-4-0.1c-3.9,0-7.9,0-11.8,0.1c-4.6,0.2-9.1,0.1-13.7,0.4c-4.5,0.3-4-2.2-6.8-5l0,0l0,0c-1.1-1.9-2.9-3.7-4.3-5.4
		l0,0l0,0c0-0.1-0.1-0.2-0.2-0.3c-3.5-3.5-8-8.2-12.4-11.1l0,0l0,0c-0.5-0.7-1.2-1.2-1.9-1.7l0,0l0,0c-2-2.4-5.8-3.6-8.5-4.9l0,0
		l0,0l0,0l0,0l0,0l0,0c0,0-0.1,0-0.1,0l0,0c-0.5-0.2-1.1-0.4-1.6-0.6l0,0l0,0c-1.3-0.3-2.3-1-3.5-1.5c-3.2-1.4-6.5-2-9.9-2.8
		c-1.5-0.1-5-0.2-5.4-1.4c-0.3-1,0.6-0.9,0.8-1.4c0.1-0.4,1.2-2.9,1.5-3.2c1-1.1-0.3-0.3,1.6-0.9c3.2-1.1,9.1-0.7,12.6-0.7
		c0,0-0.1,0-0.1,0c0.1,0,0.1,0,0.2,0c0,0-0.1,0-0.1,0C390.6,502.5,391,502.5,391.5,502.4z M356.3,508c2.8-6.1,8.5-8,10.2-0.4
		c-2.5-0.3-4.9,0.1-7.3,0.1l0,0c-1.1,0.1-2.1,0.2-3.2,0.4l0,0C356.2,508.2,356.3,508.2,356.3,508 M503.6,505.6
		c0-0.5-0.1-0.9-0.1-1.4l0,0l0,0l0,0c4.5,0,8.7,1.1,13.2,1.3c3.5,0.2,7,0,10.4,0.2c4.8,0.3,9.4,1,14.1,1.7
		c9.2,2.1,12.4,16.3,11.6,24.4c-0.1,2-0.1,4.1-0.1,6.1c0,2.2,1.5,5.2-1.3,5.5c-0.3,0-0.7,0.4-1,0.5c-0.5-2.5-1.9-5-3.1-7.2
		c-0.6-0.8-1.1-1.6-1.6-2.4c-7.3-12.4-19.4-22.4-33-26.9c-2.7-0.6-5.9-2.1-8.6-1.7l0,0C504,505.7,503.8,505.6,503.6,505.6z
		 M614.5,555.7c0-2.6-0.4-5.4-0.4-8.1c-0.1-1.1,0.1-2.3,0.1-3.4c0.3-4.9,0.3-9.4-0.6-14.2c-0.1-0.7-0.2-1.5-0.2-2.2
		c0-2.3,0.2-4.6-0.1-6.8c0-1.7-0.4-3.4-0.4-5.1c-0.1-0.2-0.2-0.5-0.2-0.7l0,0c1.4,0,8.3,0.8,8.4,2.2c0,0.7-1.5,0.5-2,1.1
		c-1.3,1.5-1.3,2.9-1.4,4.8c-0.1,4.3,0.2,8.6-0.3,12.9c-0.7,6.4-0.4,13.1-0.7,19.6c-0.6-0.1-1.5,0-2.1-0.2l0,0
		C614.5,555.9,614.5,555.9,614.5,555.7 M320.2,592.5c-1-1.9-2.1-3.8-3-5.7c-0.3-3.1-1-6.2-0.9-9.3l0,0l0,0c-0.5-4.7-0.1-9.3,0.1-14
		c0.6-4.7,1.1-8.1,2.7-12.4l0,0l0,0c0.3-0.4,0.5-1,0.6-1.5c4.3-8.9,8.9-18.2,18-23.4l0,0c4.9-2.4,8.4-7,13.8-8.7
		c5.3-1.7,12.9-1.2,18.5-0.3l0,0c4,0,11.2,2.4,14.5,4.6c5.1,2.8,9.9,5.9,14.8,9c1.7,1.1,2.7,2.7,4,4.2c2.7,3.1,5.8,5.8,8.2,9.1
		c3,4.3,5.2,9,7.3,13.8c2.8,6.6,4.3,13.2,4.4,20.4c0.1,3.3,0.4,6.7-1.7,9.4c-2,2.9-3.2,6.7-5.1,9.7l0,0l0,0
		c-1.3,1.5-2.4,3.1-3.6,4.7c-0.9,1.1-2.2,1.6-3,2.8c-0.1,0.3-0.3,0.6-0.5,0.8l0,0l0,0c-2.1,2-4.8,3.7-7.4,5.1l0,0l0,0
		c-3.6,1.8-7.5,3.6-11,5.8c-4.6,2.6-12.2,3.9-17,4.9c-7.4,1.5-17.4-0.7-24.5-2.6c-4.1-1.1-9.2-2.1-12.5-4.9
		c-0.8-0.7-1.6-1.3-2.4-1.9c-2.9-2-4.9-5.7-6.9-8.5l0,0l0,0c-1.4-2.3-3.3-4.4-4.8-6.6l0,0l0,0l0,0l0,0c-0.8-1.1-1.4-2.2-2-3.4
		C320.5,593.3,320.3,592.9,320.2,592.5 M623.4,641.2L623.4,641.2L623.4,641.2L623.4,641.2c0.1-5.1,0-10.2,0-15.4
		c0-5.7,0.8-11.3,0.8-17c0-3.9-0.3-7.9,0.1-11.8l0,0l0,0l0,0l0,0c0.2-3.6-0.4-7.4,0.1-11c0-0.3,0-0.5,0-0.8c0-2.8,0.1-5.7,0.1-8.5
		l0,0l0,0c0-2.7,0-5.4,0-8.1c0-0.5,0-1.1,0-1.6l0,0l0,0c2.6-0.5,2.2-3.9,3.2-5.7c1.1-2,3.1-4,4.7-5.6c6.2-5.6,2-14.9,3.4-22
		c0.1-1.9-0.1-4.7,0.7-6.4c0,0,0-0.1,0-0.1c0.5-2,0.9-4.1,1.5-6c0.6-0.2,2.1-0.3,2.9-0.4l0,0c9.9-1.3,19.7-0.5,29.6-0.5
		c7.9,0,15.2,0.4,22.9,1.6c0.5,0.2,1.2,0.5,1.8,0.5c0.6,0.5,1.3,1,2,1.3c1.6,4.2,3.2,5.3,6.3,8.4c1.1,0.7,3,0.8,3.8,1.7
		c0.9,1.1,1.3,4.7,1.4,6.2c0.2,1.7,0.3,4-1.2,5l0,0l0,0c-2.4,1.6-5.8,4.8-4.1,8.1c0,0.9-0.1,1.7-0.1,2.6c0,0.1,0,0.1,0,0.2
		c-0.1,3.9,0.1,7.9,0.1,11.9c0.2,9.9-2.1,19.8-1.8,29.7c-0.1,4.7-0.5,9.4-0.2,14c0.3,4.3,1.9,6.8,3.6,10.1c0.1,0.2,0.1,0.5,0.1,0.7
		l0,0l0,0l0,0l0,0l0,0l0,0c-16.5,3.6-32.3,9.6-49.3,11.4l0,0c-7.1,0.7-13.9,3.3-21,4.4c-0.7,0-1.3,0.2-1.9,0.4c-2,0.5-4,1-6,1.5
		c-0.4,0.1-0.8,0.2-1.2,0.2l0,0l0,0l0,0c-1.2,0.3-2.4,0.6-3.5,1C622.7,641.2,623,641.2,623.4,641.2L623.4,641.2L623.4,641.2
		L623.4,641.2L623.4,641.2L623.4,641.2L623.4,641.2L623.4,641.2z M628.8,526.3c0.2-0.7,0.2-1.3,0.5-1.9c1-1.2,2.7-3.8,4.4-3.8l0,0
		l0,0c0.9,1.5-1.1,6.2-1.4,8.3c-0.6,5-0.2,10.1-0.2,15.1c0,2.5,0.2,6.4-2,8.3c-1.7,1.8-3.5,3.7-5,5.7c-0.1,0.1-0.3,0.3-0.3,0.4l0,0
		l0,0l0,0l0,0c0-0.1,0-0.2-0.1-0.3c-1.6-2.6,0-6,1.3-8.3c2.7-4.9,2.9-7.6,2.7-13.4l0,0l0,0l0,0l0,0c-0.3-3.2,0.2-6.4,0.7-9.6
		C629.1,526.7,628.9,526.5,628.8,526.3C628.8,526.5,628.8,526.4,628.8,526.3z M563.2,597.4c-1.2-3.5-3.9-6.7-4.9-10.1
		c-0.8-2.4,1.4-7.5,1.9-10.2c0.9-4.3,0.9-8.5,0.8-12.8c-0.1-4.4-1.5-9-1.5-13.1c0-0.1-0.1-0.1-0.1-0.2l0,0c2.4,0,4.8-1,7.1-1.3
		c3-0.5,7-1,9.9-0.7c2.9,0.3,2.5,0.3,2.9,3.5c0.2,1.5,0.3,3.1,0.4,4.6c0.7,10.5-2.8,19.7-6.2,29.3c-0.8,2-2,3.8-3.1,5.7
		c0,0.1-0.1,0.2-0.2,0.3l0,0l0,0l0,0l0,0c-0.1,0.1-0.1,0.1-0.2,0.2c-0.4,0.7-0.8,1.3-1.3,2l0,0l0,0c-0.9,1.4-2.1,2.7-3.3,3.9l0,0
		l0,0c-0.1,0.1-0.2,0.2-0.3,0.2l0,0l0,0l0,0l0,0l0,0c0,0-0.1,0.1-0.1,0.1l0,0l0,0C564.2,599.6,563.6,598.3,563.2,597.4 M421.6,607.4
		c0.4-0.4,0.9-1.2,1.4-1.5c2.1-2.1,3.1-5.3,5.1-7.3c0.1-0.2,0.2-0.4,0.3-0.6c6.1-7.9,5.5-22,4.7-31.3c-0.2-2.5-0.6-5.1-1.2-7.6
		c0-3.1-1.4-6.2-3.1-8.6c9.5-0.1,19.4-0.3,28.9-0.1l0,0c4.8,0,4.1,0.9,5.6,5.8c0.4,1.3,0.6,2.4,0.9,3.7c2,10.3,0.7,20.3-2.6,30.1
		c-1.1,4.3-3.8,8.6-6.7,11.9c-0.6-1.2-1.1-3.2-2.3-3.8c-5.3-2.1-1.4,6.2-0.9,7.6c0.2,0.5,0.4,0.9,0.6,1.4
		c4.5,11.5,6.5,23.9,11.1,35.3c0.1,1,0.6,1.9,1.5,2.5l0,0l0,0l0,0l0,0l0,0l0,0l0,0l0,0l0,0l0,0c0,0,0.1,0.1,0.1,0.1l0,0l0,0l0,0l0,0
		l0,0l0,0l0,0l0,0l0,0l0,0l0,0l0,0l0,0l0,0l0,0l0,0l0,0l0,0c0.3,0.3,0.5,0.8,0.8,1.1c-6.1,0-12.5-1.1-18.5-1.5
		c-9.7-0.7-19.3-0.6-28.9-0.6c0.2,0,0.5,0,0.7,0c-11.9,0-24.1,0.6-36-0.2l0,0c-8.9,0-17.9-1-26.9-1c-8.6,0-17.1,0.1-25.7,0.1l0,0
		l0,0l0,0c-0.8,0-1.7,0-2.5,0.1l0,0c-2.3,0-4.7,0.1-7,0.1c0,0,0.1,0,0.1,0c-3.1,0-6.2,0-9.3,0c3.1-0.5,6.3-1.1,9.4-1.3
		c2.7-0.1,5.2,0.4,5.7-3.3c1.8-5.1,3.5-11.5,6.2-16.2c3.6,2.4,7.8,3.6,11.7,5.2l0,0l0,0l0,0c0.5,0.1,1,0.3,1.5,0.5l0,0
		c2,0,6.2,1.5,8.1,2.1c2.3,0.7,5.7,0.8,7.9,1.9l0,0c3.9,0.5,8.2,0.8,12.1-0.4l0,0c3.6-0.2,7.2-0.8,10.8-1.4c2.5-0.5,4.7-1.4,7.1-2.3
		c2-0.9,5-1,6.5-2.5c0.7-0.5,1.4-0.8,2.1-1.2l0,0c2.7-0.8,5.6-2.5,8-4c1.4-0.8,2.6-1.7,3.8-2.9l0,0l0,0c0.6-0.7,1.4-1.4,2.2-1.9
		c2.9-2.1,3.6-5.2,6.4-7.3C420.8,607.9,421.2,607.7,421.6,607.4 M470.7,550.6c2.2,0,4.3-0.1,6.5-0.1c3,0,4.5-0.9,5.8,1.6
		c2,3.7,1.5,10.6,1.5,14.5c0.2,10.4-2.5,20.5-5,30.5c-0.3,1.3-3.3,7.6-2.6,8.3l0,0l0,0c0,0.1,0.1,0.3,0.2,0.4l0,0l0,0l0,0l0,0l0,0
		l0,0c3.4,4.1,6.1-5.5,6.8-7.4c5.6-14.8,6.3-33,3.3-48.3l0,0c4.6,0,9.2,0.6,13.8,0.6c1.7,0.2,3.5,0.3,5.2,0.6c0.4,2.3,0.7,4.7,1.3,7
		c0.1,1.5,0.4,3,0.7,4.4c1,5.8,0.2,11.9-1.2,17.6c-0.4,4.4-1.9,9-3.1,13.3c-0.7,2.6-3,6.2-3,8.8c0,1.5,0.3,2.7,2.1,2.9
		c2.6,0.3,3.6-5,4.2-6.9c0.1-0.5,0.2-1,0.4-1.5c1.9-5.9,3.5-12.2,4.4-18.4c0.5-3.6,1.1-7.2,1.1-10.8c0-5.2-1.7-10.4-2.4-15.5l0,0
		l0,0c1.8,0.2,3.6,0.2,5.4-0.1l0,0c3.4,0,6.7,0,10.1,0c3,8,2.7,14.6,1.7,23c0,1.5-0.4,2.9-0.7,4.3c-0.5,2.8-2.1,6.6-3.2,9.6
		c0,0.2,0,0.4-0.1,0.6c-1.1,1.5-0.1,3.6,1.8,3.6c3.9-0.1,6.2-12.8,6.7-15c2-8.6,2-17.7-1.2-26.1c2,0,4-0.1,6,0l0,0c0,0,0.1,0,0.1,0
		c2.8,0.3,7.4-1.3,10.1-0.3c3,1.1,2.9,7.5,3.2,10.7c0.5,6.4,0.7,11.9-1.1,17.9c-0.2,3.1-5,2.8-7.1,4.6c-1.8,1.5-2.8,3.3-3.8,5.2
		c-0.6,0.8-1.3,1.7-1.6,2.7c-1.5,2-1.8,4.9-2.5,7.3c-0.1,0.5-0.2,0.9-0.3,1.4l0,0l0,0c-0.1,0.2-0.1,0.4-0.1,0.6l0,0l0,0l0,0l0,0
		c-0.2,0.8-0.5,1.7-0.5,2.5c-0.3,2.3-0.2,4.7-0.6,7c0,0,0,0.1,0,0.1c-0.4,2.6-0.2,5.3-0.5,7.9c-2-4.5-6-9.4-11-10.5
		c-3.8-0.9-8,0-11.8,0l0,0c-1,0-2.4-0.2-3.4,0.1c-3.7,1.3-2.5,3.9,0.4,4.5c3.4,0.7,8.3-0.3,11.8-0.3l0,0c0.3,0,0.5,0,0.8,0
		c-0.5,0.5-0.7,1.2-1.2,1.7l0,0l0,0c-2.6,4.2-4.1,8.2-5.3,13.1c-0.5,3.5-1.9,7.2-1.9,10.8c-0.3,2.6-0.4,2.8-3,3.2
		c-2.8,0.5-5.6,1-8.4,1.6c-3.1,0.6-10.5,2.3-12.9,1.1l0,0c-2.2,0.4-9-0.1-10.9,1.2c-3.8,0-3.2,0.5-5.2-1.9c-0.4-0.5-2.3-3.6-2.8-3.6
		c-2.1-5.2-4.1-11.2-5-16.8l0,0l0,0l0,0l0,0c-1.2-3.8-2.6-7.8-3.6-11.6c-0.6-1.2-2.2-5.2-2-6.3c0.3-1.1,2.2-2.6,3-3.4
		c1.2-1.3,2.4-2.9,2.9-4.6c0.2-0.8,0.5-1.7,1.1-2.3c0.6-1.2,0.8-2.5,1.4-3.7c0.4-0.8,0.7-1.7,1-2.5c3-8.5,3.2-16.8,2.5-25.7
		c-0.7-4.8-1.3-9-3-13.5l0,0C467.6,550.3,469.5,550.1,470.7,550.6z M594.4,622c0-0.1,0-0.3,0-0.4c0,0,0-0.1,0-0.1
		c-0.2-2.6-0.9-5.2-0.9-7.9c-0.2-2-0.1-4.1-0.4-6.1c0,0,0-0.1,0-0.1c-0.7-6.1-1-12.8-1-19c0-5.6-1.4-11.4-0.7-17l0,0l0,0
		c0.2-4.1-0.2-8.6-0.8-12.6c-0.1-1.6-0.3-3.1-0.3-4.7c3.3,0,6.4-0.2,9.7,0.4c2.3,0.4,5.4,0.7,7.4,2c2.3,1.5,1.8,1,1.7,4.3
		c-0.1,2.3-0.2,4.6-0.3,6.9c-0.5,7.8-1.5,15.5-1.4,23.3l0,0l0,0c-0.4,8.5-1.2,17.1-1.2,25.6c-0.2,3.1,0.2,3.6-2.6,4.5
		c-2.6,0.8-5.6,1.4-8.3,1.7l0,0l0,0l0,0l0,0c-0.5-0.1-0.6-0.5-0.5-1.1C594.7,621.9,594.5,621.9,594.4,622z M584.2,554.8
		c0.4,0,0.8-0.1,1.2-0.1c0.1,0.7,0.3,1.5,0.1,2.1c0,1.1,0.2,2.1,0.3,3.2c0.6,9.4,0.8,18.9,1.3,28.3c0.3,6,1,12,1,17.9
		c-3.6-0.9-5.5,2.2-7.7,4.4c-1.1,1.7-1.8,3.5-2.7,5.3c-0.3,1.3-0.4,2.7-0.5,4c-0.2,2.2-0.5,5,0,7.1c0.1,0.8,0.5,1.8,0.5,2.6
		c0,2.4,0.3,1.3-1.7,1.9c-1,0.3-6.3,1.3-7.3,0.9c-1.1-0.5-1.1-2-1.4-3.4l0,0l0,0c0-5-1.3-10-2.1-14.9c0-0.1,0-0.3,0-0.4
		c0,0,0,0.1,0,0.1l0,0c0,0,0-0.1,0-0.1c-0.4-3.7-1-7.6-0.9-11.3c0,0,0,0.1,0,0.1c0.1,0.1,0.2,0.2,0.3,0.2l0,0l0,0
		c1.7,0.8,2.7-0.3,3.8-1.4c1.1-1.1,2-2.3,2.9-3.6c2.4-2.7,4.8-6.7,6.2-9.9c0.9-1.6,1.5-3.2,2.1-4.9c0,0,0-0.1,0-0.1l0,0l0,0
		c1.9-5.4,2.5-10.7,3.7-16.3C583.3,565.9,582.7,554.8,584.2,554.8 M619.5,560.8L619.5,560.8L619.5,560.8c0.3-0.1,0.7-0.1,1-0.2
		c0,0.2,0.1,0.5,0.1,0.7c-0.2,9.8-0.9,19.7-0.8,29.5c0.3,14.8-0.8,29.7-0.8,44.5c0,2.1-0.2,4.3-0.2,6.4c-1.4,0-2.6,0.4-4,0.4l0,0
		c0,0-0.1-0.1-0.1-0.1c-2.7-2.9,0.2-7.2-0.6-10.6c0-2.7-2.3-2.9-3.3-4.5c-0.9-1.7-0.7-4.8-0.3-6.7c-0.1-3.8,0.1-7.6,0.5-11.4
		c0.4-7,0.6-14,1.1-21c0.5-8.9,0.4-17.8,0.7-26.7l0,0l0,0l0,0C615.3,561.1,616.9,561.1,619.5,560.8 M538.4,603.1
		c1-5,2.8-8.4,4.9-12.9c2.7-5.3,9.2-4.1,11.5,0.6c3.9,5.2,5.3,12.4,5.3,18.8c0,0.4,0,0.7,0,1.1c-1.3-1.1-3.4-2-5.4-1.7l0,0
		c-3,0.8-3.9,3.8-5,6.3c-0.1,0.3-0.2,0.6-0.3,0.8l0,0l0,0c-0.2,0.5-0.5,1.2-0.7,1.9c-0.1,0.4-0.2,0.8-0.5,1.1
		c-1.1,2.1-1.3,4.5-1.5,6.8c0,0.9-0.4,1.8-0.4,2.7c0,0.2-0.1,0.5-0.1,0.7l0,0l0,0c-0.3,1.5-0.3,3.2-0.2,4.7c0.4,3-2.9,2.4-5,2.7l0,0
		c-1.5,0.2-2.9,0.4-4.4,0.6l0,0l0,0l0,0c-0.4-2.1-0.3-4.7-0.3-6.8c0.2-3-0.1-5.8,0.2-8.8c1-5.6,1-11.9,1.5-17.6
		C538.2,603.8,538.3,603.5,538.4,603.1 M582.9,629.8L582.9,629.8c-0.2-0.5-0.3-1.1-0.3-1.6c-0.9-2.5-0.8-5.3-0.6-7.9l0,0l0,0l0,0
		l0,0c0.5-3.9,1.1-8.2,4.9-10.4l0,0c0.3,0,0.7,0,1,0c2.5,0.7,0.8,13.1,2.7,15.9c0.5,0.2,0.9,0.6,1.4,0.9c-0.9,0.4-2.2,0.6-3.1,0.9
		l0,0C587.3,628.1,583.8,629.8,582.9,629.8L582.9,629.8L582.9,629.8L582.9,629.8L582.9,629.8z M555.2,615c0.1-0.2,0.2-0.4,0.2-0.6
		c0.1-0.2,0.3-0.6,0.3-0.8c2.8-1.4,5.2,6.8,5.8,8.8l0,0l0,0l0,0l0,0c0.5,1.5,1.1,7.1,1.9,7.9c1.3,2.8-1,2.3-3.3,2.6
		c-3.3,0.5-6.6,1.1-9.8,1.7c0.3-0.9,0.4-1.9,0.4-2.8c-0.1-0.5,0-1.1,0.1-1.6c0.2-0.9,0.3-1.9,0.3-2.9c0.2-2.3,0.3-4.7,1.4-6.7
		c0-0.1,0.1-0.1,0.1-0.2c0.4-1,0.7-2.1,0.9-3.1C554.2,616.7,554.8,616,555.2,615 M515.2,637.7c1.8-5.5,1.1-11.6,4.1-16.7
		c0.3-0.7,0.7-1.4,1.2-2c0.7-1.1,1.6-3.5,3.1-3.5c4.2-0.1,7,12.6,8,15.5l0,0l0,0l0,0l0,0c-0.2,1.6,0,3.1,0,4.7l0,0l0,0
		c0,0.1,0,0.2,0,0.3c0.1,0.8,0.2,1.6,0.3,2.4c-3.8,0.7-7.9,1.3-11.8,1.6l0,0c-1.8,0.2-3.7,0.2-5.5,0.2l0,0l0,0l0,0
		c0.1-0.4,0.1-1.3,0.4-1.6C515.1,638.3,515.2,638,515.2,637.7 M624.7,695.8c-0.3,0-0.5-16.6-0.6-18.8c0-4.6,0.2-9.1,0.4-13.7
		c0.1-3.4,1.6-11.6-0.6-14.2c1-1.5,0-3.8,2-3.9l0,0c6.7-2,15.7-4.7,22.5-5.1c9.9-2.1,20.1-4.4,30.2-5.6l0,0c5.5,0,12.9-2.9,18.3-4.5
		c1.4-0.4,2.9-0.9,4.3-1.4c1.2-0.4,3.7-1.2,5.1-1.2c-0.4,4.7-0.8,10-0.8,14.7c0,1.7-0.4,5.4,1.6,6.4l0,0l0,0
		c1.4,0.7,1.3,2.8,1.3,4.3c-5.5,0.2-11.1-0.3-12.4,6.1c-0.7,3.3-0.3,6.6-1.3,9.9c-1.2,4.2-2.8,4-6.6,5.9c0-0.2-0.1-0.5-0.1-0.7
		c-0.3,0.2-0.8,0.3-1.1,0.4c-1.6-4.2-1.9-8.8-2.9-13.2c-0.2-5.4-5.5-3.2-8.8-2.3c-1.7,0.4-3.4,0.2-4.8,1.6c-2,2.1-2.3,8.1-2.5,10.5
		c-0.4,3.7,0.3,9.3-3.9,10.3c-2.4,0.6-4.4,0.3-5.7-1.6c-2.2-3.2-1.5-8.3-2.8-11.8c-1.3-3.5-5.1-3-8.6-2.9c0-5.1,1.2-10.9,1.7-16.1
		c0.3-1.6,0.1-3.9-2-4.1c-2.8-0.2-2.4,2.9-2.6,4.5c-0.4,3.2-0.6,6.5-0.8,9.6c-0.2,2.1-0.3,6.4-2,8l0,0l0,0c-1.9,1.8-1.2,7.5-1.2,9.8
		c0.1,3.9,0.9,8.3-0.6,12c0,0-0.1,0.1-0.1,0.1c-2.7,1.5-5,2.4-8,3c-2,0.4-5,0.3-4.3,3.4C626.3,695.3,625.5,695.8,624.7,695.8
		 M603.5,629.5c2.3-0.2,4.5-1.4,5.9,1.3c0.6,1.1,0.1,3.1,0,4.4c-0.3,3.1-0.5,6.4,1.6,8.9c2.8,3.3,6,0.9,9.4,2
		c-1,1.4-5.2,1.5-6.8,1.5l0,0c-1.6,0.1-3.2,0.3-4.8,0.1l0,0c-1.1-1.7-1.6-4.9-1.7-6.8c-1.5-6-6.1-6-11.2-5.3
		c-3.9,0.6-7.8,1.1-11.7,2c-6.4,0.3-12.9,1.7-19.2,2.5l0,0l0,0c-4.4,0.6-9.1,0.7-13.3,2.3l0,0l0,0c-5.7,1.4-12.1,2.6-18,3.2
		c-3.7,0.5-7.5,0.9-11.1,1.6c-1.4,0.2-2.9,0.4-4.3,0.6c-9,1.2-17.8,3.1-26.8,4.4c0,0,0.1,0,0.1,0c-1.1,0.2-2,0.5-3.1,0.6
		c0,0,0.1,0,0.1,0c-3.2,0.4-6.2,1.2-9.4,1.6c-0.1-0.7-0.1-1.5-0.1-2.2c0,0,0,0.1,0,0.1c0-0.9,0-1.7-0.1-2.6l0,0
		c13.1,0,25.9-5.4,38.9-5.4l0,0c7.5,0,17-1.9,24.3-3.7l0,0c0.1,0,0.1,0,0.2,0c0,0-0.1,0-0.1,0l0,0l0,0c5.9-0.4,11.7-2.2,17.6-2.8
		l0,0c1.6-0.1,3.3-0.4,4.9-0.8l0,0c4.3-0.8,8.5-0.7,12.7-1.6c4.3-1,8.7-2.1,13-2.9l0,0C594.8,631.6,599.4,630.7,603.5,629.5
		L603.5,629.5L603.5,629.5L603.5,629.5L603.5,629.5L603.5,629.5z M600,703.6c0-6.5-1.1-13.9-0.2-20.4c0.5-3.2,3.3-6,3.7-9.5
		c0.9-3.8,1.5-6.9-2-9.7c-1.4-1.1-2.9-1.1-4.3-1.9c-1.8-1.2-1.7-3.6-2.4-6.2l0,0l0,0c-0.4-1-0.7-2-0.8-3.1c-0.3-1.9-0.9-4.5-2.3-5.9
		c-1-1.6-2.2-3.1-3.6-4.4c-0.1-0.1-0.2-0.2-0.3-0.3l0,0l0,0c-0.4-0.3-0.6-0.6-1-0.9c4.8-1.2,9.9-1.8,14.8-2.1
		c1.4,2.9,1.2,6.1,2.4,9.1l0,0l0,0c1.7,4.1,6.1,2.2,7.2,4c0.7,12.8,1.1,25.7,0.4,38.5c-0.1,1.8-1,10.8,3.3,7.1c1.1-1,0.4-2.6,1-3.7
		c0.4-0.8,0.8-0.5,1.6-1.3c0.2-0.1,0.4-0.2,0.5-0.4c0.4-0.2,0.8-0.4,1.2-0.6l0,0c0.5,0,0.1,2.3,0.2,3c0.5,3.9,2.9,4.8,6.6,4.8l0,0
		c0.5,0,1.2,0.1,1.6,0.3l0,0l0,0l0,0l0,0c0,0.3-0.1,0.5-0.2,0.8c-1.6,1-4.5,1.1-6.3,1.4l0,0c-0.1,0-0.1,0-0.2,0l0,0
		c-2.9,0.3-5.8,0.8-8.7,1c-4.2,0.3-8.4-0.7-12.4-0.7C599.2,700.2,600.1,703.9,600,703.6 M570.6,658.7L570.6,658.7
		c0-0.4,0-0.8-0.1-1.2c-0.2-2.6-0.3-7.8-2.4-9.9c-0.4-0.9-0.8-1.7-1.3-2.4c3.4-0.1,6.8-1.1,10.2-1.2c-0.2,0.2-0.5,0.5-0.7,0.7
		c-2.5,2-4,6.5-4.6,9.4C571.4,655.6,571.1,659.2,570.6,658.7 M575.9,668.2c-1-7.7-1-12.7,2.4-19.4c0.5-0.9,1.2-1.7,2.1-2.4l0,0l0,0
		c1.7-2.2,3.6-0.9,5.1,0.5c3.4,3.2,2.9,7,4.7,10.6l0,0l0,0c1.1,2.8,2,6.5,0.6,9.2c-0.1,0.3-0.2,0.5-0.4,0.7c-0.6,0.1-1.4,0.1-2,0.2
		c-3.1,0.2-6.3,0.6-9.4,1.1l0,0c-1.2,0.1-2.4,0.4-3.6,0.4l0,0l0,0l0,0C575.8,668.9,576,668.6,575.9,668.2 M546.6,672.6
		c0-4.6,1.4-8.9,1.9-13.4c0.2-2.2,1-4.3,1.5-6.4c0.3-1.6,1.1-3,1.9-4.4c0.9-2.5,8.1-2.6,9.9-2.7l0,0c0.4,0,0.9-0.1,1.3-0.1
		c-1.3,1.9,1.9,6.1,2.3,8.3c0.7,3.9,1.7,9.5,1.1,13.2l0,0l0,0c0,0.2,0,0.4,0,0.6c-3.1-0.5-5.2,1.1-7.7,2.7l0,0
		C556.5,673.1,549.9,671.8,546.6,672.6L546.6,672.6z M332.6,647.8L332.6,647.8L332.6,647.8c7.9,0.2,15.9-0.1,23.8-0.1l0,0
		c1.3,0,2.6,0,3.9,0l0,0c4.9,0,9.9,0.1,14.8,0.4l0,0c0.3,0,0.7,0,1,0l0,0c1.5,0,3.7,0,5.1,0.4l0,0c0.5,0,1.1,0,1.6,0
		c10.2,0.8,20.8,0.1,30.9,0.1c13.4,0,26.8-0.1,40.2,0.9c5.7,0.4,11.3,1.1,17,1.1l0,0c1,0,1.9,0,2.9,0l0,0l0,0l0,0l0,0l0,0l0,0l0,0
		l0,0l0,0l0,0l0,0c0,0,0.1,0,0.1,0l0,0c0.1,0,0.3,0,0.4,0l0,0l0,0l0,0l0,0c1,0.4,1.3,1.2,1,2.3l0,0l0,0l0,0c0.1,2.4-0.4,4.6-0.7,6.9
		c-0.2,1.6,0.4,4.9-0.4,6.4c-2.1,3.9-10.4,3.1-13.9,4.3c-2.2-2.3-6.7-2.3-9.7-2.6c-4.5-0.6-10-0.4-14.4-0.3l0,0
		c-2.9,0-5.7,0.2-8.6,0l0,0c-0.3,0-0.5,0-0.8,0l0,0c-0.6,0-1.3-0.1-1.9-0.2c-0.7,0-1.4-0.1-2.1-0.1l0,0c0,0-0.1,0-0.1,0l0,0
		c-2.1-0.3-4.3-0.2-6.5-0.2l0,0l0,0l0,0l0,0l0,0c-11.9,0.2-23.8-1.2-35.7-1.2l0,0c-0.2-2.4,2.4-15.9-5.3-15.6c-0.1,0-0.1,0-0.2,0
		l0,0l0,0l0,0l0,0l0,0l0,0l0,0l0,0c0.1,0,0.1,0,0.2,0c-0.1,0-0.1,0-0.2,0l0,0c-2.5,0-7.4-0.5-9.6,0.8c-2.9,1.6-1.2,6.6-1,9.3
		c0.1,2.1,0.2,4.1,0.2,6.2l0,0l0,0l0,0l0,0c-0.8,0-1.5,0.1-2.3,0.1l0,0c-7.5,0.9-15.2,0.5-22.8,0.5l0,0l0,0l0,0
		c-6.4,0-12.9-0.4-19.3-0.4l0,0l0,0l0,0c0,0-0.1,0-0.1,0l0,0c-9.7,0-19.1,0.4-28.7,0.9l0,0c-5.7,0.8-11.6,0.7-17.4,0.7l0,0l0,0l0,0
		c0-0.5,0-1-0.1-1.5c-0.1-0.1-0.1-0.3-0.1-0.4c-0.4-1.6-0.2-3.8,0.1-5.4c0.2-1,0.4-2,0.4-3c0-0.7,0.1-1.3,0.2-2
		c0.2-1.2,0.7-3.4,1.5-4.2c0.3-1.1,1.4-1.7,2.3-2.4c4-1.8,10.9-0.8,15.5-0.9c4-0.1,8,0,12-0.1C314.7,648.4,323.7,647.8,332.6,647.8
		L332.6,647.8z M538.7,673.6c0.3-1.6,0.4-3.2,0.4-4.9l0,0l0,0c0-1.4-0.1-2.9-0.2-4.3c-0.4-4.8-0.6-9.6-3.2-13.9
		c3.7-0.4,7.3-1.3,11-1.7c-0.7,1.2-1,2.7-1.3,4.1c-1,3.8-1.8,7.7-2.5,11.5c-0.3,1.7-0.1,7.2-0.9,8.4
		C541.6,673.4,539,674.9,538.7,673.6z M510,667.9c0-3,1-6.1,1-9l0,0l0,0c0.2-2,1-3.8,1.4-5.7l0,0l0,0l0,0c6-0.8,12.2-1.5,18.3-2.1
		l0,0l0,0c1,3.1,2.7,5.4,3.1,8.9c0.2,1.9,0.3,3.8,0.3,5.6c0.1,3.1-0.5,6.3-0.5,9.4l0,0l0,0l0,0l0,0l0,0l0,0
		c-3.2,0.8-7.2,3.3-10.3,3.3l0,0l0,0l0,0l0,0l0,0l0,0l0,0c0.2-1,0.5-2,0.6-3c3.1-12.5-7-7.6-14-7.6C510.4,667.9,510.5,668,510,667.9
		L510,667.9L510,667.9L510,667.9L510,667.9L510,667.9L510,667.9L510,667.9z M616.3,663.6c-0.1-2.4-1.3-8-0.5-10.4
		c0.4-1.4,0.5-1.6,2.6-1.6c0.1,0,0.4-0.2,0.5-0.2c0.2,0.1,0.9-0.2,1.2-0.3c0,4-0.1,8.2-0.3,12l0,0c-1.2,0.2-2.4,0.8-3.5,1.4
		C616.3,664.2,616.3,663.9,616.3,663.6z M479.2,659.7c1.4,0,2.8-0.4,4.2-0.4l0,0c0.8,0,1.7-0.2,2.5-0.4c6.7-1.5,13.6-2.6,20.3-4.2
		l0,0l0,0l0,0c0.1,0,0.1,0,0.2,0l0,0c0.4-0.1,0.9-0.1,1.3-0.1c-1.3,4.2-2,9.3-2,13.6l0,0l0,0c0,0.1,0,0.1,0,0.2
		c-1.5,0-2.9,0.1-4.4,0.1l0,0l0,0l0,0c-1,0.1-2,0.3-2.9,0.5l0,0c-3.7,0.6-7.2,5.3-1.6,5.3l0,0c0.1,0,0.2-0.1,0.2-0.3
		c0.5-0.9,1.2-1.3,2.2-1.3l0,0l0,0l0,0l0,0l0,0c1.6,0.7,3.2,0.1,4.9,0.1l0,0c5.6,0,11-1.7,16.5-1.7l0,0l0,0l0,0l0,0l0,0l0,0
		c0,0.4,0,0.9-0.1,1.3c0,0.1,0,0.1,0,0.2c-0.4,2.5-1.5,4.8-1.5,7.3c1,6.6,11.2,0.9,15.3-0.2c1.7-0.5,3.4-0.8,5.1-1.2
		c0.8-0.2,1.8-0.6,2.6-0.5c0.9,0,1.5,0.7,2.4,0.6c1.5-0.2,2.1-1.2,3.8-1.2l0,0c3,0,6-0.9,9-0.9l0,0c0.6,0,1.4-0.1,2-0.3l0,0l0,0l0,0
		l0,0l0,0l0,0l0,0l0,0l0,0l0,0c0.2-0.1,0.7-0.6,1-0.6c0.4-0.3,1.5-1.1,2.2-1.5c3.3-3.4,12.9,4.1,14,0.3c2.3-0.3,4.5-0.8,6.8-1.1
		c2.6-0.3,8.4-0.1,10.4-1.9c1.1-1,1.1-2.9,2-3.7l0,0c1.5,0.1,2.7,0.8,3.8,1.9l0,0l0,0c-0.4,2.8-1,5.3-2.2,7.8
		c-0.5,2.4-1.5,0.9-2.7,0.5c-1.4-0.4-1.9-0.9-3.6-0.7c-2.4,0.3-4.9,1.2-7.3,1.6c-3.7,0.6-10.6,0.3-13.3,3c-0.4,0.3-0.8,0.6-1.1,1
		c-1.5,1.4-2.5,3-4.7,3c-2.8,0-4.3-2.1-7.2-1.9c-3.2,0.2-6.7,1.2-9.9,1.8c-7,1.4-13.9,2.7-21,3.4l0,0c-3.5,0.3-7,2.2-8.4,5.6
		c-0.4,1.1-0.5,2.4-0.4,3.6c0.1,2.1,1.6,4,1.6,5.8c-1.7,1.3-4.4,1.4-6.4,1.9c-4.4,1-9.1,1.9-13.4,3.3l0,0l0,0l0,0l0,0
		c-0.2,0.1-0.9,0.3-0.9,0.6c0.3-1,0.5-2.1,0.6-3.2c1.8,1.2,6.6-0.6,8.4-1.7c4-2.4,8.3-10.3,1.2-11.9c-1.4-0.3-8.6,1.1-9.7,0.4
		c-0.8-0.5-1-4.3-1-5.3c1.4,1.4,5.7,0.5,7.4,0.5c3-0.2,6.7-0.9,7-4.6c0.6-8.1-8.9-7.8-14.1-7.8l0,0c-1.4-0.2-2.6,0.1-4,0.2l0,0
		c-1.6-4.2-3.9-8.4-5.7-12.3c-1.6-3.5-1.9-4.2-5.8-4.1c-1.5,0-3.1,0.1-4.6,0.1c0.1-0.3,0.1-0.6,0.1-0.9c0-0.1,0-0.3,0-0.4
		C478.3,658.8,478.9,659.2,479.2,659.7L479.2,659.7z M369.7,664.8c0-2.5-1.3-8.5-0.1-9.5l0,0l0,0l0,0c1.8,0,3.7-0.3,5.5-0.3
		c0.4,3,0.5,6.2,1,9.2c0,0.3,0.1,0.6,0.1,0.9c0.1,0.3,0.1,0.6,0.1,0.9c-2.3,0-4.5,0.1-6.8,0.1C369.7,665.7,369.7,665.2,369.7,664.8
		 M699.8,666.6L699.8,666.6L699.8,666.6L699.8,666.6c0.4-2.2-0.2-4.5,1.4-5.3c0.6-0.3,2,0,2.7,0l0,0c4-0.4,5.1,3.6,1.7,4.9
		C705,666.5,700.3,666.8,699.8,666.6 M680.4,697.1C680.4,697.1,680.3,697,680.4,697.1c-1.6-2.4-2.3-5-2.7-7.7
		c-0.5-3.2-1.3-6.3-1.7-9.4c-0.5-3.3-2.5-15.2,0.6-16.8l0,0c0.2,0-0.2,12.4,0,14.2c0.6,5.3,2.2,10.6,4.6,15.3c0.6,1.3,1.3,2.6,2,3.9
		c-0.8,0.3-0.9,0.7-1.4,1.2c-0.1,0.3-0.2,0.5-0.5,0.8C681,698.1,680.7,697.6,680.4,697.1 M477.6,673.1c0-2.9,0.8-4.8,1.4-7.3l0,0
		c0.3,0,0.7,0,1,0l0,0c1.3,0,2.7,0,4,0c-0.7,1.4,4.3,8.9,5.4,11c0,0,0,0.1,0,0.1c0.7,1.3,2,5,2.3,5.7c2.3,11.1,4.2,19.7,1.9,31.1
		c-1.5,7.2-6.7,9.8-13.7,11.5l0,0l0,0c-1.1,0.3-2.3,0.8-3.4,1.1l0,0l0,0l0,0c-0.3,0.2-0.7,0.3-1,0.4c2.7-3,4.7-6.6,6.5-10.3
		c3.5-7.7,3.1-17.3,1.3-25.4c-0.4-1.6-0.8-3.3-1.3-4.9c-0.7-2.5-1.4-4.7-2.6-7c-0.6-1.1-2.5-3-2.5-3.6c0-0.1,0-0.1,0-0.2
		C477.3,674.6,477.6,673.9,477.6,673.1 M571.1,669.2c0.1-0.5,0.2-1.1,0.2-1.6C571.4,668.2,571.6,669.4,571.1,669.2 M616.6,685.7
		c0-5.4-0.1-10.8-0.1-16.2l0,0c0.9,0,2.7-0.9,3.3-1.5c0,5.4,0,10.7,0.1,16c0,0.6,0.2,1.2,0.1,1.8c-0.3,2.9-1.2,1.9-3.5,3.1
		C616.6,687.9,616.6,686.8,616.6,685.7 M680.7,668.5L680.7,668.5L680.7,668.5L680.7,668.5L680.7,668.5L680.7,668.5
		c0.2,5.2,1.9,12.4,8.2,10.2l0,0l0,0l0,0l0,0l0,0l0,0l0,0l0,0c0.3,2.7,0.6,5.4,0.5,8.1c-0.1,2.8-1.5,5.5-1.5,8l0,0l0,0l0,0l0,0l0,0
		l0,0l0,0l0,0C682.8,687.1,680.7,677.8,680.7,668.5L680.7,668.5L680.7,668.5L680.7,668.5 M653,707.4L653,707.4
		c-0.9-0.3-1.6-0.8-2.3-1.4c-0.3-0.3-0.6-0.6-0.8-1l0,0l0,0c-5.4-6.9-5.6-16.7-5.6-24.9c-0.1-2.3-0.2-4.4-0.1-6.7
		c0.2-3.4,0.6-3.5,4.4-3.1c-0.2,1.7,0.1,3.7-0.4,5.3c-0.1,2.2-0.1,4.3-0.1,6.5c0,4.4,1.7,8.6,1.7,12.9c0.7,4.4,1.9,8.7,4.8,12.2
		C653.5,707.8,654,707.4,653,707.4L653,707.4L653,707.4z M357.9,671.5c7.4,0,14.9-0.8,22.3-0.8l0,0c0.2,0,0.4,0,0.6,0l0,0l0,0l0,0
		l0,0l0,0l0,0l0,0l0,0l0,0c11.6,0,23.1,1.1,34.7,1.1l0,0c3.9,0,7.7,0.6,11.5,0.5c0,0-0.1,0-0.1,0c0.2,0,0.3,0,0.5,0l0,0
		c6.5,0,13,0.2,19.5-0.2l0,0c1.7,0.1,3.4,0.2,5,0.6c0.9,0.2,1.9,0.4,2.9,0.4l0,0c5.5,0,3.4,20.8,3.2,24.7c-0.2,3,0.7,3.3-2.2,4.2
		c-3.6,1.1-8.2,1.1-12,0.7c-4.7-0.5-8.9-0.7-13.6-0.7l0,0c-1.1,0-2.2,0-3.3,0c4.3-6.7,1.2-14.3-1.8-20.6c-1.5-2.8-3.3-4.5-6.1-6.1
		c-7.9-4.1-20.5,0.9-24.4,8.2c-2.3,4.2-2.1,8.8-1.7,13.4c0,0.9,0.1,1.9,0.4,2.8c0.3,0.6,0.4,1.8,0.9,2.3
		c-10.4,0.1-20.9-1.5-31.3-1.3l0,0c-22.4-1.3-45.1-1.3-67.5-1.3c1.2-2.4,2-4.5,2.6-7.1c0.3-1.1,0.4-2.3,0.4-3.5
		c0.1-4.1-1.6-5.9-3.2-9.2c-2.6-3.1-6.2-5.2-10.2-5.5l0,0c-8.8-1-19.5,3-22.8,11.9c-0.9,2.4-0.8,4.8-1.1,7.2c-0.2,2.5,0.2,5.2,2,7.1
		l0,0l0,0c-5.2,0-14.5,1.8-16.3-4.6c-0.2-1.5,0.2-3,0.4-4.5c0.2-0.9,0.2-1.7,0.2-2.6c0-0.9,0.1-1.9,0.2-2.8c0-0.3,0.1-0.7,0.2-1
		c0.6-3,0.8-6.3,0.8-9.3c-0.2-0.6-0.1-1.6-0.1-2.3c12.3-0.2,24.6-1,37-0.8l0,0c9.2-0.5,18.3-1.7,27.5-1.7c11.5,0,22.9,0.6,34.3,0.2
		C350.2,670.8,355.1,670.1,357.9,671.5z M462.7,678.8c0.1-0.7-0.5-3.4-0.2-3.8c0.7-0.9,3.3-0.2,4.4-0.9l0,0c2-0.5,4.3-1,6.2-1.8
		c0,0.4,0.1,0.9,0,1.3c0.1,0,0.1-0.4,0.1-0.4c0,0.6-0.3,1.9-0.8,2.2c-0.3,0.4-0.7,1.1-1.2,1.3C469.4,677.9,464.7,678.8,462.7,678.8
		L462.7,678.8L462.7,678.8L462.7,678.8L462.7,678.8z M657.7,703.8c-3.9-3.9-2.9-9.3-4.5-14c-0.8-4.4-1-8.9-1-13.4l0,0l0,0l0,0l0,0
		l0,0l0,0l0,0l0,0c2,7,3.8,10.4,11.9,9.6l0,0l0,0l0,0l0,0c0.1,3.9-1,11.9-3.6,15.3c-0.5,1.1-1.2,1.9-2,2.7
		C658.2,704,657.9,704,657.7,703.8 M280.3,704.4c-3.2-0.3-6.1-1.7-8.8-3.6c-3.2-2.2-3.5-2.5-4.1-5.7c-0.5-2.4-0.8-4.3-0.2-6.6
		c2.2-7.5,11.9-11,18.9-9.7c8.1,1.5,10.2,10,7.1,16.7c-0.5,1.1-1.2,2-1.7,3.1c-0.5,1.6-2.8,5.2-4.9,5.2l0,0l0,0l0,0l0,0
		c0,0,0.1,0,0.1,0C284.8,704.4,282.4,704.6,280.3,704.4 M467.8,725.6c-0.1-0.2-0.1-0.3-0.1-0.5c-1.6-6.5-3.4-13.6-6.8-19.3
		c3.6-1.2,2.6-7.3,2.7-10.7c0-1.4-0.1-2.7-0.3-4.1l0,0l0,0c-0.9-4.7,1-8.1,5.5-9c1.6-0.3,2.9-0.3,4.4-1.1c0.4-0.2,1-0.5,1.2-0.9l0,0
		l0,0l0,0l0,0l0,0l0,0c0.2-0.2,0.4-0.4,0.6-0.6l0,0l0,0c0.1,0.1,0.1,0.3,0.2,0.4c0,0,0,0.1,0,0.1c1.9,3,2.5,6.2,3.4,9.6l0,0l0,0
		c0,0,0,0.1,0,0.1c0.2,0.7,0.3,1.4,0.5,2.1c2.1,7.5,2.4,18-1.9,24.5l0,0l0,0l0,0l0,0c-1.5,2.5-4.1,4.8-5.4,7.4
		c0.1,0.1,0.1,0.3,0.2,0.4c-0.1,0.1-0.1,0.1,0,0.1c-0.6,0.5-2,2.5-3,2.5l0,0l0,0l0,0c-0.1,0.1-0.2,0.1-0.3,0.2l0,0l0,0l0,0l0,0
		c-0.1,0.2-0.5,0.4-0.5,0.7C468,726.9,467.9,726.2,467.8,725.6 M408.3,680.5c0.3-0.1,0.6-0.2,0.9-0.3c6.4-2.1,10.3-0.5,13.5,5.5
		c2.3,4.4,3.1,9.4,1,14.1c-1,2.3-3.9,6.7-6.3,7.3l0,0l0,0c-5.5,2-10.5-0.1-15.1-3c-3.6-2.6-4-6.1-4.5-10.2c-0.2-2.9,0.3-5.9,1.8-8.3
		c1.2-2,4.1-5.1,6.6-5.4C406.8,680.1,407.8,681,408.3,680.5 M589.5,725.2L589.5,725.2c-3.7-3-4.8-8.4-6.4-12.6
		c-2.8-6.9-2.3-13.6-3.3-21c0-0.3-0.1-0.5-0.1-0.8c0-1.3-0.2-2.5-0.4-3.8l0,0l0,0c-0.1-1-0.5-2.3-0.5-3.4l0,0l0,0l0,0l0,0l0,0l0,0
		l0,0l0,0c0.3-0.1,0.7-0.2,1-0.2l0,0c0.7-0.1,1.5-0.3,2.3-0.3l0,0c0.3,0,0.7,0,1-0.2c0.2-0.1,0.5-0.1,0.7-0.2l0,0c0.1,0,0.2,0,0.3,0
		l0,0c0.8-0.1,1.7-0.2,2.5-0.4l0,0c1.7-0.4,3.9-1,5.6-1l0,0l0,0c0.7,0.6,1.6,1,2.5,1.3l0,0c0.1,0,0.1,0,0.2,0l0,0l0,0l0,0l0,0
		c0,8.8,0.4,17.7,0.1,26.5c-0.1,2.5-0.5,15.4-5.4,16.2l0,0C589.6,725.3,589.5,725.2,589.5,725.2 M500.5,681.3c1.9-0.3,5-0.3,6.6,0.9
		c0.7,0.6,2.4,2.6,0.4,2.6l0,0c-1.6,0-9.4-0.9-9.4,1.5c-0.4-1.5-0.9-3.1-1.5-4.5C497.5,681.7,499.5,681.3,500.5,681.3
		C500.5,681.3,500.5,681.3,500.5,681.3C500.4,681.3,500.5,681.3,500.5,681.3C500.5,681.3,500.4,681.3,500.5,681.3
		C500.5,681.3,500.5,681.3,500.5,681.3L500.5,681.3z M578.3,721.6c-0.2-2.4-0.7-4.8-1.3-7.2c-1.2-4.5-1.6-9-2.1-13.6
		c-0.3-2.3-0.4-4.5-0.9-6.7c-0.4-2.3-1.6-8.5,0.5-9.6c0.1,1.4,0.4,2.7,0.4,4.1c0.4,2.5,0.6,5,0.6,7.5c-0.1,4.5,1.1,8.5,1.5,12.9l0,0
		l0,0c1.5,6.1,4.1,13.2,8,18.1c1.1,1.6-0.5,1.6-1.9,1.6l0,0l0,0l0,0l0,0l0,0l0,0l0,0c-2.4,0.7-4.1-3.4-4.4-5.3
		C578.9,724,578.3,721.4,578.3,721.6 M558.6,688.1L558.6,688.1L558.6,688.1L558.6,688.1L558.6,688.1L558.6,688.1L558.6,688.1
		L558.6,688.1L558.6,688.1L558.6,688.1c0.1-0.1,0.2-0.1,0.4-0.1l0,0l0,0l0,0l0,0c1.9,1.7,5.4,2.3,7.9,1.8l0,0l0,0l0,0l0,0l0,0l0,0
		l0,0l0,0l0,0l0,0c-0.3,6-0.7,12.1-0.7,18.1c0,2.2-0.3,4.4-0.8,6.6c-0.4,4.6-3.9,9.5-4,14c-0.9,2.5-2.9,8.6-6.3,8.6l0,0
		c-4.1-3.6-5.8-8.1-7.6-13c-3.1-9.1-3-18.4-2.3-27.9c0.4-3.3-0.2-5.1,3.3-5.6l0,0l0,0l0,0c3.4-0.7,7.1-1.4,10.6-1.7
		C558.5,688.6,558.3,688.4,558.6,688.1L558.6,688.1L558.6,688.1L558.6,688.1z M538.1,692.4c0.5-0.4,1.7-0.4,2.5-0.7
		c-0.7,3-0.6,6.3-0.6,9.4l0,0l0,0l0,0l0,0c-0.2,2.7-0.2,5.4-0.2,8.1c0,6.7,1.6,13.4,4.2,19.5c1.5,3.8,3.2,7.4,6.2,10.2
		c0,0,0.1,0.1,0.1,0.1c-0.1,0-0.2,0-0.2,0.1c-0.5,0.2-2.1,0.9-2.1,1.6c-0.5-0.4-1-0.7-1.3-1.1c-0.8-0.9-1.5-1.9-1.9-3
		c-0.2-0.5-0.4-1-0.6-1.4c-2.9-3.8-2.5-7.9-4.2-12.1c-0.6-1.5-1.6-2.2-1.8-3.5c-0.6-3.2,0.5-7.7,0.6-11.1c0.1-5.1,0.3-10.2-0.1-15.3
		C538.3,693,538.1,692.7,538.1,692.4 M522.3,747.8c-2.7-0.9-4.1-7-4.6-9.7l0,0l0,0c0-0.2-0.1-0.5-0.1-0.7c-0.1-0.3-0.1-0.6-0.2-0.9
		c-0.9-3.8-1.1-7.7-1.8-11.6c-0.7-4-0.5-10.9-3-14l0,0l0,0l0,0l0,0l0,0l0,0l0,0c1.7-0.3,3.5-0.8,5.2-1.2l0,0l0,0l0,0l0,0l0,0
		c4.2-0.9,9.7-5.2,5.4-9.5c-0.1-0.6-0.1-1.1-0.1-1.7l0,0l0,0c-0.3-1.7,0.4-2.7,1.5-3.8l0,0l0,0l0,0l0,0c2-1.9,6.7-1.5,9.4-1.6l0,0
		l0,0c0,0.2,0,0.3,0,0.5c0.1,0.7,0.2,1.3,0.2,2c1,9.6,0.7,21-1.6,30.2c-1.4,7.4-3.9,16.2-9.3,21.6l0,0l0,0c-0.2,0.2-0.5,0.5-0.7,0.7
		C522.5,748,522.4,747.9,522.3,747.8L522.3,747.8 M628.1,712.7L628.1,712.7c-0.9-0.9-1.4-2.2-2.1-3.3c0,0-0.1-0.1-0.1-0.1
		c0-0.2-0.1-0.5-0.3-0.7c-0.2-0.4-0.3-0.9-0.4-1.3c0-0.1,0-0.3,0-0.4l0,0l0,0l0,0l0,0l0,0l0,0c3.7-0.4,7.4-2.2,7.5-6.4
		c0-1.1-0.2-2.5-1-3.3c-0.2-0.3-0.5-0.5-0.8-0.6c-0.1-0.1-0.1-0.1-0.2-0.1l0,0l0,0l0,0l0,0c1.5-0.1,3.1-0.5,4.5-1l0,0l0,0
		c0,2.1-0.2,4.2-0.9,6.2l0,0l0,0c-0.5,2-0.6,3.8-1.4,5.7c-0.3,0.9-0.8,1.6-1.3,2.4c-0.7,1-1.4,2.3-2.1,3l0,0
		C629.1,712.9,628.5,712.9,628.1,712.7 M502.7,698.1c2,0,4-0.2,5.9,0l0,0l0,0c-0.2,0.7-0.5,1.3-0.8,2c-1.1,1.2-2.8,2.3-4.5,2.4l0,0
		c-4,0.8-2.6-0.7-3.2-4.4C501,698.2,501.8,698.2,502.7,698.1 M300,732.5c-0.7-0.1-1.5-0.2-2.2-0.4c1.4-6.1,1.4-12,3.4-18
		c0,0,0-0.1,0-0.1c0.3-1.3,5-9.9,2.2-9.9l0,0l0,0l0,0l0,0l0,0l0,0c3.3,0,6.5,0.1,9.8,0.1l0,0c0.1,0,0.2,0,0.3,0l0,0
		c4.8,0.2,9.5,0.2,14.3,0.2l0,0c21,0,42.1,1.1,63.1,2.1c2.7,0.1,8.9-1,10.5,2.1l0,0l0,0c3.8,2,7,3.4,11.5,3.3
		c5.7-0.1,8.1-2.3,11.9-5.9l0,0l0,0l0,0l0,0l0,0l0,0c4.5,0.8,9.4,0.2,14,0.4l0,0l0,0l0,0l0,0l0,0l0,0c-4.5,2.5-7.1,9.9-7.8,14.7
		c-0.7,3.9-1.5,7.7-1.9,11.6c0,0.1,0,0.1,0,0.2l0,0l0,0c-8.3,0.2-16.6-0.9-24.9-0.9l0,0l0,0l0,0c0,0-0.1,0-0.1,0l0,0l0,0l0,0l0,0
		l0,0c-26.2,0-52.4,0-78.6,0.1c-3.3,0-6.7,0-10,0C310.5,732.1,304.7,733,300,732.5 M290.2,756.7c-0.4-4.4-0.6-8.9-0.9-13.3
		c-0.7-6.5-1.5-13.1-1-19.6c0.3-3.3,0.1-8.1,2.1-10.8c1.6-2.2,1.8-3.6,3.7-5.5c2.8-2.8,2.2-3.8,6.2-3.8l0,0c0.4-0.1,0.8,0,1.2,0
		c-2.7,0.9-4.5,9.7-5.2,11.9c-1.6,4.9-1.7,10.2-2.7,15.2c-0.1,0.2-0.1,0.3-0.1,0.5c0,0.4-0.1,0.7-0.1,1.1l0,0l0,0
		c-0.5,3.8,0,6.4,1,10.1c0.4,1.1,1.9,2.8,1.9,3.8c2,3.8,5.5,7.5,8.7,10.2c0.2,0.2,0.5,0.4,0.7,0.6l0,0l0,0c1.2,0.7,2.6,1.4,3.9,2.1
		l0,0l0,0c2.1,1,5.2,1.6,6.9,2.6c-1.3,4.4-3.4,7.4-5.6,11.1c-0.8,1.5-1.7,3.2-2.9,4.4c-1.9,0.8-4.6,0.7-6.7,0.7l0,0
		c-1.4,0.4-2.6-0.1-3.3-1.2l0,0c-4.6-2.1-7-13.3-7.1-18.2C290.5,758,290.2,757.4,290.2,756.7 M576.1,731.5c-0.2,0-0.3,0-0.5-0.1
		c-2.5-4.2-4-8.8-5.1-13.5c-1.2-4,0.6-8.6,0.5-12.8c0,0.3,0.1,0.7,0.1,1c0.4,2.8,0.7,5.6,1.3,8.4c0.5,2.1,0.5,7.1,1.6,8.3l0,0l0,0
		c0.3,2.3,3.1,5.5,3.1,7.5c0.2,0.3,0.5,0.5,0.7,0.8c0,0,0,0.1,0,0.1C577.1,731.1,576.7,731.5,576.1,731.5L576.1,731.5L576.1,731.5
		L576.1,731.5L576.1,731.5L576.1,731.5L576.1,731.5z M456.4,768.6c-0.2,0-0.5-0.2-0.7-0.2l0,0c-0.5-0.5-0.8-1.1-1.2-1.5
		c-0.3-0.4-0.5-0.9-0.9-1.3c-2.7-2.9-3.4-7.5-4.1-11.2c-1-6.6-1.1-13-1.2-19.6l0,0l0,0c0-3.1,0.4-6.2,0.5-9.3
		c0.1-3.7,1.6-7,2.3-10.6c0.3-2.6,1.6-4.7,2.4-7.1l0,0l0,0l0,0l0,0l0,0l0,0l0,0l0,0l0,0l0,0l0,0l0,0c0-0.1,0-0.3,0-0.4l0,0l0,0l0,0
		c0.7,0,1.4-0.2,2.1-0.3c2.1,2.8,3.8,5.6,4.5,9.2c0.7,2.8,1.9,5.6,2.5,8.5c1.4,5.2,1.1,10.6,1.1,15.9c0,5.7-0.6,11.2-2,16.7
		C461.1,759.8,459.3,768.5,456.4,768.6L456.4,768.6C456.5,768.7,456.6,768.7,456.4,768.6 M433.2,736.7L433.2,736.7
		c1.1-8.3,1.2-17.9,6.7-24.8c0.1-0.1,0.2-0.2,0.3-0.3l0,0l0,0c0.4-0.4,0.8-0.9,1.3-1.2c1.2-0.6,1.8-1.6,1.8-2.9
		c0.4,0.1,0.9,0,1.3,0.1l0,0l0,0c-1.2,2.2-1.9,4.6-2.8,7c-1,2.7-1.3,5.7-1.7,8.6l0,0l0,0l0,0l0,0c-0.1,0.9-0.3,1.8-0.5,2.7
		c-0.2,1-0.3,2.2-0.4,3.3c-0.2,1.4-0.4,2.7-0.6,4.1l0,0l0,0c-0.8,6.3-0.9,12.7-0.1,19c0.4,3.5,1.4,7,2.2,10.4c0.5,2.5,1,5,2,7.3
		c0.5,1.4,3.8,4.8,3.8,6.2c0.2,0.2,0.4,0.4,0.6,0.6c-2.3,0.1-5.2,0.2-6.9-1.5c-0.9-0.9-3-2.8-3.5-4.2c0-0.1-0.1-0.1-0.1-0.2
		c-1.7-5.2-3-10.9-3.2-16.3C433.1,749.1,432.1,742.1,433.2,736.7L433.2,736.7L433.2,736.7L433.2,736.7L433.2,736.7L433.2,736.7z
		 M619.1,708c1.9-0.9,3.9,5.6,5.2,7.2l0,0l0,0c-2.5,0.6-4.3-4.9-5.2-6.4c0,0-0.1-0.1-0.1-0.1c-0.1-0.2-0.2-0.5-0.3-0.7
		C618.8,708,619,708,619.1,708L619.1,708z M285.8,712c0.3-0.8,0.4-2.1,0.8-2.8c0.3-0.5,2.1-1.3,1.3-0.5
		C287.3,709.8,286.4,711.3,285.8,712z M497.4,755.9c-2.2-2.2-2.4-4.8-3.1-7.8c-1.3-5.9-2.3-12-2.7-18c-0.2-1.6,0.2-3.4-0.3-4.9l0,0
		l0,0l0,0l0,0l0,0c0.5,0,1.3-0.9,1.7-1.2l0,0c0.1,0,0.2,0,0.2-0.1c4.4-2.6,4.9-7.5,5.9-12l0,0l0,0c0.4,1.6,2,2,3.3,1.5l0,0l0,0l0,0
		l0,0l0,0l0,0c-0.7,2.8,0.9,8,1.1,10.9c0.4,4.8,0.1,9.5-0.2,14.4c-0.3,4.1-1.2,14.1-5.5,16.8C497.7,755.6,497.5,755.8,497.4,755.9
		L497.4,755.9z M515.5,749.8c-4-4-7.9-10.3-7.9-15.4c-0.1-4.9,0.4-9.5-0.2-14.5c-0.2-2-0.5-5.7-2-7c1-0.2,2-0.4,3-0.5
		c0.1,3.4,1.1,7.1,1.8,10.5c1,5,1.2,10.3,2.6,15.2c0.1,0.5,0.2,1,0.3,1.5c0.4,1.9,0.9,4.7,2,6.4c0.4,0.6,0.7,1.3,1,2l0,0l0,0
		c0.3,0.6,0.7,1.2,1.2,1.8c0,0,0.1,0.1,0.1,0.1C516.5,750.5,515.8,750.6,515.5,749.8z M287.7,774L287.7,774
		c-0.2-0.2-0.4-0.3-0.6-0.5c-0.1-0.2-0.3-0.4-0.5-0.5l0,0l0,0c-3.8-4.8-4.5-10.8-4.6-16.7c0,0,0-0.1,0-0.1
		c-0.2-14-1.6-27.3,2.6-40.8c0,2.3-0.5,4.7-0.8,7c-1.3,9.1,0.5,18.6,1,27.8c0.3,5.4,1,10.8,2.2,16.1c0.7,2.2,1.2,5,2.4,7
		C289.3,773.4,287.6,774,287.7,774L287.7,774z M488.1,756c-1-1.6-1.6-3.5-2.1-5.3c-0.9-3.3-1.5-6.7-1.9-10.1l0,0l0,0
		c0,0,0-0.1,0-0.1c-0.2-3-0.5-6-0.7-9c-0.2-3.3,0.1-2.6,3.4-3.7c0,3,0.6,6.1,0.8,9.1c0.2,2.6,0.6,5.1,1.1,7.7
		c0.2,3.5,1.2,8.3,2.8,11.5c-0.3,0.4-1.8,0.8-2.9,1.2C488.5,756.8,488.3,756.4,488.1,756 M541.3,741.5c-2.1-1.2-6.2-5.1-6.5-7.2
		c-0.2-1.6,1.2-3.9,1.3-5.6c0.4,1.5,1.1,3.2,1.8,4.6c0,0,0,0.1,0,0.1c0.9,2.2,2.1,4.5,3.3,6.5c0.4,0.8,0.9,1.5,1.5,2.1
		c-0.4-0.1-0.8-0.1-1.1-0.3l0,0C541.6,741.6,541.4,741.5,541.3,741.5 M449.6,773.2c-3.7-4.7-4.3-10.6-5.5-16.2
		c-1.6-7.6-1.1-14.3-0.8-21.9c0-0.5,0.1-1,0.2-1.5l0,0l0,0l0,0l0,0c0-0.9,0-1.9,0.1-2.8c0-0.4,0.1-0.9,0.1-1.3
		c-0.4,6-0.2,12,0.3,18.1c0.5,6.1,1.1,14.4,4.9,19.5l0,0l0,0l0,0l0,0c0.1,0,0.1,0.1,0.1,0.2c0.3,0.6,0.7,1.1,1,1.7
		c0.7,1.2,1.7,2.4,2.8,3.1c-0.7,1-1.2,0.9-2.2,1.1C450.1,773.3,448.7,773.2,449.6,773.2 M485.5,760.6c-0.5-0.4-1.6-1.2-1.6-1.8
		c-0.4-0.4-0.7-0.9-0.9-1.4c-3.4-5.4-2.9-13-3.8-19.3c-0.1-0.8-0.3-1.6-0.3-2.4l0,0l0,0c-0.2-1.7-0.2-4.1,0.1-5.3
		c0,6.5,1.2,12.9,2.2,19.3c0.1,2.6,1.7,6,2.7,8.3c0.5,0.8,0.9,1.6,1.3,2.5l0,0l0,0c0,0.2,0.2,0.3,0.3,0.4
		C485.8,761.1,485.5,760.4,485.5,760.6c0,0,0.1,0.1,0.1,0.1C485.6,760.7,485.5,760.6,485.5,760.6z M317.9,757.8L317.9,757.8
		c-0.1,0-0.2,0-0.3,0l0,0c-0.6-0.1-1.2-0.3-1.8-0.4l0,0l0,0c-0.4-0.1-0.8-0.2-1.2-0.3c-2.7-1.2-5.5-2.5-7.9-4.4l0,0l0,0
		c-1.3-0.9-2.4-2-3.1-3.4l0,0l0,0c-0.4-0.5-0.8-1.1-1.1-1.7l0,0l0,0l0,0l0,0c-1.3-2-2.8-3.9-3.7-6.1c-0.3-0.7-1.3-2.6-1.2-3.4
		c0.3-3,9-1.1,12-1.1c9.8,0,19.7-0.3,29.5-0.1c26,0.5,52.1-0.3,78.1,0.6c2.8,0.1,11.1-0.5,12.2,0.9c0.3,0.4,0.2,14.9,0.2,16.1
		c-10.7,0.1-21.4,0.5-32.1,0.5l0,0c-13.8,0-27.6-0.2-41.4,0.5c-11.7,0.6-24.4,3.3-36.1,1.8C319.3,757.3,318.6,757.6,317.9,757.8
		L317.9,757.8L317.9,757.8L317.9,757.8z M509.8,754.1c-0.2-0.1-0.4-0.2-0.5-0.4c-0.8-0.7-1.4-1.6-1.9-2.6c-1.5-2.1-0.7-3.3-0.6-5.9
		c1.7,3.4,4.4,6.1,6.7,9.1c-0.4,0-0.8,0.1-1.2,0.1l0,0l0,0l0,0c-0.2,0-0.3,0-0.5,0.1c-0.1,0-0.1,0-0.2,0l0,0l0,0l0,0l0,0l0,0
		C511,754.5,510.4,754.4,509.8,754.1 M376.8,759.6c2.1,0,4.3,0,6.4,0c-0.6,2.5-2.5,7.2-4.8,8.3l0,0c-3.3,0.3-8.7-6-9.5-8.3l0,0
		c0.4,0,0.9,0,1.3,0l0,0l0,0C372.4,759.6,374.6,759.6,376.8,759.6 M353.5,761c-0.1-0.3-0.2-0.5-0.3-0.8c2.7-0.2,5.7-0.7,8.4-0.4
		c2.7,0.3,1.4-0.6,3.2,1.7c1.9,2.3,3.1,4.7,5.4,6.7c0.9,0.9,1.9,1.6,2.9,2.3c0.5,0.3,0.8,0.8,1.3,1c-0.3,0.4-0.9,0.6-1.5,0.6l0,0
		c-2.4,0.5-5.1,1.1-7.5,0.6c-4-0.9-7.4-5.8-10.1-8.5c-0.3-0.4-0.7-1-0.9-1.5c0-0.1-0.1-0.3-0.2-0.4c-0.1-0.2-0.2-0.4-0.3-0.6
		c0-0.1,0-0.1,0-0.2C353.8,761.3,353.6,761.2,353.5,761z"/>
	<path class="st1" d="M640.7,643.7c-1,0-1.9,0.1-2.9,0.2l0,0c-2-0.1-4.4,0.2-6.2,1c-1,0.5-2.4,0.9-2.7,2.2c-0.5,2.2,1.8,3.8,3.6,2.5
		c0,0,0.1-0.1,0.1-0.1c0.7-0.4,2.3-0.4,2.8-0.9c-1.8,1.2-6.5,3.3-4,6c0.7,0.8,2.5,0.9,3.6,1c-1.6,0.9-6.8,6.6-1.5,6.6
		c-1.1,3.3,3.3,4.4,4.7,1.5c4.2-1.7,0.5-5.5,0.6-5.6c1.7-1.4,3.9-4.2,1.3-6c-0.4-0.1-0.8-0.4-1.2-0.4c1.1-1.1,2-2.4,3.1-3.5
		C643.6,646.6,643.2,643.9,640.7,643.7"/>
	<path class="st1" d="M661.6,641.6L661.6,641.6c-1.4,0-5.7,0.2-7.1,1.7c-2.5,2.8,1.9,5.3,2.9,3.3l0,0c0.7-0.1,2.1,0,2.6-0.5
		c-1.1,1-4.1,3.4-4.1,5.1l0,0l0,0c0,2.1,2.2,2.8,4,2.8c-1.3,0.6-3.7,1.6-4,3.3c-0.5,2.9,5,3.6,4.3,4.2c-0.7,0.7-1.7,1.3-2.4,2
		c-0.1,0-0.1,0-0.2,0l0,0l0,0l0,0c-2.4,1.8-0.2,4.4,2.2,4.2c-0.7,1.1-1.9,2.7-1.7,4c0.1,0.6,1.5,1.8,1.5,2.1
		c2.6,3.9,6.6,0.3,3.4-2.9c0.2-0.6,0.8-1.3,1.2-2c1.2-1.5,2.2-4.6-0.5-5.1c0.5-0.4,1.1-0.8,1.5-1.2l0,0l0,0l0,0
		c3-1.3,2.7-5.4-0.9-5.2l0,0c-0.5,0-1.1-0.2-1.6-0.2c1.2-0.8,2.5-1.4,3.7-2.2c4.6-2.3-1.7-4.5-3.4-4.9c-0.3-0.1-0.6-0.2-0.9-0.2l0,0
		c-1.3-1.2,10.7-8.9-0.8-8.9C661.6,641.2,661.7,641.4,661.6,641.6"/>
	<path class="st1" d="M691.2,633.1L691.2,633.1c-2.8,0-6.3,0.4-8.4,2.5c-2.1,2,0.9,4.8,3.1,3.1c0.1-0.1,0.1-0.1,0.2-0.2
		c0.9-0.5,2.1-0.8,3.1-0.8c-1.6,1.2-4.9,3.1-5.9,4.6c-1.5,2.3,0.2,4.4,2.8,3.7l0,0c0.7-0.1,1.5-0.2,2.2-0.2
		c-0.9,0.9-2.3,1.3-3.2,2.3c-1.6,1.9-1.1,5.1,1.9,5.1c-1.8,1.8-3.2,5.2,1,5.2c-0.7,0.5-1.5,1.6-1.2,2.5c0.2,4.3,6.5,3.5,4.8,0
		c1.2-1.6,2.5-3.9,0.7-5.7l0,0l0,0l0,0l0,0l0,0l0,0c-0.5-1.1,4.7-6.5-0.7-6.3c2.5-2.5,7.2-8.3,0.6-8.3c1.3-1.3,2.5-2.7,3.8-4
		C697.9,632.9,693.3,633.1,691.2,633.1"/>
	<path class="st1" d="M375.5,541.7c-7.1,0-14.2,0.1-21.3,0c-2.8,0-6.2-0.9-8.4,1.1c-3.1,2.8-1.6,8-1.6,11.7c0.3,3.3,1.5,5.8,5.2,5.6
		l0,0c8,0,15.9-0.1,23.9-0.1c4.9,0,13.3,1.1,15.7-3.6c0.5-2.8,1.2-10.7-1.2-13.1C384.9,541,379.1,541.7,375.5,541.7 M363.7,546.5
		c4.6,0,9.3-0.2,13.9-0.2c1.9,0,7.3-0.9,6.9,1.6c0.1,1.8,1.5,7.4-0.9,7.4l0,0c-5.4-0.2-11,0.4-16.4,0.4l0,0
		c-4.9,0.3-11.2,0.9-16.1,0.2c-2.2-0.3-1.9-0.2-2.4-2.1c-0.6-2.2-0.3-5.4,0.2-7.5l0,0c1.3,0,2.9,0,3.9,0.1
		C356.4,546.4,360.1,546.5,363.7,546.5"/>
	<path class="st1" d="M588.6,505.5c-5.6,0-6.4,8.4-5.6,12.4c0,0.8-0.2,2,0.1,2.8l0,0l0,0c0,0.1,0,0.1,0,0.2c0.5,4.6-0.7,13.9,3,17.4
		c3.8,3.5,12.6,2.1,13.7-3.2c0.4-4.4,0.3-8.9,0.1-13.3c-0.3-6.1-2.4-8.2-6.5-12.3c-0.8-0.8-1.6-1.6-2.4-2.3l0,0l0,0l0,0
		C590.5,506.5,589.5,505.5,588.6,505.5 M588.2,510.3L588.2,510.3c1.5,1.2,2.9,2.8,4.3,4.2c0.6,0.5,1.2,1,1.7,1.6
		c2.4,2,2.2,9.2,1.9,11.9c-0.1,4.5,0.9,7.7-4.4,7.3c-2.4-0.2-3.3-1.1-3.3-3.7l0,0l0,0c0-0.1,0-0.1,0-0.2l0,0l0,0c0,0,0-0.1,0-0.1
		s0-0.1,0-0.1c0-0.6,0-1.3,0-1.9c0,0,0,0.1,0,0.1c0-5.5-1.9-12.9-0.2-18.2c0,0,0-0.1,0-0.1C588.4,510.8,588.2,510.3,588.2,510.3
		L588.2,510.3"/>
	<path class="st0" d="M658.2,519.3c-5.6,0-11,0-16.6,0.8l0,0c-0.7,0.1-2.3,0.3-2.9,0.4c-0.4,2-0.8,4.1-1.4,6c0,0,0,0.1,0,0.1
		c-0.6,2.1-0.6,4.3-0.7,6.4c-1.1,6.2,2.9,17.8-3.4,22c-1.6,1.7-3.6,3.7-4.7,5.7c-0.2,0.4-0.6,0.9-0.8,1.3c-0.2,0.6,0,1.9-0.3,2.4
		c-0.9,1.6-2.2,1.6-2.2,3.5c0,2.7,0,5.4,0,8.1l0,0l0,0c0,2.8-0.1,5.7-0.1,8.5c0,0.3,0,0.5,0,0.8c-0.1,3.7,0,7.3-0.1,11l0,0l0,0l0,0
		l0,0c-0.7,9.4-0.9,19.4-0.9,28.8c0,5.1,0,10.3,0,15.4l0,0l0,0l0,0c1.2-0.3,2.5-0.7,3.8-1l0,0l0,0l0,0c0.4-0.1,0.8-0.2,1.2-0.2
		c2-0.5,4-1,6-1.5c0.6-0.2,1.3-0.3,1.9-0.4c7.1-1.1,13.9-3.7,21-4.4l0,0c10.2-1.2,20.9-3.5,30.8-6.1c6.2-1.6,12.2-4.1,18.5-5.3
		c0-0.2,0-0.5-0.1-0.7c-4.4-7.1-4.2-15.9-3.4-24.2c0-9.9,1.8-19.8,1.8-29.7c0-4-0.1-7.9-0.1-11.9c0-0.1,0-0.1,0-0.2
		c0-0.9-0.1-1.8,0.1-2.6c-1-3.3,1.1-6.6,4.1-8.1l0,0l0,0c1.6-0.8,1.4-3.4,1.2-5c-0.6-5.8-1-5.8-5.2-7.9c-3.4-1.7-5.1-4.9-6.3-8.4
		c-0.7-0.3-1.4-0.7-2-1.3c-0.6-0.1-1.2-0.2-1.8-0.5C683.3,519.3,670.7,519.3,658.2,519.3"/>
	<path class="st0" d="M633.5,520.4L633.5,520.4c-1.5,0.3-3.7,2.4-4.4,3.8c-0.3,0.6-0.4,1.3-0.5,2c-0.4,3.2-1,6.4-0.7,9.7
		c0,0,0-0.1,0-0.1c0.1,5.9,0,8.5-2.7,13.4c-1.7,3.1-1.3,5.1-1.3,8.3c0,0.1,0.1,0.2,0.2,0.3c0.1-0.1,0.3-0.3,0.4-0.4
		c1.5-2.1,3.3-3.8,5-5.7c4.3-3.7,1.8-15.2,2.1-20.2c0.1-2.2,0.3-4.2,0.7-6.3C632.5,524.1,633.4,520.3,633.5,520.4L633.5,520.4z"/>
	<path class="st0" d="M344,647.4c-3.9,0-7.8,0.5-11.6,0.4l0,0l0,0l0,0c-8.5-0.1-17.1,0.4-25.6,0.6c-3.9,0.1-7.9,0-11.8,0.1
		c-3.2,0-13.6-1-15.5,0.9c-0.9,0.7-2,1.3-2.3,2.4c-0.7,1.3-1.2,2.7-1.5,4.2c-0.1,0.6-0.2,1.3-0.2,2c0,1-0.2,2-0.4,3
		c-0.3,1.6-0.5,3.8-0.1,5.4c0,0.1,0.1,0.3,0.1,0.4c-0.7,3.7,15.7,1,17.5,0.8l0,0c3-0.2,6-0.6,9-0.6l0,0c6.5,0,13.1-0.3,19.6-0.3l0,0
		c0,0,0.1,0,0.1,0l0,0l0,0l0,0c6.4,0,12.9,0.4,19.3,0.4l0,0l0,0l0,0c7.6,0,15.3,0.5,22.8-0.5l0,0c0.8,0,1.5-0.1,2.3-0.1
		c-0.1-1.7-0.1-3.5-0.2-5.3c-0.2-2.7-2.1-8.5,0.9-10.2c2.2-1.2,7.2-0.8,9.6-0.8c0,0-0.1,0-0.1,0c0.1,0,0.1,0,0.2,0l0,0
		c5.8,0,4.8,11.1,5.3,15.6l0,0c11.9,0,23.8,1.3,35.7,1.2c0,0-0.1,0-0.1,0c2.2,0,4.4-0.1,6.5,0.2l0,0c0,0,0.1,0,0.1,0l0,0
		c0.7,0,1.4,0.1,2.1,0.1c0.6,0.1,1.3,0.1,1.9,0.2l0,0c0.3,0,0.5,0,0.8,0l0,0c2.8,0.1,5.6,0,8.5,0l0,0c3.4-0.1,6.7,0.3,10.1,0.2
		c1.2,0,3.2-0.5,4.4,0.1c2.9,0.5,7.5,0.2,9.7,2.6c3.6-1.8,11.3,0,13.8-4.1c0.8-1.3,0.2-4,0.3-5.5c0.2-2.7,0.9-5.3,0.9-8
		c0,0,0,0.1,0,0.1c0,0,0-0.1,0-0.1c0.3-1.1,0-1.9-1-2.3l0,0l0,0l0,0l0,0c-0.1,0-0.3,0-0.4,0l0,0c-0.1,0-0.1,0-0.2,0c0,0,0.1,0,0.1,0
		c-1,0-1.9,0-2.9,0l0,0c-3.3,0-6.6-0.2-9.9-0.5c-21.5-2.3-43.7-1.9-65.4-1.6c-4.3,0.1-8.5,0-12.8,0l0,0c-0.5,0-1.1,0-1.6,0l0,0
		c-1.7-0.1-3.4-0.4-5.1-0.4l0,0c-0.3,0-0.7,0-1,0l0,0c-4.9-0.2-9.9-0.5-14.8-0.4l0,0c-1.3,0-2.6,0-3.9,0l0,0
		C352.9,647.6,348.4,647.4,344,647.4"/>
	<path class="st0" d="M307.5,704.2c-1.3,0-2.5,0-3.8,0c2.7,2.1-1.6,7.4-2.2,10c0,0,0,0.1,0,0.1c-1.8,6-2.1,11.9-3.4,18
		c7.2,1.6,15.7,0.6,23,0.6c4.9,0,9.7-0.2,14.5-0.2c15.7-0.1,31.3,0.2,47,0.2c7.1,0,14.2-0.5,21.3,0l0,0l0,0l0,0l0,0l0,0
		c0,0,0.1,0,0.1,0l0,0l0,0l0,0c6.2,0,12.5,0.5,18.7,0.7c1.9,0.1,4.8,0.5,6.2,0c0.3-3.9,1.2-7.7,1.9-11.6c1.1-4.7,3-12.6,7.9-14.7
		c-4.7-0.2-9.4-0.4-14-0.4l0,0c-3.6,3.7-6.4,5.8-11.9,5.9c-4.9,0.1-7.6-1.8-11.4-3.7l0,0l0,0c-3.3-2.7-6.4-1.9-10.8-2.1
		c-9.3-0.5-18.6-0.8-27.9-1.3c-11.5-0.6-23.2-0.9-34.7-0.8c0,0,0,0,0,0c-4.8,0-9.5,0-14.3-0.2l0,0c-0.1,0-0.2,0-0.3,0l0,0
		C311.5,704.5,309.3,704.2,307.5,704.2"/>
	<path class="st0" d="M455.9,707L455.9,707L455.9,707L455.9,707c-0.9,0-1.7,0.2-2,0.7l0,0l0,0l0,0l0,0l0,0l0,0l0,0l0,0l0,0l0,0l0,0
		l0,0c-1.1,2.2-2.1,4.7-2.4,7.1c-0.7,3.6-2.3,6.9-2.3,10.6c-0.1,3.1-0.3,6.2-0.5,9.3l0,0l0,0c0,6.6,0.5,13,1.3,19.6
		c0.7,3.7,1.4,8.3,4.1,11.2c0.3,0.4,0.7,0.9,0.9,1.3c0.4,0.5,0.8,1,1.2,1.5l0,0c0.3,0,0.7,0.2,1.1,0.2l0,0c3,0,4.6-8.2,5.3-10.8
		c1.5-5.6,2.1-11.2,2.1-17c0-5.2,0.6-10.9-1.1-15.9c-0.9-2.8-1.7-5.6-2.4-8.5c-0.5-2.5-1.4-5.7-3.2-7.6
		C457.7,708.3,456,707.2,455.9,707L455.9,707 M457.1,745c-6.2,0-4.2-11-2-14.1c3.2-4.6,5.6-1.4,6.4,1.9
		C463,736.4,462.2,745,457.1,745L457.1,745L457.1,745z"/>
	<path class="st0" d="M498.7,712.2L498.7,712.2c-1.1,4.5-1.5,10-6.2,12.1l0,0c-2.4,0.8-1.6,4.1-1.4,6.2c0.3,6,1.4,12.2,2.7,18
		c0.7,3,0.9,5.6,3.1,7.8c0,0,0.1-0.1,0.1-0.1c4.3-2.6,5.2-12.7,5.5-16.8c0.3-4.6,0.6-9.1,0.3-13.7c-0.3-3.8-1.2-7.8-1.2-11.6
		C499.9,714.8,498.7,713.6,498.7,712.2L498.7,712.2z M498.3,731.7c-1.9,0-3.3-1.3-3.3-3.2c0.1-2.6,0.4-6.6,3.7-6.6l0,0
		C503.4,721.9,502.8,731.7,498.3,731.7"/>
	<path class="st0" d="M533.7,693L533.7,693c-2.6,0.1-7.5-0.3-9.4,1.6l0,0l0,0l0,0l0,0c-1.3,0.9-1.8,2.3-1.5,3.8l0,0l0,0
		c0,0.6,0.1,1.1,0.1,1.7c4.2,4.3-1.1,8.7-5.4,9.5l0,0l0,0l0,0l0,0l0,0c-1.7,0.4-3.5,0.9-5.2,1.2l0,0c2.5,3.2,2.3,9.9,3,14
		c0.7,3.9,1.1,7.7,1.9,11.6c0.1,0.3,0.1,0.6,0.2,0.9c0,0.2,0.1,0.5,0.1,0.7l0,0l0,0c0.6,2.5,1.9,9.3,4.8,9.7
		c0.2-0.2,0.5-0.5,0.7-0.7l0,0l0,0c4.8-3.8,9.2-15.4,9.2-21.6c0.9-6.5,1.5-13,1.6-19.6c0-2.3,1.4-9.2,0-10.6c0-0.4,0.1-1.7-0.2-2
		C533.6,693.1,533.6,693,533.7,693L533.7,693"/>
	<path class="st0" d="M559,688L559,688c-0.1,0-0.3,0-0.4,0l0,0l0,0l0,0l0,0l0,0l0,0l0,0l0,0l0,0l0,0l0,0c-3.6,0.4-7.4,1.1-11,1.8
		l0,0l0,0l0,0c-4.2-0.2-3.3,5.3-3.4,8.3c-0.2,3.4-0.4,6.8-0.4,10.3c0,5.2,1,10.1,2.7,15c1.7,5.1,3.8,9.2,7.6,13l0,0
		c3.5,0,5.3-6.1,6.3-8.6c0.1-4.5,3.5-9.5,4-14c0.5-2.1,0.8-4.4,0.8-6.6c0.5-6,0.2-12.1,0.7-18c0,0,0,0.1,0,0.1l0,0l0,0
		c-2.4,0.4-5,0-7.1-1.1C559.5,688.4,559.5,688.3,559,688L559,688L559,688L559,688"/>
	<path class="st0" d="M592.3,680.9L592.3,680.9c-1.8,0.4-3.8,0.6-5.6,1l0,0c-0.8,0.2-1.7,0.3-2.5,0.4l0,0c-0.1,0-0.2,0-0.3,0l0,0
		c-0.2,0-0.5,0.1-0.7,0.2c-0.3,0.1-0.7,0.2-1,0.2l0,0c-0.7,0.1-1.5,0.2-2.2,0.3l0,0c-0.3,0-0.7,0.1-1,0.2c0.2,1.2,0.4,2.4,0.5,3.6
		l0,0l0,0c0.2,1.2,0.4,2.5,0.4,3.7c0,0.3,0.1,0.5,0.1,0.8c1.1,7.9,0.9,14.8,3.5,22.3c0.7,1.8,3.3,11.3,6.1,11.3l0,0l0,0l0,0
		c5.3-1,5.3-14.6,5.4-17.4c0.2-5.6-0.1-11.2-0.1-16.8c0-2.5,0.7-6.5-0.2-8.6l0,0C593.9,681.9,593.1,681.4,592.3,680.9L592.3,680.9z"
		/>
	<path class="st0" d="M582.7,645c-0.9,0-1.5,0.5-2.2,1.2l0,0l0,0c-0.9,0.7-1.6,1.5-2.1,2.4c-1.9,2.5-2.6,5.7-3,8.7
		c-0.3,2.8-0.8,10.8,1.8,11.6c0.7,0.2,1.9-0.2,2.6-0.3l0,0c3.1-0.5,6.3-0.9,9.4-1.1l0,0c0.6,0,1.4-0.1,2-0.2
		c0.1-0.2,0.2-0.5,0.3-0.7c1.5-2.7,0.3-6.4-0.6-9.2l0,0l0,0C589.1,653.5,588.6,645,582.7,645"/>
	<path class="st0" d="M563.2,645.5L563.2,645.5c-0.4,0-0.9,0.1-1.3,0.1l0,0c-2.7,0.3-8.2,0.2-9.9,2.7c-0.9,1.4-1.6,2.8-1.9,4.4
		c-0.5,2.1-1.2,4.2-1.5,6.4c-0.5,4.5-1.9,8.8-1.9,13.4c1.4-0.1,2.7-0.2,4.1-0.4c2.2-0.3,6.6,0.1,8.4-1.7l0,0
		c2.4-1.5,4.6-3.3,7.7-2.7c0-0.2,0-0.4,0-0.6l0,0l0,0c0.3-4-0.4-9.1-1.1-13.2C565.3,651.1,562.7,648.1,563.2,645.5L563.2,645.5
		L563.2,645.5"/>
	<path class="st0" d="M531.1,651L531.1,651c-4.4,0.5-8.8,1.2-13.1,1.6c-2.2,0.2-4.2,0-5.4,1.3c-1.1,1.2-1,3.3-1.3,4.8l0,0l0,0
		c-0.6,3-1,5.9-1,9l0,0c8.2,0,16.8-5.4,15,7.5c-0.1,1-0.4,1.9-0.6,2.9l0,0l0,0l0,0c3.4-1.2,6.8-2.5,10.3-3.2
		c0.2-3.1,0.6-6.2,0.5-9.4c0-1.9-0.1-3.8-0.3-5.6c-0.3-2.1-0.6-4.8-1.9-6.6C533,653,531.2,651.2,531.1,651L531.1,651"/>
	<path class="st0" d="M635,695.8L635,695.8c-1.5,0.5-3,0.9-4.5,1c0.3,0.2,0.6,0.4,0.9,0.7c0.7,1,1,2.1,1,3.3c0,3.7-2.7,4.9-5.6,6
		c-1,0.4-1.6,0-2,0.8c0.1,0.4,0.3,0.9,0.4,1.3c0.2,0.2,0.3,0.5,0.3,0.7c0,0,0.1,0.1,0.1,0.1c0.4,0.6,1.5,3.2,2.1,3.2
		c0.2,0.1,0.5,0.2,0.7,0.2l0,0c0.7-0.7,1.4-2,2.1-3c0.6-0.8,0.9-1.5,1.3-2.4c0.8-1.9,0.8-3.8,1.4-5.7l0,0l0,0
		C633.9,700.4,633.3,696.3,635,695.8L635,695.8"/>
	<path class="st0" d="M652.1,676.5L652.1,676.5c0,4.5,0.2,8.9,1,13.4c1,4.5,0.9,11.3,4.8,14.1c0.9-0.7,1.5-1.7,2-2.7
		c2.5-3.4,3.8-11.4,3.7-15.2c-3.4,0.4-7.5,0.3-9.6-2.7C652.8,681.7,651.6,678.3,652.1,676.5L652.1,676.5z"/>
	<path class="st0" d="M680.7,668.5L680.7,668.5c-0.3,9.4,1.6,18.5,6.8,26.3l0,0l0,0c1.1-5.4,2.1-10.6,1-16.2l0,0l0,0
		c-1.5,0.5-3.2,0.8-4.6-0.1C680.2,676.2,681.4,671.4,680.7,668.5L680.7,668.5L680.7,668.5L680.7,668.5z"/>
</g>
</svg>
