<?xml version="1.0" encoding="utf-8"?>
<!-- Generator: Adobe Illustrator 21.0.2, SVG Export Plug-In . SVG Version: 6.00 Build 0)  -->
<svg version="1.1" id="Layer_1" xmlns="http://www.w3.org/2000/svg" xmlns:xlink="http://www.w3.org/1999/xlink" x="0px" y="0px"
	 viewBox="0 0 500 500" style="enable-background:new 0 0 500 500;" xml:space="preserve">
<g>
	<g>
		<path style="fill:#FFFFFF;stroke:#FFFFFF;stroke-width:0.75;stroke-miterlimit:10;" d="M365.2,452.5c-0.1-0.4-0.3-0.7-0.5-1
			s-0.4-0.5-0.6-0.8c-0.2-0.2-0.4-0.4-0.6-0.7c-0.4-0.5-0.9-0.9-1.3-1.3c-0.9-0.9-1.8-1.7-2.8-2.6s-2-1.7-3-2.6
			c0.1-0.1,0.3-0.3,0.4-0.5c0.4-0.9,0-2.1-0.9-2.5c-1.9-0.8-3.8-1.6-5.7-2.3c-0.9-0.8-1.8-1.5-2.7-2.2c-1.8-1.5-3.7-2.8-5.6-4.3
			c-2.1-1.7-4.3-3.4-6.4-5.1c-2-1.6-3.9-3.4-5.7-5.3c-1.4-1.5-2.7-2.9-4-4.4c-0.6-0.7-1.3-1.4-1.9-2.1s-1.2-1.5-1.8-2.2
			c-0.8-1.1-1.5-2.1-2.3-3.2s-1.4-2.3-2.1-3.4s-1.3-2.3-1.9-3.4s-1.2-2.3-1.7-3.5c-0.4-0.8-0.7-1.6-1.1-2.4s-0.8-1.7-1.2-2.5
			c-0.4-0.9-0.9-1.7-1.3-2.6c-0.4-0.7-0.8-1.5-1.1-2.3c-0.4-1.1-0.8-2.2-1.2-3.3c-0.4-1.3-0.7-2.6-1.1-3.8c-0.4-1.2-0.8-2.4-1.2-3.6
			c-0.5-1.3-0.9-2.5-1.4-3.7s-1-2.4-1.4-3.7c-0.4-1.4-0.8-2.9-1.5-4.3c-0.2-0.4-0.5-0.8-0.8-1.1c-0.1-0.2-0.5-0.4-0.6-0.5
			c-0.2-0.1-0.5-0.2-0.7-0.3h-0.1c-0.2,0-0.3-0.1-0.5-0.1c-0.1,0-0.1,0-0.2,0c-0.4,0-0.7,0.1-1.1,0.3c-0.4,0.2-0.7,0.5-1,0.7
			c-0.5,0.4-0.9,0.9-1.2,1.4c-0.5,0.6-0.9,1.2-1.2,1.8c-0.3,0.5-0.6,1.1-0.8,1.7c-0.4,0.9-0.8,1.8-1,2.8c-0.2,1.1-0.4,2.1-0.5,3.2
			c-0.1,0.8-0.1,1.7-0.2,2.5c-0.1,0.9-0.2,1.9-0.3,2.8c-0.1,0.8-0.2,1.6-0.4,2.4c-0.1,0.5-0.2,1-0.3,1.5c-0.1,0.5-0.3,0.9-0.4,1.3
			c-0.1,0.3-0.3,0.6-0.4,0.9c-0.2,0.4-0.4,0.8-0.6,1.2c-0.2,0.3-0.5,0.5-0.8,0.7c-0.4,0.3-0.9,0.6-1.3,0.9c-0.5,0.3-1.1,0.7-1.6,1
			c-0.4,0.3-0.9,0.6-1.2,1c-0.6,0.7-1,1.4-1.2,2.3c-0.3,1.2-0.1,2.3,0.1,3.5c0.1,0.6,0.4,1.2,0.6,1.7c0.2,0.6,0.4,1.2,0.7,1.7
			c0.4,1.2,0.9,2.3,1.3,3.5c0.7,2.1,1.3,4.2,2.3,6.1c0.4,0.9,1,1.7,1.4,2.6c0.2,0.4,0.4,0.8,0.6,1.2c0.1,0.1,0.2,0.3,0.2,0.4
			c-0.2,0.2-0.5,0.5-0.8,0.7c-0.4,0.4-0.9,0.8-1.3,1.3c-0.4,0.4-0.9,0.8-1.3,1.1c-0.4,0.4-0.8,0.8-1.2,1.2c-0.9,0.8-1.8,1.6-2.7,2.4
			c-1,0.8-1.9,1.6-2.9,2.4c-1,0.9-1.9,1.8-2.8,2.7c-0.9,0.9-1.8,1.7-2.8,2.5c-0.9,0.8-1.9,1.5-2.8,2.3c-1,0.9-1.9,1.7-2.8,2.7
			c-1.8,1.9-3.8,3.7-5.1,6c-0.3,0.6-0.6,1.1-0.9,1.7c-0.3,0.5-0.6,1-0.9,1.5s-0.7,1-1,1.5c-0.4,0.5-0.7,1.1-1.1,1.6
			c-0.9,1.5-1.5,3.2-2.2,4.8c-0.2,0.5-0.5,1.1-0.8,1.6s-0.6,1-0.9,1.5l-0.2-0.9c-0.2-1.2-0.5-2.5-0.7-3.7c-0.3-1.3-0.5-2.7-0.8-4
			c-0.3-1.4-0.7-2.9-1-4.3c-0.1-0.5-0.3-1-0.4-1.6v-0.1c-0.2-1.2-0.5-2.4-1-3.5c-0.2-0.4-0.5-0.8-0.9-1c-0.1-0.4-0.2-0.8-0.3-1.2
			c-0.2-0.7-0.5-1.4-0.8-2.1c-0.2-0.5-0.4-0.9-0.6-1.4c-0.2-0.5-0.5-0.9-0.7-1.4c-0.5-0.9-0.9-1.8-1.3-2.7c-0.4-1.1-0.8-2.1-1.2-3.2
			c-0.4-1.2-0.9-2.5-1.4-3.7c-0.4-1.2-0.9-2.3-1.3-3.5c-0.5-1.2-1-2.4-1.4-3.6s-0.8-2.4-1.2-3.6s-0.9-2.3-1.4-3.5
			c-1-2.4-1.4-4.9-2-7.4c-0.3-1.3-0.6-2.6-0.9-3.8c-0.3-1.4-0.6-2.7-0.9-4.1c-0.1-0.3-0.1-0.6-0.2-0.8c0.4,0.1,0.8,0,1.2-0.1
			c0.5-0.1,1-0.5,1.4-0.9c0.6-0.7,1-1.5,1.4-2.3c0.3-0.7,0.6-1.4,0.8-2.1c0.4-1.2,0.6-2.5,0.8-3.7s0.4-2.4,0.9-3.5
			c0.4-0.8,0.8-1.5,1.2-2.3c0.5-0.8,0.9-1.7,1.3-2.5c0.9-1.7,1.6-3.4,2.3-5.1c0.2-0.4,0.4-0.9,0.6-1.3c0.3-0.6,0.6-1.1,1-1.7
			c0.8-1,1.7-2.1,2.4-3.1c0.4-0.5,0.7-1,1-1.5c0.3-0.6,0.7-1.2,1-1.8c0.6-1.1,1.2-2.1,1.8-3.2c0.6-1.2,1.1-2.4,1.6-3.6
			c0.3-0.6,0.5-1.1,0.8-1.7c0.3-0.7,0.6-1.4,0.9-2.1c0.5-1.2,1-2.4,1.5-3.7c0.5-1.2,1-2.4,1.4-3.7c0.2-0.6,0.4-1.2,0.5-1.8
			c0.2-0.6,0.3-1.3,0.4-1.9c0.2-1,0.4-2,0.5-3c0.2-1.1,0.3-2.2,0.4-3.2c0.2-1.8,0.3-3.7,0.5-5.5c0-0.3,0.1-0.6,0.2-0.8
			c0.1,0,0.2-0.1,0.2-0.1c0.6-0.2,1.1-0.4,1.7-0.5s1.1-0.2,1.7-0.3c2-0.4,3.7-1.4,5.4-2.4c1.1-0.7,2.2-1.6,3.2-2.5
			c0.5-0.4,0.9-0.8,1.4-1.2c0.5-0.4,0.9-0.9,1.3-1.3c0.9-1,1.8-2.1,2.5-3.2c0.4-0.5,0.7-1,1.1-1.5c0.2-0.2,0.3-0.5,0.5-0.7
			c0.4-0.6,0.7-1.3,0.9-1.9c0.2-0.7,0.3-1.3,0.4-2c0.1-0.8,0.2-1.5,0.1-2.3c-0.1-0.5-0.1-1-0.3-1.5c-0.2-0.4-0.4-0.8-0.6-1.2
			c-0.1-0.2-0.2-0.3-0.3-0.5c-0.3-0.4-0.6-0.8-1-1.1c-0.5-0.4-1.1-0.8-1.7-1.1c-0.6-0.3-1.2-0.7-1.8-1c-0.6-0.3-1.3-0.6-1.9-0.9
			s-1.3-0.5-1.9-0.7c-1.2-0.4-2.4-0.5-3.6-0.7c-0.6-0.1-1.1-0.2-1.7-0.3c-0.6-0.1-1.3-0.3-1.9-0.5c-1-0.3-2.1-0.6-3.1-1
			c-0.5-0.2-1.1-0.5-1.5-0.8c-0.5-0.4-0.9-0.8-1.3-1.3c-0.3-0.5-0.6-0.9-1-1.4s-0.8-1-1.2-1.6c-0.3-0.4-0.6-0.8-0.9-1.1
			c-0.4-0.4-0.9-0.7-1.3-1.1c-0.6-0.4-1.4-0.9-2.1-0.9c-0.2,0-0.5,0-0.7,0.1c-0.3,0.1-0.6,0.3-0.8,0.5c-0.1,0.2-0.3,0.3-0.4,0.5
			c-0.2,0.4-0.3,0.7-0.4,1.1c-0.1,0.4-0.1,0.8-0.2,1.2c-0.1,0.9-0.1,1.8-0.1,2.7c0,0.8-0.1,1.6-0.2,2.4c-0.1,0.6-0.2,1.2-0.3,1.8
			c-0.1,0.7-0.3,1.5-0.5,2.2c-0.4,1.3-0.9,2.6-1.4,3.8c-0.4,1-0.8,1.9-1.3,2.9c-0.4,0.9-0.8,1.7-1.3,2.5c-0.1,0.2-0.1,0.5-0.3,0.7
			c-0.1,0.1-0.2,0.2-0.3,0.4c-0.3,0.2-0.5,0.3-0.9,0.4l0,0l0,0c-0.1,0.1-0.3,0.2-0.4,0.3c-0.1,0.1-0.2,0.2-0.3,0.2l0,0
			c0-0.2,0-0.4,0-0.6c-0.2-0.1-0.5-0.2-0.7-0.3c-0.3-0.2-0.4-0.4-0.6-0.7l-0.1-0.1c0-0.1-0.1-0.1-0.1-0.2l-0.1-0.1l0,0l0,0l0,0l0,0
			c-0.1-0.1-0.1-0.2-0.1-0.3l0,0l0,0l0,0l0,0l0,0l0,0V307c0-0.1-0.1-0.1-0.1-0.2c-0.1-0.1-0.1-0.1-0.2-0.2c-0.1-0.1-0.2-0.1-0.3-0.2
			l0,0l0,0l0,0l0,0l0,0l0,0l0,0c-0.2-0.1-0.3-0.2-0.5-0.3c-0.1,0-0.1-0.1-0.2-0.1c-0.1-0.1-0.3-0.2-0.4-0.4c0,0,0,0-0.1-0.1
			c-0.9-0.4-1.9-0.9-2.8-1.3h-0.1c0-0.1,0-0.2,0-0.2c-0.1-0.6-0.3-1.1-0.5-1.6c-0.2-0.4-0.4-0.8-0.6-1.2c0,0,0-0.1-0.1-0.1
			c0-0.1,0-0.3,0-0.4c0-0.4-0.1-0.9-0.1-1.3c0-0.1,0-0.2,0-0.3c0.1-0.5,0.2-1,0.3-1.5c0-0.1,0.1-0.3,0.1-0.5
			c0.1-0.8,0.3-1.6,0.4-2.4c0.4-2.4,1-4.8,1.4-7.3c0.3-1.4,0.5-2.9,0.8-4.3c0.1-0.6,0.2-1.2,0.3-1.7c0.1-0.4,0.1-0.8,0.2-1.2
			c0-0.1,0-0.1,0-0.2l0,0l0,0c0,0,0,0,0-0.1s0.1-0.3,0.1-0.5c0.1-0.8,0.2-1.6,0.3-2.5c0-0.1,0-0.3,0.1-0.4c0-0.1,0.1-0.3,0.1-0.4
			V276l0.1-0.9c0.1-0.9,0.2-1.9,0.3-2.8c0.1-1.3,0.3-2.6,0.5-3.9c0.1-1.2,0.3-2.4,0.4-3.6c0.1-1.2,0.3-2.5,0.4-3.7
			c0.1-1.4,0.2-2.7,0.3-4.1c0-0.8,0.1-1.7,0.1-2.5c0-0.6,0.1-1.1,0.1-1.7c0-1.2,0-2.4,0.1-3.5c0-0.1,0-0.1,0-0.2
			c0.1-0.5,0.3-1,0.4-1.5c0.7-2.5,1.3-5.1,2-7.6c0.2-0.6,0.3-1.1,0.5-1.7c0.2-0.6,0.3-1.3,0.6-1.9c0.4-1.3,0.9-2.6,1.3-3.9
			c0.8-2.4,1.6-4.8,2.3-7.2c0.2-0.4,0.5-0.8,0.7-1.3c1-1.7,1.8-3.5,2.7-5.3c0.4-0.3,0.9-0.6,1.3-0.9c1.1-0.8,2-1.6,3-2.5
			c0.5-0.4,0.9-0.9,1.4-1.4c0.4-0.5,0.8-0.9,1.2-1.4c0.4-0.5,0.8-1.1,1.2-1.7c0.3-0.5,0.6-1,0.9-1.5s0.5-1,0.7-1.5
			c0.1-0.2,0.3-0.4,0.4-0.6c0.5-0.7,1-1.4,1.6-2l0,0c0-0.1,0.1-0.1,0.1-0.2c0,0.1-0.1,0.1-0.1,0.2c0.7-0.9,1.4-1.7,2.2-2.5
			c0.7-0.8,1.6-1.5,2.3-2.2c0.8-0.8,1.7-1.6,2.4-2.4c0.8-0.9,1.6-1.8,2.4-2.6c1.5-1.7,3.2-3.3,4.8-5.1c0.7-0.8,1.5-1.7,2.2-2.5
			c0.3-0.4,0.7-0.8,1-1.3c0.3-0.4,0.7-0.8,1-1.2c0.7-0.9,1.4-1.9,2.1-2.9c0.3-0.4,0.6-0.9,0.9-1.4s0.6-0.9,0.9-1.4s0.6-1,0.8-1.5
			c0.2-0.5,0.4-1,0.6-1.4c0.4-1,0.8-2.1,1.2-3.1c0.2-0.6,0.4-1.2,0.6-1.8c0.2-0.5,0.3-1,0.4-1.5c0.1-0.1,0.1-0.2,0.1-0.3
			c0.2-0.4,0.5-0.9,0.6-1.3c0.2-0.6,0.4-1.2,0.5-1.8s0.2-1.1,0.3-1.7c0.1-0.7,0.2-1.4,0.2-2.1c0-0.1,0-0.3,0-0.4
			c0.1-0.2,0.1-0.4,0.2-0.6c0.1-0.3,0.2-0.6,0.3-0.9c0-0.1,0-0.3,0-0.4c0-0.2-0.1-0.4-0.2-0.6c-0.1-0.2-0.2-0.3-0.4-0.4l0,0
			c0.1-0.5,0.3-1,0.4-1.5s0.2-1.1,0.3-1.6c0.2-1.2,0.4-2.4,0.4-3.6c0.1-1.2,0.1-2.3,0.1-3.5c0-0.6,0.1-1.1,0.1-1.7
			c0-0.5,0.1-1.1,0.1-1.6c0.1-1.2,0.1-2.3,0.1-3.5c0-0.2,0-0.4,0-0.5c0-0.2,0-0.4-0.1-0.6c-0.1-0.2-0.1-0.4-0.3-0.5
			c0-0.1,0-0.2,0-0.2c0.1-0.9,0.1-1.8,0.2-2.6c0-0.9,0.1-1.9,0.1-2.8c0.1-1,0.2-2,0.2-2.9c0-0.3,0-0.5,0-0.8s-0.1-0.6-0.2-0.8v-0.1
			c0-0.1,0.1-0.2,0.1-0.3s0.1-0.2,0.1-0.3c0.1-0.3,0.1-0.6,0-0.9c-0.1-0.3-0.1-0.6-0.2-0.9v-0.1c0-0.1,0-0.1,0.1-0.2
			c0.1-0.1,0.1-0.3,0.2-0.4c0,0,0-0.1,0.1-0.1c0.1-0.1,0.1-0.2,0.2-0.2c0.1-0.1,0.3-0.2,0.4-0.3s0.3-0.1,0.4-0.2
			c0.2-0.1,0.4-0.2,0.6-0.4c0.3-0.2,0.5-0.5,0.6-0.8c0,0,0,0,0.1,0c0.3-0.1,0.6-0.3,0.9-0.4c0.5-0.3,1-0.6,1.5-0.9
			c0.4-0.3,0.9-0.6,1.3-0.8c0.5-0.3,0.9-0.6,1.4-0.8c0.4-0.2,0.9-0.5,1.3-0.7c0.7-0.4,1.4-0.8,2-1.4c0.4-0.5,0.8-1,1.2-1.5
			c0.3-0.4,0.6-0.8,0.9-1.2c0.6-0.7,1.1-1.4,1.7-2.2c0.1-0.2,0.2-0.3,0.4-0.5c0.1-0.2,0.2-0.3,0.3-0.5c0.1-0.1,0.1-0.2,0.2-0.3
			c0.1-0.2,0.2-0.4,0.2-0.6c0.2-0.6,0.2-1.2-0.2-1.7c-0.2-0.2-0.6-0.4-0.9-0.4c-0.2,0-0.4,0.1-0.6,0.2s-0.3,0.2-0.4,0.3
			c-0.3,0.3-0.5,0.6-0.7,0.9c-0.3,0.4-0.6,0.8-0.8,1.1c-0.4,0.6-0.8,1.3-1.3,1.9c-0.1,0.2-0.3,0.4-0.5,0.6s-0.4,0.4-0.6,0.6
			c-0.5,0.3-1,0.6-1.5,0.8c-0.4,0.2-0.9,0.4-1.3,0.6c-0.3,0.1-0.6,0.2-0.9,0.3c-0.4,0.1-0.7,0.1-1.1,0.2c-0.7,0.1-1.4,0.1-2,0.1
			c-0.3,0-0.7-0.1-1-0.1s-0.7-0.1-1-0.1c-0.7,0-1.3-0.2-2-0.2c-0.1,0-0.2,0-0.2,0c0-0.8-0.1-1.6-0.1-2.4c0-0.3-0.1-0.7-0.1-1
			c0-0.1,0-0.1,0-0.2c0-0.2,0-0.3,0-0.5s0-0.3,0-0.5c0-0.5-0.1-0.9-0.2-1.4c0-0.2-0.1-0.4-0.1-0.6c0-0.1,0-0.2,0-0.4
			c0-0.1,0-0.2,0-0.3c0-0.2,0-0.5,0-0.7c0-0.6-0.1-1.2-0.1-1.7c0-0.6,0.1-1.2,0.1-1.8c0-0.6-0.1-1.2-0.2-1.8c0-0.3-0.1-0.5-0.1-0.8
			c-0.1-0.4-0.2-0.8-0.2-1.2c-0.1-0.9-0.2-1.8-0.3-2.7v0.1c0-0.5-0.1-0.9-0.2-1.3c0-0.3-0.1-0.5-0.1-0.8s-0.1-0.6-0.1-0.9
			c-0.1-0.4-0.1-0.7-0.1-1.1c0-0.3-0.1-0.6-0.1-1c0-0.3-0.1-0.7-0.1-1c0-0.2-0.1-0.4-0.1-0.6c0-0.5,0-0.9-0.1-1.4
			c0-0.8-0.1-1.6-0.2-2.4c-0.1-0.5-0.2-1-0.2-1.6c0,0.1,0,0.2,0,0.3c0-0.1,0-0.2,0-0.4c0-0.4,0-0.7,0-1.1c0-0.3,0-0.6,0.1-0.9
			c0.1-0.2,0.1-0.4,0.2-0.6c0.2-0.5,0.5-0.9,0.9-1.3c0.2-0.2,0.5-0.4,0.7-0.7c0.2-0.2,0.4-0.3,0.6-0.5c0,0,0.1,0,0.1-0.1
			c0.6-0.3,1.2-0.6,1.8-0.9c0.1,0,0.3,0,0.4-0.1c0.5-0.1,1.1-0.3,1.6-0.4c0.1,0,0.1-0.1,0.2-0.1c0.2,0.2,0.3,0.4,0.5,0.6
			c0.7,0.9,1.5,1.7,2.3,2.5c1.7,1.7,3.4,3.4,5.1,5c0.6,0.5,1.2,1,1.8,1.4c0.3,0.2,0.6,0.3,0.9,0.5s0.6,0.3,1,0.5
			c0.6,0.3,1.2,0.7,1.8,1c0.3,0.2,0.6,0.3,0.8,0.5c0.3,0.2,0.5,0.4,0.8,0.5c0.9,0.7,1.7,1.5,2.6,2.2c0.9,0.8,1.7,1.5,2.6,2.3
			c0.5,0.4,1,0.8,1.5,1.2c0.5,0.3,0.9,0.7,1.4,0.9c0.9,0.5,1.9,1.1,2.9,1.5c0.3,0.1,0.6,0.2,0.9,0.4c0.3,0.2,0.7,0.4,1,0.5
			c0.6,0.3,1.1,0.7,1.7,1.1c0.6,0.5,1.2,1,1.8,1.5c0.6,0.6,1.3,1,2,1.5c0.5,0.4,0.9,0.8,1.4,1.1c0.4,0.3,0.8,0.4,1.2,0.6
			c0.2,0.1,0.5,0.2,0.7,0.2c0.4,0.1,0.8,0.2,1.1,0.2c0.2,0,0.4,0,0.6,0s0.4-0.1,0.6-0.2s0.4-0.3,0.5-0.5s0.2-0.4,0.3-0.6
			c0-0.1,0.1-0.3,0.1-0.5s0.1-0.4,0.1-0.7c0-0.4-0.1-0.8-0.2-1.1c-0.1-0.4-0.2-0.8-0.3-1.1c-0.6-2.2-1.2-4.5-1.9-6.7
			c-0.2-0.6-0.4-1.1-0.7-1.7c-0.2-0.5-0.5-0.9-0.7-1.4c-0.5-1-0.9-2-1.4-3c-0.3-0.5-0.6-1-1-1.4c-0.3-0.4-0.6-0.9-0.9-1.4
			s-0.6-0.9-0.9-1.3c-0.3-0.5-0.6-0.9-0.9-1.5c-0.4-0.7-0.7-1.5-1-2.2s-0.6-1.4-1-2.1c-0.2-0.5-0.4-1-0.7-1.5
			c-0.1-0.3-0.3-0.6-0.4-1s-0.2-0.8-0.3-1.2c-0.1-0.7-0.2-1.4-0.3-2.1c-0.1-0.9-0.2-1.9-0.3-2.8c-0.1-1.1-0.2-2.2-0.4-3.3
			c-0.1-1-0.3-1.9-0.6-2.9c-0.1-0.3-0.2-0.7-0.4-1c-0.2-0.4-0.6-0.7-1-0.9c-0.2-0.1-0.4-0.3-0.6-0.4s-0.3-0.2-0.5-0.3l-0.1-0.1v-0.1
			c0-0.1,0-0.3,0-0.4c0.1-0.5,0.2-1,0.4-1.5c0.2-0.6,0.3-1.1,0.4-1.7c0.1-0.6,0.2-1.1,0.4-1.7c0.1-0.6,0.2-1.1,0.3-1.7
			c0.2-1.2,0.3-2.5,0.5-3.7c0.1-1.2,0.2-2.3,0.2-3.5c0-1.1,0-2.3,0-3.4c0-0.6-0.1-1.1-0.1-1.7c-0.1-0.6-0.2-1.2-0.4-1.8
			c-0.1-0.2-0.1-0.5-0.2-0.7c-0.1-0.3-0.2-0.6-0.3-0.8c-0.2-0.5-0.3-1-0.5-1.5c-0.1-0.2-0.1-0.3-0.2-0.5c0-0.1-0.1-0.1-0.1-0.2
			c-0.1-0.1-0.2-0.2-0.3-0.3L321,40c-0.1-0.1-0.3-0.2-0.5-0.3s-0.3-0.1-0.5-0.1l0,0c-0.2,0-0.5,0.1-0.6,0.2
			c-0.2,0.1-0.3,0.2-0.4,0.4s-0.2,0.3-0.3,0.5c-0.1,0.2-0.1,0.3-0.2,0.5c-0.2,0.5-0.4,1-0.5,1.5c-0.2,0.6-0.4,1.3-0.6,1.9
			c-0.2,0.7-0.5,1.3-0.7,2c-0.6,1.4-1.2,2.7-1.7,4.1c-0.2,0.6-0.5,1.3-0.7,1.9c-0.2,0.7-0.5,1.3-0.7,2c-0.3,0.7-0.7,1.4-1.1,2.2
			c-0.4,0.7-0.6,1.5-1.1,2.1c-0.2,0.2-0.4,0.4-0.7,0.6c-0.2,0.2-0.4,0.3-0.7,0.4c-0.3,0.1-0.7,0.2-1,0.2c-0.5,0.1-0.9,0.1-1.4,0.2
			c-0.4,0.1-0.8,0.2-1.2,0.4c-0.3,0.1-0.6,0.3-0.9,0.5c-0.2,0.2-0.3,0.3-0.4,0.5c-0.2,0.3-0.3,0.6-0.3,0.8c0,0.1,0,0.3-0.1,0.4
			c0,0.3-0.1,0.6-0.1,0.9c0,0.4,0.1,0.7,0.1,1.1c0,0.1-0.1,0.2-0.1,0.3c-0.1,0.2-0.2,0.3-0.3,0.5c-0.3,0.4-0.6,0.7-1,1
			c-0.1,0-0.1,0.1-0.2,0.1c0,0,0,0-0.1,0l0,0c-0.1,0-0.2-0.1-0.3-0.1c-0.2-0.1-0.5-0.3-0.7-0.4c-0.5-0.3-1-0.5-1.5-0.6
			c-0.7-0.1-1.4-0.2-2.1-0.2c-0.3,0-0.6,0-0.9,0.1c-0.3,0-0.6,0.1-0.9,0.1c-0.4,0.1-0.7,0.3-1,0.6c-0.1,0.1-0.2,0.2-0.4,0.4
			c-0.1,0.1-0.2,0.2-0.3,0.3c-0.2,0.2-0.4,0.4-0.7,0.6c-0.2,0.1-0.4,0.3-0.6,0.4c-0.3,0.2-0.7,0.4-1,0.6c-0.7,0.3-1.5,0.4-2.2,0.6
			c-0.4,0.1-0.7,0.2-1,0.3c-0.4,0.1-0.7,0.3-1.1,0.4c-0.7,0.2-1.3,0.4-2,0.5c-0.1,0-0.2,0-0.2,0v-0.1c-0.5-1.2-0.9-2.5-1.3-3.7
			c0.1,0,0.2,0,0.2,0c0.3-0.1,0.5-0.3,0.7-0.5c0.2-0.3,0.2-0.5,0.1-0.8c0-0.2-0.1-0.4-0.2-0.6c-0.2-0.5-0.3-1.1-0.5-1.6
			c-0.2-0.6-0.3-1.3-0.4-1.9c-0.1-0.6-0.3-1.2-0.5-1.8c-0.1-0.3-0.2-0.6-0.2-0.9c0-0.2-0.1-0.4-0.1-0.7s0-0.5,0-0.8s0-0.7-0.1-1
			c0-0.4,0-0.8,0-1.2c0.3-0.4,0.4-0.9,0.4-1.4c0-0.3-0.1-0.5-0.2-0.8c0-0.5,0.1-1.1,0.1-1.6c0-1.1,0-2.2-0.1-3.3
			c0-1.2-0.1-2.3-0.2-3.5c-0.1-0.7-0.1-1.4-0.3-2c-0.1-0.6-0.2-1.1-0.4-1.7c-0.3-1.1-0.6-2.2-1-3.3c-0.2-0.7-0.5-1.4-0.7-2.2
			c0.3-0.3,0.4-0.6,0.3-1c0-0.1,0-0.2-0.1-0.2c0-0.1,0-0.3-0.1-0.4c0.2,0.1,0.3,0.2,0.5,0.2c0.3,0,0.6-0.1,0.8-0.3
			c0.3-0.3,0.6-0.6,0.9-0.9c0.3-0.3,0.5-0.6,0.7-0.9c0.1-0.2,0.3-0.3,0.4-0.5c0.2-0.2,0.5-0.4,0.7-0.6c0.5-0.4,1-1,1.3-1.7
			c0.3-0.6,0.5-1.1,0.7-1.8c0.2-0.5,0.2-1.1,0.3-1.6c0.2-1.1,0.4-2.2,0.7-3.3c0.1-0.6,0.2-1.2,0.4-1.8c0.2-0.9,0.3-1.7,0.4-2.6
			c0-1.2,0-2.4,0-3.6c0-1.4-0.1-2.9-0.2-4.3c0-0.3-0.1-0.6-0.3-0.8c-0.2-0.2-0.5-0.3-0.8-0.3c-0.6,0-1.1,0.5-1.1,1.1
			c-0.4,0-0.7,0.2-0.9,0.5c-1.2,2.4-2.4,4.9-3.6,7.4c-0.5,1.1-1,2.2-1.6,3.3c-0.2,0.5-0.4,0.9-0.6,1.4c-0.3,0.6-0.5,1.2-0.8,1.8
			c-0.5,1.3-0.8,2.8-1.2,4.1c-0.6-0.7-1.1-1.3-1.7-2c-0.2-0.2-0.5-0.3-0.7-0.3c-0.3,0-0.6,0.1-0.8,0.3c-0.2,0.2-0.3,0.5-0.3,0.8
			s0.1,0.6,0.3,0.8c0.9,1,1.7,2,2.6,3l0,0c0.1,0.2,0.2,0.4,0.4,0.6l0,0c-0.1,0.3-0.1,0.5,0.1,0.8c0.1,0.1,0.1,0.2,0.2,0.3
			s0.2,0.2,0.3,0.2c0.1,0.3,0.1,0.6,0.2,0.9c0.1,0.5,0.2,0.9,0.3,1.4c0.2,0.9,0.5,1.7,0.8,2.6c0.3,0.9,0.6,1.8,0.8,2.8
			c0.1,0.5,0.3,0.9,0.4,1.4c0.1,0.4,0.2,0.9,0.3,1.3c0.3,2.2,0.3,4.5,0.4,6.7c0,0.5,0,1,0,1.5l0,0c-0.2-0.3-0.5-0.5-0.8-0.7
			s-0.6-0.3-0.9-0.4c-0.2-0.1-0.4-0.1-0.6-0.2c-0.1,0-0.2,0-0.3,0c-0.1,0-0.2,0-0.2,0l-0.1-0.1c-0.4-0.2-0.8-0.4-1.2-0.5
			c0.2-0.5,0.4-0.9,0.7-1.4c0.1-0.3,0.2-0.5,0.1-0.8c-0.1-0.2-0.2-0.5-0.4-0.6c0.1-0.2,0.2-0.5,0.3-0.7c0.1-0.2,0.2-0.5,0.3-0.7
			c0.2-0.4,0.2-1-0.1-1.4c-0.1-0.1-0.1-0.1-0.2-0.2c-0.1-0.1-0.2-0.2-0.3-0.2c0,0-0.1,0-0.1-0.1c-0.1-0.1-0.3-0.1-0.4-0.2
			c-0.1,0-0.3-0.1-0.4-0.1c-0.3-0.1-0.5-0.2-0.8-0.2c-0.5-0.2-1.1-0.3-1.6-0.4c-0.5-0.1-1-0.2-1.6-0.3c-0.7-0.1-1.3-0.2-2-0.2
			c-0.5,0-1.1,0-1.6,0c-0.8,0-1.7,0-2.5-0.1c-0.3,0-0.5-0.1-0.8-0.2c-0.3-0.1-0.5-0.2-0.8-0.3c-0.4-0.2-0.8-0.4-1.2-0.7
			c-0.4-0.3-0.7-0.6-1-0.9c-0.4-0.4-0.8-0.7-1.2-1.1c-0.4-0.4-0.8-0.8-1.3-1.2s-1-0.8-1.5-1.2c-0.9-0.7-1.8-1.3-2.7-1.9
			c-0.9-0.6-1.9-1.1-2.9-1.6s-2-1-3-1.5c-0.3-0.1-0.6-0.3-0.9-0.4c-0.4-0.1-0.8-0.2-1.2-0.3c-0.1,0-0.2,0-0.3,0
			c-0.3,0-0.5,0-0.8,0.1c-0.2,0-0.4,0.2-0.6,0.3c-0.2,0.1-0.4,0.3-0.5,0.5s-0.2,0.3-0.2,0.5c-0.1,0.2-0.1,0.5,0,0.7
			c0,0.3,0.1,0.5,0.1,0.8c0.1,0.5,0.2,1,0.3,1.5c0.2,0.5,0.3,1,0.5,1.5c0.4,1.1,0.8,2.2,1.4,3.2c0.4,0.6,0.8,1.2,1.3,1.7
			s1.1,0.8,1.6,1.2c0.4,0.3,0.8,0.7,1.2,1c0.5,0.4,0.9,0.8,1.4,1.1c0.1,0.1,0.3,0.2,0.4,0.3c-0.2,0.1-0.4,0.2-0.6,0.3
			c-0.4,0.3-0.7,0.7-0.8,1.1c-0.1,0.3-0.1,0.5-0.2,0.8c-0.1,0.5-0.1,0.9-0.2,1.4c-0.1,0.5-0.1,1-0.2,1.4c-0.1,0.6-0.3,1.1-0.4,1.7
			c-0.2,1.1-0.5,2.3-0.7,3.4c-0.5,2.1-0.9,4.3-1.5,6.4c-0.3,1.2-0.6,2.3-0.9,3.5c-0.3,1.1-0.5,2.2-0.8,3.3c-0.3,1.1-0.6,2.2-0.8,3.3
			c-0.3,1.1-0.6,2.3-0.9,3.4c-0.3,1-0.6,2.1-0.8,3.1c-0.1,0.6-0.2,1.2-0.2,1.9c0,0.3,0,0.5,0,0.8s0,0.6,0.1,0.9
			c0,0.2,0.1,0.3,0.1,0.5c0.1,0.2,0.2,0.6,0.4,0.7l0.1,0.1c0.1,0.1,0.3,0.2,0.5,0.3c0.1,0,0.1,0,0.2,0.1c0.2,0,0.3,0,0.5,0.1h0.2
			c0.2,0,0.3,0,0.5-0.1c0.1,0,0.2-0.1,0.3-0.1c0.3-0.1,0.7-0.3,1-0.4c0,0,0.1,0,0.1-0.1c0.3,0.1,0.6,0,0.9-0.2
			c0.2-0.1,0.3-0.2,0.5-0.3c0.3-0.2,0.5-0.5,0.7-0.9v-0.1c0.2-0.2,0.3-0.3,0.5-0.5c0.4-0.4,0.9-0.7,1.3-1.1c0.4-0.4,0.8-0.7,1.1-1.1
			c0.4-0.4,0.7-0.8,1.1-1.2c0.7-0.9,1.4-1.9,2.1-2.8c0.5-0.7,1.1-1.4,1.7-2c0.3-0.3,0.7-0.7,1-1c0.3-0.4,0.6-0.7,0.9-1.1
			c0-0.1,0.1-0.1,0.1-0.2c0.5-0.7,1.1-1.5,1.6-2.2c0.3-0.4,0.7-0.8,1-1.2c0.3-0.3,0.6-0.7,0.9-1.1s0.6-0.7,0.9-1.1s0.7-0.9,1-1.3
			c0.6-0.9,1-1.8,1.5-2.7c0.2-0.4,0.5-0.8,0.8-1.2c0.1-0.2,0.3-0.4,0.4-0.6c0.1-0.2,0.2-0.4,0.4-0.5c0.4-0.5,0.9-1.1,1.4-1.5
			c0.3-0.2,0.5-0.4,0.8-0.5c0.3-0.2,0.6-0.4,1-0.6c0.3-0.2,0.7-0.5,1-0.7c0.5-0.3,1-0.6,1.4-1.1c0.4-0.4,0.7-0.9,0.9-1.4
			c0.1-0.1,0.1-0.3,0.2-0.4c0.1,0,0.2,0,0.3,0h0.1c0.1,0,0.2,0.1,0.4,0.1c0.2,0.1,0.5,0.2,0.7,0.3s0.5,0.1,0.8,0c0,0,0,0,0.1,0
			c0.2,0.1,0.5,0.2,0.7,0.3c0.1,0,0.2,0.1,0.2,0.1c0,0.1-0.1,0.1-0.1,0.2c0,0.3,0.1,0.6,0.2,0.8c0.2,0.4,0.4,0.8,0.7,1.2
			c0.1,0.2,0.2,0.4,0.3,0.6c0.1,0.2,0.2,0.5,0.4,0.6c0.1,0.1,0.1,0.1,0.2,0.1c0,0.1,0,0.2,0,0.3s0,0.1,0,0.2c0,0.4,0,0.8,0.1,1.2
			c0,0,0,0,0,0.1c0,0.5,0,0.9,0.1,1.4c0,0.3,0.2,0.6,0.4,0.8c0,0.1,0,0.2,0.1,0.3c0.1,0.4,0.2,0.8,0.3,1.1c0.1,0.4,0.2,0.7,0.2,1.1
			c0.1,0.4,0.2,0.8,0.3,1.2c0.1,0.3,0.2,0.7,0.3,1c0.1,0.2,0.1,0.4,0.2,0.6c0,0.1,0.1,0.2,0.1,0.3c-0.1,0-0.1,0-0.2,0
			c-0.6,0.2-1,0.8-0.8,1.3c0.2,0.6,0.4,1.2,0.6,1.9c-0.5,0-1.1,0-1.6,0c-0.4,0-0.8,0.1-1.2,0.2c-0.2,0.1-0.4,0.1-0.6,0.2
			c-0.3,0.1-0.5,0.2-0.8,0.4c-0.4,0.2-0.7,0.5-0.9,0.8c-0.3,0.5-0.2,1.3,0.3,1.7c0.3,0.3,0.7,0.4,1,0.6c0.4,0.2,0.9,0.4,1.3,0.5
			c0.8,0.3,1.5,0.6,2.2,0.9c0.4,0.2,0.8,0.4,1.2,0.5c0,0.1,0.1,0.3,0.1,0.4s0,0.2,0,0.3c0,0.1,0.1,0.3,0.1,0.4s0.1,0.1,0.1,0.2
			c0.1,0.2,0.2,0.4,0.2,0.5s0.1,0.3,0.1,0.4s0.1,0.2,0.2,0.3c0,0.1,0,0.1,0,0.2c0,0.2,0.1,0.4,0.2,0.6s0.2,0.4,0.3,0.6
			c0.1,0.2,0.2,0.4,0.3,0.6c0,0.1,0.1,0.2,0.1,0.3c0.2,0.6,0.4,1.1,0.6,1.7l0,0c0.1,0.3,0.2,0.7,0.3,1l0,0c-0.2,0.3-0.2,0.6-0.2,0.9
			c0,0.4,0.1,0.7,0.1,1.1c0,0.1,0,0.2,0.1,0.3c0,0.2-0.1,0.4-0.1,0.5c0,0.4,0.1,0.7,0.2,1c0,0,0,0,0-0.1c0.1,0.3,0.2,0.5,0.2,0.8
			c0.2,0.5,0.5,0.9,0.9,1.2c0.1,0.1,0.2,0.1,0.3,0.2c0.1,0.5,0.2,1,0.3,1.4c0.1,0.5,0.2,1,0.2,1.5c0.1,0.7,0.1,1.4,0.2,2.1
			c0,0.1,0,0.1,0,0.2c0,0.6,0,1.2,0.1,1.8c0,0.2,0,0.4,0.1,0.6c0,0.1,0,0.2,0,0.2c0.1,0.6,0.1,1.1,0.1,1.7s0.1,1.2,0.1,1.8
			c0.1,0.6,0.1,1.1,0.2,1.7c0.1,1.2,0.2,2.3,0.3,3.5c0.1,0.5,0.1,1.1,0.2,1.6c0.1,0.9,0.2,1.7,0.2,2.6c0.1,0.9,0.1,1.9,0.3,2.8
			c0.1,1,0.2,2.1,0.3,3.1c0,0,0,0,0,0.1c0,0.2,0,0.4-0.1,0.7c-0.1,0.2-0.1,0.4-0.1,0.7c0,0.2,0,0.4,0,0.6v0.1c0,0.2,0,0.4,0,0.6
			c0,0.1,0,0.2,0,0.4c0,0.2,0,0.4,0,0.7c-0.3-0.1-0.5-0.1-0.8-0.2c-0.2-0.1-0.4-0.2-0.5-0.3c-0.2-0.1-0.3-0.2-0.5-0.4
			c-0.5-0.4-0.9-0.8-1.3-1.2c-0.1-0.1-0.2-0.3-0.3-0.4c-0.1-0.2-0.2-0.3-0.3-0.5c-0.1-0.3-0.2-0.6-0.3-0.9c-0.1-0.3-0.2-0.7-0.3-1
			c-0.1-0.2-0.2-0.5-0.4-0.7c-0.1-0.1-0.2-0.1-0.3-0.2c-0.2-0.1-0.4-0.1-0.6-0.1c-0.3,0-0.7,0.1-0.9,0.4c-0.2-0.2-0.4-0.5-0.6-0.7
			c-0.5-0.6-1-1.1-1.6-1.5c-0.3-0.2-0.6-0.5-0.9-0.7s-0.6-0.5-0.9-0.8c-0.6-0.5-1.3-1-1.9-1.5c-0.5-0.4-0.9-0.8-1.4-1.2
			c-0.5-0.5-1.1-0.9-1.6-1.5c-0.4-0.6-0.8-1.3-1.2-2c-0.4-0.7-0.9-1.5-1.3-2.3c-0.2-0.3-0.6-0.5-1-0.5c-0.1,0-0.1,0-0.2,0
			c-0.1-0.2-0.2-0.3-0.4-0.4c-0.2-0.1-0.4-0.1-0.6-0.1c-0.1,0-0.2,0-0.3,0c-0.3,0.1-0.5,0.3-0.7,0.5c-0.1,0.2-0.2,0.6-0.1,0.8
			c0.4,1.2,0.8,2.4,1.2,3.6c0.2,0.6,0.4,1.2,0.6,1.8c0.2,0.5,0.5,1,0.7,1.5c0.5,1,0.9,2.1,1.5,3c0.3,0.5,0.7,1.1,1.1,1.5
			c0.3,0.4,0.7,0.7,1.1,1.1c0.2,0.2,0.4,0.4,0.5,0.6c0.6,0.9,1.2,1.9,1.7,2.9c0.3,0.5,0.6,1,0.9,1.5s0.7,1,1.1,1.4
			c0.3,0.5,0.7,0.9,1.1,1.3s1,0.7,1.5,1c0.4,0.2,0.7,0.5,1.1,0.7c0.3,0.2,0.7,0.4,1,0.6c0.1,0.1,0.2,0.2,0.3,0.3
			c0.1,0.2,0.3,0.4,0.4,0.5c-0.1,0.1-0.2,0.1-0.3,0.2c-0.4,0.4-0.4,1.1,0,1.6c0.5,0.5,0.9,0.9,1.4,1.4c0.1,0.1,0.2,0.3,0.4,0.4
			c0,0.1,0,0.1,0,0.2c0,0.2,0,0.3,0.1,0.5v0.1c0,0.2,0.1,0.4,0.2,0.6c0.1,0.2,0.2,0.4,0.3,0.5c0,0.1,0,0.2,0.1,0.3
			c0,0.1,0,0.1,0,0.2c0,0.2,0,0.4,0.1,0.7c0.1,0.2,0.1,0.4,0.2,0.6c0,0.2,0.1,0.4,0.1,0.6c-0.1,0.2-0.1,0.4,0,0.6
			c0,0.2,0.2,0.4,0.3,0.6c0,0.2,0,0.5,0.1,0.7c0.2,0.3,0.4,0.6,0.5,1c0.2,0.5,0.3,0.9,0.5,1.4c0.2,0.6,0.4,1.1,0.4,1.8
			c0.3,2.3,0.5,4.5,0.5,6.8c0,0.6,0,1.3,0,1.9c0,0.6,0,1.2-0.1,1.9c0,1.1-0.1,2.3-0.1,3.4c0,0.4-0.1,0.8-0.1,1.2
			c-0.3,2.2-0.8,4.3-1.3,6.4c-0.5,2.2-1,4.5-1.6,6.7c-0.2,0.6-0.3,1.2-0.5,1.8s-0.4,1.2-0.7,1.8c-0.4,1-0.9,1.9-1.3,2.8
			c-0.5,1-1.1,1.9-1.7,2.8c-0.3,0.5-0.6,1-0.9,1.5s-0.6,1-0.9,1.5c-0.6,1-1.3,1.9-1.9,2.9c0,0,0,0.1-0.1,0.1
			c-0.2,0.3-0.4,0.6-0.7,0.9c-0.1,0.2-0.3,0.3-0.4,0.5c-0.2,0.2-0.4,0.5-0.6,0.7c-0.3,0.3-0.5,0.6-0.8,0.9c-0.2,0.2-0.4,0.4-0.5,0.6
			c-0.1,0.2-0.2,0.4-0.4,0.6c-0.1,0.2-0.3,0.3-0.4,0.5s-0.3,0.4-0.4,0.5c-0.3,0.3-0.5,0.6-0.8,0.9c-0.3,0.3-0.5,0.7-0.8,1
			c-0.2,0.2-0.3,0.4-0.5,0.5c-0.4,0.4-0.8,0.7-1.2,1.1c-0.2,0.2-0.5,0.5-0.7,0.7s-0.4,0.5-0.7,0.7c-0.3,0.4-0.7,0.7-1,1
			c-0.4,0.4-0.8,0.8-1.2,1.2c-0.5,0.5-0.9,1-1.3,1.5c-0.3,0.4-0.6,0.8-0.9,1.2c-0.4,0.4-0.9,0.8-1.3,1.3c-0.7,0.6-1.4,1.2-2.2,1.7
			c-0.3,0.2-0.7,0.4-1,0.7c-0.4,0.3-0.7,0.6-1,0.9c-0.4,0.4-0.7,0.7-1.1,1.1c-0.2,0.2-0.4,0.5-0.6,0.7c-0.4,0.4-0.8,0.8-1.2,1.1
			c-0.3,0.3-0.7,0.5-1.1,0.8l0,0l0,0c-0.1,0-0.1,0-0.2,0c-0.3,0.1-0.6,0.2-0.8,0.5c-0.1,0.2-0.3,0.4-0.4,0.5
			c-0.2,0.2-0.4,0.3-0.6,0.5c-0.3,0.2-0.6,0.4-0.8,0.6c-0.3,0.2-0.6,0.3-0.8,0.5c-0.4,0.2-0.8,0.4-1.2,0.5c-0.7,0.3-1.4,0.6-2.1,0.9
			c-0.3,0.1-0.6,0.1-0.9,0.2c-0.4,0-0.8,0-1.2,0c-0.3,0-0.7,0-1-0.1c-0.1,0-0.3-0.1-0.4-0.1c-0.2,0-0.3-0.1-0.5-0.1
			c-0.1,0-0.3-0.1-0.4-0.2c-0.1-0.1-0.2-0.2-0.4-0.3c-0.5-0.4-1.1-0.8-1.7-1.2c0,0-0.1,0-0.1-0.1c0,0-0.1,0-0.1-0.1
			c0,0-0.1-0.1-0.2-0.1c-0.1-0.1-0.2-0.1-0.3-0.2c0.3-0.2,0.7-0.3,1.1-0.5c0.5-0.2,0.9-0.4,1.4-0.6c0.2-0.1,0.4-0.2,0.6-0.4
			c0.4-0.4,0.8-1,0.8-1.6c0-0.4-0.1-0.8-0.3-1.2c-0.3-0.4-0.6-0.6-0.9-0.9c-0.3-0.3-0.7-0.5-0.9-0.9c-0.4-0.4-0.8-0.9-1.1-1.3
			c-0.7-0.9-1.4-1.9-2.2-2.7c-0.9-0.9-1.8-1.9-2.7-2.8c-1.1-1.1-2.1-2.1-3.2-3.2c0,0-0.1,0-0.1-0.1c0.2-0.4,0.2-0.8,0.1-1.2
			c-0.1-0.5-0.4-0.9-0.9-1.1c-0.5-0.3-0.9-0.3-1.5-0.2c-1.2,0.2-2.3,0.4-3.5,0.8c-0.6,0.2-1.2,0.4-1.8,0.6c-0.5,0.2-1,0.4-1.6,0.7
			c-0.8,0.3-1.6,0.5-2.4,0.6c-0.3,0-0.7,0.1-1,0.1s-0.7,0-1,0c-0.4-0.1-0.7-0.2-1.1-0.3c-0.1,0-0.1-0.1-0.2-0.1
			c-0.2-0.2-0.3-0.5-0.4-0.7c-0.4-1.1-0.7-2.3-0.9-3.4c-0.2-1.2-0.4-2.5-0.7-3.7c-0.2-0.7-0.5-1.4-0.9-2c-0.3-0.7-0.7-1.3-1.2-1.8
			c-0.4-0.5-0.8-0.9-1.2-1.3c-0.4-0.4-0.8-0.9-1.1-1.3c-0.9-1.1-2.1-2-3.2-2.9c-1.2-1-2.4-1.9-3.6-2.9c0.1,0.1,0.3,0.2,0.4,0.3
			c-0.4-0.3-0.8-0.6-1.3-1c-2-1.5-3.9-3.1-5.7-4.8c-0.6-0.5-1.1-1-1.7-1.5c-0.5-0.4-1-0.9-1.5-1.3c-0.2-0.2-0.5-0.2-0.7-0.3
			c-0.1,0-0.3-0.1-0.5-0.1s-0.4,0-0.6,0.1c-0.9,0.2-1.5,1.1-1.5,2c0,0.6,0.2,1.1,0.3,1.6c0.1,0.3,0.2,0.6,0.2,0.9
			c0.2,0.6,0.3,1.3,0.5,1.9c0.2,0.9,0.4,1.8,0.6,2.7c0.2,1,0.3,2,0.4,3c0.3,1.9,0.7,3.9,1,5.8l0,0c0,0.1,0,0.1,0,0.2
			c0,0.1,0,0.2,0,0.2c0,0.1,0,0.2,0,0.3s0,0.2,0.1,0.3l0,0c0,0.1,0,0.1,0,0.2c0.1,1,0.3,2,0.3,3c0.1,1.3,0.1,2.5,0.1,3.8
			c0,1.1,0.1,2.2-0.1,3.3c-0.1,1-0.2,2.1-0.4,3.1c-0.2,1.2-0.4,2.4-0.7,3.6c-0.3,1.2-0.5,2.4-0.8,3.6c-0.1,0.6-0.3,1.2-0.4,1.8
			c-0.2,0.6-0.4,1.3-0.6,1.9c-0.4,1.2-0.8,2.4-1.1,3.5c-0.4,1.3-0.8,2.7-1.3,4c-0.4,0.9-0.9,1.7-1.4,2.6c-0.4,0.7-0.8,1.5-1.2,2.2
			c-0.4,0.8-0.8,1.6-1.1,2.4c-0.4,0.9-0.8,1.8-1.1,2.8c-0.2,0.4-0.3,0.8-0.5,1.2c-0.3,0.5-0.5,1-0.8,1.5c-0.6,1.1-1.2,2.2-1.7,3.3
			c-0.6,1.1-1.1,2.3-1.6,3.5c-0.4,1-0.7,1.9-1.1,2.9c-0.4,0.9-0.9,1.7-1.3,2.6c-0.5,1-0.9,2.1-1.3,3.2c-0.2,0.5-0.4,1-0.7,1.5
			c-0.2,0.4-0.4,0.8-0.5,1.2c-0.3,1-0.2,2.2,0.5,3c0.8,0.9,2.1,1.1,3.2,0.6c0.4-0.2,0.8-0.3,1.2-0.5c0.7-0.4,1.3-0.9,1.8-1.4
			c0.4-0.4,0.8-0.8,1.2-1.1c0.4-0.4,0.9-0.8,1.4-1.2c0.9-0.8,1.9-1.6,2.8-2.4c0.2-0.2,0.5-0.4,0.7-0.6c0.4-0.3,0.9-0.6,1.4-0.9
			c0.6-0.3,1.2-0.6,1.7-0.9c0.6-0.3,1.2-0.6,1.7-1c0.5-0.3,1-0.6,1.5-0.9c1.2-0.6,2.3-1.2,3.5-1.7c1.2-0.6,2.4-1.3,3.4-2.3
			c0.5-0.5,0.9-1.1,1.3-1.6c0.2-0.2,0.4-0.4,0.6-0.7c0.3-0.3,0.6-0.6,0.9-0.9c0.6-0.6,1.3-1.2,1.9-1.9c0.6-0.6,1.2-1.3,1.8-2.1
			c0.5-0.7,1-1.4,1.5-2c0.6-0.7,1.2-1.5,1.7-2.2c0.6-0.7,1.1-1.5,1.6-2.3s1-1.6,1.5-2.4c0.5-0.7,1-1.5,1.5-2.2
			c0.1-0.2,0.3-0.3,0.5-0.5c0.1-0.1,0.2-0.2,0.4-0.2c0.2-0.1,0.3-0.1,0.5-0.1c0.5,0,1,0,1.5,0c0.6,0,1.2,0,1.7-0.1
			c1.3-0.1,2.7-0.1,4-0.3c1.4-0.1,2.7-0.4,4.1-0.7c0.6-0.1,1.3-0.3,1.9-0.5c0.6-0.2,1.1-0.4,1.7-0.6c1-0.4,1.9-0.8,2.8-1.3
			c0.7-0.3,1.3-0.7,2-1c0.2,0.3,0.4,0.6,0.7,0.8c0.5,0.3,0.9,0.6,1.4,0.9c0.4,0.2,0.7,0.4,1,0.7c0.6,0.5,1.1,1,1.7,1.5
			c0.2,0.4,0.4,0.8,0.6,1.2c0.1,0.3,0.2,0.6,0.3,0.9c0,0.3,0,0.5,0.1,0.8c0,0.2,0,0.4,0.1,0.6c0,0.2,0,0.3,0,0.5
			c-0.1,0.6-0.2,1.1-0.3,1.6c-0.1,0.3-0.1,0.6-0.2,0.9c0,0.1-0.1,0.3-0.1,0.5s0,0.4-0.1,0.6c0,0.4-0.1,0.8-0.2,1.2l0,0l-0.1,0.1
			c-0.1,0.1-0.1,0.3-0.1,0.4c0,0.1,0,0.1-0.1,0.2c0,0.2-0.1,0.4-0.1,0.6c0,0.2-0.1,0.4-0.1,0.5c-0.1,0.3-0.2,0.5-0.2,0.8
			c-0.2,0.6-0.4,1.2-0.6,1.8c-0.2,0.6-0.4,1.3-0.6,1.9c-0.1,0.2-0.2,0.5-0.3,0.7c-0.2,0.6-0.4,1.2-0.6,1.9c-0.1,0.2-0.1,0.5-0.2,0.7
			l0,0c-0.2,0.2-0.4,0.5-0.5,0.8c-0.2,0.7-0.3,1.4-0.4,2.1c-0.1,0.4-0.1,0.8-0.2,1.2c-0.2,0.9-0.5,1.7-0.7,2.5
			c-0.4,1.3-0.8,2.6-1.1,3.9c-0.4,1.3-0.7,2.6-1,4c-0.1,0.6-0.2,1.2-0.4,1.9c-0.1,0.6-0.2,1.2-0.3,1.8c-0.4,2.8-0.8,5.5-1.1,8.3
			c-0.1,1.4-0.2,2.8-0.4,4.1c-0.1,0.9-0.2,1.7-0.3,2.6c0,0.2-0.1,0.3-0.1,0.5c-0.2,1.3-0.5,2.6-0.7,3.9c-0.2,1.4-0.5,2.7-0.7,4.1
			c-0.2,1.5-0.5,3-0.7,4.5c-0.2,1.4-0.4,2.7-0.5,4.1c-0.1,1.5-0.3,2.9-0.4,4.4c0,0.3-0.1,0.7-0.1,1c0,0.1-0.1,0.3-0.1,0.4
			c-0.2,1-0.3,1.9-0.5,2.9c-0.1,0.5-0.2,0.9-0.3,1.4c-0.1,0.6-0.2,1.3-0.3,1.9c-0.1,0.4-0.1,0.8-0.1,1.2c-0.1,0.5-0.3,0.9-0.4,1.4
			c-0.1,0.2-0.1,0.5-0.2,0.7c-0.1,0.3-0.2,0.5-0.3,0.8c-0.4,0.7-0.9,1.4-1.4,2c-0.2,0.3-0.5,0.7-0.7,1c-0.1,0.2-0.3,0.3-0.4,0.5
			c-0.4,0.1-0.8,0.2-1.2,0.3c-0.6,0.2-1.2,0.5-1.8,0.9c-0.8,0.5-1.6,1-2.4,1.5c-0.5,0.2-1,0.3-1.5,0.4c-0.6,0.1-1.2,0.1-1.8,0.1
			s-1.2-0.1-1.8-0.1c-0.5-0.1-1-0.2-1.5-0.3c-0.6-0.1-1.1-0.3-1.7-0.4c-0.6-0.2-1.1-0.3-1.6-0.5c-0.6-0.2-1.1-0.3-1.7-0.5
			c-0.5-0.2-1-0.3-1.5-0.5c-0.6-0.2-1.2-0.4-1.8-0.5c-1.2-0.4-2.4-0.5-3.6-0.7c-0.9-0.1-1.8-0.3-2.7-0.4c-0.4,0-0.9-0.1-1.3-0.1
			c-0.4,0-0.7-0.1-1.1-0.1c-0.5-0.1-1-0.2-1.4-0.3c-0.3-0.1-0.6-0.1-0.8-0.2c-0.4-0.1-0.7-0.1-1.1-0.1c-0.2,0-0.6,0.1-0.8,0.1
			c-0.3,0.1-0.6,0.3-0.8,0.5c-0.2,0.1-0.3,0.3-0.4,0.5c-0.1,0.2-0.2,0.5-0.3,0.7c-0.1,0.5-0.1,0.7,0,1.2c0.1,0.4,0.2,0.7,0.4,1.1
			c0.1,0.3,0.2,0.5,0.4,0.7c0.4,0.6,0.9,1.3,1.3,1.8c0.8,0.9,1.7,1.8,2.5,2.7c0.8,0.9,1.7,1.7,2.6,2.5c0.9,0.8,1.9,1.7,2.7,2.6
			c0.9,0.9,1.8,1.8,2.7,2.7c0.9,0.9,1.8,1.8,2.7,2.6c0.5,0.4,1,0.8,1.5,1.2c0.5,0.4,0.9,0.8,1.4,1.3c0.8,0.8,1.5,1.6,2.2,2.5
			c0.2,0.3,0.5,0.6,0.7,0.9c0.3,0.4,0.6,0.7,0.8,1.1c0.4,0.7,0.8,1.5,1.1,2.2s0.5,1.4,0.7,2.2c0.1,0.7,0.2,1.3,0.3,2
			c0.2,1.4,0.4,2.7,0.6,4.1c0.4,2.4,1,4.8,1.9,7.2c0.4,1.2,0.8,2.4,1.2,3.6c0.1,0.3,0.1,0.5,0.2,0.8c0,0.1,0,0.2,0,0.3
			c0.1,0.4,0.1,0.7,0.2,1.1c0.1,0.4,0.1,0.9,0.2,1.3c0.1,0.3,0.1,0.6,0.2,0.9c0,0.2,0.1,0.5,0.1,0.7s0,0.4,0,0.7
			c0,0.6,0.1,1.2,0.2,1.8c0.1,0.7,0.2,1.5,0.4,2.2c0.3,1.2,0.5,2.4,0.8,3.6s0.5,2.4,0.9,3.6c0.2,0.8,0.4,1.5,0.6,2.3
			c0,0.3,0.1,0.7,0.1,1c0.1,0.5,0.1,1.1,0.2,1.6c0.1,0.5,0.1,1.1,0.2,1.6c0.2,1.2,0.4,2.4,0.8,3.5c0.1,0.5,0.3,1.1,0.5,1.6
			c0.1,0.3,0.2,0.6,0.2,0.8c0.1,0.2,0.2,0.5,0.4,0.7c0,0.1,0.1,0.2,0.1,0.4c0.3,1.1,0.7,2.2,1.1,3.3c0.1,0.5,0.2,1,0.3,1.5
			c0.3,1.4,0.5,2.7,0.8,4.1c0.2,1.2,0.5,2.4,0.7,3.6c1.1,5.2,2.2,10.4,3.5,15.5c0.7,2.7,1.4,5.3,2,8c0.3,1.3,0.7,2.6,1,3.9
			c0.4,1.2,0.8,2.3,1.2,3.5c0.9,2.4,1.8,4.8,2.7,7.2c0.9,2.4,1.7,4.9,2.6,7.3c0.6,1.6,1.1,3.2,1.7,4.8c0.3,0.9,0.7,1.8,1.1,2.7
			c0.4,0.8,0.7,1.7,1.1,2.5c0.3,0.7,0.6,1.4,0.9,2.1c0.2,0.3,0.4,0.5,0.7,0.7c0,0,0,0,0.1,0c0.2,1.1,0.5,2.3,0.8,3.4l0,0
			c0.1,1,0.2,2.1,0.4,3.1c0.4,2.7,0.8,5.5,1.4,8.1c0.1,0.5,0.3,1,0.4,1.5c0,0.3,0.1,0.6,0.1,0.9c0.1,0.6,0.2,1.2,0.3,1.7
			c0.1,0.2,0.1,0.5,0.2,0.7c-0.1,0.2-0.2,0.4-0.2,0.6c-0.3,1.6-0.4,3.3-0.6,4.9c-0.1,1.2-0.2,2.3-0.3,3.5c-0.4,0.3-0.8,0.6-1.1,0.9
			c-0.4,0.5-0.9,1-1.3,1.4c-0.9,0.8-1.9,1.6-2.9,2.4s-1.9,1.7-2.9,2.5c-0.6,0.5-1.1,0.9-1.7,1.3c-0.5,0.4-1,0.7-1.5,1.1
			c-0.1,0.1-0.2,0.2-0.4,0.3c-0.1,0-0.3,0.1-0.4,0.1c-0.5,0.1-1.1,0.1-1.6,0.2c-1,0.1-1.9,0.1-2.9,0.2c-0.6,0.1-1.2,0.2-1.8,0.4
			c-0.2,0.1-0.5,0.1-0.7,0.2c-0.3,0.2-0.7,0.3-1,0.5c-0.4,0.2-0.8,0.5-1.1,0.8c-0.4,0.4-0.8,0.7-1.2,1.1c-0.2,0.2-0.5,0.4-0.7,0.6
			c-0.3,0.2-0.7,0.4-1,0.6c-0.8,0.5-1.6,1.1-1.8,2.1s0.4,2,1.3,2.4c0.4,0.2,0.9,0.2,1.3,0.1c0.2,0,0.4-0.1,0.7-0.2
			c0.5-0.1,1.1-0.1,1.6-0.1s1-0.1,1.5-0.3c0.4-0.1,0.8-0.3,1.2-0.5c0.2-0.1,0.4-0.2,0.6-0.3c0.1,0,0.2,0,0.3,0c0.6,0,1.2,0.1,1.7,0
			c0.4,0,0.8-0.1,1.1-0.3c0.2-0.1,0.4-0.2,0.6-0.3c0.1,0,0.1,0,0.2-0.1c0.6-0.1,1.1-0.3,1.7-0.5c0.6-0.2,1.1-0.4,1.6-0.6
			c0.7-0.3,1.3-0.6,1.9-1c0.4-0.2,0.7-0.4,1.1-0.7c0.8-0.4,1.6-0.7,2.5-1c0.8-0.3,1.6-0.5,2.4-0.7c1.2-0.2,2.4-0.3,3.7-0.5
			c0.6-0.1,1.3-0.1,1.9-0.2c0,0,0,0,0.1,0c0,0.3,0.1,0.6,0.3,0.9c0.1,0.1,0.2,0.2,0.3,0.4c0,0.5,0.1,0.9,0.3,1.3
			c0.3,0.4,0.7,0.7,1.2,0.8c1,0.2,2-0.5,2.2-1.5c0-0.2,0.1-0.4,0.1-0.6l0,0c0.4,0.7,0.8,1.5,1.3,2.2c0.3,0.4,0.7,0.8,1.2,1.2
			c0.1,0.3,0.3,0.5,0.4,0.8c0.4,0.8,0.8,1.6,1.2,2.4c0.2,0.3,0.4,0.5,0.7,0.6c0.4,0.2,1,0.3,1.5,0.1c0,0,0,0,0.1,0
			c0.3-0.1,0.6-0.3,0.8-0.6c0.2-0.2,0.4-0.5,0.4-0.9c1,0.4,2,0.7,3,1.1s2,0.8,2.9,1.3c0.3,0.1,0.6,0.2,1,0.2c0.5,0,0.9-0.3,1.3-0.7
			c0.6-0.8,0.6-2-0.2-2.7c-0.8-0.6-1.7-1.2-2.5-1.9c0-0.1,0-0.3,0-0.4c0-0.5-0.2-1-0.5-1.5c-0.2-0.4-0.4-0.7-0.6-1.1
			s-0.5-0.7-0.7-1.1c-0.4-0.6-0.9-1.2-1.3-1.8c-0.2-0.3-0.5-0.6-0.7-0.9c0.1-0.1,0.2-0.3,0.2-0.5c0.1-0.5,0-1-0.3-1.4
			c-0.2-0.3-0.5-0.6-0.7-0.8c-0.7-0.9-1.3-1.8-2-2.8c-0.4-0.5-0.8-1-1.2-1.6c-0.3-0.5-0.7-1-1-1.6c-0.2-0.4-0.4-0.8-0.6-1.3
			c-0.2-0.6-0.4-1.2-0.6-1.8c-0.4-1.2-0.8-2.4-1.3-3.6c-0.2-0.6-0.5-1.2-0.7-1.9c0,0,0,0,0-0.1c0-0.2,0.1-0.5,0.1-0.7
			c0-0.3-0.1-0.7-0.1-0.9c0-0.2-0.1-0.3-0.1-0.5c0-0.3-0.1-0.6-0.2-0.8c-0.1-0.7-0.3-1.4-0.4-2.2c0-0.2-0.1-0.4-0.1-0.6
			c0.2-0.7,0.5-1.4,0.7-2.1c0.3-0.8,0.5-1.5,0.8-2.3c0.2-0.5,0.5-1,0.8-1.5s0.6-1,0.9-1.5c0.6-1.2,1.1-2.4,1.6-3.6
			c0.4-0.9,0.8-1.7,1.3-2.5c0.6-0.9,1.2-1.8,1.8-2.6c0.6-0.8,1-1.6,1.5-2.5c0.4-0.9,1-1.7,1.5-2.5c0.7-0.9,1.5-1.7,2.4-2.6
			s1.7-1.8,2.6-2.6c0.9-0.9,1.9-1.7,2.9-2.5c0.9-0.8,1.9-1.6,2.8-2.4c1-0.9,1.9-1.8,2.8-2.7c0.6-0.6,1.3-1.2,2-1.8
			c0.4,0.9,0.8,1.9,1.1,2.8c0,0.6,0,1.2,0,1.8c0.1,1.1,0.2,2.1,0.4,3.1c0.1,0.4,0.2,0.9,0.3,1.3c0.1,0.5,0.2,0.9,0.2,1.4
			c0.1,0.8,0.2,1.6,0.3,2.4c0.1,0.7,0.2,1.4,0.3,2.1c0.1,0.6,0.2,1.2,0.4,1.9c0.3,1.3,0.6,2.5,0.9,3.7c0.7,2.6,1.3,5.3,2,7.9
			c0.4,1.3,0.9,2.6,1.5,3.9c0.5,1.1,1.1,2.3,1.6,3.4c0.3,0.8,0.6,1.5,0.9,2.3c0.2,0.5,0.4,1.1,0.7,1.6c0.3,0.6,0.6,1.1,1,1.6
			c0.2,0.2,0.4,0.4,0.6,0.6c0.4,0.3,0.9,0.5,1.4,0.5c0.2,0,0.4,0,0.6-0.1c0.3-0.1,0.6-0.3,0.8-0.5c0.4-0.3,0.6-0.8,0.8-1.2
			c0.1-0.4,0.1-0.9,0.1-1.3c0-0.2,0-0.5,0-0.7c0-0.4-0.1-0.9-0.1-1.3s0-0.8,0-1.2c0.1-0.4,0.1-0.8,0.3-1.1c0.1-0.4,0.2-0.8,0.4-1.1
			c0.3-0.6,0.6-1.2,0.8-1.8c0.3-0.7,0.6-1.5,0.9-2.2c0.3-0.6,0.6-1.3,1-1.8c0.9-1.1,2-2.1,3.2-3c0.8-0.6,1.7-1.2,2.5-1.9
			c0.5-0.4,1-0.7,1.5-1.1c0.6-0.4,1.3-0.8,1.9-1.2c1.1-0.4,2.2-0.7,3.4-1c1.3-0.4,2.6-0.7,3.8-1.1c1.3-0.4,2.5-0.9,3.8-1.3
			c0.6-0.2,1.3-0.4,1.9-0.5c0.7-0.2,1.4-0.3,2.1-0.5c0.8-0.2,1.5-0.3,2.3-0.4c0.6-0.1,1.2-0.1,1.8-0.2c0.5-0.1,1-0.1,1.5-0.2
			c0.3,0,0.5-0.1,0.8-0.1c0.5,0,1,0,1.4,0c0.7,0.1,1.4,0.2,2.1,0.4c0.7,0.1,1.4,0.3,2,0.4l2.5,0.7c0.8,0.2,1.5,0.5,2.3,0.7
			c1,0.3,1.9,0.7,2.8,1.1c1.8,0.8,3.6,1.6,5.4,2.5c0.5,0.3,1.1,0.5,1.6,0.8c0.6,0.3,1.2,0.6,1.8,0.9c0.4,0.2,0.8,0.4,1.1,0.6
			c0.2,0.1,0.3,0.2,0.5,0.2c0.7,0.4,1.3,0.8,2,1.2c0.5,0.3,1.1,0.7,1.6,1.1c0.6,0.4,1.2,0.9,1.9,1.3c0.6,0.3,1.3,0.4,1.9,0
			C365.1,454.2,365.4,453.4,365.2,452.5z M279.1,28.7v-0.1c0.2-0.6,0.4-1.3,0.5-1.8v-0.1c0.1-0.5,0.3-1.2,0.5-1.7s0.4-1.1,0.7-1.7
			l0.1-0.2l0,0c0.8-1.7,1.6-3.5,2.5-5.3c0.8-1.7,1.7-3.5,2.6-5.3l0,0l0,0l0,0l0,0l0,0l0,0c0,0.4,0,0.9,0,1.3V14l0,0
			c0,1.2,0,2.5-0.1,3.7c-0.1,0.5-0.2,1-0.3,1.6l0,0c0,0.2-0.1,0.4-0.1,0.7l-0.1,0.4l-0.1,0.3c-0.1,0.5-0.2,1-0.3,1.5
			c-0.1,0.3-0.1,0.6-0.2,0.9l-0.1,0.3c-0.1,0.3-0.1,0.7-0.2,1c-0.1,0.7-0.3,1.3-0.5,1.9c-0.1,0.2-0.2,0.5-0.3,0.7
			c-0.1,0.2-0.3,0.5-0.4,0.7c-0.2,0.3-0.5,0.5-0.8,0.7l0,0c-0.1,0.1-0.2,0.2-0.3,0.2c-0.3,0.3-0.6,0.6-0.8,0.9l-0.1,0.1
			c-0.2,0.2-0.4,0.4-0.5,0.6c-0.1,0.1-0.2,0.2-0.3,0.4c-0.2,0.2-0.3,0.3-0.4,0.4l0,0l0,0v0.1v0.1c-0.1-0.3-0.1-0.6-0.2-0.8
			c-0.2-0.6-0.5-1.1-0.8-1.5C279,28.9,279,28.8,279.1,28.7z M273.8,46.7c-0.2,0.4-0.4,0.8-0.6,1.1c-0.1,0.1-0.2,0.3-0.4,0.4
			c-0.4,0.4-0.4,1.1,0,1.5c0.1,0.1,0.2,0.2,0.4,0.3l0,0l0,0l0,0l-0.1,0.1v0.1c-0.2,0.3-0.4,0.7-0.6,1.1c-0.1,0.1-0.2,0.2-0.3,0.3
			c-0.2,0.1-0.4,0.3-0.6,0.4h-0.1c-0.2,0.1-0.4,0.3-0.6,0.4c-0.5,0.3-0.9,0.6-1.3,0.8c-0.6,0.4-1.1,0.7-1.5,1.1
			c-0.4,0.4-0.8,0.8-1.2,1.3c-0.4,0.5-0.7,1-1,1.4l-0.1,0.1c-0.3,0.4-0.6,0.9-0.8,1.3c-0.1,0.2-0.3,0.5-0.4,0.7l-0.1,0.1
			c-0.4,0.7-0.7,1.4-1.2,2.1c-0.1,0.2-0.3,0.4-0.4,0.5l-0.3,0.4c-0.6,0.7-1.2,1.5-1.8,2.3c-0.7,0.8-1.3,1.6-1.9,2.5
			c-0.2,0.3-0.4,0.5-0.6,0.8l-0.2,0.3c-0.4,0.5-0.9,1-1.3,1.4l-0.1,0.1c-0.1,0.1-0.1,0.1-0.2,0.2l0,0c-0.1,0.2-0.3,0.3-0.4,0.5
			c-0.2,0.2-0.4,0.5-0.7,0.8l-0.3,0.4l0,0c-0.4,0.5-0.8,1-1.1,1.4c-0.2,0.2-0.4,0.5-0.5,0.7s-0.3,0.3-0.4,0.5l-0.1,0.1l0,0l0,0
			c0.1-0.4,0.2-0.9,0.3-1.4c0.1-0.6,0.3-1.2,0.4-1.9c0.2-1.1,0.5-2.3,0.9-3.6c0.1-0.2,0.1-0.4,0.2-0.6v-0.1l0.1-0.2
			c0.2-0.5,0.3-0.9,0.5-1.4v-0.1c0.1-0.3,0.3-0.5,0.4-0.8c0.1-0.1,0.1-0.3,0.2-0.4s0.1-0.2,0.2-0.3c0.5-1,1.1-2,1.6-3.1
			c0.2-0.4,0.4-0.9,0.6-1.3c0.3-0.7,0.6-1.4,1-2.1c0.2-0.5,0.5-0.9,0.8-1.5c0.3-0.5,0.7-1.1,1-1.6c0.3-0.4,0.5-0.9,0.8-1.4v-0.1
			c0.1-0.2,0.2-0.3,0.2-0.5c0.4-0.8,0.8-1.4,1.2-2.1c0.4-0.7,1-1.3,1.6-1.9c1.1-0.9,2.2-1.7,3.3-2.3c0.3-0.2,0.4-0.5,0.5-0.7
			c0.1-0.3,0-0.6-0.2-0.9c-0.2-0.2-0.4-0.4-0.7-0.5c-0.1,0-0.1,0-0.2,0c-0.2,0-0.4,0.1-0.7,0.2c-0.7,0.4-1.4,0.8-2.2,1.4
			c-0.7,0.5-1.4,1.1-2,1.7c-0.8,0.9-1.5,1.9-2,2.8c-0.3,0.6-0.6,1.1-0.9,1.6c-0.2,0.4-0.5,1-0.9,1.6l-0.2,0.3
			c-0.6,0.9-1.1,1.8-1.6,2.8c-0.3,0.7-0.7,1.4-1,2.1c-0.2,0.4-0.4,0.9-0.6,1.3c-0.5,1.1-1.1,2.1-1.6,3.1c-0.1,0.1-0.1,0.2-0.2,0.3
			c-0.1,0.1-0.1,0.3-0.2,0.4c-0.1,0.2-0.3,0.5-0.4,0.7l-0.1,0.1c-0.1,0.2-0.2,0.5-0.3,0.7l-0.1,0.3c-0.1,0.3-0.2,0.6-0.3,0.9
			c-0.4,1.3-0.7,2.5-1,3.6c-0.1,0.6-0.3,1.2-0.4,1.8l0,0c-0.1,0.5-0.2,1.1-0.4,1.6c-0.1,0.3-0.2,0.7-0.3,1.1
			c-0.2,0.4-0.3,0.8-0.5,1.3c-0.1,0.3-0.3,0.5-0.4,0.8c-0.1,0.2-0.2,0.3-0.3,0.5s-0.2,0.5-0.3,0.7s-0.2,0.3-0.2,0.5l-0.1,0.2
			c-0.1,0.1-0.1,0.2-0.2,0.4c-0.1,0.1-0.1,0.2-0.1,0.3v0.1l0,0l0,0l0,0l0,0l0,0l0,0c-0.5,0.3-1,0.6-1.6,0.9h-0.1l0,0l0,0l0,0
			c0-0.6,0-1.3,0.1-1.9c0.2-1,0.4-2,0.7-3c0.3-0.9,0.6-2.1,0.9-3.4c0.1-0.5,0.3-1,0.4-1.6v-0.1c0.1-0.5,0.3-1.1,0.4-1.6
			c0.2-0.7,0.4-1.4,0.5-2.2c0.1-0.4,0.2-0.9,0.3-1.3c0.1-0.5,0.2-0.9,0.3-1.4v-0.1c0.4-1.7,0.8-3.4,1.2-5.2l0.3-1.4
			c0.4-1.6,0.7-3.3,1.1-5c0.1-0.4,0.2-0.7,0.2-1.1c0.1-0.6,0.3-1.2,0.4-1.8c0.1-0.5,0.2-1.1,0.2-1.6c0-0.2,0-0.4,0.1-0.6v-0.1
			c0-0.1,0-0.2,0-0.3s0-0.2,0.1-0.3h0.1c0.2-0.1,0.3-0.1,0.5-0.1c0.5-0.1,0.8-0.2,1.1-0.5c0.2-0.1,0.3-0.3,0.4-0.6
			c0.1-0.2,0.1-0.3,0.1-0.5s-0.1-0.5-0.2-0.7c-0.1-0.3-0.3-0.5-0.4-0.6c-0.2-0.3-0.5-0.5-0.8-0.7l-0.6-0.5c-0.5-0.4-1.2-0.9-1.8-1.5
			c-0.5-0.5-1.1-0.9-1.6-1.3l-0.3-0.2c-0.3-0.3-0.6-0.5-0.9-0.9c-0.3-0.5-0.7-1.1-0.9-1.7l-0.1-0.3c-0.3-0.7-0.5-1.4-0.8-2.1
			c-0.1-0.3-0.2-0.7-0.4-1.2c-0.1-0.3-0.1-0.7-0.2-1.1l0,0l0,0l0,0l0,0c0.4,0.1,0.8,0.2,1.2,0.4c0.8,0.3,1.5,0.7,2.2,1.1
			c0.6,0.3,1.2,0.6,1.8,1l0.2,0.1l0.5,0.3c1.6,0.9,3.1,2,4.3,2.9c0.4,0.3,0.8,0.7,1.2,1c0.1,0.1,0.2,0.2,0.4,0.3l0.1,0.1
			c0.2,0.2,0.5,0.5,0.7,0.7s0.4,0.4,0.7,0.6h0.1c0.2,0.1,0.3,0.3,0.5,0.4c0.5,0.5,1,0.8,1.4,1.1c0.5,0.3,1,0.5,1.7,0.8
			c0.6,0.2,1.3,0.3,1.9,0.3c0.4,0,0.8,0,1.1,0h0.3h0.2h0.2c0.2,0,0.4,0,0.6,0h0.1c0.2,0,0.3,0,0.5,0c0.1,0,0.2,0,0.3,0
			c0.6,0,1.1,0,1.7,0.1c0.8,0.1,1.7,0.3,2.4,0.5c0.6,0.1,1.1,0.3,1.6,0.5c0,0,0,0,0.1,0l0,0l0,0c-0.2,0.5-0.4,0.9-0.6,1.4
			C274.1,46,274,46.4,273.8,46.7z M196,180.5L196,180.5L196,180.5L196,180.5z M247.6,311.2l0.1-0.1c0.4-0.3,0.8-0.6,1.1-1
			c0.5-0.5,0.9-1,1.3-1.7c0.6-1,1.1-2.1,1.5-3.1l0.1-0.2c0.1-0.3,0.3-0.6,0.4-0.9l0,0l0,0c0.4-1,0.9-2,1.3-3c0.4-1.1,0.7-2.1,1-3
			c0.2-0.9,0.4-1.7,0.5-2.6l0.1-0.4c0.2-1.1,0.3-2.2,0.4-3.4c0-0.4,0-0.7,0-1.1v-0.4l0,0l0,0v0.1c0.3,0.3,0.5,0.7,0.8,1
			s0.5,0.7,0.7,1c0.5,0.7,1,1.5,1.6,2.1c0.5,0.5,1,0.9,1.5,1.3c0.5,0.3,1.1,0.6,1.5,0.8c1.2,0.6,2.6,1,3.8,1.4
			c0.6,0.2,1.2,0.3,1.8,0.5c0.5,0.1,1,0.2,1.4,0.3l0,0l0.4,0.1c0.2,0,0.5,0.1,0.7,0.1c0.7,0.1,1.4,0.2,2,0.4
			c0.6,0.1,1.1,0.3,1.6,0.4c0.4,0.1,0.8,0.3,1.1,0.4c0.5,0.3,1.2,0.5,1.8,0.9c0.8,0.4,1.6,0.9,2.3,1.4c0.1,0.1,0.2,0.2,0.3,0.3
			c0.2,0.3,0.4,0.6,0.5,0.9c0,0.1,0.1,0.3,0.1,0.5c0,0.4,0,0.9,0,1.3c-0.1,0.7-0.3,1.5-0.5,2.2c-0.4,0.7-0.8,1.4-1.3,2.1l-0.1,0.2
			l-0.3,0.4c-0.3,0.4-0.6,0.9-1,1.4c-1.4,1.7-3.1,3.3-5.1,4.9c-0.6,0.4-1.1,0.8-1.7,1.2c-0.9,0.6-1.6,0.9-2.2,1.3
			c-0.7,0.3-1.4,0.5-2.4,0.6h-0.2c-0.5,0.1-1,0.2-1.5,0.3c-0.3,0.1-0.5,0.2-0.8,0.3c-0.5,0.2-1.1,0.4-1.5,0.7
			c-0.4,0.3-0.8,0.6-1.1,1c-0.2,0.3-0.4,0.7-0.5,1.1c-0.1,0.3-0.1,0.5-0.2,0.8v0.2c-0.1,0.6-0.1,1.2-0.2,1.8v0.2v0.4
			c0,0.4-0.1,0.9-0.1,1.3v0.6c-0.1,1-0.1,1.9-0.3,2.9c-0.3,2.3-0.7,4.8-1.3,7.1c-0.4,1.3-0.8,2.5-1.2,3.7c-0.2,0.6-0.5,1.2-0.7,1.8
			l-0.1,0.2l-0.1,0.3c-0.2,0.4-0.3,0.8-0.5,1.2c-0.3,0.7-0.5,1.4-0.8,2l-0.1,0.2c-0.5,1-1,2.1-1.5,3.2c-0.5,1.2-1.1,2.3-1.6,3.3
			c-0.3,0.5-0.6,1-0.9,1.6l-0.2,0.4c-0.3,0.5-0.5,1-0.8,1.4c-0.6,1-1.2,2-1.8,2.7l-0.2,0.3l-0.2,0.3c-0.2,0.2-0.4,0.5-0.6,0.7l0,0
			c-0.3,0.4-0.7,0.9-1,1.4c-0.2,0.3-0.4,0.7-0.6,1l-0.1,0.2c-0.3,0.6-0.6,1.3-0.9,2c-0.1,0.3-0.2,0.6-0.4,0.9l-0.2,0.4
			c-1,2.3-2.1,4.5-3.3,6.6c-0.3,0.5-0.6,1.1-0.9,1.7l-0.1,0.2c-0.1,0.2-0.2,0.4-0.3,0.6c0,0.1,0,0.1-0.1,0.2l0,0l0,0
			c0-0.3,0-0.6,0-0.9c0-0.5,0-1.1,0-1.6v-0.2c0-0.6,0-1.3,0-1.9c0.1-1.9,0.3-3.8,0.5-5.7c0.1-0.6,0.1-1.2,0.2-1.8
			c0.2-2.5,0.5-5.5,0.6-8.5l0,0l0,0v-0.1v-0.1c0-0.9,0-1.8,0.1-2.6v-0.1c0-0.7,0-1.5,0.1-2.2c0.1-1.2,0.2-2.5,0.4-3.8
			c0.1-0.9,0.3-1.8,0.4-2.6v-0.3c0.1-0.3,0.1-0.7,0.2-1c0.5-2.8,0.9-5.2,1.3-7.7c0.6-3.3,0.9-5.8,1.3-8.2c0.2-1.3,0.3-2.4,0.4-3.5
			c0.1-0.8,0.1-1.6,0.2-2.3c0-0.5,0.1-1,0.1-1.4l0,0v-0.1c0-0.2,0-0.4,0-0.6c0.1-2,0.2-4,0.3-6v-0.2l0,0l0,0l0,0l0,0
			c0.2-0.1,0.5-0.1,0.7-0.2l0,0l0,0l0,0l0,0l0,0l0.1,0.1c0.2,0,0.3,0.1,0.5,0.1s0.3,0,0.5-0.1c0.5-0.1,0.9-0.4,1.1-0.9
			c0.1-0.2,0.2-0.5,0.2-0.7l0,0l0,0l0,0l0,0l0,0c0.1-0.1,0.2-0.1,0.3-0.2L247.6,311.2z M293.4,120.3L293.4,120.3
			c0.2,0,0.4,0.1,0.5,0.1c0.2,0,0.5,0,0.7,0.1l0,0c0.3,0,0.5,0,0.8,0.1h0.2c0.4,0.1,0.9,0.1,1.3,0.1l0,0c0.6,0,1.3-0.1,2-0.2h0.1
			c0.1,0,0.1,0,0.2,0c0,0,0,0,0.1,0l0,0l0,0c-0.1,0.1-0.3,0.2-0.4,0.2c-0.3,0.2-0.7,0.4-1,0.6c-0.2,0.2-0.5,0.3-0.8,0.5l-0.2,0.1
			c-0.5,0.3-0.9,0.6-1.4,0.8c-0.1,0-0.3,0.1-0.4,0.1s-0.2,0.1-0.3,0.1c-0.1,0.1-0.3,0.1-0.4,0.2c-0.1,0-0.1,0.1-0.2,0.1
			s-0.1,0.1-0.2,0.1c0,0,0,0-0.1,0.1c-0.3,0-0.7,0.2-0.9,0.5l-0.1,0.1c-0.1,0.1-0.2,0.1-0.3,0.2l0,0l0,0c0-0.5-0.1-1-0.2-1.6v-0.1
			c-0.1-0.7-0.2-1.5-0.2-2.2l0,0l0,0l0,0l0,0l0,0l0,0C292.8,120.2,293.1,120.2,293.4,120.3z M293.6,79.5c-0.1,0.1-0.2,0.1-0.4,0.2
			c-0.1,0-0.2,0-0.3,0c-0.2,0-0.3,0.1-0.5,0.2s-0.3,0.1-0.5,0.2c-0.1,0.1-0.3,0.1-0.4,0.2c-0.2,0.1-0.3,0.2-0.5,0.2
			c-0.2,0.1-0.3,0.2-0.5,0.3c-0.2,0.1-0.4,0.1-0.6,0.1s-0.3,0-0.5,0s-0.5,0-0.7,0s-0.5,0-0.7-0.1l0,0c-0.1-0.1-0.1-0.3-0.2-0.4
			c-0.1-0.2-0.1-0.3-0.2-0.5v-0.1c0-0.1,0-0.3,0-0.4c0-0.2-0.1-0.4-0.2-0.6c-0.1-0.3-0.3-0.6-0.5-0.9c0.1,0.1,0.1,0.2,0.2,0.3
			c-0.2-0.3-0.3-0.7-0.5-1.1c-0.1-0.3-0.3-0.6-0.4-0.8c0-0.1,0-0.2-0.1-0.2c0-0.2-0.1-0.3-0.2-0.5c0-0.1-0.1-0.2-0.2-0.2
			c0.8,0.3,1.6,0.6,2.4,1c0.6,0.3,1.2,0.6,1.8,0.9c0.6,0.3,1.2,0.5,1.7,0.9c0.6,0.3,1.1,0.8,1.7,1.1
			C293.5,79.4,293.6,79.5,293.6,79.5C293.7,79.4,293.6,79.5,293.6,79.5z M305.2,65.7c0.2-0.4,0.4-0.9,0.4-1.3c0-0.2,0-0.5,0-0.7
			v-0.1c0-0.2,0-0.5,0-0.8c0-0.2,0.1-0.3,0.1-0.5c0,0,0-0.1,0.1-0.1c0,0,0.1,0,0.1-0.1c0.3-0.1,0.5-0.2,0.8-0.3s0.6-0.1,0.9-0.2
			c0.6-0.1,1.2-0.1,1.7-0.3c0.7-0.2,1.3-0.6,1.8-1c0.6-0.4,1-1,1.4-1.8c0.1-0.3,0.2-0.5,0.4-0.8l0,0c0.1-0.2,0.2-0.5,0.3-0.7
			c0.1-0.2,0.2-0.3,0.2-0.5l0.1-0.1c0.1-0.3,0.3-0.6,0.4-0.9c0.3-0.5,0.5-1.1,0.7-1.7c0.1-0.2,0.2-0.5,0.3-0.7l0,0
			c0.1-0.2,0.2-0.5,0.3-0.7c0.2-0.5,0.4-1,0.6-1.5c0.1-0.4,0.4-1,0.6-1.5c0.1-0.3,0.2-0.6,0.4-0.9c0.5-1.1,1-2.2,1.4-3.4
			c0.2-0.5,0.3-1,0.5-1.5c0.1-0.2,0.1-0.4,0.2-0.6c0-0.2,0.1-0.3,0.1-0.5l0,0l0,0c0.1,0.2,0.1,0.5,0.2,0.7s0.1,0.5,0.2,0.7
			c0,0.1,0.1,0.3,0.1,0.4c0.1,0.4,0.2,0.7,0.2,1.1c0.2,1.8,0.2,3.7,0.2,5.3c-0.1,1.7-0.2,3.5-0.4,5.4l-0.1,0.5l0,0
			c-0.1,0.7-0.2,1.4-0.3,2c-0.2,0.9-0.4,1.8-0.6,2.7c-0.1,0.3-0.1,0.5-0.2,0.8c-0.2,0.7-0.4,1.5-0.4,2.3c0,0.3,0,0.6,0.1,0.9
			s0.3,0.6,0.6,0.9c0.2,0.2,0.5,0.4,0.8,0.6c0.1,0.1,0.2,0.1,0.3,0.2h0.1c0.2,0.1,0.4,0.2,0.6,0.4c0,0,0,0,0.1,0.1v0.1
			c0.2,0.5,0.3,1,0.4,1.4v0.1c0.1,0.6,0.2,1.1,0.3,1.6c0.1,0.6,0.1,1.1,0.2,1.7c0,0.4,0.1,0.8,0.1,1.2V74c0,0.4,0.1,0.8,0.1,1.1
			c0.1,0.5,0.1,1.1,0.2,1.7v0.3v0.3c0.1,0.8,0.2,1.7,0.4,2.5c0.1,0.4,0.3,0.8,0.4,1.2l0.1,0.2c0.1,0.3,0.3,0.6,0.4,1
			c0.1,0.1,0.1,0.3,0.2,0.4c0.5,1.1,0.9,2.1,1.3,3c0.2,0.5,0.5,1,0.7,1.5s0.5,1,0.8,1.4c0.2,0.2,0.3,0.5,0.5,0.7s0.3,0.4,0.5,0.7
			c0.2,0.2,0.3,0.5,0.5,0.7s0.3,0.5,0.5,0.7c0.1,0.2,0.3,0.4,0.5,0.6s0.3,0.5,0.5,0.7c0.3,0.4,0.5,0.8,0.8,1.4
			c0.1,0.2,0.2,0.4,0.3,0.7l0,0c0.2,0.4,0.3,0.7,0.5,1.1c0.1,0.2,0.2,0.3,0.3,0.5l0.1,0.1c0.2,0.3,0.3,0.6,0.5,1c0.4,1,0.7,2,1,2.9
			c0.1,0.2,0.1,0.4,0.2,0.7l0,0l0,0l-0.4-0.5c-0.4-0.7-0.9-1.3-1.4-2c-0.4-0.5-0.8-0.9-1.2-1.4l-0.1-0.1l-0.3-0.3
			c-0.4-0.4-0.7-0.8-1.1-1.1c-0.4-0.4-0.7-0.7-1.1-1l-0.3-0.2c-0.4-0.3-0.8-0.7-1.3-1.2c-0.8-0.7-1.5-1.5-2.2-2.3l-0.2-0.2l0,0
			c-0.2-0.3-0.5-0.5-0.7-0.8l-0.3-0.3l-0.3-0.3c-0.1-0.1-0.2-0.2-0.3-0.3l0,0l0,0l-0.1-0.1c-0.1-0.1-0.3-0.2-0.4-0.3
			c-0.2-0.2-0.4-0.4-0.6-0.5c-0.3-0.3-0.6-0.6-0.8-0.8c-0.8-0.9-1.5-1.8-2.1-2.8c-0.8-1.2-1.5-2.2-2.1-3.2c-0.1-0.2-0.2-0.4-0.3-0.5
			v-0.1c-0.4-0.6-0.8-1.3-1.2-1.9c-0.4-0.5-0.8-1-1.2-1.5c-0.7-0.8-1.3-1.6-2-2.5l-0.4-0.5c-0.7-0.9-1.5-1.9-2.2-3
			c-0.2-0.3-0.4-0.5-0.5-0.8c-0.2-0.3-0.4-0.6-0.6-0.9c-0.4-0.6-0.8-1.2-1.2-1.8c-0.1-0.2-0.2-0.5-0.2-0.7c-0.1-0.4-0.1-0.7-0.2-1.1
			c0,0,0,0,0-0.1l0,0l0,0C305.2,65.8,305.2,65.8,305.2,65.7z M296,67.3L296,67.3L296,67.3L296,67.3z M285.5,72.1L285.5,72.1
			L285.5,72.1c0.5-0.1,1.1-0.2,1.6-0.4c0.5-0.2,1.1-0.4,1.6-0.6s1-0.3,1.5-0.5l0.2-0.1h0.1c0.7-0.2,1.5-0.4,2.2-0.8
			c0.6-0.3,1-0.6,1.4-0.9s0.7-0.6,1-0.9c0.1-0.1,0.2-0.2,0.3-0.3c0.1-0.2,0.3-0.3,0.5-0.5c0.1,0,0.2,0,0.2-0.1
			c0.3,0,0.7-0.1,1.1-0.1h0.1c0.4,0,0.8,0,1.1,0.1c0.3,0.1,0.6,0.1,0.9,0.2c0.2,0.1,0.4,0.2,0.5,0.3l0,0h0.1c0.3,0.2,0.6,0.3,1,0.5
			c0.3,0.1,0.6,0.2,0.9,0.2c0.5,0,1-0.1,1.4-0.4l0,0l0,0l0,0c0.1,0.4,0.2,0.7,0.4,1c0.1,0.2,0.3,0.5,0.4,0.7
			c0.4,0.6,0.8,1.2,1.1,1.6c0.2,0.3,0.4,0.5,0.5,0.8l0.1,0.1c0.1,0.2,0.3,0.4,0.4,0.6c0.5,0.7,0.9,1.2,1.2,1.7c0.8,1,1.6,2.1,2.3,3
			c0.2,0.3,0.5,0.6,0.8,0.9l0.1,0.1c0.5,0.7,1.2,1.4,1.7,2.2c0.2,0.2,0.3,0.5,0.5,0.7c0.1,0.1,0.2,0.3,0.2,0.4l0.6,1
			c0.2,0.4,0.5,0.8,0.7,1.1l0.2,0.3c0.6,1,1.3,1.9,1.9,2.8c0.7,0.9,1.4,1.8,2.3,2.6c0.3,0.3,0.7,0.6,1,0.9l0.2,0.2
			c0.4,0.4,0.8,0.7,1.1,1.1c1.5,1.6,2.6,2.8,3.8,3.9c0.2,0.2,0.5,0.5,0.8,0.7l0,0c0.3,0.3,0.7,0.6,1,1c0.6,0.6,1.2,1.2,1.8,1.9
			l0.1,0.1c0.4,0.4,0.8,0.9,1.1,1.3c0.2,0.3,0.4,0.6,0.7,1c0.2,0.2,0.3,0.5,0.5,0.7c0.4,0.5,0.8,1.1,1.3,1.7
			c0.2,0.2,0.4,0.5,0.6,0.8v0.1c0.1,0.1,0.2,0.2,0.2,0.3l0.1,0.1l0.1,0.1c0.1,0.2,0.3,0.4,0.4,0.6s0.4,0.4,0.7,0.5l0,0l0,0l0,0l0,0
			c0,0.1,0.1,0.2,0.1,0.4c0,0.2,0,0.4,0,0.5c-0.4-0.1-0.9-0.2-1.2-0.3c-0.3-0.2-0.6-0.4-0.9-0.5l-0.2-0.2c-0.3-0.2-0.5-0.4-0.8-0.6
			c-0.2-0.1-0.4-0.3-0.6-0.4c-0.1-0.1-0.3-0.2-0.4-0.3c-0.3-0.3-0.7-0.6-1-0.9l0,0H329c-0.4-0.4-0.9-0.7-1.2-1
			c-0.8-0.7-1.8-1.3-2.9-1.9c-0.4-0.2-0.8-0.4-1.3-0.6h-0.1c-0.5-0.2-1-0.5-1.4-0.7c-0.5-0.3-1-0.5-1.4-0.8
			c-0.4-0.2-0.8-0.5-1.3-0.9c-0.8-0.6-1.6-1.3-2.5-2.1c-0.4-0.4-0.8-0.7-1.2-1.1l0,0c-0.4-0.4-0.9-0.8-1.4-1.2
			c-0.9-0.8-1.8-1.5-2.9-2.2c-0.4-0.3-0.9-0.5-1.3-0.7c-0.1-0.1-0.3-0.2-0.4-0.2l-0.1-0.1c-0.3-0.2-0.6-0.4-0.9-0.5
			c-0.2-0.1-0.3-0.2-0.5-0.2c-0.2-0.1-0.4-0.2-0.5-0.3c-0.3-0.2-0.6-0.4-1-0.6c-0.7-0.6-1.3-1.2-1.9-1.8l-0.1-0.1
			c-0.2-0.2-0.3-0.3-0.5-0.5c-0.4-0.4-0.9-0.9-1.3-1.3s-0.8-0.8-1.2-1.1l-0.4-0.3l0,0c-0.7-0.7-1.4-1.3-2-2
			c-0.3-0.4-0.7-0.8-1.1-1.3l-0.2-0.2c-0.3-0.4-0.6-0.7-0.9-1c-0.4-0.4-0.9-0.8-1.3-1c-0.3-0.2-0.6-0.4-0.9-0.6l-0.3-0.2
			c-0.3-0.2-0.6-0.4-0.9-0.6l0,0l-0.3-0.2c-0.4-0.3-0.9-0.5-1.3-0.8c-0.3-0.1-0.5-0.2-0.8-0.4l0,0h-0.1c-0.2-0.1-0.3-0.1-0.5-0.2
			c-0.1-0.1-0.3-0.1-0.4-0.2l-0.2-0.1c-0.3-0.1-0.5-0.2-0.8-0.4h-0.1h-0.1c-0.7-0.3-1.3-0.5-2-0.8c-0.2-0.1-0.5-0.2-0.7-0.3
			c-0.2-0.1-0.3-0.1-0.5-0.2c0-0.1-0.1-0.2-0.1-0.3c0-0.1,0-0.1-0.1-0.2C285.6,72.3,285.5,72.2,285.5,72.1L285.5,72.1z M285.9,124
			L285.9,124C285.9,123.9,285.9,123.9,285.9,124C285.9,123.9,285.9,123.9,285.9,124c0.2-0.1,0.3-0.3,0.4-0.5l0.1-0.2v-0.1
			c0.1-0.2,0.1-0.4,0-0.6c0-0.1-0.1-0.3-0.2-0.4c-0.1-0.2-0.3-0.4-0.5-0.6s-0.4-0.3-0.6-0.5c-0.1-0.1-0.2-0.1-0.3-0.2l-0.2-0.1
			c-0.2-0.1-0.3-0.2-0.5-0.3c-0.3-0.2-0.6-0.4-0.9-0.6h-0.1c-0.4-0.2-0.8-0.5-1.1-0.7c-0.3-0.2-0.5-0.5-0.7-0.8s-0.4-0.5-0.6-0.7
			l0,0c-0.2-0.3-0.4-0.6-0.6-0.9s-0.4-0.6-0.5-0.9l-0.1-0.2c-0.1-0.2-0.3-0.5-0.4-0.7c-0.2-0.4-0.5-0.8-0.7-1.3
			c-0.2-0.3-0.4-0.7-0.6-1c-0.3-0.4-0.5-0.7-0.8-1c-0.2-0.2-0.3-0.3-0.5-0.5l0,0c-0.1-0.1-0.1-0.1-0.2-0.2c-0.3-0.2-0.5-0.5-0.7-0.8
			c-0.3-0.4-0.5-0.7-0.7-1.1s-0.5-0.9-0.7-1.5c-0.1-0.3-0.3-0.6-0.5-1c0,0,0-0.1-0.1-0.1l0,0l0,0l0,0l0,0l0.1,0.1
			c0.1,0.1,0.3,0.2,0.4,0.3h0.1l0.1,0.1c0.1,0.1,0.2,0.2,0.4,0.3c0.2,0.2,0.5,0.4,0.7,0.6l0.1,0.1l0.2,0.2c0.4,0.4,1,0.8,1.4,1.1
			c0.2,0.1,0.3,0.2,0.5,0.4c0.3,0.2,0.5,0.5,0.8,0.7h0.1c0.3,0.2,0.5,0.5,0.8,0.7c0.1,0.1,0.3,0.2,0.4,0.4c0.4,0.3,0.9,0.7,1.3,1.1
			c0.2,0.2,0.4,0.5,0.6,0.7l0,0l0.1,0.1c0.2,0.3,0.5,0.6,0.7,0.8c0.5,0.5,1,1,1.6,1.1c0.2,0.5,0.4,0.9,0.7,1.3l0,0
			c0.2,0.2,0.4,0.5,0.6,0.7s0.4,0.4,0.6,0.6c0.4,0.4,0.9,0.7,1.4,1.1c0.7,0.4,1.5,0.7,2.5,0.9c0,0.1,0,0.2,0,0.3c0,0.2,0,0.4,0,0.6
			c0,0.1,0,0.2,0,0.3c0,0.2,0,0.3,0,0.5c-0.1,0.3-0.2,0.6-0.2,0.9c0-0.1,0-0.2,0.1-0.3c0,0.2-0.1,0.4-0.2,0.6c0,0.2-0.1,0.3-0.1,0.5
			c-0.1,0.3-0.1,0.5-0.1,0.7c0,0.1,0,0.2,0,0.3c0,0.3,0,0.7,0,1c0,0.2,0,0.4,0,0.5s-0.1,0.3-0.1,0.4c-0.1,0.2-0.1,0.4-0.1,0.6v-0.1
			v0.1c0,0-0.1,0-0.1-0.1c-0.1-0.2-0.2-0.3-0.3-0.5c-0.3-0.4-0.6-0.7-1-1.1s-0.9-0.9-1.4-1.3C286.1,124,286,124,285.9,124z
			 M185.1,238.4c-0.7,0.6-1.3,1.1-1.9,1.7c-0.4,0.4-1,0.9-1.5,1.4l-0.1,0.1l0,0l0,0l0,0l0,0l0,0c0.1-0.2,0.2-0.5,0.3-0.7l0.1-0.1
			c0.1-0.3,0.2-0.6,0.4-0.9c0.2-0.5,0.5-1,0.8-1.6c0.4-0.7,0.7-1.4,1-2.1c0.3-0.7,0.6-1.4,0.8-2.1l0,0c0.2-0.4,0.3-0.9,0.5-1.3
			c0.9-2,1.9-3.8,2.7-5.4l0.2-0.4l0,0c0.4-0.7,0.8-1.5,1.1-2.3s0.7-1.6,1-2.4l0.3-0.7c0.1-0.2,0.2-0.4,0.3-0.6
			c0.4-0.9,0.8-1.8,1.3-2.7c0.2-0.4,0.4-0.8,0.7-1.2l0.3-0.5l0.2-0.4l0.2-0.4c0.4-0.6,0.7-1.3,1-2.1c0.3-0.6,0.5-1.3,0.7-1.9
			l0.1-0.3c0.2-0.5,0.3-1.1,0.5-1.6v-0.1v-0.1c0.2-0.7,0.4-1.4,0.7-2.1c0.2-0.5,0.3-0.9,0.5-1.4l0,0c0.2-0.6,0.4-1.3,0.6-1.9
			c0.1-0.5,0.2-1,0.3-1.4v-0.1l0.1-0.4c0.1-0.6,0.3-1.2,0.4-1.8v-0.2c0.1-0.5,0.2-1.1,0.4-1.6c0.3-1.5,0.6-2.8,0.8-4.1
			c0-0.3,0.1-0.5,0.1-0.8v-0.2l0,0c0-0.3,0.1-0.6,0.1-0.9l0.1-0.4c0.1-0.5,0.1-0.9,0.2-1.4c0.1-1.1,0.1-2.2,0.1-3.3
			c0-0.2,0-0.5,0-0.7c0-1.4-0.1-2.6-0.2-3.8c0-0.5-0.1-1.1-0.2-1.8v-0.3v-0.3c0-0.2,0-0.4-0.1-0.5l0,0c0-0.1,0-0.2,0-0.3
			s0-0.3-0.1-0.4c-0.1-1-0.3-2.4-0.6-3.8c-0.1-0.4-0.1-0.8-0.2-1.2v-0.1c0-0.2-0.1-0.3-0.1-0.5c-0.1-0.6-0.2-1.3-0.3-1.9
			c-0.2-1.1-0.3-2.2-0.6-3.3l0,0l0,0l0,0c0.3,0.3,0.6,0.5,0.9,0.8c1.3,1.1,2.6,2.1,3.8,3.1c0.3,0.3,0.6,0.5,1,0.7c0,0,0,0-0.1-0.1
			l0.1,0.1l-0.1-0.1c0.7,0.5,1.3,1,2,1.5l0.2,0.1c0.6,0.5,1.2,1,1.8,1.5c0.2,0.2,0.5,0.4,0.7,0.6l0.1,0.1c0.4,0.3,0.8,0.6,1.1,1
			c0.4,0.3,0.7,0.7,1,1.1l0,0c0.2,0.2,0.4,0.4,0.5,0.6c0.1,0.1,0.2,0.2,0.3,0.3l0.1,0.1c0.3,0.3,0.7,0.7,1,1.1
			c0.5,0.7,0.8,1.4,1.1,1.9c0.2,0.5,0.3,1,0.4,1.6c0.1,0.4,0.1,0.8,0.2,1.2c0,0.2,0.1,0.5,0.1,0.7c0.1,0.7,0.2,1.3,0.4,1.8l0.1,0.3
			c0.1,0.5,0.3,1.1,0.4,1.6c0.2,0.5,0.4,1,0.6,1.4c0.1,0.1,0.2,0.3,0.3,0.5l0,0l0,0l0,0c-1.5,0.9-2.9,2.3-4.5,4.3
			c-0.4,0.5-0.7,1.1-1.1,1.6l-0.2,0.3c-0.3,0.4-0.6,0.9-0.9,1.6c-0.3,0.6-0.6,1.2-1,1.8c-0.3,0.5-0.6,1.1-0.9,1.6l-0.3,0.6l-0.1,0.3
			c-0.4,0.8-0.9,1.7-1.4,2.5l-0.8,1.2l-0.1,0.1c-0.2,0.3-0.5,0.7-0.7,1.1l-0.2,0.2c-0.3,0.5-0.7,1-1,1.4l-0.4,0.6
			c-0.6,0.8-1.3,1.7-2,2.6c-0.4,0.6-0.9,1.3-1.3,1.9v0.1c-0.3,0.4-0.5,0.8-0.8,1.2l-0.1,0.2l0,0c-0.3,0.4-0.6,0.9-0.9,1.3
			c-0.4,0.5-0.8,1-1.2,1.5c-0.6,0.8-1.3,1.6-1.9,2.3L194,222c-0.8,1-1.7,2-2.5,3c-0.7,0.9-1.3,1.9-2,3.1l-0.3,0.5l-0.1,0.2
			c-0.4,0.6-0.7,1.3-1.1,1.9c-0.4,0.6-0.9,1.1-1.3,1.7l-0.1,0.1l-0.2,0.2l-0.1,0.2c-0.4,0.5-0.8,1-1.2,1.4c-0.1,0-0.1,0.1-0.2,0.1
			c-0.4,0.3-0.7,0.7-0.8,1.2s0,1,0.3,1.4c0.2,0.3,0.6,0.6,1,0.7c0.1,0,0.1,0,0.2,0l0,0l0,0L185.1,238.4z M237.3,204.3
			c-1.4,0.8-3,1.6-4.8,2.4c-0.9,0.4-1.9,0.7-2.8,0.9c-1,0.2-2,0.4-3.2,0.6c-2.1,0.2-4.3,0.4-7.2,0.5c-0.9,0-1.6,0.1-2.2,0.3
			c-0.2,0.1-0.5,0.2-0.7,0.3l-0.1,0.1c-0.2,0.1-0.4,0.2-0.6,0.3c-0.3,0.2-0.7,0.5-1.1,0.9c-0.3,0.3-0.6,0.7-0.9,1.1l-0.2,0.2
			c-0.1,0.2-0.3,0.4-0.4,0.6l-0.1,0.2c-0.3,0.5-0.6,0.9-0.9,1.4l-0.3,0.5l-0.2,0.3c-0.8,1.2-1.5,2.4-2.4,3.6l-0.3,0.4
			c-0.5,0.6-1,1.3-1.5,1.9c-0.2,0.3-0.5,0.6-0.7,0.9c-0.2,0.3-0.5,0.7-0.7,1c-0.7,0.8-1.5,1.6-2.3,2.3l-0.3,0.3l-0.1,0.1l0,0
			c-0.4,0.4-0.9,0.8-1.3,1.3c-0.4,0.4-0.7,0.9-1.1,1.3l-0.2,0.3c-0.2,0.3-0.5,0.5-0.9,0.9c-1,0.7-2.2,1.3-3.2,1.8
			c-1.1,0.5-2.2,1.1-3.3,1.7c-1.2,0.7-2.3,1.3-3.4,1.9l-0.1,0.1c-0.1,0-0.2,0.1-0.2,0.1l-0.1,0.1l0,0l0,0c0.5-0.6,1-1.3,1.5-1.9
			c0.6-0.9,1.1-1.8,1.6-2.7l0,0c0.3-0.6,0.7-1.3,1.1-1.9c0.9-1.4,2-2.6,3-3.8c0.5-0.6,1.1-1.3,1.6-1.9c0.8-1,1.6-2,2.3-3.1
			c0.5-0.7,0.9-1.3,1.3-2l0.1-0.1c0.2-0.4,0.5-0.8,0.7-1.1c0.6-0.9,1.2-1.7,1.8-2.5l0.2-0.2l0.3-0.4c0.8-1.1,1.6-2.2,2.3-3.3
			s1.4-2.3,2.3-3.8c0.4-0.7,0.7-1.3,1.1-2c0.2-0.4,0.5-0.9,0.7-1.3c0.2-0.4,0.4-0.8,0.6-1.2c0.2-0.4,0.4-0.8,0.6-1.1
			c0.4-0.6,0.7-1.3,1.1-1.8c0.8-1.1,1.5-2,2.3-2.8c0.7-0.6,1.4-1.1,2.1-1.5c0.3-0.1,0.5-0.4,0.6-0.8l0,0l0,0l0,0l0,0
			c0.4,0.1,0.8,0.2,1.3,0.2c0.3,0,0.6,0.1,1,0.1c0.3,0,0.6,0,1,0c0.8-0.1,1.5-0.2,2.2-0.3c0.6-0.1,1-0.3,1.4-0.4
			c0.4-0.2,0.9-0.4,1.3-0.6l0.2-0.1c0.8-0.3,1.6-0.5,2.6-0.8c0.3-0.1,0.6-0.2,0.9-0.2l0,0l0,0c0,0.5,0.2,0.9,0.5,1.3l0.5,0.5
			c0.9,0.9,1.8,1.8,2.7,2.6c0.8,0.8,1.7,1.7,2.7,2.8c0.5,0.6,1,1.2,1.5,1.8c0.3,0.3,0.5,0.6,0.8,1s0.6,0.8,0.9,1.1c0,0,0,0,0.1,0.1
			l0,0l0,0c-0.3,0.1-0.5,0.2-0.8,0.4c-0.6,0.3-1.2,0.7-1.8,1C237.7,204.1,237.5,204.2,237.3,204.3z M218.7,330.6l-0.1-0.4
			c-0.1-0.7-0.2-1.4-0.4-2c-0.2-0.7-0.5-1.4-0.8-2.3c-0.2-0.5-0.5-1.1-0.8-1.6c-0.5-1-1.2-1.9-1.9-2.8l-0.2-0.2
			c-0.9-1.1-1.8-2.2-2.7-3.1c-0.4-0.4-0.8-0.8-1.4-1.3c-0.2-0.2-0.4-0.3-0.6-0.5l0,0c-0.3-0.2-0.5-0.4-0.8-0.6
			c-0.9-0.8-1.8-1.7-2.7-2.6l0,0c-0.2-0.2-0.4-0.4-0.5-0.6l-0.3-0.3l0,0c-0.6-0.6-1.2-1.3-1.9-1.9c-0.8-0.8-1.6-1.6-2.4-2.3
			l-0.3-0.2c-0.9-0.8-1.8-1.7-2.7-2.6l-0.1-0.1l-0.3-0.4c-0.6-0.6-1.1-1.1-1.7-1.8l0,0c0.1,0,0.3,0,0.4,0.1c0.5,0.1,1.1,0.1,1.6,0.2
			l0,0c0.4,0,0.9,0.1,1.4,0.1c0.3,0,0.6,0.1,0.9,0.1c0.4,0.1,0.9,0.1,1.4,0.2h0.1c0.7,0.1,1.2,0.2,1.7,0.3c0.2,0,0.4,0.1,0.6,0.2
			h0.1c0.1,0,0.1,0,0.2,0.1c0.2,0.1,0.4,0.1,0.6,0.2h0.1l0.3,0.1c0.5,0.1,0.9,0.3,1.4,0.5l0.4,0.1c0.6,0.2,1.1,0.4,1.7,0.5
			c0.4,0.1,0.8,0.2,1.2,0.3c0.8,0.2,1.6,0.5,2.5,0.7c1.2,0.3,2.6,0.4,4,0.5c0.2,0,0.4,0,0.5,0c0.6,0,1.2-0.1,1.8-0.1
			c0.8-0.1,1.7-0.2,2.6-0.6c0.5-0.2,0.9-0.4,1.3-0.6c0.1-0.1,0.3-0.2,0.4-0.3h0.1l0,0c0.2-0.1,0.3-0.2,0.5-0.3
			c0.5-0.3,1.2-0.7,1.9-1c0.3-0.1,0.7-0.2,1-0.3c0.1,0,0.3,0,0.4,0c0.2,0,0.5,0,0.8,0s0.5,0.1,0.8,0.1l0,0l0,0v0.1
			c-0.1,0.4-0.1,0.8,0,1.2c0.1,0.3,0.3,0.6,0.5,0.8c0.4,0.4,0.8,0.6,1.3,0.6c0.9,0,1.6-0.6,1.8-1.4v-0.1l0,0l0,0l0,0h0.1l0,0l0,0
			l0,0l0,0l0,0l0,0l0.1,0.1c0.1,0.1,0.3,0.1,0.4,0.2l0,0l0,0l0.3,0.2l0.4,0.2c0.6,0.3,1.3,0.6,1.9,0.9c0.4,0.2,0.7,0.3,1.1,0.5
			c0.1,0,0.2,0.1,0.3,0.1l0,0l0,0c-0.2,0-0.4,0-0.6,0h-0.1h-0.1c-0.6,0-1,0.2-1.3,0.6c-0.4,0.4-0.6,0.8-0.6,1.3s0.2,1,0.6,1.3
			c0.3,0.3,0.8,0.6,1.2,0.6h0.1c0.5,0,1-0.1,1.4-0.1s0.8,0,1.1,0.1c0.3,0,0.6,0.1,0.8,0.2c0,0.1,0,0.3,0.1,0.4
			c0.1,0.3,0.3,0.6,0.5,0.9l0,0l0,0c0,0.5-0.1,1-0.1,1.5c-0.1,1.4-0.2,2.8-0.2,4v0.1c0,0.8-0.1,1.6-0.1,2.3c0,0.5-0.1,0.9-0.1,1.4
			v0.4c-0.4,5-1.3,10-2.1,14.8l-0.2,1.2c-0.2,1.2-0.4,2.4-0.6,3.7v0.1c-0.2,1.3-0.4,2.5-0.6,3.8c-0.2,1.1-0.4,2.4-0.5,3.8
			c0,0.7-0.1,1.4-0.1,2.3c0,0.4,0,0.7,0,1.1c0,0.3,0,0.6,0,0.9v0.5v0.5c0,0.7-0.1,1.3-0.1,2c-0.1,2.2-0.3,4.6-0.6,7.7
			c0,0.4-0.1,0.8-0.1,1.2v0.4c-0.2,2.2-0.4,4.6-0.5,6.9c0,0.6,0,1.3,0,1.9v0.2c0,0.4,0,0.8,0,1.3c0,0.9,0,1.9-0.1,2.8v0.3v0.2
			c0,0.1,0,0.1,0,0.2l0,0l0,0c-0.1-0.4-0.2-0.7-0.3-1.1c-0.1-0.5-0.3-1.1-0.5-1.8c-0.2-0.6-0.4-1.2-0.7-1.8
			c-0.5-1.2-0.9-2.4-1.3-3.5c-0.1-0.3-0.2-0.6-0.3-0.9c-0.2-0.5-0.4-1.1-0.6-1.6c-0.2-0.7-0.6-1.7-1-2.7l0,0
			c-0.3-0.8-0.6-1.7-0.9-2.5c-0.3-0.6-0.5-1.3-0.8-1.8v-0.1c-0.1-0.3-0.3-0.6-0.4-0.9c-0.4-1.1-0.8-2.2-1.1-3.5
			c-0.3-1.1-0.6-2.3-1.1-3.5c-0.2-0.5-0.4-1-0.6-1.4c-0.3-0.7-0.6-1.3-0.8-2c-0.4-1.1-0.6-2.3-0.9-3.5v-0.2c-0.4-1.8-1-3.5-1.5-5.2
			c-0.3-0.8-0.5-1.5-0.7-2.2c-0.7-2.1-1.1-4.3-1.5-7.3C218.9,332,218.8,331.3,218.7,330.6z M298,466L298,466
			C298,466,298,466.1,298,466C298,466.1,298,466.1,298,466z M350.9,443.9c-1.2-0.5-2.3-1-3.4-1.5c-0.8-0.3-1.7-0.7-2.6-1h-0.1
			c-0.8-0.3-1.6-0.6-2.4-0.8l-1.2-0.3L340,440c-1.2-0.3-2.5-0.6-3.7-0.8h-0.1c-0.8-0.2-1.5-0.2-2.2-0.3c-0.1,0-0.2,0-0.3,0
			c-0.5,0-1,0.1-1.4,0.1h-0.2c-0.7,0.1-1.3,0.2-2,0.2l-0.5,0.1c-0.6,0.1-1.2,0.1-1.8,0.2c-0.2,0-0.3,0.1-0.5,0.1l0,0
			c-0.5,0.1-1,0.2-1.4,0.3l-0.4,0.1l0,0c-0.5,0.1-1.1,0.2-1.6,0.4c-0.6,0.2-1.3,0.4-2,0.6c-0.5,0.1-1,0.3-1.4,0.5
			c-0.2,0.1-0.4,0.1-0.6,0.2c-0.5,0.2-1.1,0.4-1.7,0.6c-1.1,0.4-2.2,0.7-3.3,1l-0.5,0.1l-0.6,0.2c-1,0.3-2.1,0.6-3.1,1
			c-0.7,0.3-1.3,0.6-1.8,0.9c-0.3,0.2-0.5,0.3-0.8,0.5c-0.6,0.4-1.1,0.8-1.6,1.1c-0.3,0.2-0.5,0.4-0.8,0.6c-0.8,0.6-1.7,1.2-2.4,1.8
			c-0.5,0.4-1,0.8-1.4,1.2c-0.4,0.4-0.9,0.8-1.3,1.3c-0.6,0.6-1,1.2-1.4,1.8c-0.1,0.2-0.3,0.5-0.4,0.7l-0.1,0.2
			c-0.2,0.3-0.3,0.7-0.5,1.1l-0.1,0.2l-0.1,0.2l-0.2,0.5c-0.3,0.8-0.7,1.5-1,2.2c-0.4,0.9-0.8,1.8-1,2.8l0,0c0,0,0,0,0,0.1l0,0l0,0
			l0,0c-0.2-0.5-0.4-0.9-0.6-1.4c-0.2-0.4-0.4-0.8-0.6-1.2l-0.1-0.1c-0.4-0.8-0.7-1.5-1.1-2.3l-0.1-0.3c-0.2-0.5-0.3-0.9-0.5-1.4
			c-0.2-0.7-0.4-1.3-0.5-2c-0.3-1.3-0.6-2.5-1-3.8c-0.2-0.7-0.4-1.5-0.6-2.2c-0.4-1.7-1-3.7-1.3-5.5c-0.1-0.4-0.1-0.8-0.2-1.1l0,0
			c-0.1-1.1-0.3-2.1-0.4-3.1l0,0l0,0l0,0l0,0c0.5-0.1,0.9-0.4,1.1-0.9c0.2-0.4,0.4-1,0.2-1.5c-0.5-1.4-1.1-2.8-1.7-4.2l-0.2-0.5
			l-0.3-0.8l0,0l0,0l0,0l0,0l0,0c0-0.2,0-0.3,0-0.5c0-0.6-0.3-1.2-0.8-1.6l0,0l0,0c-0.4-0.9-0.7-1.7-1.1-2.6l0,0l0,0
			c0.2-0.2,0.4-0.4,0.6-0.6c0.4-0.3,0.7-0.7,1.1-1c0.5-0.4,1-0.9,1.4-1.3c0.1-0.1,0.2-0.2,0.3-0.3l0.1-0.1h0.1
			c0.2-0.2,0.4-0.4,0.6-0.6s0.4-0.4,0.6-0.6l0.1-0.1c0.2-0.2,0.3-0.3,0.5-0.5c0.4-0.4,0.8-0.8,1.2-1.2c0.2-0.2,0.3-0.4,0.4-0.5l0,0
			c0.2-0.2,0.4-0.5,0.5-0.9c0.1-0.6,0.1-1.1-0.1-1.6c-0.1-0.3-0.2-0.5-0.3-0.8c-0.2-0.4-0.4-0.8-0.6-1.2c-0.3-0.5-0.6-1.1-0.9-1.7
			c-0.5-0.8-1-1.7-1.4-2.7c-0.3-0.8-0.6-1.7-0.9-2.6l-0.1-0.2c-0.4-1.1-0.8-2.3-1.2-3.4c-0.1-0.2-0.1-0.4-0.2-0.6v-0.1
			c-0.1-0.3-0.2-0.5-0.3-0.8c-0.2-0.6-0.4-1-0.5-1.4c-0.1-0.3-0.2-0.6-0.3-0.9c-0.1-0.2-0.1-0.4-0.2-0.6c-0.2-0.4-0.3-0.8-0.4-1.4
			c0-0.3,0-0.6,0-0.9c0-0.2,0.1-0.3,0.1-0.5c0.1-0.1,0.1-0.2,0.2-0.3c0.1-0.1,0.2-0.2,0.3-0.3c0.4-0.3,0.8-0.5,1.2-0.8h0.1
			c0.6-0.4,1.2-0.7,1.8-1.2l0.1-0.1c0.6-0.4,1.1-0.9,1.6-1.4c0.2-0.3,0.4-0.6,0.6-0.9c0.1-0.1,0.1-0.3,0.2-0.4
			c0.1-0.3,0.2-0.5,0.4-0.8l0.2-0.4c0.2-0.6,0.5-1.2,0.7-1.8c0.2-0.6,0.3-1.2,0.5-1.9c0.3-1.4,0.5-2.9,0.7-4.3
			c0.1-0.9,0.2-1.7,0.2-2.6v-0.1c0.1-0.9,0.1-1.7,0.2-2.6c0.1-0.7,0.2-1.3,0.3-1.8c0.2-0.6,0.4-1.2,0.6-1.8c0.2-0.5,0.5-1.1,0.8-1.6
			c0.2-0.4,0.4-0.7,0.8-1.2c0.2-0.2,0.3-0.4,0.5-0.6l0,0l0,0c0.3,0.7,0.5,1.4,0.7,2.1c0.1,0.3,0.2,0.7,0.3,1
			c0.3,1.1,0.8,2.2,1.2,3.3l0.1,0.3c0.4,1,0.8,2,1.1,3v0.1l0.3,0.8c0.4,1.2,0.9,2.5,1.2,3.7c0.2,0.5,0.3,1.1,0.5,1.6v0.1v0.1
			c0.2,0.6,0.3,1.2,0.5,1.8c0.4,1.4,0.9,2.8,1.5,4.1c0.3,0.6,0.6,1.2,0.9,1.7c0.1,0.2,0.2,0.4,0.3,0.6c0.2,0.3,0.4,0.7,0.6,1
			c0.7,1.3,1.3,2.6,1.8,3.7c0.3,0.6,0.6,1.2,0.9,1.8l0,0c0.2,0.5,0.5,1.1,0.7,1.6c0.6,1.4,1.2,2.5,1.8,3.6c1.4,2.6,2.8,4.8,4.1,6.8
			c1.6,2.3,3.3,4.5,5.1,6.5l0.1,0.1l0,0c1.7,1.9,3.4,3.8,5.2,5.7l0.4,0.4c0.3,0.4,0.7,0.7,1,1l0.8,0.8l0.8,0.8
			c0.1,0.1,0.3,0.2,0.4,0.4c0.1,0.1,0.1,0.1,0.2,0.2l0.6,0.5l0.5,0.4c0.4,0.3,0.7,0.6,1.1,0.9l0.3,0.3c1.1,0.9,2.3,1.9,3.7,3
			c0.3,0.2,0.6,0.5,0.9,0.7l0,0l0,0c-0.7-0.3-1.5-0.7-2.3-0.9c-1.4-0.5-2.9-0.9-4.2-1.3c-0.4-0.1-0.9-0.3-1.3-0.4
			c-1.1-0.3-2.2-0.7-3.3-1.2c-0.9-0.4-1.8-0.8-2.7-1.2l-0.1-0.1c-0.3-0.1-0.6-0.3-0.9-0.4c-0.9-0.4-1.8-0.7-2.7-1
			c-0.3-0.1-0.6-0.2-0.9-0.3h-0.1c-1.1-0.4-2.3-0.8-3.4-1.3c-0.6-0.3-1.1-0.5-1.6-0.9c-0.2-0.1-0.4-0.3-0.6-0.4l-0.1-0.1l-0.4-0.3
			c-0.6-0.4-1.2-0.8-1.7-1.1l0,0l-1-0.6c-0.6-0.4-1.3-0.8-1.9-1.2c-0.7-0.5-1.4-0.9-2.1-1.3c-0.4-0.2-0.9-0.5-1.3-0.7
			c-0.6-0.3-1.3-0.4-2-0.5c-0.1,0-0.3,0-0.4,0h-0.2c-0.8-0.1-1.5-0.1-2.3-0.1l0,0h-0.6c-0.8,0-1.7,0-2.5,0h-0.3
			c-0.5,0-1,0.3-1.3,0.7c-0.3,0.4-0.5,0.9-0.4,1.4c0,0.5,0.3,0.9,0.7,1.3l0.2,0.1l0.2,0.1c0.3,0.1,0.5,0.2,0.8,0.2
			c0.1,0,0.1,0,0.2,0c1.3,0,2.5,0,3.7,0.1h0.2c0.8,0,1.6,0.1,2.3,0.3c0.8,0.3,1.6,0.8,2.5,1.3c1,0.7,2.1,1.3,3.1,1.9l0.3,0.2
			c0.3,0.2,0.7,0.4,1,0.6s0.8,0.5,1.3,0.9c0.7,0.5,1.4,0.9,2,1.3c0.5,0.3,1.1,0.5,1.7,0.8c0.5,0.2,1.1,0.4,1.8,0.7
			c0.2,0.1,0.4,0.1,0.6,0.2l0.2,0.1c0.3,0.1,0.6,0.2,0.9,0.3c0.1,0,0.3,0.1,0.4,0.1c0.4,0.1,0.9,0.3,1.3,0.5c1.1,0.5,2.3,1,3.3,1.5
			h0.1l0.4,0.2c1.3,0.6,2.7,1.1,4,1.5c1.5,0.5,3,0.9,4.4,1.3c0.5,0.1,1,0.3,1.5,0.5c0.7,0.3,1.4,0.5,1.9,0.8c1.3,0.5,2.4,1,3.5,1.4
			l0.2,0.1c0.5,0.2,1,0.4,1.5,0.6l0.6,0.2c0.4,0.1,0.8,0.3,1.2,0.4c1.6,0.6,2.9,1,4.1,1.5c0.2,0.1,0.3,0.1,0.5,0.2l0,0l0,0l0,0l0,0
			c0.7,0.6,1.4,1.2,2.2,1.8l0.4,0.3L350.9,443.9C350.8,443.9,350.8,443.9,350.9,443.9L350.9,443.9L350.9,443.9z"/>
	</g>
	<g>
		<path d="M246.9,31L246.9,31L246.9,31L246.9,31c0,0.4,0.1,0.8,0.2,1.1c0.1,0.4,0.2,0.8,0.4,1.2c0.3,0.7,0.5,1.5,0.8,2.1l0.1,0.3
			c0.3,0.6,0.6,1.2,0.9,1.7c0.3,0.3,0.5,0.6,0.9,0.9l0.3,0.2c0.6,0.4,1.1,0.8,1.6,1.3c0.6,0.5,1.2,1,1.8,1.5l0.6,0.5
			c0.3,0.2,0.5,0.4,0.8,0.7c0.1,0.1,0.3,0.4,0.4,0.6c0.1,0.2,0.2,0.4,0.2,0.7c0,0.2,0,0.3-0.1,0.5s-0.2,0.4-0.4,0.6
			c-0.3,0.3-0.6,0.4-1.1,0.5c-0.2,0-0.4,0.1-0.5,0.1h-0.1c0,0.1,0,0.2-0.1,0.3c0,0.1,0,0.2,0,0.3v0.1c0,0.2,0,0.4-0.1,0.6
			c-0.1,0.6-0.1,1.1-0.2,1.6c-0.1,0.6-0.2,1.2-0.4,1.8c-0.1,0.4-0.2,0.7-0.2,1.1c-0.4,1.7-0.7,3.4-1.1,5l-0.3,1.4
			c-0.4,1.7-0.8,3.5-1.2,5.2V63c-0.1,0.5-0.2,0.9-0.3,1.4c-0.1,0.4-0.2,0.9-0.3,1.3c-0.2,0.7-0.3,1.4-0.5,2.2
			c-0.1,0.5-0.3,1.1-0.4,1.6v0.1c-0.1,0.5-0.3,1-0.4,1.6c-0.3,1.2-0.6,2.4-0.9,3.4c-0.3,1-0.5,2-0.7,3c-0.1,0.6-0.1,1.3-0.1,1.9
			c0.1,0,0.1,0,0.1,0c0.6-0.3,1.1-0.5,1.6-0.9h0.1v-0.1c0-0.1,0.1-0.2,0.1-0.3c0.1-0.1,0.1-0.2,0.2-0.4l0.1-0.2
			c0.1-0.2,0.2-0.3,0.2-0.5c0.1-0.2,0.2-0.5,0.3-0.7s0.2-0.3,0.3-0.5c0.2-0.3,0.3-0.5,0.4-0.8c0.2-0.4,0.4-0.8,0.5-1.3
			c0.1-0.4,0.2-0.8,0.3-1.1c0.1-0.5,0.2-1.1,0.4-1.6l0,0c0.1-0.6,0.3-1.2,0.4-1.8c0.3-1.1,0.6-2.3,1-3.6c0.1-0.3,0.2-0.6,0.3-0.9
			l0.1-0.3c0.1-0.3,0.2-0.5,0.3-0.7l0.1-0.1c0.1-0.2,0.2-0.5,0.4-0.7c0.1-0.1,0.1-0.3,0.2-0.4c0.1-0.1,0.1-0.2,0.2-0.3
			c0.5-1,1.1-2,1.6-3.1c0.2-0.4,0.4-0.9,0.6-1.3c0.3-0.6,0.6-1.4,1-2.1c0.5-1,1-1.9,1.6-2.8l0.2-0.3c0.4-0.6,0.7-1.2,0.9-1.6
			c0.3-0.5,0.5-1,0.9-1.6c0.5-0.9,1.1-1.9,2-2.8c0.6-0.7,1.3-1.2,2-1.7s1.5-1,2.2-1.4c0.2-0.1,0.5-0.2,0.7-0.2c0.1,0,0.1,0,0.2,0
			c0.3,0.1,0.6,0.2,0.7,0.5c0.2,0.2,0.2,0.6,0.2,0.9c0,0.3-0.2,0.6-0.5,0.7c-1,0.6-2.2,1.3-3.3,2.3c-0.6,0.6-1.1,1.2-1.6,1.9
			c-0.4,0.6-0.8,1.3-1.2,2.1c-0.1,0.1-0.2,0.3-0.2,0.5v0.1c-0.2,0.5-0.5,0.9-0.8,1.4s-0.7,1.1-1,1.6c-0.4,0.6-0.6,1.1-0.8,1.5
			c-0.3,0.7-0.6,1.4-1,2.1c-0.2,0.4-0.4,0.9-0.6,1.3c-0.5,1.1-1.1,2.1-1.6,3.1c-0.1,0.1-0.1,0.2-0.2,0.3c-0.1,0.1-0.2,0.3-0.2,0.4
			c-0.1,0.2-0.3,0.5-0.4,0.8V65c-0.2,0.4-0.4,0.9-0.5,1.4l-0.1,0.2v0.1c-0.1,0.2-0.1,0.4-0.2,0.6c-0.4,1.3-0.6,2.4-0.9,3.6
			c-0.1,0.6-0.3,1.2-0.4,1.9c-0.1,0.5-0.2,0.9-0.3,1.4c0.2-0.2,0.3-0.4,0.5-0.6s0.4-0.5,0.5-0.7c0.4-0.5,0.7-1,1.1-1.4l0,0l0.3-0.4
			c0.2-0.3,0.5-0.6,0.7-0.8c0.1-0.2,0.3-0.3,0.4-0.5l0,0c0.1-0.1,0.1-0.1,0.2-0.2l0.1-0.1c0.4-0.4,0.9-0.9,1.3-1.4l0.2-0.3
			c0.2-0.3,0.4-0.5,0.6-0.8c0.6-0.8,1.2-1.7,1.9-2.5c0.6-0.7,1.3-1.5,1.8-2.3l0.3-0.4c0.1-0.2,0.3-0.4,0.4-0.5
			c0.5-0.7,0.8-1.4,1.2-2.1l0.1-0.1c0.1-0.2,0.3-0.5,0.4-0.7c0.3-0.5,0.5-0.9,0.8-1.3L266,57c0.3-0.4,0.7-0.9,1-1.4
			c0.4-0.5,0.8-0.9,1.2-1.3c0.4-0.4,0.9-0.7,1.5-1.1c0.4-0.2,0.8-0.5,1.3-0.8c0.2-0.1,0.4-0.3,0.6-0.4h0.1c0.2-0.1,0.4-0.3,0.6-0.4
			c0.1-0.1,0.2-0.2,0.3-0.3c0.2-0.3,0.4-0.7,0.6-1.1v-0.1l0.1-0.1c-0.2-0.1-0.3-0.1-0.4-0.3c-0.4-0.4-0.4-1.1,0-1.5
			c0.2-0.2,0.3-0.3,0.4-0.4c0.2-0.4,0.4-0.7,0.6-1.1c0.2-0.3,0.3-0.6,0.5-1s0.4-0.9,0.6-1.4c-0.5-0.2-1.1-0.3-1.7-0.5
			c-0.7-0.2-1.5-0.3-2.4-0.5c-0.5-0.1-1.1-0.1-1.7-0.1c-0.1,0-0.2,0-0.3,0c-0.2,0-0.3,0-0.5,0h-0.1c-0.2,0-0.4,0-0.6,0h-0.2h-0.2
			H267c-0.3,0-0.7,0-1.1,0c-0.6-0.1-1.3-0.1-1.9-0.3c-0.7-0.2-1.2-0.5-1.7-0.8c-0.4-0.3-0.9-0.6-1.4-1.1c-0.2-0.1-0.3-0.3-0.5-0.4
			h-0.1c-0.2-0.2-0.4-0.4-0.7-0.6c-0.2-0.2-0.5-0.5-0.7-0.7l-0.1-0.1c-0.1-0.1-0.2-0.2-0.4-0.3c-0.4-0.3-0.7-0.7-1.2-1
			c-1.3-1-2.7-2.1-4.3-2.9l-0.5-0.3l-0.2-0.1c-0.6-0.3-1.2-0.7-1.8-1c-0.7-0.4-1.5-0.7-2.2-1.1C247.7,31.2,247.4,31.1,246.9,31
			L246.9,31z"/>
		<path d="M285.9,13.4L285.9,13.4c-0.9,1.8-1.8,3.6-2.6,5.3c-0.8,1.7-1.7,3.5-2.5,5.3l0,0l-0.1,0.2c-0.3,0.6-0.5,1.2-0.7,1.7
			c-0.2,0.6-0.4,1.2-0.5,1.7v0.1c-0.1,0.5-0.3,1.2-0.5,1.8v0.1c-0.1,0.2-0.1,0.4-0.2,0.6c0,0.1-0.1,0.3-0.2,0.4
			c0.1,0.1,0.1,0.2,0.2,0.3h-0.2c-0.2,0-0.4,0.1-0.5,0.2c-0.2,0.2-0.4,0.5-0.4,0.8c0,0.3,0,0.6,0.2,0.8s0.5,0.4,0.8,0.4h0.1h0.1
			c0.2,0,0.4-0.1,0.5-0.2c0.2-0.2,0.4-0.5,0.4-0.8V32l0,0l0,0c0.1-0.1,0.3-0.3,0.4-0.4c0.1-0.1,0.2-0.2,0.3-0.4
			c0.2-0.2,0.4-0.4,0.5-0.6l0.1-0.1c0.2-0.3,0.5-0.7,0.8-0.9c0.1-0.1,0.2-0.2,0.3-0.2l0,0c0.3-0.2,0.6-0.5,0.8-0.7
			c0.1-0.2,0.3-0.4,0.4-0.7c0.1-0.2,0.2-0.5,0.3-0.7c0.2-0.6,0.4-1.3,0.5-1.9c0.1-0.3,0.1-0.7,0.2-1l0.1-0.3
			c0.1-0.3,0.1-0.6,0.2-0.9c0.1-0.5,0.2-1,0.3-1.5l0.1-0.3l0.1-0.4c0-0.2,0.1-0.4,0.1-0.7l0,0c0.1-0.5,0.2-1,0.3-1.6
			c0.1-1.2,0.1-2.5,0.1-3.7l0,0v-0.2C286,14.3,286,13.8,285.9,13.4L285.9,13.4z"/>
		<path d="M297.3,67.2L297.3,67.2c-0.5,0-0.9,0-1.2,0.1c-0.1,0-0.2,0-0.2,0.1c-0.2,0.2-0.4,0.4-0.5,0.5s-0.2,0.2-0.3,0.3
			c-0.3,0.3-0.6,0.6-1,0.9s-0.8,0.6-1.4,0.9c-0.7,0.4-1.4,0.6-2.2,0.8h-0.1l-0.2,0.1c-0.5,0.1-1,0.3-1.5,0.5
			c-0.6,0.2-1.1,0.4-1.6,0.6s-1.1,0.3-1.6,0.3c0,0.2,0.1,0.3,0.1,0.5c0,0.1,0.1,0.2,0.1,0.3c0.2,0.1,0.3,0.2,0.5,0.2
			c0.2,0.1,0.5,0.2,0.7,0.3c0.7,0.3,1.3,0.5,2,0.8h0.1h0.1c0.3,0.1,0.5,0.2,0.8,0.4l0.2,0.1c0.1,0.1,0.3,0.1,0.4,0.2
			c0.2,0.1,0.3,0.1,0.5,0.2h0.1l0,0c0.3,0.1,0.5,0.2,0.8,0.4c0.4,0.2,0.9,0.5,1.3,0.8l0.3,0.2l0,0c0.3,0.2,0.6,0.4,0.9,0.6l0.3,0.2
			c0.3,0.2,0.6,0.4,0.9,0.6c0.4,0.3,0.8,0.6,1.3,1c0.3,0.3,0.6,0.7,0.9,1l0.2,0.2c0.4,0.5,0.8,0.9,1.1,1.3c0.6,0.7,1.3,1.4,2,2l0,0
			l0.4,0.3c0.4,0.4,0.8,0.8,1.2,1.1c0.4,0.4,0.9,0.9,1.3,1.3c0.2,0.2,0.3,0.3,0.5,0.5l0.1,0.1c0.6,0.6,1.2,1.2,1.9,1.8
			c0.3,0.2,0.6,0.4,1,0.6c0.2,0.1,0.4,0.2,0.5,0.3c0.2,0.1,0.3,0.2,0.5,0.2c0.3,0.2,0.6,0.4,0.9,0.5l0.1,0.1
			c0.1,0.1,0.3,0.2,0.4,0.2c0.4,0.2,0.9,0.5,1.3,0.7c1.1,0.6,2,1.4,2.9,2.2c0.5,0.4,0.9,0.8,1.4,1.2l0,0c0.4,0.4,0.8,0.7,1.2,1.1
			c0.9,0.8,1.7,1.5,2.5,2.1c0.5,0.4,0.9,0.6,1.3,0.9c0.4,0.2,0.8,0.5,1.4,0.8c0.5,0.2,1,0.5,1.4,0.7h0.1c0.4,0.2,0.9,0.4,1.3,0.6
			c1.1,0.6,2,1.2,2.9,1.9c0.4,0.3,0.8,0.7,1.2,1h0.1l0,0c0.3,0.3,0.7,0.6,1,0.9c0.1,0.1,0.3,0.2,0.4,0.3c0.2,0.1,0.4,0.3,0.6,0.4
			c0.3,0.2,0.5,0.4,0.8,0.6l0.2,0.2c0.2,0.2,0.5,0.4,0.9,0.5s0.8,0.3,1.2,0.3c0-0.2,0-0.4,0-0.5s-0.1-0.2-0.1-0.4
			c-0.2-0.1-0.5-0.2-0.7-0.5c-0.1-0.2-0.3-0.4-0.4-0.6l-0.1-0.1l-0.1-0.1c-0.1-0.1-0.2-0.2-0.2-0.3v-0.1c-0.2-0.3-0.4-0.5-0.6-0.8
			c-0.5-0.6-0.9-1.2-1.3-1.7c-0.2-0.2-0.3-0.5-0.5-0.7c-0.2-0.3-0.4-0.7-0.7-1c-0.3-0.5-0.7-0.9-1.1-1.3l-0.1-0.1
			c-0.6-0.6-1.2-1.2-1.8-1.9c-0.3-0.3-0.7-0.6-1-1l0,0c-0.3-0.2-0.5-0.5-0.8-0.7c-1.1-1.1-2.3-2.3-3.8-3.9c-0.4-0.4-0.7-0.8-1.1-1.1
			l-0.2-0.2c-0.3-0.3-0.7-0.6-1-0.9c-0.8-0.8-1.6-1.7-2.3-2.6c-0.6-0.9-1.3-1.8-1.9-2.8l-0.2-0.3c-0.2-0.3-0.5-0.7-0.7-1.1l-0.6-1
			c-0.1-0.1-0.2-0.3-0.2-0.4c-0.1-0.3-0.3-0.5-0.5-0.7c-0.5-0.8-1.1-1.5-1.7-2.2l-0.1-0.1c-0.3-0.3-0.5-0.6-0.8-0.9
			c-0.7-0.9-1.5-2-2.3-3c-0.4-0.5-0.8-1-1.2-1.7c-0.1-0.2-0.3-0.4-0.4-0.6l-0.1-0.1c-0.2-0.3-0.4-0.5-0.5-0.8
			c-0.3-0.5-0.7-1-1.1-1.6c-0.1-0.2-0.3-0.4-0.4-0.7c-0.2-0.3-0.3-0.6-0.4-1l0,0c-0.4,0.3-0.9,0.4-1.4,0.4c-0.3,0-0.6-0.1-0.9-0.2
			c-0.4-0.1-0.7-0.3-1-0.5h-0.1l0,0c-0.2-0.1-0.4-0.2-0.5-0.3c-0.2-0.1-0.5-0.2-0.9-0.2C298.1,67.2,297.7,67.2,297.3,67.2"/>
		<path d="M319.5,42.4L319.5,42.4c-0.1,0.2-0.1,0.3-0.2,0.5s-0.1,0.4-0.2,0.6c-0.2,0.5-0.3,1-0.5,1.5c-0.4,1.1-0.9,2.3-1.4,3.4
			c-0.1,0.3-0.3,0.6-0.4,0.9c-0.2,0.6-0.5,1.2-0.6,1.5c-0.2,0.5-0.4,1-0.6,1.5c-0.1,0.2-0.2,0.5-0.3,0.7l0,0
			c-0.1,0.2-0.2,0.5-0.3,0.7c-0.3,0.6-0.5,1.2-0.7,1.7c-0.1,0.3-0.3,0.6-0.4,0.9l-0.1,0.1c-0.1,0.2-0.2,0.3-0.2,0.5
			c-0.1,0.2-0.2,0.5-0.3,0.7l0,0c-0.1,0.3-0.2,0.5-0.4,0.8c-0.4,0.7-0.8,1.3-1.4,1.8c-0.5,0.4-1.1,0.8-1.8,1
			c-0.5,0.2-1.1,0.2-1.7,0.3c-0.3,0-0.6,0.1-0.9,0.2c-0.3,0.1-0.6,0.2-0.8,0.3c0,0-0.1,0-0.1,0.1c0,0,0,0.1-0.1,0.1
			c0,0.1-0.1,0.3-0.1,0.5c0,0.3,0,0.6,0,0.8v0.1c0,0.2,0.1,0.5,0,0.7c0,0.4-0.2,0.9-0.4,1.3c0,0.1-0.1,0.1-0.1,0.2v0.1
			c0,0.3,0.1,0.7,0.2,1.1c0.1,0.2,0.1,0.5,0.2,0.7c0.4,0.6,0.8,1.2,1.2,1.8c0.2,0.3,0.4,0.6,0.6,0.9s0.4,0.5,0.5,0.8
			c0.8,1.1,1.5,2.1,2.2,3l0.4,0.5c0.6,0.8,1.3,1.7,2,2.5c0.4,0.5,0.8,1,1.2,1.5c0.5,0.6,0.9,1.3,1.2,1.9v0.1
			c0.1,0.2,0.2,0.4,0.3,0.5c0.6,1,1.3,2,2.1,3.2c0.6,0.9,1.3,1.8,2.1,2.8c0.2,0.3,0.5,0.5,0.8,0.8c0.2,0.2,0.4,0.4,0.6,0.5
			c0.1,0.1,0.3,0.2,0.4,0.3l0.1,0.1l0,0l0,0c0.1,0.1,0.2,0.2,0.3,0.3l0.3,0.3l0.3,0.3c0.2,0.3,0.5,0.5,0.7,0.8l0,0l0.2,0.2
			c0.7,0.8,1.5,1.6,2.2,2.3c0.5,0.5,0.9,0.9,1.3,1.2l0.3,0.2c0.3,0.3,0.7,0.6,1.1,1s0.7,0.8,1.1,1.1l0.3,0.3l0.1,0.1
			c0.4,0.4,0.8,0.9,1.2,1.4c0.5,0.6,1,1.3,1.4,2l0.4,0.5c-0.3-1.1-0.7-2.3-1.2-3.6c-0.2-0.3-0.3-0.7-0.5-1l-0.1-0.1
			c-0.1-0.2-0.2-0.3-0.3-0.5c-0.2-0.4-0.3-0.7-0.5-1.1l0,0c-0.1-0.2-0.2-0.4-0.3-0.7c-0.3-0.6-0.5-1-0.8-1.4
			c-0.2-0.2-0.3-0.5-0.5-0.7s-0.3-0.4-0.5-0.6s-0.3-0.5-0.5-0.7s-0.3-0.5-0.5-0.7s-0.3-0.4-0.5-0.7c-0.2-0.2-0.3-0.5-0.5-0.7
			c-0.3-0.5-0.5-0.9-0.8-1.4c-0.2-0.5-0.5-1-0.7-1.5c-0.4-0.9-0.9-1.9-1.3-3c-0.1-0.1-0.1-0.3-0.2-0.4c-0.1-0.3-0.3-0.6-0.4-1
			l-0.1-0.2c-0.2-0.4-0.3-0.8-0.4-1.2c-0.2-0.8-0.3-1.7-0.4-2.5v-0.3v-0.3c-0.1-0.6-0.1-1.1-0.2-1.7c0-0.4-0.1-0.8-0.1-1.1v-0.4
			c0-0.4-0.1-0.8-0.1-1.2c-0.1-0.6-0.1-1.1-0.2-1.7c-0.1-0.5-0.2-1.1-0.3-1.6v-0.1c-0.1-0.4-0.2-0.9-0.4-1.4v-0.1c0,0,0,0-0.1-0.1
			c-0.2-0.1-0.4-0.2-0.6-0.4h-0.1c-0.1-0.1-0.2-0.1-0.3-0.2c-0.2-0.2-0.5-0.4-0.8-0.6c-0.3-0.3-0.5-0.6-0.6-0.9s-0.1-0.6-0.1-0.9
			c0-0.8,0.2-1.6,0.4-2.3c0.1-0.3,0.1-0.5,0.2-0.8c0.2-0.9,0.4-1.7,0.6-2.7c0.1-0.7,0.2-1.4,0.3-2l0,0l0.1-0.5
			c0.2-1.9,0.4-3.6,0.4-5.4c0-1.6,0.1-3.4-0.2-5.3c-0.1-0.4-0.1-0.7-0.2-1.1c0-0.1-0.1-0.3-0.1-0.4c-0.1-0.2-0.1-0.5-0.2-0.7
			C319.7,42.9,319.6,42.7,319.5,42.4L319.5,42.4z"/>
		<path d="M273.6,106.5L273.6,106.5c0.2,0.5,0.4,0.8,0.5,1.2c0.3,0.6,0.5,1.1,0.7,1.5s0.5,0.7,0.7,1.1c0.2,0.3,0.5,0.5,0.7,0.8
			c0.1,0.1,0.1,0.1,0.2,0.2l0,0c0.2,0.1,0.3,0.3,0.5,0.5c0.3,0.3,0.5,0.6,0.8,1c0.2,0.3,0.4,0.7,0.6,1c0.2,0.4,0.5,0.9,0.7,1.3
			c0.1,0.2,0.3,0.5,0.4,0.7l0.1,0.2c0.2,0.3,0.3,0.6,0.5,0.9s0.4,0.6,0.6,0.9l0,0c0.2,0.2,0.4,0.5,0.6,0.7s0.4,0.5,0.7,0.8
			c0.4,0.3,0.8,0.5,1.1,0.7h0.1c0.3,0.2,0.6,0.4,0.9,0.6c0.2,0.1,0.3,0.2,0.5,0.3l0.2,0.1c0.1,0.1,0.2,0.1,0.3,0.2
			c0.2,0.1,0.4,0.3,0.6,0.5s0.4,0.4,0.5,0.6c0.1,0.1,0.2,0.3,0.2,0.4c0.1,0.2,0.1,0.4,0,0.6v0.1l-0.1,0.2c-0.1,0.2-0.3,0.3-0.5,0.4
			c0.1,0.1,0.1,0.1,0.2,0.2c0.5,0.4,0.9,0.9,1.4,1.3c0.3,0.3,0.7,0.7,1,1.1c0.2,0.3,0.4,0.5,0.5,0.8c0.1,0.2,0.2,0.4,0.3,0.6
			c0.2,0.3,0.3,0.7,0.4,1c0,0.1,0,0.1,0.1,0.2l0,0l0.1,0.2c0.2,0.5,0.5,1.1,0.8,1.6l0,0l0,0c0.1-0.2,0.2-0.3,0.3-0.5v-0.1
			c0-0.1-0.1-0.2-0.1-0.4c0-1.8-0.1-3.5-0.2-5.2c0-0.6-0.1-1.2-0.1-1.7c0-0.2,0-0.4-0.1-0.6c0-0.4-0.1-0.8-0.1-1.1
			c0-0.4-0.1-0.8-0.1-1.2c-1.3-0.2-2.2-0.5-3-1c-0.5-0.3-1-0.7-1.4-1.1c-0.3-0.2-0.4-0.4-0.6-0.6s-0.4-0.5-0.6-0.7l0,0
			c-0.3-0.4-0.5-0.8-0.7-1.3c-0.6,0-1.2-0.5-1.6-1.1c-0.3-0.3-0.5-0.6-0.7-0.8l-0.1-0.1l0,0c-0.2-0.2-0.4-0.5-0.6-0.7
			c-0.4-0.4-0.9-0.8-1.3-1.1c-0.2-0.1-0.3-0.2-0.4-0.4c-0.3-0.2-0.6-0.5-0.8-0.7h-0.1c-0.3-0.2-0.5-0.5-0.8-0.7
			c-0.2-0.1-0.3-0.2-0.5-0.4c-0.5-0.4-1-0.7-1.4-1.1l-0.2-0.2l-0.1-0.1c-0.2-0.2-0.5-0.4-0.7-0.6c-0.1-0.1-0.2-0.2-0.4-0.3l-0.1-0.1
			h-0.1c-0.1-0.1-0.3-0.2-0.4-0.3C273.7,106.5,273.6,106.5,273.6,106.5L273.6,106.5"/>
		<path d="M292.5,120.2L292.5,120.2L292.5,120.2c0.1,0.7,0.1,1.5,0.2,2.2v0.1c0.1,0.8,0.2,1.5,0.2,2.2c-0.1,0-0.3,0.1-0.4,0.2
			c-0.2,0.2-0.4,0.5-0.4,0.8s0,0.6,0.2,0.8s0.5,0.4,0.8,0.4h0.1h0.1c0.2,0,0.4-0.1,0.5-0.2c0.2-0.2,0.4-0.5,0.4-0.8s0-0.6-0.2-0.8
			c-0.1-0.1-0.3-0.3-0.4-0.3c-0.1-0.3-0.2-0.6-0.1-0.9s0.3-0.5,0.5-0.6c0.1,0,0.1-0.1,0.2-0.1s0.1-0.1,0.2-0.1
			c0.1-0.1,0.3-0.1,0.4-0.2c0.1,0,0.2-0.1,0.3-0.1c0.1,0,0.3-0.1,0.4-0.1c0.5-0.2,1-0.5,1.4-0.8l0.2-0.1c0.3-0.2,0.5-0.3,0.8-0.5
			s0.6-0.4,1-0.6c0.1-0.1,0.3-0.2,0.4-0.2c-0.1,0-0.2,0-0.3,0h-0.1c-0.7,0.1-1.4,0.2-2,0.2l0,0c-0.4,0-0.9-0.1-1.3-0.1h-0.2
			c-0.3,0-0.6-0.1-0.8-0.1l0,0c-0.2,0-0.5,0-0.7-0.1c-0.2,0-0.3,0-0.5-0.1l0,0C293.1,120.2,292.8,120.2,292.5,120.2"/>
		<path d="M198.3,170.2L198.3,170.2L198.3,170.2c0.2,1.1,0.4,2.2,0.6,3.3c0.1,0.6,0.2,1.3,0.3,1.9c0,0.2,0.1,0.3,0.1,0.5v0.1
			c0.1,0.4,0.1,0.8,0.2,1.2c0.3,1.4,0.5,2.7,0.6,3.8c0,0.1,0.1,0.3,0.1,0.4c0,0.1,0,0.2,0,0.3l0,0c0,0.2,0.1,0.4,0.1,0.5v0.3v0.3
			c0.1,0.7,0.2,1.3,0.2,1.8c0.1,1.2,0.2,2.4,0.2,3.8c0,0.2,0,0.5,0,0.7c0,1.1,0,2.2-0.1,3.3c0,0.5-0.1,0.9-0.2,1.4l-0.1,0.4
			c0,0.3-0.1,0.6-0.1,0.9l0,0v0.2c0,0.3-0.1,0.5-0.1,0.8c-0.2,1.3-0.4,2.7-0.8,4.2c-0.1,0.5-0.2,1.1-0.4,1.6v0.2
			c-0.1,0.6-0.3,1.2-0.4,1.8l-0.1,0.4v0.1c-0.1,0.4-0.2,0.9-0.3,1.4c-0.2,0.6-0.4,1.3-0.6,1.9l0,0c-0.1,0.5-0.3,0.9-0.5,1.4
			c-0.2,0.7-0.5,1.4-0.7,2.1v0.1v0.1c-0.2,0.5-0.3,1.1-0.5,1.6l-0.1,0.3c-0.2,0.6-0.4,1.3-0.7,1.9c-0.3,0.7-0.6,1.4-1,2.1l-0.2,0.4
			l-0.2,0.4l-0.3,0.5c-0.2,0.4-0.4,0.8-0.7,1.2c-0.5,0.9-0.9,1.8-1.3,2.7c-0.1,0.2-0.2,0.4-0.3,0.6l-0.3,0.7c-0.3,0.8-0.6,1.6-1,2.4
			c-0.3,0.8-0.7,1.5-1.1,2.3l0,0l-0.2,0.4c-0.8,1.6-1.8,3.4-2.7,5.4c-0.2,0.4-0.3,0.9-0.5,1.3l0,0c-0.3,0.7-0.5,1.4-0.8,2.1
			c-0.3,0.7-0.7,1.5-1,2.1s-0.6,1.2-0.8,1.6c-0.1,0.3-0.3,0.6-0.4,0.9l-0.1,0.1c-0.1,0.2-0.2,0.5-0.3,0.7l0,0l0,0l0,0l0.1-0.1
			c0.5-0.5,1.1-1,1.5-1.4c0.6-0.5,1.3-1.1,1.9-1.7l0.6-0.5c-0.5-0.1-0.9-0.4-1.2-0.8c-0.3-0.4-0.4-0.9-0.3-1.4
			c0.1-0.5,0.4-0.9,0.8-1.2c0.1,0,0.1-0.1,0.2-0.1c0.4-0.4,0.8-0.9,1.2-1.4l0.1-0.2l0.2-0.2l0.1-0.1c0.4-0.5,0.9-1.1,1.3-1.7
			c0.4-0.6,0.8-1.3,1.1-1.9l0.1-0.2l0.3-0.5c0.7-1.3,1.4-2.3,2-3.1c0.8-1,1.6-2.1,2.5-3l0.1-0.1c0.6-0.7,1.3-1.5,1.9-2.3
			c0.4-0.5,0.8-1,1.2-1.5c0.3-0.4,0.6-0.9,0.9-1.3l0,0l0.1-0.2c0.3-0.4,0.5-0.8,0.8-1.2v-0.1c0.4-0.6,0.8-1.3,1.3-1.9
			c0.6-0.9,1.3-1.8,2-2.6l0.4-0.6c0.4-0.5,0.7-0.9,1-1.4l0.2-0.2c0.3-0.3,0.5-0.7,0.7-1.1l0.1-0.1l0.8-1.2c0.5-0.8,0.9-1.6,1.4-2.5
			l0.1-0.3l0.3-0.6c0.3-0.5,0.6-1.1,0.9-1.6c0.3-0.6,0.6-1.2,1-1.8s0.6-1.1,0.9-1.6l0.2-0.3c0.3-0.5,0.7-1.1,1.1-1.6
			c1.6-2,3-3.4,4.5-4.3c-0.1-0.2-0.2-0.4-0.3-0.5c-0.2-0.4-0.4-0.9-0.6-1.4c-0.2-0.5-0.3-1.1-0.4-1.6l-0.1-0.3
			c-0.1-0.5-0.2-1.1-0.4-1.8c0-0.2-0.1-0.5-0.1-0.7c-0.1-0.4-0.1-0.8-0.2-1.2c-0.1-0.5-0.2-1-0.4-1.6c-0.3-0.6-0.6-1.3-1.1-1.9
			c-0.3-0.4-0.7-0.8-1-1.1l-0.1-0.1c-0.1-0.1-0.2-0.2-0.3-0.3c-0.2-0.2-0.4-0.4-0.5-0.6l0,0c-0.3-0.4-0.7-0.8-1-1.1
			c-0.4-0.3-0.8-0.7-1.1-1l-0.1-0.1c-0.2-0.2-0.5-0.4-0.7-0.6c-0.6-0.5-1.2-1-1.8-1.5l-0.2-0.1c-0.7-0.5-1.3-1-2-1.5l0.2,0.1
			c-1.6-1.3-3.2-2.5-4.9-3.9C198.9,170.7,198.6,170.4,198.3,170.2L198.3,170.2"/>
		<path d="M230.8,192.6L230.8,192.6c-0.3,0.1-0.6,0.1-0.9,0.2c-1,0.3-1.8,0.5-2.6,0.8l-0.2,0.1c-0.4,0.2-0.9,0.4-1.3,0.6
			c-0.4,0.2-0.9,0.3-1.4,0.4c-0.7,0.2-1.5,0.3-2.2,0.3c-0.3,0-0.7,0-1,0s-0.7,0-1-0.1c-0.5-0.1-0.9-0.1-1.3-0.2
			c-0.2,0.4-0.4,0.6-0.6,0.8c-0.7,0.4-1.4,0.9-2.1,1.5c-0.8,0.8-1.5,1.7-2.3,2.8c-0.3,0.5-0.7,1.1-1.1,1.8c-0.2,0.4-0.4,0.8-0.6,1.1
			c-0.2,0.4-0.4,0.8-0.6,1.2c-0.2,0.4-0.5,0.9-0.7,1.3c-0.4,0.7-0.7,1.3-1.1,2c-0.9,1.6-1.6,2.7-2.3,3.8s-1.5,2.2-2.3,3.3l-0.3,0.4
			l-0.2,0.2c-0.6,0.8-1.2,1.6-1.8,2.5c-0.3,0.4-0.5,0.8-0.7,1.1l-0.1,0.1c-0.4,0.7-0.9,1.3-1.3,2c-0.8,1.1-1.6,2.1-2.3,3.1
			c-0.5,0.7-1.1,1.3-1.6,1.9c-1,1.2-2.1,2.5-3,3.8c-0.4,0.6-0.7,1.3-1.1,1.9l0,0c-0.5,0.9-1,1.9-1.6,2.7c-0.5,0.7-1,1.3-1.5,1.9
			c0.1,0,0.2-0.1,0.4-0.2l0.1-0.1c1.1-0.6,2.2-1.2,3.4-1.9c1.1-0.6,2.2-1.2,3.3-1.7c1-0.5,2.2-1,3.2-1.8c0.4-0.3,0.7-0.6,0.9-0.9
			l0.2-0.3c0.3-0.5,0.7-0.9,1.1-1.3c0.4-0.4,0.8-0.9,1.3-1.3l0,0l0.1-0.1l0.3-0.3c0.8-0.7,1.6-1.5,2.3-2.3c0.3-0.3,0.5-0.7,0.7-1
			s0.4-0.6,0.7-0.9c0.5-0.7,1-1.3,1.5-1.9l0.3-0.4c0.9-1.1,1.6-2.4,2.4-3.6l0.2-0.3l0.3-0.5c0.3-0.5,0.6-1,0.9-1.4l0.1-0.2
			c0.1-0.2,0.3-0.4,0.4-0.6l0.2-0.2c0.3-0.4,0.5-0.8,0.9-1.1c0.3-0.3,0.7-0.6,1.1-0.9c0.2-0.1,0.4-0.2,0.6-0.3l0.1-0.1
			c0.2-0.1,0.5-0.2,0.7-0.3c0.6-0.2,1.3-0.2,2.2-0.3c2.9-0.1,5.1-0.2,7.2-0.5c1.2-0.2,2.2-0.4,3.2-0.6c0.9-0.2,1.9-0.5,2.8-0.9
			c1.9-0.8,3.5-1.6,4.8-2.4c0.2-0.1,0.4-0.2,0.5-0.3c0.6-0.3,1.2-0.7,1.8-1c0.3-0.1,0.5-0.2,0.8-0.4c-0.3-0.3-0.6-0.7-1-1.1
			c-0.3-0.3-0.5-0.6-0.8-1c-0.5-0.6-1-1.2-1.5-1.8c-1-1.1-1.8-1.9-2.7-2.8c-0.9-0.9-1.8-1.8-2.7-2.6l-0.5-0.5
			C231.1,193.5,230.9,193,230.8,192.6L230.8,192.6z"/>
		<path d="M255.4,292.3L255.4,292.3v0.4c0,0.4,0,0.7,0,1.1c-0.1,1.2-0.2,2.3-0.4,3.4l-0.1,0.4c-0.1,0.9-0.3,1.7-0.5,2.6
			s-0.5,1.8-1,3c-0.4,1-0.8,2-1.3,3l0,0l0,0c-0.1,0.3-0.3,0.6-0.4,0.9l-0.1,0.2c-0.5,1.1-0.9,2.1-1.5,3.1c-0.4,0.7-0.9,1.3-1.3,1.7
			c-0.3,0.3-0.7,0.7-1.1,1l-0.1,0.1l-0.2,0.2c-0.1,0.1-0.2,0.2-0.3,0.2c0,0.3-0.1,0.5-0.2,0.7c-0.2,0.4-0.7,0.7-1.1,0.9
			c-0.2,0-0.3,0.1-0.5,0.1s-0.3,0-0.5-0.1l-0.1-0.1c-0.3,0.1-0.5,0.2-0.7,0.2v0.2c-0.2,2-0.3,4.1-0.3,6c0,0.2,0,0.4,0,0.6v0.1l0,0
			c0,0.5,0,0.9-0.1,1.4c-0.1,0.8-0.1,1.6-0.2,2.3c-0.1,1.1-0.2,2.3-0.4,3.5c-0.3,2.4-0.7,4.9-1.3,8.2c-0.4,2.5-0.8,4.9-1.3,7.7
			c-0.1,0.3-0.1,0.7-0.2,1v0.3c-0.1,0.8-0.3,1.7-0.4,2.6c-0.2,1.3-0.3,2.6-0.4,3.8c0,0.7,0,1.5-0.1,2.2v0.1c0,0.9,0,1.7-0.1,2.6v0.1
			v0.1l0,0l0,0c-0.1,3-0.4,6-0.6,8.5c-0.1,0.6-0.1,1.2-0.2,1.8c-0.2,1.9-0.4,3.8-0.5,5.6c0,0.6,0,1.3,0,1.9v0.2c0,0.5,0,1.1,0,1.6
			c0,0.3,0,0.6,0,0.9c0.1-0.3,0.2-0.6,0.3-0.8l0.1-0.2c0.3-0.6,0.6-1.2,0.9-1.7c1.2-2.1,2.3-4.3,3.3-6.6l0.2-0.4
			c0.1-0.3,0.2-0.6,0.4-0.9c0.3-0.7,0.6-1.3,0.9-2l0.1-0.2c0.2-0.3,0.4-0.7,0.6-1c0.3-0.5,0.7-0.9,1-1.4l0,0
			c0.2-0.2,0.4-0.5,0.6-0.7l0.2-0.3l0.2-0.3c0.6-0.8,1.3-1.7,1.8-2.7c0.3-0.5,0.5-1,0.8-1.4l0.2-0.4c0.3-0.5,0.6-1,0.9-1.6
			c0.6-1,1.1-2.1,1.6-3.3c0.5-1.1,1-2.2,1.5-3.2l0.1-0.2c0.3-0.7,0.6-1.4,0.8-2c0.2-0.4,0.3-0.8,0.5-1.2l0.1-0.3l0.1-0.2
			c0.2-0.6,0.5-1.2,0.7-1.8c0.5-1.2,0.9-2.4,1.2-3.7c0.7-2.4,1-4.8,1.3-7.1c0.1-1,0.2-2,0.3-2.9v-0.6c0-0.4,0.1-0.9,0.1-1.3v-0.4
			v-0.2c0.1-0.6,0.1-1.2,0.2-1.8v-0.2c0-0.3,0.1-0.5,0.2-0.8c0.1-0.4,0.3-0.8,0.5-1.1c0.3-0.4,0.7-0.8,1.1-1
			c0.5-0.3,1.1-0.5,1.5-0.7c0.3-0.1,0.6-0.2,0.8-0.3c0.5-0.1,1-0.2,1.5-0.3h0.2c0.9-0.2,1.7-0.4,2.4-0.6c0.7-0.3,1.4-0.7,2.2-1.3
			c0.6-0.4,1.2-0.8,1.7-1.2c2-1.6,3.7-3.2,5.1-4.9c0.3-0.4,0.7-0.9,1-1.4l0.3-0.4l0.1-0.2c0.5-0.7,0.9-1.3,1.3-2.1
			c0.3-0.7,0.4-1.5,0.5-2.2c0-0.4,0-0.8,0-1.3c0-0.2-0.1-0.3-0.1-0.5c-0.1-0.3-0.3-0.6-0.5-0.9c-0.1-0.1-0.2-0.2-0.3-0.3
			c-0.7-0.5-1.5-1-2.3-1.4c-0.6-0.3-1.2-0.6-1.8-0.9c-0.3-0.1-0.7-0.3-1.1-0.4c-0.5-0.2-1-0.3-1.6-0.4c-0.7-0.2-1.4-0.3-2-0.4
			c-0.2,0-0.5-0.1-0.7-0.1l-0.4-0.1l0,0c-0.5-0.1-1-0.2-1.4-0.3c-0.6-0.2-1.2-0.3-1.8-0.5c-1.2-0.4-2.5-0.8-3.8-1.4
			c-0.5-0.2-1.1-0.5-1.5-0.8c-0.5-0.4-1.1-0.8-1.5-1.3c-0.6-0.6-1.1-1.4-1.6-2.1c-0.2-0.3-0.5-0.7-0.7-1
			C255.9,293,255.7,292.7,255.4,292.3L255.4,292.3L255.4,292.3z"/>
		<path d="M298.4,369.3L298.4,369.3c-0.2,0.2-0.3,0.4-0.5,0.6c-0.3,0.5-0.6,0.8-0.8,1.2c-0.3,0.6-0.6,1.1-0.8,1.6
			c-0.2,0.6-0.5,1.2-0.6,1.8c-0.1,0.5-0.2,1.1-0.3,1.8c-0.1,0.9-0.2,1.7-0.2,2.6v0.1c-0.1,0.8-0.1,1.7-0.2,2.6
			c-0.2,1.4-0.4,2.9-0.7,4.3c-0.1,0.7-0.3,1.3-0.5,1.9s-0.5,1.2-0.7,1.8l-0.2,0.4c-0.1,0.3-0.2,0.5-0.4,0.8
			c-0.1,0.1-0.1,0.3-0.2,0.4c-0.2,0.3-0.4,0.6-0.6,0.9c-0.4,0.6-1,1-1.6,1.4l-0.1,0.1c-0.6,0.4-1.2,0.8-1.8,1.2h-0.1
			c-0.4,0.2-0.8,0.5-1.2,0.8c-0.1,0.1-0.2,0.2-0.3,0.3c-0.1,0.1-0.1,0.2-0.2,0.3c-0.1,0.2-0.1,0.3-0.1,0.5c0,0.3,0,0.5,0,0.9
			c0.1,0.6,0.2,1,0.4,1.4c0.1,0.2,0.1,0.4,0.2,0.6c0.1,0.3,0.2,0.6,0.3,0.9c0.2,0.4,0.3,0.9,0.5,1.4c0.1,0.3,0.2,0.5,0.3,0.8v0.1
			c0.1,0.2,0.1,0.4,0.2,0.6c0.4,1.1,0.8,2.3,1.2,3.4l0.1,0.2c0.3,0.8,0.6,1.7,0.9,2.5c0.4,1,1,1.9,1.4,2.7c0.3,0.6,0.6,1.2,0.9,1.7
			c0.2,0.4,0.4,0.8,0.6,1.2c0.1,0.2,0.2,0.5,0.3,0.8c0.2,0.5,0.2,1,0.1,1.6c-0.1,0.3-0.3,0.6-0.5,0.9l0,0c-0.1,0.2-0.3,0.4-0.4,0.5
			c-0.4,0.4-0.8,0.8-1.2,1.2c-0.2,0.2-0.3,0.3-0.5,0.5l-0.1,0.1c-0.2,0.2-0.4,0.4-0.6,0.6s-0.4,0.4-0.6,0.6h-0.1l-0.1,0.1
			c-0.1,0.1-0.2,0.2-0.3,0.3c-0.5,0.4-1,0.9-1.4,1.3c-0.4,0.3-0.7,0.7-1.1,1c-0.2,0.2-0.4,0.4-0.6,0.6c0.3,0.9,0.7,1.7,1.1,2.6
			c0.5,0.4,0.8,0.9,0.8,1.6c0,0.2,0,0.3,0,0.5l0.3,0.8l0.2,0.5c0.6,1.4,1.1,2.8,1.7,4.2c0.2,0.5,0,1.1-0.2,1.5s-0.7,0.7-1.1,0.9l0,0
			c0.1,1,0.3,2,0.4,3.1l0,0c0.1,0.3,0.1,0.7,0.2,1.1c0.4,1.9,0.9,3.8,1.3,5.5c0.2,0.7,0.4,1.5,0.6,2.2c0.3,1.3,0.6,2.5,1,3.8
			c0.2,0.7,0.3,1.3,0.5,2c0.1,0.5,0.3,0.9,0.5,1.4l0.1,0.3c0.3,0.8,0.7,1.6,1.1,2.3l0.1,0.1c0.2,0.4,0.4,0.8,0.6,1.2
			c0.2,0.4,0.4,0.9,0.6,1.4v-0.1l0,0c0.3-1,0.6-1.9,1-2.8c0.3-0.7,0.7-1.4,1-2.2l0.2-0.5l0.1-0.2l0.1-0.2c0.2-0.4,0.3-0.7,0.5-1.1
			l0.1-0.2c0.1-0.2,0.2-0.5,0.4-0.7c0.4-0.6,0.8-1.1,1.4-1.8c0.4-0.5,0.9-0.9,1.3-1.3c0.5-0.4,1-0.8,1.4-1.2
			c0.8-0.6,1.6-1.2,2.4-1.8c0.3-0.2,0.5-0.4,0.8-0.6c0.5-0.3,1-0.7,1.6-1.1c0.3-0.2,0.5-0.4,0.8-0.5c0.5-0.3,1.1-0.6,1.8-0.9
			c1-0.4,2.1-0.7,3.1-1l0.6-0.2l0.5-0.1c1.1-0.3,2.2-0.6,3.3-1c0.6-0.2,1.2-0.4,1.7-0.6c0.2-0.1,0.4-0.1,0.6-0.2
			c0.4-0.2,0.9-0.4,1.4-0.5c0.7-0.2,1.4-0.4,2-0.6c0.5-0.1,1.1-0.3,1.6-0.4l0,0l0.4-0.1c0.5-0.1,1-0.2,1.4-0.3l0,0
			c0.2,0,0.3-0.1,0.5-0.1c0.6-0.1,1.2-0.2,1.8-0.2l0.5-0.1c0.7-0.1,1.3-0.2,2-0.2h0.2c0.4-0.1,0.9-0.1,1.4-0.1c0.1,0,0.2,0,0.3,0
			c0.6,0,1.3,0.1,2.2,0.3h0.1c1.1,0.2,2.4,0.5,3.7,0.8l1.2,0.3l1.2,0.3c0.8,0.2,1.6,0.5,2.4,0.8h0.1c0.9,0.3,1.8,0.7,2.6,1
			c1.1,0.5,2.2,1,3.4,1.5l-0.2-0.2l-0.4-0.3c-0.7-0.6-1.4-1.2-2.2-1.9c-0.2-0.1-0.3-0.1-0.5-0.2c-1.2-0.5-2.6-0.9-4.1-1.5
			c-0.4-0.1-0.8-0.3-1.2-0.4l-0.6-0.2c-0.5-0.2-1-0.4-1.5-0.6l-0.2-0.1c-1.1-0.4-2.2-0.9-3.5-1.4c-0.5-0.2-1.2-0.5-1.9-0.8
			c-0.5-0.2-1.1-0.4-1.5-0.5c-1.4-0.4-2.9-0.9-4.4-1.3c-1.3-0.4-2.7-0.9-4-1.5l-0.4-0.2h-0.1c-1.1-0.5-2.2-1-3.3-1.5
			c-0.4-0.2-0.9-0.3-1.3-0.5c-0.1,0-0.3-0.1-0.4-0.1c-0.3-0.1-0.6-0.2-0.9-0.3l-0.2-0.1c-0.2-0.1-0.4-0.2-0.6-0.2
			c-0.7-0.3-1.3-0.5-1.8-0.7c-0.6-0.2-1.1-0.5-1.7-0.8s-1.3-0.8-2-1.3c-0.5-0.3-1-0.7-1.3-0.9c-0.3-0.2-0.7-0.4-1-0.6l-0.3-0.2
			c-1-0.6-2.1-1.3-3.1-1.9c-0.9-0.6-1.7-1-2.5-1.3c-0.8-0.2-1.6-0.2-2.3-0.3h-0.2c-1.2,0-2.4-0.1-3.7-0.1c-0.1,0-0.1,0-0.2,0
			c-0.3,0-0.5-0.1-0.8-0.2l-0.2-0.1l-0.2-0.1c-0.4-0.3-0.6-0.8-0.7-1.3c0-0.5,0.1-1,0.4-1.4c0.3-0.3,0.8-0.7,1.3-0.7h0.3
			c0.8,0,1.7,0,2.5,0h0.6l0,0c0.7,0,1.5,0,2.3,0.1h0.2c0.1,0,0.3,0,0.4,0c0.7,0.1,1.4,0.3,2,0.5c0.4,0.2,0.9,0.4,1.3,0.7
			c0.7,0.4,1.3,0.8,2.1,1.3c0.6,0.4,1.3,0.8,1.9,1.2l1,0.6l0,0c0.5,0.3,1.1,0.7,1.7,1.1l0.4,0.3l0.1,0.1c0.2,0.1,0.4,0.3,0.6,0.4
			c0.5,0.3,1.1,0.6,1.6,0.9c1.1,0.5,2.3,0.9,3.4,1.3h0.1c0.3,0.1,0.6,0.2,0.9,0.3c0.8,0.3,1.8,0.6,2.7,1c0.3,0.1,0.6,0.3,0.9,0.4
			l0.1,0.1c0.9,0.4,1.8,0.8,2.7,1.2c1.1,0.5,2.2,0.8,3.3,1.2c0.4,0.1,0.9,0.3,1.3,0.4c1.3,0.4,2.8,0.8,4.2,1.3
			c0.8,0.3,1.6,0.6,2.3,0.9c-1.8-1.4-3.3-2.6-4.6-3.7l-0.3-0.3c-0.4-0.3-0.7-0.6-1.1-0.9l-0.5-0.4l-0.6-0.5
			c-0.1-0.1-0.1-0.1-0.2-0.2s-0.3-0.2-0.4-0.4l-0.8-0.8l-0.8-0.8c-0.3-0.3-0.6-0.6-1-1l-0.4-0.4c-1.8-1.8-3.5-3.8-5.2-5.7l0,0
			l-0.1-0.1c-1.7-1.9-3.4-4.1-5.1-6.5c-1.4-2-2.7-4.2-4.1-6.8c-0.6-1.1-1.2-2.3-1.8-3.6c-0.3-0.5-0.5-1.1-0.7-1.6l0,0
			c-0.3-0.6-0.6-1.2-0.9-1.8c-0.5-1.1-1.1-2.4-1.8-3.7c-0.2-0.4-0.4-0.7-0.6-1c-0.1-0.2-0.2-0.4-0.3-0.6c-0.3-0.6-0.6-1.1-0.9-1.7
			c-0.6-1.4-1.1-2.8-1.5-4.1c-0.2-0.6-0.4-1.2-0.5-1.8v-0.1v-0.1c-0.2-0.5-0.3-1.1-0.5-1.6c-0.4-1.3-0.8-2.5-1.2-3.7l-0.3-0.8v-0.1
			c-0.4-1-0.7-2-1.1-3l-0.1-0.3c-0.4-1.1-0.9-2.2-1.2-3.3c-0.1-0.3-0.2-0.7-0.3-1C298.9,370.7,298.7,370,298.4,369.3L298.4,369.3"/>
		<path d="M240.3,314.1c0-0.7-0.2-1.4-0.4-2.1c-0.3-0.9-0.7-1.8-1.4-2.4c-0.2-0.2-0.5-0.5-0.8-0.7s-0.5-0.4-0.9-0.5h-0.1l0,0
			l-0.2-0.1c-0.1-0.1-0.2-0.1-0.3-0.2c-0.1,0-0.2-0.1-0.2-0.1c-0.1-0.1-0.3-0.1-0.5-0.1c-0.5-0.2-1-0.5-1.4-0.7
			c0-0.1-0.1-0.1-0.1-0.2c-0.2-0.2-0.4-0.4-0.6-0.6c-0.2-0.2-0.5-0.4-0.8-0.5c-0.4-0.2-0.8-0.5-1.2-0.6c-0.3-0.1-0.6-0.1-0.9-0.2
			c-0.2,0-0.3-0.1-0.5-0.1c-0.1,0-0.2,0-0.3-0.1s-0.3-0.1-0.4-0.2c-0.2-0.1-0.4-0.1-0.6-0.1c-0.4,0-0.7,0.1-0.9,0.4
			c-0.2,0-0.4,0-0.6,0c-0.1,0-0.3,0-0.4,0c-0.3,0.1-0.6,0.2-1,0.3c-0.7,0.3-1.3,0.7-1.9,1c-0.2,0.1-0.3,0.2-0.5,0.3l0,0h-0.1
			c-0.1,0.1-0.3,0.2-0.4,0.3c-0.4,0.2-0.8,0.4-1.3,0.6c-0.8,0.3-1.7,0.5-2.6,0.6c-0.6,0.1-1.2,0.1-1.8,0.1c-0.2,0-0.4,0-0.5,0
			c-1.4-0.1-2.7-0.3-4-0.5c-0.8-0.2-1.7-0.4-2.5-0.7c-0.4-0.1-0.8-0.2-1.2-0.3c-0.6-0.2-1.2-0.3-1.7-0.5l-0.4-0.1
			c-0.5-0.2-0.9-0.3-1.4-0.5l-0.3-0.1h-0.1c-0.2-0.1-0.4-0.1-0.6-0.2c-0.1,0-0.1,0-0.2-0.1h-0.1c-0.2-0.1-0.4-0.1-0.6-0.2
			c-0.5-0.1-1-0.2-1.7-0.3h-0.1c-0.5-0.1-0.9-0.1-1.4-0.2c-0.3-0.1-0.6-0.1-0.9-0.1c-0.5-0.1-1-0.1-1.4-0.1l0,0
			c-0.5,0-1.1-0.1-1.6-0.2c-0.1,0-0.3,0-0.4-0.1l0,0l0,0c0.5,0.6,1.1,1.2,1.7,1.8l0.3,0.4l0.1,0.1c0.9,0.9,1.7,1.8,2.7,2.6l0.3,0.2
			c0.8,0.7,1.7,1.5,2.4,2.3c0.6,0.6,1.2,1.3,1.9,1.9l0,0l0.3,0.3c0.2,0.2,0.4,0.4,0.5,0.6l0,0c0.9,0.9,1.8,1.8,2.7,2.6
			c0.2,0.2,0.5,0.4,0.8,0.6l0,0c0.2,0.2,0.4,0.3,0.6,0.5c0.5,0.4,1,0.8,1.4,1.3c0.9,0.9,1.8,2,2.7,3.1l0.2,0.2
			c0.7,0.9,1.4,1.8,1.9,2.8c0.3,0.5,0.5,1.1,0.8,1.6c0.4,0.9,0.7,1.6,0.8,2.3c0.2,0.7,0.3,1.4,0.4,2l0.1,0.4
			c0.1,0.7,0.2,1.4,0.3,2.1c0.4,3,0.9,5.3,1.5,7.3c0.2,0.7,0.5,1.4,0.7,2.2c0.6,1.7,1.2,3.4,1.5,5.2v0.2c0.2,1.2,0.5,2.4,0.9,3.5
			c0.2,0.7,0.5,1.4,0.8,2c0.2,0.5,0.4,1,0.6,1.4c0.5,1.2,0.8,2.4,1.1,3.5c0.3,1.3,0.7,2.4,1.1,3.5c0.1,0.3,0.3,0.6,0.4,0.9v0.1
			c0.3,0.6,0.6,1.2,0.8,1.8c0.3,0.8,0.6,1.7,0.9,2.5l0,0c0.3,1,0.7,2,1,2.7c0.2,0.5,0.4,1.1,0.6,1.6c0.1,0.3,0.2,0.6,0.3,0.9
			c0.4,1.1,0.8,2.3,1.3,3.5c0.2,0.6,0.5,1.2,0.7,1.8c0.2,0.7,0.4,1.2,0.5,1.8c0.1,0.4,0.2,0.7,0.3,1.1v-0.4v-0.3
			c0-0.9,0-1.9,0.1-2.8c0-0.4,0-0.8,0-1.3v-0.2c0-0.6,0-1.3,0-1.9c0-2.3,0.3-4.6,0.5-6.9V367c0-0.4,0.1-0.8,0.1-1.2
			c0.3-3.1,0.5-5.5,0.6-7.7c0-0.7,0-1.3,0.1-2v-0.5v-0.5c0-0.3,0-0.6,0-0.9c0-0.4,0-0.7,0-1.1c0-0.9,0.1-1.6,0.1-2.3
			c0.1-1.3,0.3-2.6,0.5-3.8c0.2-1.3,0.4-2.5,0.6-3.8v-0.1c0.2-1.2,0.4-2.5,0.6-3.7l0.2-1.2c0.8-4.9,1.7-9.9,2.1-14.8V323
			c0-0.4,0.1-0.9,0.1-1.4c0-0.8,0.1-1.6,0.1-2.3v-0.1c0.1-1.2,0.1-2.6,0.2-4c0-0.2,0-0.4,0-0.6C240.2,314.6,240.4,314.3,240.3,314.1
			z"/>
	</g>
</g>
</svg>
