<?xml version="1.0" encoding="utf-8"?>
<!-- Generator: Adobe Illustrator 21.0.2, SVG Export Plug-In . SVG Version: 6.00 Build 0)  -->
<svg version="1.1" id="Layer_1" xmlns="http://www.w3.org/2000/svg" xmlns:xlink="http://www.w3.org/1999/xlink" x="0px" y="0px"
	 viewBox="0 0 500 500" style="enable-background:new 0 0 500 500;" xml:space="preserve">
<g>
	<g>
		<path style="fill:#F851B8;stroke:#FF6EE4;stroke-width:0.25;stroke-miterlimit:10;" d="M365.2,454.5c-0.1-0.4-0.3-0.7-0.5-1
			c-0.2-0.3-0.4-0.5-0.6-0.8c-0.2-0.2-0.4-0.4-0.6-0.7c-0.4-0.5-0.9-0.9-1.3-1.3c-0.9-0.9-1.8-1.7-2.8-2.6c-1-0.9-2-1.7-3-2.6
			c0.1-0.1,0.3-0.3,0.4-0.5c0.4-0.9,0-2.1-0.9-2.5c-1.9-0.8-3.8-1.6-5.7-2.3c-0.9-0.8-1.8-1.5-2.7-2.2c-1.8-1.5-3.7-2.8-5.6-4.3
			c-2.1-1.7-4.3-3.4-6.4-5.1c-2-1.6-3.9-3.4-5.7-5.3c-1.4-1.5-2.7-2.9-4-4.4c-0.6-0.7-1.3-1.4-1.9-2.1c-0.6-0.7-1.2-1.5-1.8-2.2
			c-0.8-1.1-1.5-2.1-2.3-3.2c-0.8-1.1-1.4-2.3-2.1-3.4c-0.7-1.1-1.3-2.3-1.9-3.4c-0.6-1.1-1.2-2.3-1.7-3.5c-0.4-0.8-0.7-1.6-1.1-2.4
			c-0.4-0.8-0.8-1.7-1.2-2.5c-0.4-0.9-0.9-1.7-1.3-2.6c-0.4-0.7-0.8-1.5-1.1-2.3c-0.4-1.1-0.8-2.2-1.2-3.3c-0.4-1.3-0.7-2.6-1.1-3.8
			c-0.4-1.2-0.8-2.4-1.2-3.6c-0.5-1.3-0.9-2.5-1.4-3.7c-0.5-1.2-1-2.4-1.4-3.7c-0.4-1.4-0.8-2.9-1.5-4.3c-0.2-0.4-0.5-0.8-0.8-1.1
			c-0.1-0.2-0.5-0.4-0.6-0.5c-0.2-0.1-0.5-0.2-0.7-0.3c0,0-0.1,0-0.1,0c-0.2,0-0.3-0.1-0.5-0.1c-0.1,0-0.1,0-0.2,0
			c-0.4,0-0.7,0.1-1.1,0.3c-0.4,0.2-0.7,0.5-1,0.7c-0.5,0.4-0.9,0.9-1.2,1.4c-0.5,0.6-0.9,1.2-1.2,1.8c-0.3,0.5-0.6,1.1-0.8,1.7
			c-0.4,0.9-0.8,1.8-1,2.8c-0.2,1.1-0.4,2.1-0.5,3.2c-0.1,0.8-0.1,1.7-0.2,2.5c-0.1,0.9-0.2,1.9-0.3,2.8c-0.1,0.8-0.2,1.6-0.4,2.4
			c-0.1,0.5-0.2,1-0.3,1.5c-0.1,0.5-0.3,0.9-0.4,1.3c-0.1,0.3-0.3,0.6-0.4,0.9c-0.2,0.4-0.4,0.8-0.6,1.2c-0.2,0.3-0.5,0.5-0.8,0.7
			c-0.4,0.3-0.9,0.6-1.3,0.9c-0.5,0.3-1.1,0.7-1.6,1c-0.4,0.3-0.9,0.6-1.2,1c-0.6,0.7-1,1.4-1.2,2.3c-0.3,1.2-0.1,2.3,0.1,3.5
			c0.1,0.6,0.4,1.2,0.6,1.7c0.2,0.6,0.4,1.2,0.7,1.7c0.4,1.2,0.9,2.3,1.3,3.5c0.7,2.1,1.3,4.2,2.3,6.1c0.4,0.9,1,1.7,1.4,2.6
			c0.2,0.4,0.4,0.8,0.6,1.2c0.1,0.1,0.2,0.3,0.2,0.4c-0.2,0.2-0.5,0.5-0.8,0.7c-0.4,0.4-0.9,0.8-1.3,1.3c-0.4,0.4-0.9,0.8-1.3,1.1
			c-0.4,0.4-0.8,0.8-1.2,1.2c-0.9,0.8-1.8,1.6-2.7,2.4c-1,0.8-1.9,1.6-2.9,2.4c-1,0.9-1.9,1.8-2.8,2.7c-0.9,0.9-1.8,1.7-2.8,2.5
			c-0.9,0.8-1.9,1.5-2.8,2.3c-1,0.9-1.9,1.7-2.8,2.7c-1.8,1.9-3.8,3.7-5.1,6c-0.3,0.6-0.6,1.1-0.9,1.7c-0.3,0.5-0.6,1-0.9,1.5
			c-0.3,0.5-0.7,1-1,1.5c-0.4,0.5-0.7,1.1-1.1,1.6c-0.9,1.5-1.5,3.2-2.2,4.8c-0.2,0.5-0.5,1.1-0.8,1.6c-0.3,0.5-0.6,1-0.9,1.5
			l-0.2-0.9c-0.2-1.2-0.5-2.5-0.7-3.7c-0.3-1.3-0.5-2.7-0.8-4c-0.3-1.4-0.7-2.9-1-4.3c-0.1-0.5-0.3-1-0.4-1.6c0,0,0-0.1,0-0.1
			c-0.2-1.2-0.5-2.4-1-3.5c-0.2-0.4-0.5-0.8-0.9-1c-0.1-0.4-0.2-0.8-0.3-1.2c-0.2-0.7-0.5-1.4-0.8-2.1c-0.2-0.5-0.4-0.9-0.6-1.4
			c-0.2-0.5-0.5-0.9-0.7-1.4c-0.5-0.9-0.9-1.8-1.3-2.7c-0.4-1.1-0.8-2.1-1.2-3.2c-0.4-1.2-0.9-2.5-1.4-3.7c-0.4-1.2-0.9-2.3-1.3-3.5
			c-0.5-1.2-1-2.4-1.4-3.6c-0.4-1.2-0.8-2.4-1.2-3.6c-0.4-1.2-0.9-2.3-1.4-3.5c-1-2.4-1.4-4.9-2-7.4c-0.3-1.3-0.6-2.6-0.9-3.8
			c-0.3-1.4-0.6-2.7-0.9-4.1c-0.1-0.3-0.1-0.6-0.2-0.8c0.4,0.1,0.8,0,1.2-0.1c0.5-0.1,1-0.5,1.4-0.9c0.6-0.7,1-1.5,1.4-2.3
			c0.3-0.7,0.6-1.4,0.8-2.1c0.4-1.2,0.6-2.5,0.8-3.7c0.2-1.2,0.4-2.4,0.9-3.5c0.4-0.8,0.8-1.5,1.2-2.3c0.5-0.8,0.9-1.7,1.3-2.5
			c0.9-1.7,1.6-3.4,2.3-5.1c0.2-0.4,0.4-0.9,0.6-1.3c0.3-0.6,0.6-1.1,1-1.7c0.8-1,1.7-2.1,2.4-3.1c0.4-0.5,0.7-1,1-1.5
			c0.3-0.6,0.7-1.2,1-1.8c0.6-1.1,1.2-2.1,1.8-3.2c0.6-1.2,1.1-2.4,1.6-3.6c0.3-0.6,0.5-1.1,0.8-1.7c0.3-0.7,0.6-1.4,0.9-2.1
			c0.5-1.2,1-2.4,1.5-3.7c0.5-1.2,1-2.4,1.4-3.7c0.2-0.6,0.4-1.2,0.5-1.8c0.2-0.6,0.3-1.3,0.4-1.9c0.2-1,0.4-2,0.5-3
			c0.2-1.1,0.3-2.2,0.4-3.2c0.2-1.8,0.3-3.7,0.5-5.5c0-0.3,0.1-0.6,0.2-0.8c0.1,0,0.2-0.1,0.2-0.1c0.6-0.2,1.1-0.4,1.7-0.5
			c0.6-0.1,1.1-0.2,1.7-0.3c2-0.4,3.7-1.4,5.4-2.4c1.1-0.7,2.2-1.6,3.2-2.5c0.5-0.4,0.9-0.8,1.4-1.2c0.5-0.4,0.9-0.9,1.3-1.3
			c0.9-1,1.8-2.1,2.5-3.2c0.4-0.5,0.7-1,1.1-1.5c0.2-0.2,0.3-0.5,0.5-0.7c0.4-0.6,0.7-1.3,0.9-1.9c0.2-0.7,0.3-1.3,0.4-2
			c0.1-0.8,0.2-1.5,0.1-2.3c-0.1-0.5-0.1-1-0.3-1.5c-0.2-0.4-0.4-0.8-0.6-1.2c-0.1-0.2-0.2-0.3-0.3-0.5c-0.3-0.4-0.6-0.8-1-1.1
			c-0.5-0.4-1.1-0.8-1.7-1.1c-0.6-0.3-1.2-0.7-1.8-1c-0.6-0.3-1.3-0.6-1.9-0.9c-0.6-0.3-1.3-0.5-1.9-0.7c-1.2-0.4-2.4-0.5-3.6-0.7
			c-0.6-0.1-1.1-0.2-1.7-0.3c-0.6-0.1-1.3-0.3-1.9-0.5c-1-0.3-2.1-0.6-3.1-1c-0.5-0.2-1.1-0.5-1.5-0.8c-0.5-0.4-0.9-0.8-1.3-1.3
			c-0.3-0.5-0.6-0.9-1-1.4c-0.4-0.5-0.8-1-1.2-1.6c-0.3-0.4-0.6-0.8-0.9-1.1c-0.4-0.4-0.9-0.7-1.3-1.1c-0.6-0.4-1.4-0.9-2.1-0.9
			c-0.2,0-0.5,0-0.7,0.1c-0.3,0.1-0.6,0.3-0.8,0.5c-0.1,0.2-0.3,0.3-0.4,0.5c-0.2,0.4-0.3,0.7-0.4,1.1c-0.1,0.4-0.1,0.8-0.2,1.2
			c-0.1,0.9-0.1,1.8-0.1,2.7c0,0.8-0.1,1.6-0.2,2.4c-0.1,0.6-0.2,1.2-0.3,1.8c-0.1,0.7-0.3,1.5-0.5,2.2c-0.4,1.3-0.9,2.6-1.4,3.8
			c-0.4,1-0.8,1.9-1.3,2.9c-0.4,0.9-0.8,1.7-1.3,2.5c-0.1,0.2-0.1,0.5-0.3,0.7c-0.1,0.1-0.2,0.2-0.3,0.4c-0.3,0.2-0.5,0.3-0.9,0.4
			c0,0,0,0,0,0c0,0,0,0,0,0c-0.1,0.1-0.3,0.2-0.4,0.3c-0.1,0.1-0.2,0.2-0.3,0.2c0,0,0,0,0,0c0-0.2,0-0.4,0-0.6
			c-0.2-0.1-0.5-0.2-0.7-0.3c-0.3-0.2-0.4-0.4-0.6-0.7c0,0-0.1-0.1-0.1-0.1c0-0.1-0.1-0.1-0.1-0.2c0,0-0.1-0.1-0.1-0.1l0,0
			c0,0,0,0,0,0c0,0,0,0,0,0l0,0c-0.1-0.1-0.1-0.2-0.1-0.3c0,0,0,0,0,0c0,0,0,0,0,0c0,0,0,0,0,0c0,0,0,0,0,0v0c0,0,0,0,0,0
			c0,0,0-0.1,0-0.1c0-0.1-0.1-0.1-0.1-0.2c-0.1-0.1-0.1-0.1-0.2-0.2c-0.1-0.1-0.2-0.1-0.3-0.2c0,0,0,0,0,0c0,0,0,0,0,0c0,0,0,0,0,0
			c0,0,0,0,0,0c0,0,0,0,0,0c0,0,0,0,0,0c0,0,0,0,0,0c-0.2-0.1-0.3-0.2-0.5-0.3c-0.1,0-0.1-0.1-0.2-0.1c-0.1-0.1-0.3-0.2-0.4-0.4
			c0,0,0,0-0.1-0.1c-0.9-0.4-1.9-0.9-2.8-1.3c0,0-0.1,0-0.1,0c0-0.1,0-0.2,0-0.2c-0.1-0.6-0.3-1.1-0.5-1.6c-0.2-0.4-0.4-0.8-0.6-1.2
			c0,0,0-0.1-0.1-0.1c0-0.1,0-0.3,0-0.4c0-0.4-0.1-0.9-0.1-1.3c0-0.1,0-0.2,0-0.3c0.1-0.5,0.2-1,0.3-1.5c0-0.1,0.1-0.3,0.1-0.5
			c0.1-0.8,0.3-1.6,0.4-2.4c0.4-2.4,1-4.8,1.4-7.3c0.3-1.4,0.5-2.9,0.8-4.3c0.1-0.6,0.2-1.2,0.3-1.7c0.1-0.4,0.1-0.8,0.2-1.2
			c0-0.1,0-0.1,0-0.2c0,0,0,0,0,0v0c0,0,0,0,0-0.1c0-0.1,0.1-0.3,0.1-0.5c0.1-0.8,0.2-1.6,0.3-2.5c0-0.1,0-0.3,0.1-0.4
			c0-0.1,0.1-0.3,0.1-0.4c0,0,0-0.1,0-0.1l0.1-0.9c0.1-0.9,0.2-1.9,0.3-2.8c0.1-1.3,0.3-2.6,0.5-3.9c0.1-1.2,0.3-2.4,0.4-3.6
			c0.1-1.2,0.3-2.5,0.4-3.7c0.1-1.4,0.2-2.7,0.3-4.1c0-0.8,0.1-1.7,0.1-2.5c0-0.6,0.1-1.1,0.1-1.7c0-1.2,0-2.4,0.1-3.5
			c0-0.1,0-0.1,0-0.2c0.1-0.5,0.3-1,0.4-1.5c0.7-2.5,1.3-5.1,2-7.6c0.2-0.6,0.3-1.1,0.5-1.7c0.2-0.6,0.3-1.3,0.6-1.9
			c0.4-1.3,0.9-2.6,1.3-3.9c0.8-2.4,1.6-4.8,2.3-7.2c0.2-0.4,0.5-0.8,0.7-1.3c1-1.7,1.8-3.5,2.7-5.3c0.4-0.3,0.9-0.6,1.3-0.9
			c1.1-0.8,2-1.6,3-2.5c0.5-0.4,0.9-0.9,1.4-1.4c0.4-0.5,0.8-0.9,1.2-1.4c0.4-0.5,0.8-1.1,1.2-1.7c0.3-0.5,0.6-1,0.9-1.5
			c0.3-0.5,0.5-1,0.7-1.5c0.1-0.2,0.3-0.4,0.4-0.6c0.5-0.7,1-1.4,1.6-2c0,0,0,0,0,0c0-0.1,0.1-0.1,0.1-0.2c0,0.1-0.1,0.1-0.1,0.2
			c0.7-0.9,1.4-1.7,2.2-2.5c0.7-0.8,1.6-1.5,2.3-2.2c0.8-0.8,1.7-1.6,2.4-2.4c0.8-0.9,1.6-1.8,2.4-2.6c1.5-1.7,3.2-3.3,4.8-5.1
			c0.7-0.8,1.5-1.7,2.2-2.5c0.3-0.4,0.7-0.8,1-1.3c0.3-0.4,0.7-0.8,1-1.2c0.7-0.9,1.4-1.9,2.1-2.9c0.3-0.4,0.6-0.9,0.9-1.4
			c0.3-0.5,0.6-0.9,0.9-1.4c0.3-0.5,0.6-1,0.8-1.5c0.2-0.5,0.4-1,0.6-1.4c0.4-1,0.8-2.1,1.2-3.1c0.2-0.6,0.4-1.2,0.6-1.8
			c0.2-0.5,0.3-1,0.4-1.5c0.1-0.1,0.1-0.2,0.1-0.3c0.2-0.4,0.5-0.9,0.6-1.3c0.2-0.6,0.4-1.2,0.5-1.8c0.1-0.6,0.2-1.1,0.3-1.7
			c0.1-0.7,0.2-1.4,0.2-2.1c0-0.1,0-0.3,0-0.4c0.1-0.2,0.1-0.4,0.2-0.6c0.1-0.3,0.2-0.6,0.3-0.9c0-0.1,0-0.3,0-0.4
			c0-0.2-0.1-0.4-0.2-0.6c-0.1-0.2-0.2-0.3-0.4-0.4c0,0,0,0,0,0c0.1-0.5,0.3-1,0.4-1.5c0.1-0.5,0.2-1.1,0.3-1.6
			c0.2-1.2,0.4-2.4,0.4-3.6c0.1-1.2,0.1-2.3,0.1-3.5c0-0.6,0.1-1.1,0.1-1.7c0-0.5,0.1-1.1,0.1-1.6c0.1-1.2,0.1-2.3,0.1-3.5
			c0-0.2,0-0.4,0-0.5c0-0.2,0-0.4-0.1-0.6c-0.1-0.2-0.1-0.4-0.3-0.5c0-0.1,0-0.2,0-0.2c0.1-0.9,0.1-1.8,0.2-2.6
			c0-0.9,0.1-1.9,0.1-2.8c0.1-1,0.2-2,0.2-2.9c0-0.3,0-0.5,0-0.8c0-0.3-0.1-0.6-0.2-0.8c0,0,0-0.1,0-0.1c0-0.1,0.1-0.2,0.1-0.3
			c0-0.1,0.1-0.2,0.1-0.3c0.1-0.3,0.1-0.6,0-0.9c-0.1-0.3-0.1-0.6-0.2-0.9c0,0,0-0.1,0-0.1c0-0.1,0-0.1,0.1-0.2
			c0.1-0.1,0.1-0.3,0.2-0.4c0,0,0-0.1,0.1-0.1c0.1-0.1,0.1-0.2,0.2-0.2c0.1-0.1,0.3-0.2,0.4-0.3c0.1-0.1,0.3-0.1,0.4-0.2
			c0.2-0.1,0.4-0.2,0.6-0.4c0.3-0.2,0.5-0.5,0.6-0.8c0,0,0,0,0.1,0c0.3-0.1,0.6-0.3,0.9-0.4c0.5-0.3,1-0.6,1.5-0.9
			c0.4-0.3,0.9-0.6,1.3-0.8c0.5-0.3,0.9-0.6,1.4-0.8c0.4-0.2,0.9-0.5,1.3-0.7c0.7-0.4,1.4-0.8,2-1.4c0.4-0.5,0.8-1,1.2-1.5
			c0.3-0.4,0.6-0.8,0.9-1.2c0.6-0.7,1.1-1.4,1.7-2.2c0.1-0.2,0.2-0.3,0.4-0.5c0.1-0.2,0.2-0.3,0.3-0.5c0.1-0.1,0.1-0.2,0.2-0.3
			c0.1-0.2,0.2-0.4,0.2-0.6c0.2-0.6,0.2-1.2-0.2-1.7c-0.2-0.2-0.6-0.4-0.9-0.4c-0.2,0-0.4,0.1-0.6,0.2c-0.2,0.1-0.3,0.2-0.4,0.3
			c-0.3,0.3-0.5,0.6-0.7,0.9c-0.3,0.4-0.6,0.8-0.8,1.1c-0.4,0.6-0.8,1.3-1.3,1.9c-0.1,0.2-0.3,0.4-0.5,0.6c-0.2,0.2-0.4,0.4-0.6,0.6
			c-0.5,0.3-1,0.6-1.5,0.8c-0.4,0.2-0.9,0.4-1.3,0.6c-0.3,0.1-0.6,0.2-0.9,0.3c-0.4,0.1-0.7,0.1-1.1,0.2c-0.7,0.1-1.4,0.1-2,0.1
			c-0.3,0-0.7-0.1-1-0.1c-0.3,0-0.7-0.1-1-0.1c-0.7,0-1.3-0.2-2-0.2c-0.1,0-0.2,0-0.2,0c0-0.8-0.1-1.6-0.1-2.4c0-0.3-0.1-0.7-0.1-1
			c0-0.1,0-0.1,0-0.2c0-0.2,0-0.3,0-0.5c0-0.2,0-0.3,0-0.5c0-0.5-0.1-0.9-0.2-1.4c0-0.2-0.1-0.4-0.1-0.6c0-0.1,0-0.2,0-0.4
			c0-0.1,0-0.2,0-0.3c0-0.2,0-0.5,0-0.7c0-0.6-0.1-1.2-0.1-1.7c0-0.6,0.1-1.2,0.1-1.8c0-0.6-0.1-1.2-0.2-1.8c0-0.3-0.1-0.5-0.1-0.8
			c-0.1-0.4-0.2-0.8-0.2-1.2c-0.1-0.9-0.2-1.8-0.3-2.7c0,0,0,0.1,0,0.1c0-0.5-0.1-0.9-0.2-1.3c0-0.3-0.1-0.5-0.1-0.8
			c0-0.3-0.1-0.6-0.1-0.9c-0.1-0.4-0.1-0.7-0.1-1.1c0-0.3-0.1-0.6-0.1-1c0-0.3-0.1-0.7-0.1-1c0-0.2-0.1-0.4-0.1-0.6
			c0-0.5,0-0.9-0.1-1.4c0-0.8-0.1-1.6-0.2-2.4c-0.1-0.5-0.2-1-0.2-1.6c0,0.1,0,0.2,0,0.3c0-0.1,0-0.2,0-0.4c0-0.4,0-0.7,0-1.1
			c0-0.3,0-0.6,0.1-0.9c0.1-0.2,0.1-0.4,0.2-0.6c0.2-0.5,0.5-0.9,0.9-1.3c0.2-0.2,0.5-0.4,0.7-0.7c0.2-0.2,0.4-0.3,0.6-0.5
			c0,0,0.1,0,0.1-0.1c0.6-0.3,1.2-0.6,1.8-0.9c0.1,0,0.3,0,0.4-0.1c0.5-0.1,1.1-0.3,1.6-0.4c0.1,0,0.1-0.1,0.2-0.1
			c0.2,0.2,0.3,0.4,0.5,0.6c0.7,0.9,1.5,1.7,2.3,2.5c1.7,1.7,3.4,3.4,5.1,5c0.6,0.5,1.2,1,1.8,1.4c0.3,0.2,0.6,0.3,0.9,0.5
			c0.3,0.2,0.6,0.3,1,0.5c0.6,0.3,1.2,0.7,1.8,1c0.3,0.2,0.6,0.3,0.8,0.5c0.3,0.2,0.5,0.4,0.8,0.5c0.9,0.7,1.7,1.5,2.6,2.2
			c0.9,0.8,1.7,1.5,2.6,2.3c0.5,0.4,1,0.8,1.5,1.2c0.5,0.3,0.9,0.7,1.4,0.9c0.9,0.5,1.9,1.1,2.9,1.5c0.3,0.1,0.6,0.2,0.9,0.4
			c0.3,0.2,0.7,0.4,1,0.5c0.6,0.3,1.1,0.7,1.7,1.1c0.6,0.5,1.2,1,1.8,1.5c0.6,0.6,1.3,1,2,1.5c0.5,0.4,0.9,0.8,1.4,1.1
			c0.4,0.3,0.8,0.4,1.2,0.6c0.2,0.1,0.5,0.2,0.7,0.2c0.4,0.1,0.8,0.2,1.1,0.2c0.2,0,0.4,0,0.6,0c0.2,0,0.4-0.1,0.6-0.2
			c0.2-0.1,0.4-0.3,0.5-0.5c0.1-0.2,0.2-0.4,0.3-0.6c0-0.1,0.1-0.3,0.1-0.5c0-0.2,0.1-0.4,0.1-0.7c0-0.4-0.1-0.8-0.2-1.1
			c-0.1-0.4-0.2-0.8-0.3-1.1c-0.6-2.2-1.2-4.5-1.9-6.7c-0.2-0.6-0.4-1.1-0.7-1.7c-0.2-0.5-0.5-0.9-0.7-1.4c-0.5-1-0.9-2-1.4-3
			c-0.3-0.5-0.6-1-1-1.4c-0.3-0.4-0.6-0.9-0.9-1.4c-0.3-0.5-0.6-0.9-0.9-1.3c-0.3-0.5-0.6-0.9-0.9-1.5c-0.4-0.7-0.7-1.5-1-2.2
			c-0.3-0.7-0.6-1.4-1-2.1c-0.2-0.5-0.4-1-0.7-1.5c-0.1-0.3-0.3-0.6-0.4-1c-0.1-0.4-0.2-0.8-0.3-1.2c-0.1-0.7-0.2-1.4-0.3-2.1
			c-0.1-0.9-0.2-1.9-0.3-2.8c-0.1-1.1-0.2-2.2-0.4-3.3c-0.1-1-0.3-1.9-0.6-2.9c-0.1-0.3-0.2-0.7-0.4-1c-0.2-0.4-0.6-0.7-1-0.9
			c-0.2-0.1-0.4-0.3-0.6-0.4c-0.2-0.1-0.3-0.2-0.5-0.3c0,0-0.1-0.1-0.1-0.1c0,0,0-0.1,0-0.1c0-0.1,0-0.3,0-0.4
			c0.1-0.5,0.2-1,0.4-1.5c0.2-0.6,0.3-1.1,0.4-1.7c0.1-0.6,0.2-1.1,0.4-1.7c0.1-0.6,0.2-1.1,0.3-1.7c0.2-1.2,0.3-2.5,0.5-3.7
			c0.1-1.2,0.2-2.3,0.2-3.5c0-1.1,0-2.3,0-3.4c0-0.6-0.1-1.1-0.1-1.7c-0.1-0.6-0.2-1.2-0.4-1.8c-0.1-0.2-0.1-0.5-0.2-0.7
			c-0.1-0.3-0.2-0.6-0.3-0.8c-0.2-0.5-0.3-1-0.5-1.5c-0.1-0.2-0.1-0.3-0.2-0.5c0-0.1-0.1-0.1-0.1-0.2c-0.1-0.1-0.2-0.2-0.3-0.3
			c0,0-0.1-0.1-0.1-0.1c-0.1-0.1-0.3-0.2-0.5-0.3c-0.2-0.1-0.3-0.1-0.5-0.1c0,0,0,0,0,0c-0.2,0-0.5,0.1-0.6,0.2
			c-0.2,0.1-0.3,0.2-0.4,0.4c-0.1,0.2-0.2,0.3-0.3,0.5c-0.1,0.2-0.1,0.3-0.2,0.5c-0.2,0.5-0.4,1-0.5,1.5c-0.2,0.6-0.4,1.3-0.6,1.9
			c-0.2,0.7-0.5,1.3-0.7,2c-0.6,1.4-1.2,2.7-1.7,4.1c-0.2,0.6-0.5,1.3-0.7,1.9c-0.2,0.7-0.5,1.3-0.7,2c-0.3,0.7-0.7,1.4-1.1,2.2
			c-0.4,0.7-0.6,1.5-1.1,2.1c-0.2,0.2-0.4,0.4-0.7,0.6c-0.2,0.2-0.4,0.3-0.7,0.4c-0.3,0.1-0.7,0.2-1,0.2c-0.5,0.1-0.9,0.1-1.4,0.2
			c-0.4,0.1-0.8,0.2-1.2,0.4c-0.3,0.1-0.6,0.3-0.9,0.5c-0.2,0.2-0.3,0.3-0.4,0.5c-0.2,0.3-0.3,0.6-0.3,0.8c0,0.1,0,0.3-0.1,0.4
			c0,0.3-0.1,0.6-0.1,0.9c0,0.4,0.1,0.7,0.1,1.1c0,0.1-0.1,0.2-0.1,0.3c-0.1,0.2-0.2,0.3-0.3,0.5c-0.3,0.4-0.6,0.7-1,1
			c-0.1,0-0.1,0.1-0.2,0.1c0,0,0,0-0.1,0c0,0,0,0,0,0c-0.1,0-0.2-0.1-0.3-0.1c-0.2-0.1-0.5-0.3-0.7-0.4c-0.5-0.3-1-0.5-1.5-0.6
			c-0.7-0.1-1.4-0.2-2.1-0.2c-0.3,0-0.6,0-0.9,0.1c-0.3,0-0.6,0.1-0.9,0.1c-0.4,0.1-0.7,0.3-1,0.6c-0.1,0.1-0.2,0.2-0.4,0.4
			c-0.1,0.1-0.2,0.2-0.3,0.3c-0.2,0.2-0.4,0.4-0.7,0.6c-0.2,0.1-0.4,0.3-0.6,0.4c-0.3,0.2-0.7,0.4-1,0.6c-0.7,0.3-1.5,0.4-2.2,0.6
			c-0.4,0.1-0.7,0.2-1,0.3c-0.4,0.1-0.7,0.3-1.1,0.4c-0.7,0.2-1.3,0.4-2,0.5c-0.1,0-0.2,0-0.2,0c0,0,0-0.1,0-0.1
			c-0.5-1.2-0.9-2.5-1.3-3.7c0.1,0,0.2,0,0.2,0c0.3-0.1,0.5-0.3,0.7-0.5c0.2-0.3,0.2-0.5,0.1-0.8c0-0.2-0.1-0.4-0.2-0.6
			c-0.2-0.5-0.3-1.1-0.5-1.6c-0.2-0.6-0.3-1.3-0.4-1.9c-0.1-0.6-0.3-1.2-0.5-1.8c-0.1-0.3-0.2-0.6-0.2-0.9c0-0.2-0.1-0.4-0.1-0.7
			c0-0.3,0-0.5,0-0.8c0-0.3,0-0.7-0.1-1c0-0.4,0-0.8,0-1.2c0.3-0.4,0.4-0.9,0.4-1.4c0-0.3-0.1-0.5-0.2-0.8c0-0.5,0.1-1.1,0.1-1.6
			c0-1.1,0-2.2-0.1-3.3c0-1.2-0.1-2.3-0.2-3.5c-0.1-0.7-0.1-1.4-0.3-2c-0.1-0.6-0.2-1.1-0.4-1.7c-0.3-1.1-0.6-2.2-1-3.3
			c-0.2-0.7-0.5-1.4-0.7-2.2c0.3-0.3,0.4-0.6,0.3-1c0-0.1,0-0.2-0.1-0.2c0-0.1,0-0.3-0.1-0.4c0.2,0.1,0.3,0.2,0.5,0.2
			c0.3,0,0.6-0.1,0.8-0.3c0.3-0.3,0.6-0.6,0.9-0.9c0.3-0.3,0.5-0.6,0.7-0.9c0.1-0.2,0.3-0.3,0.4-0.5c0.2-0.2,0.5-0.4,0.7-0.6
			c0.5-0.4,1-1,1.3-1.7c0.3-0.6,0.5-1.1,0.7-1.8c0.2-0.5,0.2-1.1,0.3-1.6c0.2-1.1,0.4-2.2,0.7-3.3c0.1-0.6,0.2-1.2,0.4-1.8
			c0.2-0.9,0.3-1.7,0.4-2.6c0-1.2,0-2.4,0-3.6c0-1.4-0.1-2.9-0.2-4.3c0-0.3-0.1-0.6-0.3-0.8c-0.2-0.2-0.5-0.3-0.8-0.3
			c-0.6,0-1.1,0.5-1.1,1.1c-0.4,0-0.7,0.2-0.9,0.5c-1.2,2.4-2.4,4.9-3.6,7.4c-0.5,1.1-1,2.2-1.6,3.3c-0.2,0.5-0.4,0.9-0.6,1.4
			c-0.3,0.6-0.5,1.2-0.8,1.8c-0.5,1.3-0.8,2.8-1.2,4.1c-0.6-0.7-1.1-1.3-1.7-2c-0.2-0.2-0.5-0.3-0.7-0.3c-0.3,0-0.6,0.1-0.8,0.3
			c-0.2,0.2-0.3,0.5-0.3,0.8c0,0.3,0.1,0.6,0.3,0.8c0.9,1,1.7,2,2.6,3c0,0,0,0,0,0c0.1,0.2,0.2,0.4,0.4,0.6c0,0,0,0,0,0
			c-0.1,0.3-0.1,0.5,0.1,0.8c0.1,0.1,0.1,0.2,0.2,0.3c0.1,0.1,0.2,0.2,0.3,0.2c0.1,0.3,0.1,0.6,0.2,0.9c0.1,0.5,0.2,0.9,0.3,1.4
			c0.2,0.9,0.5,1.7,0.8,2.6c0.3,0.9,0.6,1.8,0.8,2.8c0.1,0.5,0.3,0.9,0.4,1.4c0.1,0.4,0.2,0.9,0.3,1.3c0.3,2.2,0.3,4.5,0.4,6.7
			c0,0.5,0,1,0,1.5c0,0,0,0,0,0c-0.2-0.3-0.5-0.5-0.8-0.7c-0.3-0.2-0.6-0.3-0.9-0.4c-0.2-0.1-0.4-0.1-0.6-0.2c-0.1,0-0.2,0-0.3,0
			c-0.1,0-0.2,0-0.2,0c0,0-0.1-0.1-0.1-0.1c-0.4-0.2-0.8-0.4-1.2-0.5c0.2-0.5,0.4-0.9,0.7-1.4c0.1-0.3,0.2-0.5,0.1-0.8
			c-0.1-0.2-0.2-0.5-0.4-0.6c0.1-0.2,0.2-0.5,0.3-0.7c0.1-0.2,0.2-0.5,0.3-0.7c0.2-0.4,0.2-1-0.1-1.4c-0.1-0.1-0.1-0.1-0.2-0.2
			c-0.1-0.1-0.2-0.2-0.3-0.2c0,0-0.1,0-0.1-0.1c-0.1-0.1-0.3-0.1-0.4-0.2c-0.1,0-0.3-0.1-0.4-0.1c-0.3-0.1-0.5-0.2-0.8-0.2
			c-0.5-0.2-1.1-0.3-1.6-0.4c-0.5-0.1-1-0.2-1.6-0.3c-0.7-0.1-1.3-0.2-2-0.2c-0.5,0-1.1,0-1.6,0c-0.8,0-1.7,0-2.5-0.1
			c-0.3,0-0.5-0.1-0.8-0.2c-0.3-0.1-0.5-0.2-0.8-0.3c-0.4-0.2-0.8-0.4-1.2-0.7c-0.4-0.3-0.7-0.6-1-0.9c-0.4-0.4-0.8-0.7-1.2-1.1
			c-0.4-0.4-0.8-0.8-1.3-1.2c-0.5-0.4-1-0.8-1.5-1.2c-0.9-0.7-1.8-1.3-2.7-1.9c-0.9-0.6-1.9-1.1-2.9-1.6c-1-0.5-2-1-3-1.5
			c-0.3-0.1-0.6-0.3-0.9-0.4c-0.4-0.1-0.8-0.2-1.2-0.3c-0.1,0-0.2,0-0.3,0c-0.3,0-0.5,0-0.8,0.1c-0.2,0-0.4,0.2-0.6,0.3
			c-0.2,0.1-0.4,0.3-0.5,0.5c-0.1,0.2-0.2,0.3-0.2,0.5c-0.1,0.2-0.1,0.5,0,0.7c0,0.3,0.1,0.5,0.1,0.8c0.1,0.5,0.2,1,0.3,1.5
			c0.2,0.5,0.3,1,0.5,1.5c0.4,1.1,0.8,2.2,1.4,3.2c0.4,0.6,0.8,1.2,1.3,1.7c0.5,0.5,1.1,0.8,1.6,1.2c0.4,0.3,0.8,0.7,1.2,1
			c0.5,0.4,0.9,0.8,1.4,1.1c0.1,0.1,0.3,0.2,0.4,0.3c-0.2,0.1-0.4,0.2-0.6,0.3c-0.4,0.3-0.7,0.7-0.8,1.1c-0.1,0.3-0.1,0.5-0.2,0.8
			c-0.1,0.5-0.1,0.9-0.2,1.4c-0.1,0.5-0.1,1-0.2,1.4c-0.1,0.6-0.3,1.1-0.4,1.7c-0.2,1.1-0.5,2.3-0.7,3.4c-0.5,2.1-0.9,4.3-1.5,6.4
			c-0.3,1.2-0.6,2.3-0.9,3.5c-0.3,1.1-0.5,2.2-0.8,3.3c-0.3,1.1-0.6,2.2-0.8,3.3c-0.3,1.1-0.6,2.3-0.9,3.4c-0.3,1-0.6,2.1-0.8,3.1
			c-0.1,0.6-0.2,1.2-0.2,1.9c0,0.3,0,0.5,0,0.8c0,0.3,0,0.6,0.1,0.9c0,0.2,0.1,0.3,0.1,0.5c0.1,0.2,0.2,0.6,0.4,0.7l0.1,0.1
			c0.1,0.1,0.3,0.2,0.5,0.3c0.1,0,0.1,0,0.2,0.1c0.2,0,0.3,0,0.5,0.1l0.2,0c0.2,0,0.3,0,0.5-0.1c0.1,0,0.2-0.1,0.3-0.1
			c0.3-0.1,0.7-0.3,1-0.4c0,0,0.1,0,0.1-0.1c0.3,0.1,0.6,0,0.9-0.2c0.2-0.1,0.3-0.2,0.5-0.3c0.3-0.2,0.5-0.5,0.7-0.9
			c0,0,0-0.1,0-0.1c0.2-0.2,0.3-0.3,0.5-0.5c0.4-0.4,0.9-0.7,1.3-1.1c0.4-0.4,0.8-0.7,1.1-1.1c0.4-0.4,0.7-0.8,1.1-1.2
			c0.7-0.9,1.4-1.9,2.1-2.8c0.5-0.7,1.1-1.4,1.7-2c0.3-0.3,0.7-0.7,1-1c0.3-0.4,0.6-0.7,0.9-1.1c0-0.1,0.1-0.1,0.1-0.2
			c0.5-0.7,1.1-1.5,1.6-2.2c0.3-0.4,0.7-0.8,1-1.2c0.3-0.3,0.6-0.7,0.9-1.1c0.3-0.4,0.6-0.7,0.9-1.1c0.3-0.4,0.7-0.9,1-1.3
			c0.6-0.9,1-1.8,1.5-2.7c0.2-0.4,0.5-0.8,0.8-1.2c0.1-0.2,0.3-0.4,0.4-0.6c0.1-0.2,0.2-0.4,0.4-0.5c0.4-0.5,0.9-1.1,1.4-1.5
			c0.3-0.2,0.5-0.4,0.8-0.5c0.3-0.2,0.6-0.4,1-0.6c0.3-0.2,0.7-0.5,1-0.7c0.5-0.3,1-0.6,1.4-1.1c0.4-0.4,0.7-0.9,0.9-1.4
			c0.1-0.1,0.1-0.3,0.2-0.4c0.1,0,0.2,0,0.3,0c0,0,0.1,0,0.1,0c0.1,0,0.2,0.1,0.4,0.1c0.2,0.1,0.5,0.2,0.7,0.3
			c0.2,0.1,0.5,0.1,0.8,0c0,0,0,0,0.1,0c0.2,0.1,0.5,0.2,0.7,0.3c0.1,0,0.2,0.1,0.2,0.1c0,0.1-0.1,0.1-0.1,0.2
			c0,0.3,0.1,0.6,0.2,0.8c0.2,0.4,0.4,0.8,0.7,1.2c0.1,0.2,0.2,0.4,0.3,0.6c0.1,0.2,0.2,0.5,0.4,0.6c0.1,0.1,0.1,0.1,0.2,0.1
			c0,0.1,0,0.2,0,0.3c0,0.1,0,0.1,0,0.2c0,0.4,0,0.8,0.1,1.2c0,0,0,0,0,0.1c0,0.5,0,0.9,0.1,1.4c0,0.3,0.2,0.6,0.4,0.8
			c0,0.1,0,0.2,0.1,0.3c0.1,0.4,0.2,0.8,0.3,1.1c0.1,0.4,0.2,0.7,0.2,1.1c0.1,0.4,0.2,0.8,0.3,1.2c0.1,0.3,0.2,0.7,0.3,1
			c0.1,0.2,0.1,0.4,0.2,0.6c0,0.1,0.1,0.2,0.1,0.3c-0.1,0-0.1,0-0.2,0c-0.6,0.2-1,0.8-0.8,1.3c0.2,0.6,0.4,1.2,0.6,1.9
			c-0.5,0-1.1,0-1.6,0c-0.4,0-0.8,0.1-1.2,0.2c-0.2,0.1-0.4,0.1-0.6,0.2c-0.3,0.1-0.5,0.2-0.8,0.4c-0.4,0.2-0.7,0.5-0.9,0.8
			c-0.3,0.5-0.2,1.3,0.3,1.7c0.3,0.3,0.7,0.4,1,0.6c0.4,0.2,0.9,0.4,1.3,0.5c0.8,0.3,1.5,0.6,2.2,0.9c0.4,0.2,0.8,0.4,1.2,0.5
			c0,0.1,0.1,0.3,0.1,0.4c0,0.1,0,0.2,0,0.3c0,0.1,0.1,0.3,0.1,0.4c0,0.1,0.1,0.1,0.1,0.2c0.1,0.2,0.2,0.4,0.2,0.5
			c0,0.1,0.1,0.3,0.1,0.4c0,0.1,0.1,0.2,0.2,0.3c0,0.1,0,0.1,0,0.2c0,0.2,0.1,0.4,0.2,0.6c0.1,0.2,0.2,0.4,0.3,0.6
			c0.1,0.2,0.2,0.4,0.3,0.6c0,0.1,0.1,0.2,0.1,0.3c0.2,0.6,0.4,1.1,0.6,1.7c0,0,0,0,0,0c0.1,0.3,0.2,0.7,0.3,1c0,0,0,0,0,0
			c-0.2,0.3-0.2,0.6-0.2,0.9c0,0.4,0.1,0.7,0.1,1.1c0,0.1,0,0.2,0.1,0.3c0,0.2-0.1,0.4-0.1,0.5c0,0.4,0.1,0.7,0.2,1c0,0,0,0,0-0.1
			c0.1,0.3,0.2,0.5,0.2,0.8c0.2,0.5,0.5,0.9,0.9,1.2c0.1,0.1,0.2,0.1,0.3,0.2c0.1,0.5,0.2,1,0.3,1.4c0.1,0.5,0.2,1,0.2,1.5
			c0.1,0.7,0.1,1.4,0.2,2.1c0,0.1,0,0.1,0,0.2c0,0.6,0,1.2,0.1,1.8c0,0.2,0,0.4,0.1,0.6c0,0.1,0,0.2,0,0.2c0.1,0.6,0.1,1.1,0.1,1.7
			c0,0.6,0.1,1.2,0.1,1.8c0.1,0.6,0.1,1.1,0.2,1.7c0.1,1.2,0.2,2.3,0.3,3.5c0.1,0.5,0.1,1.1,0.2,1.6c0.1,0.9,0.2,1.7,0.2,2.6
			c0.1,0.9,0.1,1.9,0.3,2.8c0.1,1,0.2,2.1,0.3,3.1c0,0,0,0,0,0.1c0,0.2,0,0.4-0.1,0.7c-0.1,0.2-0.1,0.4-0.1,0.7c0,0.2,0,0.4,0,0.6
			c0,0,0,0.1,0,0.1c0,0.2,0,0.4,0,0.6c0,0.1,0,0.2,0,0.4c0,0.2,0,0.4,0,0.7c-0.3-0.1-0.5-0.1-0.8-0.2c-0.2-0.1-0.4-0.2-0.5-0.3
			c-0.2-0.1-0.3-0.2-0.5-0.4c-0.5-0.4-0.9-0.8-1.3-1.2c-0.1-0.1-0.2-0.3-0.3-0.4c-0.1-0.2-0.2-0.3-0.3-0.5c-0.1-0.3-0.2-0.6-0.3-0.9
			c-0.1-0.3-0.2-0.7-0.3-1c-0.1-0.2-0.2-0.5-0.4-0.7c-0.1-0.1-0.2-0.1-0.3-0.2c-0.2-0.1-0.4-0.1-0.6-0.1c-0.3,0-0.7,0.1-0.9,0.4
			c-0.2-0.2-0.4-0.5-0.6-0.7c-0.5-0.6-1-1.1-1.6-1.5c-0.3-0.2-0.6-0.5-0.9-0.7c-0.3-0.2-0.6-0.5-0.9-0.8c-0.6-0.5-1.3-1-1.9-1.5
			c-0.5-0.4-0.9-0.8-1.4-1.2c-0.5-0.5-1.1-0.9-1.6-1.5c-0.4-0.6-0.8-1.3-1.2-2c-0.4-0.7-0.9-1.5-1.3-2.3c-0.2-0.3-0.6-0.5-1-0.5
			c-0.1,0-0.1,0-0.2,0c-0.1-0.2-0.2-0.3-0.4-0.4c-0.2-0.1-0.4-0.1-0.6-0.1c-0.1,0-0.2,0-0.3,0c-0.3,0.1-0.5,0.3-0.7,0.5
			c-0.1,0.2-0.2,0.6-0.1,0.8c0.4,1.2,0.8,2.4,1.2,3.6c0.2,0.6,0.4,1.2,0.6,1.8c0.2,0.5,0.5,1,0.7,1.5c0.5,1,0.9,2.1,1.5,3
			c0.3,0.5,0.7,1.1,1.1,1.5c0.3,0.4,0.7,0.7,1.1,1.1c0.2,0.2,0.4,0.4,0.5,0.6c0.6,0.9,1.2,1.9,1.7,2.9c0.3,0.5,0.6,1,0.9,1.5
			c0.3,0.5,0.7,1,1.1,1.4c0.3,0.5,0.7,0.9,1.1,1.3c0.4,0.4,1,0.7,1.5,1c0.4,0.2,0.7,0.5,1.1,0.7c0.3,0.2,0.7,0.4,1,0.6
			c0.1,0.1,0.2,0.2,0.3,0.3c0.1,0.2,0.3,0.4,0.4,0.5c-0.1,0.1-0.2,0.1-0.3,0.2c-0.4,0.4-0.4,1.1,0,1.6c0.5,0.5,0.9,0.9,1.4,1.4
			c0.1,0.1,0.2,0.3,0.4,0.4c0,0.1,0,0.1,0,0.2c0,0.2,0,0.3,0.1,0.5c0,0,0,0.1,0,0.1c0,0.2,0.1,0.4,0.2,0.6c0.1,0.2,0.2,0.4,0.3,0.5
			c0,0.1,0,0.2,0.1,0.3c0,0.1,0,0.1,0,0.2c0,0.2,0,0.4,0.1,0.7c0.1,0.2,0.1,0.4,0.2,0.6c0,0.2,0.1,0.4,0.1,0.6
			c-0.1,0.2-0.1,0.4,0,0.6c0,0.2,0.2,0.4,0.3,0.6c0,0.2,0,0.5,0.1,0.7c0.2,0.3,0.4,0.6,0.5,1c0.2,0.5,0.3,0.9,0.5,1.4
			c0.2,0.6,0.4,1.1,0.4,1.8c0.3,2.3,0.5,4.5,0.5,6.8c0,0.6,0,1.3,0,1.9c0,0.6,0,1.2-0.1,1.9c0,1.1-0.1,2.3-0.1,3.4
			c0,0.4-0.1,0.8-0.1,1.2c-0.3,2.2-0.8,4.3-1.3,6.4c-0.5,2.2-1,4.5-1.6,6.7c-0.2,0.6-0.3,1.2-0.5,1.8c-0.2,0.6-0.4,1.2-0.7,1.8
			c-0.4,1-0.9,1.9-1.3,2.8c-0.5,1-1.1,1.9-1.7,2.8c-0.3,0.5-0.6,1-0.9,1.5c-0.3,0.5-0.6,1-0.9,1.5c-0.6,1-1.3,1.9-1.9,2.9
			c0,0,0,0.1-0.1,0.1c-0.2,0.3-0.4,0.6-0.7,0.9c-0.1,0.2-0.3,0.3-0.4,0.5c-0.2,0.2-0.4,0.5-0.6,0.7c-0.3,0.3-0.5,0.6-0.8,0.9
			c-0.2,0.2-0.4,0.4-0.5,0.6c-0.1,0.2-0.2,0.4-0.4,0.6c-0.1,0.2-0.3,0.3-0.4,0.5c-0.1,0.2-0.3,0.4-0.4,0.5c-0.3,0.3-0.5,0.6-0.8,0.9
			c-0.3,0.3-0.5,0.7-0.8,1c-0.2,0.2-0.3,0.4-0.5,0.5c-0.4,0.4-0.8,0.7-1.2,1.1c-0.2,0.2-0.5,0.5-0.7,0.7c-0.2,0.2-0.4,0.5-0.7,0.7
			c-0.3,0.4-0.7,0.7-1,1c-0.4,0.4-0.8,0.8-1.2,1.2c-0.5,0.5-0.9,1-1.3,1.5c-0.3,0.4-0.6,0.8-0.9,1.2c-0.4,0.4-0.9,0.8-1.3,1.3
			c-0.7,0.6-1.4,1.2-2.2,1.7c-0.3,0.2-0.7,0.4-1,0.7c-0.4,0.3-0.7,0.6-1,0.9c-0.4,0.4-0.7,0.7-1.1,1.1c-0.2,0.2-0.4,0.5-0.6,0.7
			c-0.4,0.4-0.8,0.8-1.2,1.1c-0.3,0.3-0.7,0.5-1.1,0.8c0,0,0,0,0,0c0,0,0,0,0,0c-0.1,0-0.1,0-0.2,0c-0.3,0.1-0.6,0.2-0.8,0.5
			c-0.1,0.2-0.3,0.4-0.4,0.5c-0.2,0.2-0.4,0.3-0.6,0.5c-0.3,0.2-0.6,0.4-0.8,0.6c-0.3,0.2-0.6,0.3-0.8,0.5c-0.4,0.2-0.8,0.4-1.2,0.5
			c-0.7,0.3-1.4,0.6-2.1,0.9c-0.3,0.1-0.6,0.1-0.9,0.2c-0.4,0-0.8,0-1.2,0c-0.3,0-0.7,0-1-0.1c-0.1,0-0.3-0.1-0.4-0.1
			c-0.2,0-0.3-0.1-0.5-0.1c-0.1,0-0.3-0.1-0.4-0.2c-0.1-0.1-0.2-0.2-0.4-0.3c-0.5-0.4-1.1-0.8-1.7-1.2c0,0-0.1,0-0.1-0.1
			c0,0-0.1,0-0.1-0.1c0,0-0.1-0.1-0.2-0.1c-0.1-0.1-0.2-0.1-0.3-0.2c0.3-0.2,0.7-0.3,1.1-0.5c0.5-0.2,0.9-0.4,1.4-0.6
			c0.2-0.1,0.4-0.2,0.6-0.4c0.4-0.4,0.8-1,0.8-1.6c0-0.4-0.1-0.8-0.3-1.2c-0.3-0.4-0.6-0.6-0.9-0.9c-0.3-0.3-0.7-0.5-0.9-0.9
			c-0.4-0.4-0.8-0.9-1.1-1.3c-0.7-0.9-1.4-1.9-2.2-2.7c-0.9-0.9-1.8-1.9-2.7-2.8c-1.1-1.1-2.1-2.1-3.2-3.2c0,0-0.1,0-0.1-0.1
			c0.2-0.4,0.2-0.8,0.1-1.2c-0.1-0.5-0.4-0.9-0.9-1.1c-0.5-0.3-0.9-0.3-1.5-0.2c-1.2,0.2-2.3,0.4-3.5,0.8c-0.6,0.2-1.2,0.4-1.8,0.6
			c-0.5,0.2-1,0.4-1.6,0.7c-0.8,0.3-1.6,0.5-2.4,0.6c-0.3,0-0.7,0.1-1,0.1c-0.3,0-0.7,0-1,0c-0.4-0.1-0.7-0.2-1.1-0.3
			c-0.1,0-0.1-0.1-0.2-0.1c-0.2-0.2-0.3-0.5-0.4-0.7c-0.4-1.1-0.7-2.3-0.9-3.4c-0.2-1.2-0.4-2.5-0.7-3.7c-0.2-0.7-0.5-1.4-0.9-2
			c-0.3-0.7-0.7-1.3-1.2-1.8c-0.4-0.5-0.8-0.9-1.2-1.3c-0.4-0.4-0.8-0.9-1.1-1.3c-0.9-1.1-2.1-2-3.2-2.9c-1.2-1-2.4-1.9-3.6-2.9
			c0.1,0.1,0.3,0.2,0.4,0.3c-0.4-0.3-0.8-0.6-1.3-1c-2-1.5-3.9-3.1-5.7-4.8c-0.6-0.5-1.1-1-1.7-1.5c-0.5-0.4-1-0.9-1.5-1.3
			c-0.2-0.2-0.5-0.2-0.7-0.3c-0.1,0-0.3-0.1-0.5-0.1c-0.2,0-0.4,0-0.6,0.1c-0.9,0.2-1.5,1.1-1.5,2c0,0.6,0.2,1.1,0.3,1.6
			c0.1,0.3,0.2,0.6,0.2,0.9c0.2,0.6,0.3,1.3,0.5,1.9c0.2,0.9,0.4,1.8,0.6,2.7c0.2,1,0.3,2,0.4,3c0.3,1.9,0.7,3.9,1,5.8c0,0,0,0,0,0
			c0,0.1,0,0.1,0,0.2c0,0.1,0,0.2,0,0.2c0,0.1,0,0.2,0,0.3c0,0.1,0,0.2,0.1,0.3c0,0,0,0,0,0c0,0.1,0,0.1,0,0.2c0.1,1,0.3,2,0.3,3
			c0.1,1.3,0.1,2.5,0.1,3.8c0,1.1,0.1,2.2-0.1,3.3c-0.1,1-0.2,2.1-0.4,3.1c-0.2,1.2-0.4,2.4-0.7,3.6c-0.3,1.2-0.5,2.4-0.8,3.6
			c-0.1,0.6-0.3,1.2-0.4,1.8c-0.2,0.6-0.4,1.3-0.6,1.9c-0.4,1.2-0.8,2.4-1.1,3.5c-0.4,1.3-0.8,2.7-1.3,4c-0.4,0.9-0.9,1.7-1.4,2.6
			c-0.4,0.7-0.8,1.5-1.2,2.2c-0.4,0.8-0.8,1.6-1.1,2.4c-0.4,0.9-0.8,1.8-1.1,2.8c-0.2,0.4-0.3,0.8-0.5,1.2c-0.3,0.5-0.5,1-0.8,1.5
			c-0.6,1.1-1.2,2.2-1.7,3.3c-0.6,1.1-1.1,2.3-1.6,3.5c-0.4,1-0.7,1.9-1.1,2.9c-0.4,0.9-0.9,1.7-1.3,2.6c-0.5,1-0.9,2.1-1.3,3.2
			c-0.2,0.5-0.4,1-0.7,1.5c-0.2,0.4-0.4,0.8-0.5,1.2c-0.3,1-0.2,2.2,0.5,3c0.8,0.9,2.1,1.1,3.2,0.6c0.4-0.2,0.8-0.3,1.2-0.5
			c0.7-0.4,1.3-0.9,1.8-1.4c0.4-0.4,0.8-0.8,1.2-1.1c0.4-0.4,0.9-0.8,1.4-1.2c0.9-0.8,1.9-1.6,2.8-2.4c0.2-0.2,0.5-0.4,0.7-0.6
			c0.4-0.3,0.9-0.6,1.4-0.9c0.6-0.3,1.2-0.6,1.7-0.9c0.6-0.3,1.2-0.6,1.7-1c0.5-0.3,1-0.6,1.5-0.9c1.2-0.6,2.3-1.2,3.5-1.7
			c1.2-0.6,2.4-1.3,3.4-2.3c0.5-0.5,0.9-1.1,1.3-1.6c0.2-0.2,0.4-0.4,0.6-0.7c0.3-0.3,0.6-0.6,0.9-0.9c0.6-0.6,1.3-1.2,1.9-1.9
			c0.6-0.6,1.2-1.3,1.8-2.1c0.5-0.7,1-1.4,1.5-2c0.6-0.7,1.2-1.5,1.7-2.2c0.6-0.7,1.1-1.5,1.6-2.3c0.5-0.8,1-1.6,1.5-2.4
			c0.5-0.7,1-1.5,1.5-2.2c0.1-0.2,0.3-0.3,0.5-0.5c0.1-0.1,0.2-0.2,0.4-0.2c0.2-0.1,0.3-0.1,0.5-0.1c0.5,0,1,0,1.5,0
			c0.6,0,1.2,0,1.7-0.1c1.3-0.1,2.7-0.1,4-0.3c1.4-0.1,2.7-0.4,4.1-0.7c0.6-0.1,1.3-0.3,1.9-0.5c0.6-0.2,1.1-0.4,1.7-0.6
			c1-0.4,1.9-0.8,2.8-1.3c0.7-0.3,1.3-0.7,2-1c0.2,0.3,0.4,0.6,0.7,0.8c0.5,0.3,0.9,0.6,1.4,0.9c0.4,0.2,0.7,0.4,1,0.7
			c0.6,0.5,1.1,1,1.7,1.5c0.2,0.4,0.4,0.8,0.6,1.2c0.1,0.3,0.2,0.6,0.3,0.9c0,0.3,0,0.5,0.1,0.8c0,0.2,0,0.4,0.1,0.6
			c0,0.2,0,0.3,0,0.5c-0.1,0.6-0.2,1.1-0.3,1.6c-0.1,0.3-0.1,0.6-0.2,0.9c0,0.1-0.1,0.3-0.1,0.5c0,0.2,0,0.4-0.1,0.6
			c0,0.4-0.1,0.8-0.2,1.2c0,0,0,0,0,0c0,0-0.1,0.1-0.1,0.1c-0.1,0.1-0.1,0.3-0.1,0.4c0,0.1,0,0.1-0.1,0.2c0,0.2-0.1,0.4-0.1,0.6
			c0,0.2-0.1,0.4-0.1,0.5c-0.1,0.3-0.2,0.5-0.2,0.8c-0.2,0.6-0.4,1.2-0.6,1.8c-0.2,0.6-0.4,1.3-0.6,1.9c-0.1,0.2-0.2,0.5-0.3,0.7
			c-0.2,0.6-0.4,1.2-0.6,1.9c-0.1,0.2-0.1,0.5-0.2,0.7c0,0,0,0,0,0c-0.2,0.2-0.4,0.5-0.5,0.8c-0.2,0.7-0.3,1.4-0.4,2.1
			c-0.1,0.4-0.1,0.8-0.2,1.2c-0.2,0.9-0.5,1.7-0.7,2.5c-0.4,1.3-0.8,2.6-1.1,3.9c-0.4,1.3-0.7,2.6-1,4c-0.1,0.6-0.2,1.2-0.4,1.9
			c-0.1,0.6-0.2,1.2-0.3,1.8c-0.4,2.8-0.8,5.5-1.1,8.3c-0.1,1.4-0.2,2.8-0.4,4.1c-0.1,0.9-0.2,1.7-0.3,2.6c0,0.2-0.1,0.3-0.1,0.5
			c-0.2,1.3-0.5,2.6-0.7,3.9c-0.2,1.4-0.5,2.7-0.7,4.1c-0.2,1.5-0.5,3-0.7,4.5c-0.2,1.4-0.4,2.7-0.5,4.1c-0.1,1.5-0.3,2.9-0.4,4.4
			c0,0.3-0.1,0.7-0.1,1c0,0.1-0.1,0.3-0.1,0.4c-0.2,1-0.3,1.9-0.5,2.9c-0.1,0.5-0.2,0.9-0.3,1.4c-0.1,0.6-0.2,1.3-0.3,1.9
			c-0.1,0.4-0.1,0.8-0.1,1.2c-0.1,0.5-0.3,0.9-0.4,1.4c-0.1,0.2-0.1,0.5-0.2,0.7c-0.1,0.3-0.2,0.5-0.3,0.8c-0.4,0.7-0.9,1.4-1.4,2
			c-0.2,0.3-0.5,0.7-0.7,1c-0.1,0.2-0.3,0.3-0.4,0.5c-0.4,0.1-0.8,0.2-1.2,0.3c-0.6,0.2-1.2,0.5-1.8,0.9c-0.8,0.5-1.6,1-2.4,1.5
			c-0.5,0.2-1,0.3-1.5,0.4c-0.6,0.1-1.2,0.1-1.8,0.1c-0.6,0-1.2-0.1-1.8-0.1c-0.5-0.1-1-0.2-1.5-0.3c-0.6-0.1-1.1-0.3-1.7-0.4
			c-0.6-0.2-1.1-0.3-1.6-0.5c-0.6-0.2-1.1-0.3-1.7-0.5c-0.5-0.2-1-0.3-1.5-0.5c-0.6-0.2-1.2-0.4-1.8-0.5c-1.2-0.4-2.4-0.5-3.6-0.7
			c-0.9-0.1-1.8-0.3-2.7-0.4c-0.4,0-0.9-0.1-1.3-0.1c-0.4,0-0.7-0.1-1.1-0.1c-0.5-0.1-1-0.2-1.4-0.3c-0.3-0.1-0.6-0.1-0.8-0.2
			c-0.4-0.1-0.7-0.1-1.1-0.1c-0.2,0-0.6,0.1-0.8,0.1c-0.3,0.1-0.6,0.3-0.8,0.5c-0.2,0.1-0.3,0.3-0.4,0.5c-0.1,0.2-0.2,0.5-0.3,0.7
			c-0.1,0.5-0.1,0.7,0,1.2c0.1,0.4,0.2,0.7,0.4,1.1c0.1,0.3,0.2,0.5,0.4,0.7c0.4,0.6,0.9,1.3,1.3,1.8c0.8,0.9,1.7,1.8,2.5,2.7
			c0.8,0.9,1.7,1.7,2.6,2.5c0.9,0.8,1.9,1.7,2.7,2.6c0.9,0.9,1.8,1.8,2.7,2.7c0.9,0.9,1.8,1.8,2.7,2.6c0.5,0.4,1,0.8,1.5,1.2
			c0.5,0.4,0.9,0.8,1.4,1.3c0.8,0.8,1.5,1.6,2.2,2.5c0.2,0.3,0.5,0.6,0.7,0.9c0.3,0.4,0.6,0.7,0.8,1.1c0.4,0.7,0.8,1.5,1.1,2.2
			c0.3,0.7,0.5,1.4,0.7,2.2c0.1,0.7,0.2,1.3,0.3,2c0.2,1.4,0.4,2.7,0.6,4.1c0.4,2.4,1,4.8,1.9,7.2c0.4,1.2,0.8,2.4,1.2,3.6
			c0.1,0.3,0.1,0.5,0.2,0.8c0,0.1,0,0.2,0,0.3c0.1,0.4,0.1,0.7,0.2,1.1c0.1,0.4,0.1,0.9,0.2,1.3c0.1,0.3,0.1,0.6,0.2,0.9
			c0,0.2,0.1,0.5,0.1,0.7c0,0.2,0,0.4,0,0.7c0,0.6,0.1,1.2,0.2,1.8c0.1,0.7,0.2,1.5,0.4,2.2c0.3,1.2,0.5,2.4,0.8,3.6
			c0.3,1.2,0.5,2.4,0.9,3.6c0.2,0.8,0.4,1.5,0.6,2.3c0,0.3,0.1,0.7,0.1,1c0.1,0.5,0.1,1.1,0.2,1.6c0.1,0.5,0.1,1.1,0.2,1.6
			c0.2,1.2,0.4,2.4,0.8,3.5c0.1,0.5,0.3,1.1,0.5,1.6c0.1,0.3,0.2,0.6,0.2,0.8c0.1,0.2,0.2,0.5,0.4,0.7c0,0.1,0.1,0.2,0.1,0.4
			c0.3,1.1,0.7,2.2,1.1,3.3c0.1,0.5,0.2,1,0.3,1.5c0.3,1.4,0.5,2.7,0.8,4.1c0.2,1.2,0.5,2.4,0.7,3.6c1.1,5.2,2.2,10.4,3.5,15.5
			c0.7,2.7,1.4,5.3,2,8c0.3,1.3,0.7,2.6,1,3.9c0.4,1.2,0.8,2.3,1.2,3.5c0.9,2.4,1.8,4.8,2.7,7.2c0.9,2.4,1.7,4.9,2.6,7.3
			c0.6,1.6,1.1,3.2,1.7,4.8c0.3,0.9,0.7,1.8,1.1,2.7c0.4,0.8,0.7,1.7,1.1,2.5c0.3,0.7,0.6,1.4,0.9,2.1c0.2,0.3,0.4,0.5,0.7,0.7
			c0,0,0,0,0.1,0c0.2,1.1,0.5,2.3,0.8,3.4c0,0,0,0,0,0c0.1,1,0.2,2.1,0.4,3.1c0.4,2.7,0.8,5.5,1.4,8.1c0.1,0.5,0.3,1,0.4,1.5
			c0,0.3,0.1,0.6,0.1,0.9c0.1,0.6,0.2,1.2,0.3,1.7c0.1,0.2,0.1,0.5,0.2,0.7c-0.1,0.2-0.2,0.4-0.2,0.6c-0.3,1.6-0.4,3.3-0.6,4.9
			c-0.1,1.2-0.2,2.3-0.3,3.5c-0.4,0.3-0.8,0.6-1.1,0.9c-0.4,0.5-0.9,1-1.3,1.4c-0.9,0.8-1.9,1.6-2.9,2.4c-1,0.8-1.9,1.7-2.9,2.5
			c-0.6,0.5-1.1,0.9-1.7,1.3c-0.5,0.4-1,0.7-1.5,1.1c-0.1,0.1-0.2,0.2-0.4,0.3c-0.1,0-0.3,0.1-0.4,0.1c-0.5,0.1-1.1,0.1-1.6,0.2
			c-1,0.1-1.9,0.1-2.9,0.2c-0.6,0.1-1.2,0.2-1.8,0.4c-0.2,0.1-0.5,0.1-0.7,0.2c-0.3,0.2-0.7,0.3-1,0.5c-0.4,0.2-0.8,0.5-1.1,0.8
			c-0.4,0.4-0.8,0.7-1.2,1.1c-0.2,0.2-0.5,0.4-0.7,0.6c-0.3,0.2-0.7,0.4-1,0.6c-0.8,0.5-1.6,1.1-1.8,2.1c-0.2,1,0.4,2,1.3,2.4
			c0.4,0.2,0.9,0.2,1.3,0.1c0.2,0,0.4-0.1,0.7-0.2c0.5-0.1,1.1-0.1,1.6-0.1c0.5,0,1-0.1,1.5-0.3c0.4-0.1,0.8-0.3,1.2-0.5
			c0.2-0.1,0.4-0.2,0.6-0.3c0.1,0,0.2,0,0.3,0c0.6,0,1.2,0.1,1.7,0c0.4,0,0.8-0.1,1.1-0.3c0.2-0.1,0.4-0.2,0.6-0.3
			c0.1,0,0.1,0,0.2-0.1c0.6-0.1,1.1-0.3,1.7-0.5c0.6-0.2,1.1-0.4,1.6-0.6c0.7-0.3,1.3-0.6,1.9-1c0.4-0.2,0.7-0.4,1.1-0.7
			c0.8-0.4,1.6-0.7,2.5-1c0.8-0.3,1.6-0.5,2.4-0.7c1.2-0.2,2.4-0.3,3.7-0.5c0.6-0.1,1.3-0.1,1.9-0.2c0,0,0,0,0.1,0
			c0,0.3,0.1,0.6,0.3,0.9c0.1,0.1,0.2,0.2,0.3,0.4c0,0.5,0.1,0.9,0.3,1.3c0.3,0.4,0.7,0.7,1.2,0.8c1,0.2,2-0.5,2.2-1.5
			c0-0.2,0.1-0.4,0.1-0.6c0,0,0,0,0,0c0.4,0.7,0.8,1.5,1.3,2.2c0.3,0.4,0.7,0.8,1.2,1.2c0.1,0.3,0.3,0.5,0.4,0.8
			c0.4,0.8,0.8,1.6,1.2,2.4c0.2,0.3,0.4,0.5,0.7,0.6c0.4,0.2,1,0.3,1.5,0.1c0,0,0,0,0.1,0c0.3-0.1,0.6-0.3,0.8-0.6
			c0.2-0.2,0.4-0.5,0.4-0.9c1,0.4,2,0.7,3,1.1c1,0.4,2,0.8,2.9,1.3c0.3,0.1,0.6,0.2,1,0.2c0.5,0,0.9-0.3,1.3-0.7
			c0.6-0.8,0.6-2-0.2-2.7c-0.8-0.6-1.7-1.2-2.5-1.9c0-0.1,0-0.3,0-0.4c0-0.5-0.2-1-0.5-1.5c-0.2-0.4-0.4-0.7-0.6-1.1
			c-0.2-0.4-0.5-0.7-0.7-1.1c-0.4-0.6-0.9-1.2-1.3-1.8c-0.2-0.3-0.5-0.6-0.7-0.9c0.1-0.1,0.2-0.3,0.2-0.5c0.1-0.5,0-1-0.3-1.4
			c-0.2-0.3-0.5-0.6-0.7-0.8c-0.7-0.9-1.3-1.8-2-2.8c-0.4-0.5-0.8-1-1.2-1.6c-0.3-0.5-0.7-1-1-1.6c-0.2-0.4-0.4-0.8-0.6-1.3
			c-0.2-0.6-0.4-1.2-0.6-1.8c-0.4-1.2-0.8-2.4-1.3-3.6c-0.2-0.6-0.5-1.2-0.7-1.9c0,0,0,0,0-0.1c0-0.2,0.1-0.5,0.1-0.7
			c0-0.3-0.1-0.7-0.1-0.9c0-0.2-0.1-0.3-0.1-0.5c0-0.3-0.1-0.6-0.2-0.8c-0.1-0.7-0.3-1.4-0.4-2.2c0-0.2-0.1-0.4-0.1-0.6
			c0.2-0.7,0.5-1.4,0.7-2.1c0.3-0.8,0.5-1.5,0.8-2.3c0.2-0.5,0.5-1,0.8-1.5c0.3-0.5,0.6-1,0.9-1.5c0.6-1.2,1.1-2.4,1.6-3.6
			c0.4-0.9,0.8-1.7,1.3-2.5c0.6-0.9,1.2-1.8,1.8-2.6c0.6-0.8,1-1.6,1.5-2.5c0.4-0.9,1-1.7,1.5-2.5c0.7-0.9,1.5-1.7,2.4-2.6
			c0.9-0.9,1.7-1.8,2.6-2.6c0.9-0.9,1.9-1.7,2.9-2.5c0.9-0.8,1.9-1.6,2.8-2.4c1-0.9,1.9-1.8,2.8-2.7c0.6-0.6,1.3-1.2,2-1.8
			c0.4,0.9,0.8,1.9,1.1,2.8c0,0.6,0,1.2,0,1.8c0.1,1.1,0.2,2.1,0.4,3.1c0.1,0.4,0.2,0.9,0.3,1.3c0.1,0.5,0.2,0.9,0.2,1.4
			c0.1,0.8,0.2,1.6,0.3,2.4c0.1,0.7,0.2,1.4,0.3,2.1c0.1,0.6,0.2,1.2,0.4,1.9c0.3,1.3,0.6,2.5,0.9,3.7c0.7,2.6,1.3,5.3,2,7.9
			c0.4,1.3,0.9,2.6,1.5,3.9c0.5,1.1,1.1,2.3,1.6,3.4c0.3,0.8,0.6,1.5,0.9,2.3c0.2,0.5,0.4,1.1,0.7,1.6c0.3,0.6,0.6,1.1,1,1.6
			c0.2,0.2,0.4,0.4,0.6,0.6c0.4,0.3,0.9,0.5,1.4,0.5c0.2,0,0.4,0,0.6-0.1c0.3-0.1,0.6-0.3,0.8-0.5c0.4-0.3,0.6-0.8,0.8-1.2
			c0.1-0.4,0.1-0.9,0.1-1.3c0-0.2,0-0.5,0-0.7c0-0.4-0.1-0.9-0.1-1.3c0-0.4,0-0.8,0-1.2c0.1-0.4,0.1-0.8,0.3-1.1
			c0.1-0.4,0.2-0.8,0.4-1.1c0.3-0.6,0.6-1.2,0.8-1.8c0.3-0.7,0.6-1.5,0.9-2.2c0.3-0.6,0.6-1.3,1-1.8c0.9-1.1,2-2.1,3.2-3
			c0.8-0.6,1.7-1.2,2.5-1.9c0.5-0.4,1-0.7,1.5-1.1c0.6-0.4,1.3-0.8,1.9-1.2c1.1-0.4,2.2-0.7,3.4-1c1.3-0.4,2.6-0.7,3.8-1.1
			c1.3-0.4,2.5-0.9,3.8-1.3c0.6-0.2,1.3-0.4,1.9-0.5c0.7-0.2,1.4-0.3,2.1-0.5c0.8-0.2,1.5-0.3,2.3-0.4c0.6-0.1,1.2-0.1,1.8-0.2
			c0.5-0.1,1-0.1,1.5-0.2c0.3,0,0.5-0.1,0.8-0.1c0.5,0,1,0,1.4,0c0.7,0.1,1.4,0.2,2.1,0.4c0.7,0.1,1.4,0.3,2,0.4l2.5,0.7
			c0.8,0.2,1.5,0.5,2.3,0.7c1,0.3,1.9,0.7,2.8,1.1c1.8,0.8,3.6,1.6,5.4,2.5c0.5,0.3,1.1,0.5,1.6,0.8c0.6,0.3,1.2,0.6,1.8,0.9
			c0.4,0.2,0.8,0.4,1.1,0.6c0.2,0.1,0.3,0.2,0.5,0.2c0.7,0.4,1.3,0.8,2,1.2c0.5,0.3,1.1,0.7,1.6,1.1c0.6,0.4,1.2,0.9,1.9,1.3
			c0.6,0.3,1.3,0.4,1.9,0C365.1,456.2,365.4,455.4,365.2,454.5z M279.1,30.7l0-0.1c0.2-0.6,0.4-1.3,0.5-1.8l0-0.1
			c0.1-0.5,0.3-1.2,0.5-1.7c0.2-0.5,0.4-1.1,0.7-1.7l0.1-0.2l0,0c0.8-1.7,1.6-3.5,2.5-5.3c0.8-1.7,1.7-3.5,2.6-5.3c0,0,0,0,0,0v0
			c0,0,0,0,0,0l0,0l0,0l0,0c0,0.4,0,0.9,0,1.3l0,0.2v0c0,1.2,0,2.5-0.1,3.7c-0.1,0.5-0.2,1-0.3,1.6l0,0c0,0.2-0.1,0.4-0.1,0.7
			l-0.1,0.4l-0.1,0.3c-0.1,0.5-0.2,1-0.3,1.5c-0.1,0.3-0.1,0.6-0.2,0.9l-0.1,0.3c-0.1,0.3-0.1,0.7-0.2,1c-0.1,0.7-0.3,1.3-0.5,1.9
			c-0.1,0.2-0.2,0.5-0.3,0.7c-0.1,0.2-0.3,0.5-0.4,0.7c-0.2,0.3-0.5,0.5-0.8,0.7l0,0c-0.1,0.1-0.2,0.2-0.3,0.2
			c-0.3,0.3-0.6,0.6-0.8,0.9l-0.1,0.1c-0.2,0.2-0.4,0.4-0.5,0.6c-0.1,0.1-0.2,0.2-0.3,0.4c-0.2,0.2-0.3,0.3-0.4,0.4l0,0c0,0,0,0,0,0
			c0,0,0,0.1,0,0.1c0,0,0,0.1,0,0.1c-0.1-0.3-0.1-0.6-0.2-0.8c-0.2-0.6-0.5-1.1-0.8-1.5C279,30.9,279,30.8,279.1,30.7z M273.8,48.7
			c-0.2,0.4-0.4,0.8-0.6,1.1c-0.1,0.1-0.2,0.3-0.4,0.4c-0.4,0.4-0.4,1.1,0,1.5c0.1,0.1,0.2,0.2,0.4,0.3c0,0,0,0,0,0c0,0,0,0,0,0
			c0,0,0,0,0,0l-0.1,0.1l0,0.1c-0.2,0.3-0.4,0.7-0.6,1.1c-0.1,0.1-0.2,0.2-0.3,0.3c-0.2,0.1-0.4,0.3-0.6,0.4l-0.1,0
			c-0.2,0.1-0.4,0.3-0.6,0.4c-0.5,0.3-0.9,0.6-1.3,0.8c-0.6,0.4-1.1,0.7-1.5,1.1c-0.4,0.4-0.8,0.8-1.2,1.3c-0.4,0.5-0.7,1-1,1.4
			l-0.1,0.1c-0.3,0.4-0.6,0.9-0.8,1.3c-0.1,0.2-0.3,0.5-0.4,0.7l-0.1,0.1c-0.4,0.7-0.7,1.4-1.2,2.1c-0.1,0.2-0.3,0.4-0.4,0.5
			l-0.3,0.4c-0.6,0.7-1.2,1.5-1.8,2.3c-0.7,0.8-1.3,1.6-1.9,2.5c-0.2,0.3-0.4,0.5-0.6,0.8l-0.2,0.3c-0.4,0.5-0.9,1-1.3,1.4l-0.1,0.1
			c-0.1,0.1-0.1,0.1-0.2,0.2l0,0c-0.1,0.2-0.3,0.3-0.4,0.5c-0.2,0.2-0.4,0.5-0.7,0.8l-0.3,0.4l0,0c-0.4,0.5-0.8,1-1.1,1.4
			c-0.2,0.2-0.4,0.5-0.5,0.7c-0.1,0.2-0.3,0.3-0.4,0.5c0,0-0.1,0.1-0.1,0.1c0,0,0,0,0,0c0,0,0,0,0,0c0.1-0.4,0.2-0.9,0.3-1.4
			c0.1-0.6,0.3-1.2,0.4-1.9c0.2-1.1,0.5-2.3,0.9-3.6c0.1-0.2,0.1-0.4,0.2-0.6l0-0.1l0.1-0.2c0.2-0.5,0.3-0.9,0.5-1.4l0-0.1
			c0.1-0.3,0.3-0.5,0.4-0.8c0.1-0.1,0.1-0.3,0.2-0.4c0.1-0.1,0.1-0.2,0.2-0.3c0.5-1,1.1-2,1.6-3.1c0.2-0.4,0.4-0.9,0.6-1.3
			c0.3-0.7,0.6-1.4,1-2.1c0.2-0.5,0.5-0.9,0.8-1.5c0.3-0.5,0.7-1.1,1-1.6c0.3-0.4,0.5-0.9,0.8-1.4l0-0.1c0.1-0.2,0.2-0.3,0.2-0.5
			c0.4-0.8,0.8-1.4,1.2-2.1c0.4-0.7,1-1.3,1.6-1.9c1.1-0.9,2.2-1.7,3.3-2.3c0.3-0.2,0.4-0.5,0.5-0.7c0.1-0.3,0-0.6-0.2-0.9
			c-0.2-0.2-0.4-0.4-0.7-0.5c-0.1,0-0.1,0-0.2,0c-0.2,0-0.4,0.1-0.7,0.2c-0.7,0.4-1.4,0.8-2.2,1.4c-0.7,0.5-1.4,1.1-2,1.7
			c-0.8,0.9-1.5,1.9-2,2.8c-0.3,0.6-0.6,1.1-0.9,1.6c-0.2,0.4-0.5,1-0.9,1.6l-0.2,0.3c-0.6,0.9-1.1,1.8-1.6,2.8
			c-0.3,0.7-0.7,1.4-1,2.1c-0.2,0.4-0.4,0.9-0.6,1.3c-0.5,1.1-1.1,2.1-1.6,3.1c-0.1,0.1-0.1,0.2-0.2,0.3c-0.1,0.1-0.1,0.3-0.2,0.4
			c-0.1,0.2-0.3,0.5-0.4,0.7l-0.1,0.1c-0.1,0.2-0.2,0.5-0.3,0.7l-0.1,0.3c-0.1,0.3-0.2,0.6-0.3,0.9c-0.4,1.3-0.7,2.5-1,3.6
			c-0.1,0.6-0.3,1.2-0.4,1.8l0,0c-0.1,0.5-0.2,1.1-0.4,1.6c-0.1,0.3-0.2,0.7-0.3,1.1c-0.2,0.4-0.3,0.8-0.5,1.3
			c-0.1,0.3-0.3,0.5-0.4,0.8c-0.1,0.2-0.2,0.3-0.3,0.5c-0.1,0.2-0.2,0.5-0.3,0.7c-0.1,0.2-0.2,0.3-0.2,0.5l-0.1,0.2
			c-0.1,0.1-0.1,0.2-0.2,0.4c-0.1,0.1-0.1,0.2-0.1,0.3l0,0.1l0,0l0,0l0,0l0,0c0,0,0,0,0,0l0,0c-0.5,0.3-1,0.6-1.6,0.9
			c0,0-0.1,0-0.1,0c0,0,0,0,0,0v0l0,0c0-0.6,0-1.3,0.1-1.9c0.2-1,0.4-2,0.7-3c0.3-0.9,0.6-2.1,0.9-3.4c0.1-0.5,0.3-1,0.4-1.6l0-0.1
			c0.1-0.5,0.3-1.1,0.4-1.6c0.2-0.7,0.4-1.4,0.5-2.2c0.1-0.4,0.2-0.9,0.3-1.3c0.1-0.5,0.2-0.9,0.3-1.4l0-0.1
			c0.4-1.7,0.8-3.4,1.2-5.2l0.3-1.4c0.4-1.6,0.7-3.3,1.1-5c0.1-0.4,0.2-0.7,0.2-1.1c0.1-0.6,0.3-1.2,0.4-1.8
			c0.1-0.5,0.2-1.1,0.2-1.6c0-0.2,0-0.4,0.1-0.6l0-0.1c0-0.1,0-0.2,0-0.3c0-0.1,0-0.2,0.1-0.3l0.1,0c0.2-0.1,0.3-0.1,0.5-0.1
			c0.5-0.1,0.8-0.2,1.1-0.5c0.2-0.1,0.3-0.3,0.4-0.6c0.1-0.2,0.1-0.3,0.1-0.5c0-0.2-0.1-0.5-0.2-0.7c-0.1-0.3-0.3-0.5-0.4-0.6
			c-0.2-0.3-0.5-0.5-0.8-0.7l-0.6-0.5c-0.5-0.4-1.2-0.9-1.8-1.5c-0.5-0.5-1.1-0.9-1.6-1.3l-0.3-0.2c-0.3-0.3-0.6-0.5-0.9-0.9
			c-0.3-0.5-0.7-1.1-0.9-1.7l-0.1-0.3c-0.3-0.7-0.5-1.4-0.8-2.1c-0.1-0.3-0.2-0.7-0.4-1.2c-0.1-0.3-0.1-0.7-0.2-1.1c0,0,0,0,0,0
			c0,0,0,0,0,0h0h0c0.4,0.1,0.8,0.2,1.2,0.4c0.8,0.3,1.5,0.7,2.2,1.1c0.6,0.3,1.2,0.6,1.8,1l0.2,0.1l0.5,0.3c1.6,0.9,3.1,2,4.3,2.9
			c0.4,0.3,0.8,0.7,1.2,1c0.1,0.1,0.2,0.2,0.4,0.3l0.1,0.1c0.2,0.2,0.5,0.5,0.7,0.7c0.2,0.2,0.4,0.4,0.7,0.6l0.1,0
			c0.2,0.1,0.3,0.3,0.5,0.4c0.5,0.5,1,0.8,1.4,1.1c0.5,0.3,1,0.5,1.7,0.8c0.6,0.2,1.3,0.3,1.9,0.3c0.4,0,0.8,0,1.1,0l0.3,0h0.2
			l0.2,0c0.2,0,0.4,0,0.6,0l0.1,0c0.2,0,0.3,0,0.5,0c0.1,0,0.2,0,0.3,0c0.6,0,1.1,0,1.7,0.1c0.8,0.1,1.7,0.3,2.4,0.5
			c0.6,0.1,1.1,0.3,1.6,0.5c0,0,0,0,0.1,0c0,0,0,0,0,0c0,0,0,0,0,0c-0.2,0.5-0.4,0.9-0.6,1.4C274.1,48,274,48.4,273.8,48.7z
			 M196,182.5C196,182.5,196,182.5,196,182.5C196,182.5,196,182.5,196,182.5C196,182.5,196,182.5,196,182.5z M247.6,313.2l0.1-0.1
			c0.4-0.3,0.8-0.6,1.1-1c0.5-0.5,0.9-1,1.3-1.7c0.6-1,1.1-2.1,1.5-3.1l0.1-0.2c0.1-0.3,0.3-0.6,0.4-0.9l0,0l0,0c0.4-1,0.9-2,1.3-3
			c0.4-1.1,0.7-2.1,1-3c0.2-0.9,0.4-1.7,0.5-2.6l0.1-0.4c0.2-1.1,0.3-2.2,0.4-3.4c0-0.4,0-0.7,0-1.1l0-0.4c0,0,0,0,0,0l0,0l0,0.1
			c0.3,0.3,0.5,0.7,0.8,1c0.3,0.3,0.5,0.7,0.7,1c0.5,0.7,1,1.5,1.6,2.1c0.5,0.5,1,0.9,1.5,1.3c0.5,0.3,1.1,0.6,1.5,0.8
			c1.2,0.6,2.6,1,3.8,1.4c0.6,0.2,1.2,0.3,1.8,0.5c0.5,0.1,1,0.2,1.4,0.3l0,0l0.4,0.1c0.2,0,0.5,0.1,0.7,0.1c0.7,0.1,1.4,0.2,2,0.4
			c0.6,0.1,1.1,0.3,1.6,0.4c0.4,0.1,0.8,0.3,1.1,0.4c0.5,0.3,1.2,0.5,1.8,0.9c0.8,0.4,1.6,0.9,2.3,1.4c0.1,0.1,0.2,0.2,0.3,0.3
			c0.2,0.3,0.4,0.6,0.5,0.9c0,0.1,0.1,0.3,0.1,0.5c0,0.4,0,0.9,0,1.3c-0.1,0.7-0.3,1.5-0.5,2.2c-0.4,0.7-0.8,1.4-1.3,2.1l-0.1,0.2
			l-0.3,0.4c-0.3,0.4-0.6,0.9-1,1.4c-1.4,1.7-3.1,3.3-5.1,4.9c-0.6,0.4-1.1,0.8-1.7,1.2c-0.9,0.6-1.6,0.9-2.2,1.3
			c-0.7,0.3-1.4,0.5-2.4,0.6l-0.2,0c-0.5,0.1-1,0.2-1.5,0.3c-0.3,0.1-0.5,0.2-0.8,0.3c-0.5,0.2-1.1,0.4-1.5,0.7
			c-0.4,0.3-0.8,0.6-1.1,1c-0.2,0.3-0.4,0.7-0.5,1.1c-0.1,0.3-0.1,0.5-0.2,0.8l0,0.2c-0.1,0.6-0.1,1.2-0.2,1.8l0,0.2l0,0.4
			c0,0.4-0.1,0.9-0.1,1.3l0,0.6c-0.1,1-0.1,1.9-0.3,2.9c-0.3,2.3-0.7,4.8-1.3,7.1c-0.4,1.3-0.8,2.5-1.2,3.7
			c-0.2,0.6-0.5,1.2-0.7,1.8l-0.1,0.2l-0.1,0.3c-0.2,0.4-0.3,0.8-0.5,1.2c-0.3,0.7-0.5,1.4-0.8,2l-0.1,0.2c-0.5,1-1,2.1-1.5,3.2
			c-0.5,1.2-1.1,2.3-1.6,3.3c-0.3,0.5-0.6,1-0.9,1.6l-0.2,0.4c-0.3,0.5-0.5,1-0.8,1.4c-0.6,1-1.2,2-1.8,2.7l-0.2,0.3l-0.2,0.3
			c-0.2,0.2-0.4,0.5-0.6,0.7l0,0c-0.3,0.4-0.7,0.9-1,1.4c-0.2,0.3-0.4,0.7-0.6,1l-0.1,0.2c-0.3,0.6-0.6,1.3-0.9,2
			c-0.1,0.3-0.2,0.6-0.4,0.9l-0.2,0.4c-1,2.3-2.1,4.5-3.3,6.6c-0.3,0.5-0.6,1.1-0.9,1.7l-0.1,0.2c-0.1,0.2-0.2,0.4-0.3,0.6
			c0,0.1,0,0.1-0.1,0.2c0,0,0,0,0,0l0,0c0-0.3,0-0.6,0-0.9c0-0.5,0-1.1,0-1.6l0-0.2c0-0.6,0-1.3,0-1.9c0.1-1.9,0.3-3.8,0.5-5.7
			c0.1-0.6,0.1-1.2,0.2-1.8c0.2-2.5,0.5-5.5,0.6-8.5l0,0l0,0l0-0.1l0-0.1c0-0.9,0-1.8,0.1-2.6l0-0.1c0-0.7,0-1.5,0.1-2.2
			c0.1-1.2,0.2-2.5,0.4-3.8c0.1-0.9,0.3-1.8,0.4-2.6l0-0.3c0.1-0.3,0.1-0.7,0.2-1c0.5-2.8,0.9-5.2,1.3-7.7c0.6-3.3,0.9-5.8,1.3-8.2
			c0.2-1.3,0.3-2.4,0.4-3.5c0.1-0.8,0.1-1.6,0.2-2.3c0-0.5,0.1-1,0.1-1.4l0,0l0-0.1c0-0.2,0-0.4,0-0.6c0.1-2,0.2-4,0.3-6l0-0.2
			c0,0,0,0,0,0v0h0c0,0,0,0,0,0c0.2-0.1,0.5-0.1,0.7-0.2c0,0,0,0,0,0c0,0,0,0,0,0l0,0l0,0c0,0,0,0,0,0l0.1,0.1
			c0.2,0,0.3,0.1,0.5,0.1c0.2,0,0.3,0,0.5-0.1c0.5-0.1,0.9-0.4,1.1-0.9c0.1-0.2,0.2-0.5,0.2-0.7c0,0,0,0,0,0c0,0,0,0,0,0
			c0,0,0,0,0,0c0,0,0,0,0,0c0,0,0,0,0,0c0.1-0.1,0.2-0.1,0.3-0.2L247.6,313.2z M293.4,122.3L293.4,122.3c0.2,0,0.4,0.1,0.5,0.1
			c0.2,0,0.5,0,0.7,0.1l0,0c0.3,0,0.5,0,0.8,0.1l0.2,0c0.4,0.1,0.9,0.1,1.3,0.1l0,0c0.6,0,1.3-0.1,2-0.2l0.1,0c0.1,0,0.1,0,0.2,0
			c0,0,0,0,0.1,0c0,0,0,0,0,0c0,0,0,0,0,0c-0.1,0.1-0.3,0.2-0.4,0.2c-0.3,0.2-0.7,0.4-1,0.6c-0.2,0.2-0.5,0.3-0.8,0.5l-0.2,0.1
			c-0.5,0.3-0.9,0.6-1.4,0.8c-0.1,0-0.3,0.1-0.4,0.1c-0.1,0-0.2,0.1-0.3,0.1c-0.1,0.1-0.3,0.1-0.4,0.2c-0.1,0-0.1,0.1-0.2,0.1
			c-0.1,0-0.1,0.1-0.2,0.1c0,0,0,0-0.1,0.1c-0.3,0-0.7,0.2-0.9,0.5c0,0-0.1,0.1-0.1,0.1c-0.1,0.1-0.2,0.1-0.3,0.2c0,0,0,0,0,0
			c0,0,0,0,0,0c0-0.5-0.1-1-0.2-1.6l0-0.1c-0.1-0.7-0.2-1.5-0.2-2.2h0c0,0,0,0,0,0c0,0,0,0,0,0c0,0,0,0,0,0l0,0l0,0
			C292.8,122.2,293.1,122.2,293.4,122.3z M293.6,81.5c-0.1,0.1-0.2,0.1-0.4,0.2c-0.1,0-0.2,0-0.3,0c-0.2,0-0.3,0.1-0.5,0.2
			c-0.2,0.1-0.3,0.1-0.5,0.2c-0.1,0.1-0.3,0.1-0.4,0.2c-0.2,0.1-0.3,0.2-0.5,0.2c-0.2,0.1-0.3,0.2-0.5,0.3c-0.2,0.1-0.4,0.1-0.6,0.1
			c-0.2,0-0.3,0-0.5,0c-0.2,0-0.5,0-0.7,0c-0.2,0-0.5,0-0.7-0.1c0,0,0,0,0,0c-0.1-0.1-0.1-0.3-0.2-0.4c-0.1-0.2-0.1-0.3-0.2-0.5
			c0,0,0-0.1,0-0.1c0-0.1,0-0.3,0-0.4c0-0.2-0.1-0.4-0.2-0.6c-0.1-0.3-0.3-0.6-0.5-0.9c0.1,0.1,0.1,0.2,0.2,0.3
			c-0.2-0.3-0.3-0.7-0.5-1.1c-0.1-0.3-0.3-0.6-0.4-0.8c0-0.1,0-0.2-0.1-0.2c0-0.2-0.1-0.3-0.2-0.5c0-0.1-0.1-0.2-0.2-0.2
			c0.8,0.3,1.6,0.6,2.4,1c0.6,0.3,1.2,0.6,1.8,0.9c0.6,0.3,1.2,0.5,1.7,0.9c0.6,0.3,1.1,0.8,1.7,1.1c0.2,0.1,0.3,0.2,0.4,0.3
			C293.7,81.4,293.6,81.5,293.6,81.5z M305.2,67.7c0.2-0.4,0.4-0.9,0.4-1.3c0-0.2,0-0.5,0-0.7l0-0.1c0-0.2,0-0.5,0-0.8
			c0-0.2,0.1-0.3,0.1-0.5c0,0,0-0.1,0.1-0.1c0,0,0.1,0,0.1-0.1c0.3-0.1,0.5-0.2,0.8-0.3c0.3-0.1,0.6-0.1,0.9-0.2
			c0.6-0.1,1.2-0.1,1.7-0.3c0.7-0.2,1.3-0.6,1.8-1c0.6-0.4,1-1,1.4-1.8c0.1-0.3,0.2-0.5,0.4-0.8l0,0c0.1-0.2,0.2-0.5,0.3-0.7
			c0.1-0.2,0.2-0.3,0.2-0.5l0.1-0.1c0.1-0.3,0.3-0.6,0.4-0.9c0.3-0.5,0.5-1.1,0.7-1.7c0.1-0.2,0.2-0.5,0.3-0.7l0,0
			c0.1-0.2,0.2-0.5,0.3-0.7c0.2-0.5,0.4-1,0.6-1.5c0.1-0.4,0.4-1,0.6-1.5c0.1-0.3,0.2-0.6,0.4-0.9c0.5-1.1,1-2.2,1.4-3.4
			c0.2-0.5,0.3-1,0.5-1.5c0.1-0.2,0.1-0.4,0.2-0.6c0-0.2,0.1-0.3,0.1-0.5c0,0,0,0,0,0l0,0c0.1,0.2,0.1,0.5,0.2,0.7
			c0.1,0.2,0.1,0.5,0.2,0.7c0,0.1,0.1,0.3,0.1,0.4c0.1,0.4,0.2,0.7,0.2,1.1c0.2,1.8,0.2,3.7,0.2,5.3c-0.1,1.7-0.2,3.5-0.4,5.4
			l-0.1,0.5l0,0c-0.1,0.7-0.2,1.4-0.3,2c-0.2,0.9-0.4,1.8-0.6,2.7c-0.1,0.3-0.1,0.5-0.2,0.8c-0.2,0.7-0.4,1.5-0.4,2.3
			c0,0.3,0,0.6,0.1,0.9c0.1,0.3,0.3,0.6,0.6,0.9c0.2,0.2,0.5,0.4,0.8,0.6c0.1,0.1,0.2,0.1,0.3,0.2l0.1,0c0.2,0.1,0.4,0.2,0.6,0.4
			c0,0,0,0,0.1,0.1c0,0,0,0.1,0,0.1c0.2,0.5,0.3,1,0.4,1.4l0,0.1c0.1,0.6,0.2,1.1,0.3,1.6c0.1,0.6,0.1,1.1,0.2,1.7
			c0,0.4,0.1,0.8,0.1,1.2l0,0.4c0,0.4,0.1,0.8,0.1,1.1c0.1,0.5,0.1,1.1,0.2,1.7l0,0.3l0,0.3c0.1,0.8,0.2,1.7,0.4,2.5
			c0.1,0.4,0.3,0.8,0.4,1.2l0.1,0.2c0.1,0.3,0.3,0.6,0.4,1c0.1,0.1,0.1,0.3,0.2,0.4c0.5,1.1,0.9,2.1,1.3,3c0.2,0.5,0.5,1,0.7,1.5
			c0.2,0.5,0.5,1,0.8,1.4c0.2,0.2,0.3,0.5,0.5,0.7c0.2,0.2,0.3,0.4,0.5,0.7c0.2,0.2,0.3,0.5,0.5,0.7c0.2,0.2,0.3,0.5,0.5,0.7
			c0.1,0.2,0.3,0.4,0.5,0.6c0.2,0.2,0.3,0.5,0.5,0.7c0.3,0.4,0.5,0.8,0.8,1.4c0.1,0.2,0.2,0.4,0.3,0.7l0,0c0.2,0.4,0.3,0.7,0.5,1.1
			c0.1,0.2,0.2,0.3,0.3,0.5l0.1,0.1c0.2,0.3,0.3,0.6,0.5,1c0.4,1,0.7,2,1,2.9c0.1,0.2,0.1,0.4,0.2,0.7c0,0,0,0,0,0c0,0,0,0,0,0
			l-0.4-0.5c-0.4-0.7-0.9-1.3-1.4-2c-0.4-0.5-0.8-0.9-1.2-1.4l-0.1-0.1l-0.3-0.3c-0.4-0.4-0.7-0.8-1.1-1.1c-0.4-0.4-0.7-0.7-1.1-1
			l-0.3-0.2c-0.4-0.3-0.8-0.7-1.3-1.2c-0.8-0.7-1.5-1.5-2.2-2.3l-0.2-0.2l0,0c-0.2-0.3-0.5-0.5-0.7-0.8l-0.3-0.3l-0.3-0.3
			c-0.1-0.1-0.2-0.2-0.3-0.3l0,0l0,0l-0.1-0.1c-0.1-0.1-0.3-0.2-0.4-0.3c-0.2-0.2-0.4-0.4-0.6-0.5c-0.3-0.3-0.6-0.6-0.8-0.8
			c-0.8-0.9-1.5-1.8-2.1-2.8c-0.8-1.2-1.5-2.2-2.1-3.2c-0.1-0.2-0.2-0.4-0.3-0.5l0-0.1c-0.4-0.6-0.8-1.3-1.2-1.9
			c-0.4-0.5-0.8-1-1.2-1.5c-0.7-0.8-1.3-1.6-2-2.5l-0.4-0.5c-0.7-0.9-1.5-1.9-2.2-3c-0.2-0.3-0.4-0.5-0.5-0.8
			c-0.2-0.3-0.4-0.6-0.6-0.9c-0.4-0.6-0.8-1.2-1.2-1.8c-0.1-0.2-0.2-0.5-0.2-0.7c-0.1-0.4-0.1-0.7-0.2-1.1c0,0,0,0,0-0.1
			c0,0,0,0,0,0c0,0,0,0,0,0C305.2,67.8,305.2,67.8,305.2,67.7z M296,69.3C296,69.3,296,69.3,296,69.3C296,69.3,296,69.3,296,69.3
			L296,69.3z M285.5,74.1L285.5,74.1C285.5,74.1,285.5,74.1,285.5,74.1c0.5-0.1,1.1-0.2,1.6-0.4c0.5-0.2,1.1-0.4,1.6-0.6
			c0.5-0.2,1-0.3,1.5-0.5l0.2-0.1l0.1,0c0.7-0.2,1.5-0.4,2.2-0.8c0.6-0.3,1-0.6,1.4-0.9c0.4-0.3,0.7-0.6,1-0.9
			c0.1-0.1,0.2-0.2,0.3-0.3c0.1-0.2,0.3-0.3,0.5-0.5c0.1,0,0.2,0,0.2-0.1c0.3,0,0.7-0.1,1.1-0.1h0.1c0.4,0,0.8,0,1.1,0.1
			c0.3,0.1,0.6,0.1,0.9,0.2c0.2,0.1,0.4,0.2,0.5,0.3l0,0l0.1,0c0.3,0.2,0.6,0.3,1,0.5c0.3,0.1,0.6,0.2,0.9,0.2c0.5,0,1-0.1,1.4-0.4
			l0,0v0l0,0c0.1,0.4,0.2,0.7,0.4,1c0.1,0.2,0.3,0.5,0.4,0.7c0.4,0.6,0.8,1.2,1.1,1.6c0.2,0.3,0.4,0.5,0.5,0.8l0.1,0.1
			c0.1,0.2,0.3,0.4,0.4,0.6c0.5,0.7,0.9,1.2,1.2,1.7c0.8,1,1.6,2.1,2.3,3c0.2,0.3,0.5,0.6,0.8,0.9l0.1,0.1c0.5,0.7,1.2,1.4,1.7,2.2
			c0.2,0.2,0.3,0.5,0.5,0.7c0.1,0.1,0.2,0.3,0.2,0.4l0.6,1c0.2,0.4,0.5,0.8,0.7,1.1l0.2,0.3c0.6,1,1.3,1.9,1.9,2.8
			c0.7,0.9,1.4,1.8,2.3,2.6c0.3,0.3,0.7,0.6,1,0.9l0.2,0.2c0.4,0.4,0.8,0.7,1.1,1.1c1.5,1.6,2.6,2.8,3.8,3.9
			c0.2,0.2,0.5,0.5,0.8,0.7l0,0c0.3,0.3,0.7,0.6,1,1c0.6,0.6,1.2,1.2,1.8,1.9l0.1,0.1c0.4,0.4,0.8,0.9,1.1,1.3
			c0.2,0.3,0.4,0.6,0.7,1c0.2,0.2,0.3,0.5,0.5,0.7c0.4,0.5,0.8,1.1,1.3,1.7c0.2,0.2,0.4,0.5,0.6,0.8l0,0.1c0.1,0.1,0.2,0.2,0.2,0.3
			l0.1,0.1l0.1,0.1c0.1,0.2,0.3,0.4,0.4,0.6c0.1,0.2,0.4,0.4,0.7,0.5c0,0,0,0,0,0c0,0,0,0,0,0c0,0,0,0,0,0c0,0,0,0,0,0
			c0,0.1,0.1,0.2,0.1,0.4c0,0.2,0,0.4,0,0.5c-0.4-0.1-0.9-0.2-1.2-0.3c-0.3-0.2-0.6-0.4-0.9-0.5l-0.2-0.2c-0.3-0.2-0.5-0.4-0.8-0.6
			c-0.2-0.1-0.4-0.3-0.6-0.4c-0.1-0.1-0.3-0.2-0.4-0.3c-0.3-0.3-0.7-0.6-1-0.9l0,0l-0.1,0c-0.4-0.4-0.9-0.7-1.2-1
			c-0.8-0.7-1.8-1.3-2.9-1.9c-0.4-0.2-0.8-0.4-1.3-0.6l-0.1,0c-0.5-0.2-1-0.5-1.4-0.7c-0.5-0.3-1-0.5-1.4-0.8
			c-0.4-0.2-0.8-0.5-1.3-0.9c-0.8-0.6-1.6-1.3-2.5-2.1c-0.4-0.4-0.8-0.7-1.2-1.1l0,0c-0.4-0.4-0.9-0.8-1.4-1.2
			c-0.9-0.8-1.8-1.5-2.9-2.2c-0.4-0.3-0.9-0.5-1.3-0.7c-0.1-0.1-0.3-0.2-0.4-0.2l-0.1-0.1c-0.3-0.2-0.6-0.4-0.9-0.5
			c-0.2-0.1-0.3-0.2-0.5-0.2c-0.2-0.1-0.4-0.2-0.5-0.3c-0.3-0.2-0.6-0.4-1-0.6c-0.7-0.6-1.3-1.2-1.9-1.8l-0.1-0.1
			c-0.2-0.2-0.3-0.3-0.5-0.5c-0.4-0.4-0.9-0.9-1.3-1.3c-0.4-0.4-0.8-0.8-1.2-1.1l-0.4-0.3l0,0c-0.7-0.7-1.4-1.3-2-2
			c-0.3-0.4-0.7-0.8-1.1-1.3l-0.2-0.2c-0.3-0.4-0.6-0.7-0.9-1c-0.4-0.4-0.9-0.8-1.3-1c-0.3-0.2-0.6-0.4-0.9-0.6l-0.3-0.2
			c-0.3-0.2-0.6-0.4-0.9-0.6l0,0l-0.3-0.2c-0.4-0.3-0.9-0.5-1.3-0.8c-0.3-0.1-0.5-0.2-0.8-0.4l0,0l-0.1,0c-0.2-0.1-0.3-0.1-0.5-0.2
			c-0.1-0.1-0.3-0.1-0.4-0.2l-0.2-0.1c-0.3-0.1-0.5-0.2-0.8-0.4l-0.1,0l-0.1,0c-0.7-0.3-1.3-0.5-2-0.8c-0.2-0.1-0.5-0.2-0.7-0.3
			c-0.2-0.1-0.3-0.1-0.5-0.2c0-0.1-0.1-0.2-0.1-0.3c0-0.1,0-0.1-0.1-0.2C285.6,74.3,285.5,74.2,285.5,74.1
			C285.5,74.1,285.5,74.1,285.5,74.1z M285.9,126C285.9,126,285.9,126,285.9,126C285.9,125.9,285.9,125.9,285.9,126
			C285.9,125.9,285.9,125.9,285.9,126c0.2-0.1,0.3-0.3,0.4-0.5l0.1-0.2l0-0.1c0.1-0.2,0.1-0.4,0-0.6c0-0.1-0.1-0.3-0.2-0.4
			c-0.1-0.2-0.3-0.4-0.5-0.6c-0.2-0.2-0.4-0.3-0.6-0.5c-0.1-0.1-0.2-0.1-0.3-0.2l-0.2-0.1c-0.2-0.1-0.3-0.2-0.5-0.3
			c-0.3-0.2-0.6-0.4-0.9-0.6l-0.1,0c-0.4-0.2-0.8-0.5-1.1-0.7c-0.3-0.2-0.5-0.5-0.7-0.8c-0.2-0.3-0.4-0.5-0.6-0.7l0,0
			c-0.2-0.3-0.4-0.6-0.6-0.9c-0.2-0.3-0.4-0.6-0.5-0.9l-0.1-0.2c-0.1-0.2-0.3-0.5-0.4-0.7c-0.2-0.4-0.5-0.8-0.7-1.3
			c-0.2-0.3-0.4-0.7-0.6-1c-0.3-0.4-0.5-0.7-0.8-1c-0.2-0.2-0.3-0.3-0.5-0.5l0,0c-0.1-0.1-0.1-0.1-0.2-0.2c-0.3-0.2-0.5-0.5-0.7-0.8
			c-0.3-0.4-0.5-0.7-0.7-1.1c-0.2-0.4-0.5-0.9-0.7-1.5c-0.1-0.3-0.3-0.6-0.5-1c0,0,0-0.1-0.1-0.1c0,0,0,0,0,0c0,0,0,0,0,0h0
			c0,0,0,0,0,0c0,0,0.1,0.1,0.1,0.1c0.1,0.1,0.3,0.2,0.4,0.3l0.1,0l0.1,0.1c0.1,0.1,0.2,0.2,0.4,0.3c0.2,0.2,0.5,0.4,0.7,0.6
			l0.1,0.1l0.2,0.2c0.4,0.4,1,0.8,1.4,1.1c0.2,0.1,0.3,0.2,0.5,0.4c0.3,0.2,0.5,0.5,0.8,0.7l0.1,0c0.3,0.2,0.5,0.5,0.8,0.7
			c0.1,0.1,0.3,0.2,0.4,0.4c0.4,0.3,0.9,0.7,1.3,1.1c0.2,0.2,0.4,0.5,0.6,0.7l0,0l0.1,0.1c0.2,0.3,0.5,0.6,0.7,0.8
			c0.5,0.5,1,1,1.6,1.1c0.2,0.5,0.4,0.9,0.7,1.3l0,0c0.2,0.2,0.4,0.5,0.6,0.7c0.2,0.2,0.4,0.4,0.6,0.6c0.4,0.4,0.9,0.7,1.4,1.1
			c0.7,0.4,1.5,0.7,2.5,0.9c0,0.1,0,0.2,0,0.3c0,0.2,0,0.4,0,0.6c0,0.1,0,0.2,0,0.3c0,0.2,0,0.3,0,0.5c-0.1,0.3-0.2,0.6-0.2,0.9
			c0-0.1,0-0.2,0.1-0.3c0,0.2-0.1,0.4-0.2,0.6c0,0.2-0.1,0.3-0.1,0.5c-0.1,0.3-0.1,0.5-0.1,0.7c0,0.1,0,0.2,0,0.3c0,0.3,0,0.7,0,1
			c0,0.2,0,0.4,0,0.5c0,0.1-0.1,0.3-0.1,0.4c-0.1,0.2-0.1,0.4-0.1,0.6l0-0.1c0,0,0,0.1,0,0.1c0,0-0.1,0-0.1-0.1
			c-0.1-0.2-0.2-0.3-0.3-0.5c-0.3-0.4-0.6-0.7-1-1.1c-0.4-0.4-0.9-0.9-1.4-1.3C286.1,126,286,126,285.9,126z M185.1,240.4
			c-0.7,0.6-1.3,1.1-1.9,1.7c-0.4,0.4-1,0.9-1.5,1.4c0,0-0.1,0.1-0.1,0.1v0l0,0c0,0,0,0,0,0c0,0,0,0,0,0l0,0
			c0.1-0.2,0.2-0.5,0.3-0.7l0.1-0.1c0.1-0.3,0.2-0.6,0.4-0.9c0.2-0.5,0.5-1,0.8-1.6c0.4-0.7,0.7-1.4,1-2.1c0.3-0.7,0.6-1.4,0.8-2.1
			l0,0c0.2-0.4,0.3-0.9,0.5-1.3c0.9-2,1.9-3.8,2.7-5.4l0.2-0.4l0,0c0.4-0.7,0.8-1.5,1.1-2.3c0.3-0.8,0.7-1.6,1-2.4l0.3-0.7
			c0.1-0.2,0.2-0.4,0.3-0.6c0.4-0.9,0.8-1.8,1.3-2.7c0.2-0.4,0.4-0.8,0.7-1.2l0.3-0.5l0.2-0.4l0.2-0.4c0.4-0.6,0.7-1.3,1-2.1
			c0.3-0.6,0.5-1.3,0.7-1.9l0.1-0.3c0.2-0.5,0.3-1.1,0.5-1.6l0-0.1l0-0.1c0.2-0.7,0.4-1.4,0.7-2.1c0.2-0.5,0.3-0.9,0.5-1.4l0,0
			c0.2-0.6,0.4-1.3,0.6-1.9c0.1-0.5,0.2-1,0.3-1.4l0-0.1l0.1-0.4c0.1-0.6,0.3-1.2,0.4-1.8l0-0.2c0.1-0.5,0.2-1.1,0.4-1.6
			c0.3-1.5,0.6-2.8,0.8-4.1c0-0.3,0.1-0.5,0.1-0.8l0-0.2l0,0c0-0.3,0.1-0.6,0.1-0.9l0.1-0.4c0.1-0.5,0.1-0.9,0.2-1.4
			c0.1-1.1,0.1-2.2,0.1-3.3c0-0.2,0-0.5,0-0.7c0-1.4-0.1-2.6-0.2-3.8c0-0.5-0.1-1.1-0.2-1.8l0-0.3l0-0.3c0-0.2,0-0.4-0.1-0.5l0,0
			c0-0.1,0-0.2,0-0.3c0-0.1,0-0.3-0.1-0.4c-0.1-1-0.3-2.4-0.6-3.8c-0.1-0.4-0.1-0.8-0.2-1.2l0-0.1c0-0.2-0.1-0.3-0.1-0.5
			c-0.1-0.6-0.2-1.3-0.3-1.9c-0.2-1.1-0.3-2.2-0.6-3.3l0,0h0c0,0,0,0,0,0c0.3,0.3,0.6,0.5,0.9,0.8c1.3,1.1,2.6,2.1,3.8,3.1
			c0.3,0.3,0.6,0.5,1,0.7c0,0,0,0-0.1-0.1l0.1,0.1l-0.1-0.1c0.7,0.5,1.3,1,2,1.5l0.2,0.1c0.6,0.5,1.2,1,1.8,1.5
			c0.2,0.2,0.5,0.4,0.7,0.6l0.1,0.1c0.4,0.3,0.8,0.6,1.1,1c0.4,0.3,0.7,0.7,1,1.1l0,0c0.2,0.2,0.4,0.4,0.5,0.6
			c0.1,0.1,0.2,0.2,0.3,0.3l0.1,0.1c0.3,0.3,0.7,0.7,1,1.1c0.5,0.7,0.8,1.4,1.1,1.9c0.2,0.5,0.3,1,0.4,1.6c0.1,0.4,0.1,0.8,0.2,1.2
			c0,0.2,0.1,0.5,0.1,0.7c0.1,0.7,0.2,1.3,0.4,1.8l0.1,0.3c0.1,0.5,0.3,1.1,0.4,1.6c0.2,0.5,0.4,1,0.6,1.4c0.1,0.1,0.2,0.3,0.3,0.5
			c0,0,0,0,0,0c0,0,0,0,0,0c0,0,0,0,0,0c-1.5,0.9-2.9,2.3-4.5,4.3c-0.4,0.5-0.7,1.1-1.1,1.6l-0.2,0.3c-0.3,0.4-0.6,0.9-0.9,1.6
			c-0.3,0.6-0.6,1.2-1,1.8c-0.3,0.5-0.6,1.1-0.9,1.6l-0.3,0.6l-0.1,0.3c-0.4,0.8-0.9,1.7-1.4,2.5l-0.8,1.2l-0.1,0.1
			c-0.2,0.3-0.5,0.7-0.7,1.1l-0.2,0.2c-0.3,0.5-0.7,1-1,1.4l-0.4,0.6c-0.6,0.8-1.3,1.7-2,2.6c-0.4,0.6-0.9,1.3-1.3,1.9l0,0.1
			c-0.3,0.4-0.5,0.8-0.8,1.2l-0.1,0.2l0,0c-0.3,0.4-0.6,0.9-0.9,1.3c-0.4,0.5-0.8,1-1.2,1.5c-0.6,0.8-1.3,1.6-1.9,2.3L194,224
			c-0.8,1-1.7,2-2.5,3c-0.7,0.9-1.3,1.9-2,3.1l-0.3,0.5l-0.1,0.2c-0.4,0.6-0.7,1.3-1.1,1.9c-0.4,0.6-0.9,1.1-1.3,1.7l-0.1,0.1
			l-0.2,0.2l-0.1,0.2c-0.4,0.5-0.8,1-1.2,1.4c-0.1,0-0.1,0.1-0.2,0.1c-0.4,0.3-0.7,0.7-0.8,1.2c-0.1,0.5,0,1,0.3,1.4
			c0.2,0.3,0.6,0.6,1,0.7c0.1,0,0.1,0,0.2,0c0,0,0,0,0,0c0,0,0,0,0,0L185.1,240.4z M237.3,206.3c-1.4,0.8-3,1.6-4.8,2.4
			c-0.9,0.4-1.9,0.7-2.8,0.9c-1,0.2-2,0.4-3.2,0.6c-2.1,0.2-4.3,0.4-7.2,0.5c-0.9,0-1.6,0.1-2.2,0.3c-0.2,0.1-0.5,0.2-0.7,0.3
			l-0.1,0.1c-0.2,0.1-0.4,0.2-0.6,0.3c-0.3,0.2-0.7,0.5-1.1,0.9c-0.3,0.3-0.6,0.7-0.9,1.1l-0.2,0.2c-0.1,0.2-0.3,0.4-0.4,0.6
			l-0.1,0.2c-0.3,0.5-0.6,0.9-0.9,1.4l-0.3,0.5l-0.2,0.3c-0.8,1.2-1.5,2.4-2.4,3.6l-0.3,0.4c-0.5,0.6-1,1.3-1.5,1.9
			c-0.2,0.3-0.5,0.6-0.7,0.9c-0.2,0.3-0.5,0.7-0.7,1c-0.7,0.8-1.5,1.6-2.3,2.3l-0.3,0.3l-0.1,0.1l0,0c-0.4,0.4-0.9,0.8-1.3,1.3
			c-0.4,0.4-0.7,0.9-1.1,1.3l-0.2,0.3c-0.2,0.3-0.5,0.5-0.9,0.9c-1,0.7-2.2,1.3-3.2,1.8c-1.1,0.5-2.2,1.1-3.3,1.7
			c-1.2,0.7-2.3,1.3-3.4,1.9l-0.1,0.1c-0.1,0-0.2,0.1-0.2,0.1c0,0-0.1,0.1-0.1,0.1c0,0,0,0,0,0c0,0,0,0,0,0c0.5-0.6,1-1.3,1.5-1.9
			c0.6-0.9,1.1-1.8,1.6-2.7l0,0c0.3-0.6,0.7-1.3,1.1-1.9c0.9-1.4,2-2.6,3-3.8c0.5-0.6,1.1-1.3,1.6-1.9c0.8-1,1.6-2,2.3-3.1
			c0.5-0.7,0.9-1.3,1.3-2l0.1-0.1c0.2-0.4,0.5-0.8,0.7-1.1c0.6-0.9,1.2-1.7,1.8-2.5l0.2-0.2l0.3-0.4c0.8-1.1,1.6-2.2,2.3-3.3
			c0.7-1.1,1.4-2.3,2.3-3.8c0.4-0.7,0.7-1.3,1.1-2c0.2-0.4,0.5-0.9,0.7-1.3c0.2-0.4,0.4-0.8,0.6-1.2c0.2-0.4,0.4-0.8,0.6-1.1
			c0.4-0.6,0.7-1.3,1.1-1.8c0.8-1.1,1.5-2,2.3-2.8c0.7-0.6,1.4-1.1,2.1-1.5c0.3-0.1,0.5-0.4,0.6-0.8c0,0,0,0,0,0c0,0,0,0,0,0
			c0,0,0,0,0,0v0c0.4,0.1,0.8,0.2,1.3,0.2c0.3,0,0.6,0.1,1,0.1c0.3,0,0.6,0,1,0c0.8-0.1,1.5-0.2,2.2-0.3c0.6-0.1,1-0.3,1.4-0.4
			c0.4-0.2,0.9-0.4,1.3-0.6l0.2-0.1c0.8-0.3,1.6-0.5,2.6-0.8c0.3-0.1,0.6-0.2,0.9-0.2h0l0,0c0,0.5,0.2,0.9,0.5,1.3l0.5,0.5
			c0.9,0.9,1.8,1.8,2.7,2.6c0.8,0.8,1.7,1.7,2.7,2.8c0.5,0.6,1,1.2,1.5,1.8c0.3,0.3,0.5,0.6,0.8,1c0.3,0.4,0.6,0.8,0.9,1.1
			c0,0,0,0,0.1,0.1c0,0,0,0,0,0c0,0,0,0,0,0c-0.3,0.1-0.5,0.2-0.8,0.4c-0.6,0.3-1.2,0.7-1.8,1C237.7,206.1,237.5,206.2,237.3,206.3z
			 M218.7,332.6l-0.1-0.4c-0.1-0.7-0.2-1.4-0.4-2c-0.2-0.7-0.5-1.4-0.8-2.3c-0.2-0.5-0.5-1.1-0.8-1.6c-0.5-1-1.2-1.9-1.9-2.8
			l-0.2-0.2c-0.9-1.1-1.8-2.2-2.7-3.1c-0.4-0.4-0.8-0.8-1.4-1.3c-0.2-0.2-0.4-0.3-0.6-0.5l0,0c-0.3-0.2-0.5-0.4-0.8-0.6
			c-0.9-0.8-1.8-1.7-2.7-2.6l0,0c-0.2-0.2-0.4-0.4-0.5-0.6l-0.3-0.3l0,0c-0.6-0.6-1.2-1.3-1.9-1.9c-0.8-0.8-1.6-1.6-2.4-2.3
			l-0.3-0.2c-0.9-0.8-1.8-1.7-2.7-2.6l-0.1-0.1l-0.3-0.4c-0.6-0.6-1.1-1.1-1.7-1.8c0,0,0,0,0,0c0.1,0,0.3,0,0.4,0.1
			c0.5,0.1,1.1,0.1,1.6,0.2l0,0c0.4,0,0.9,0.1,1.4,0.1c0.3,0,0.6,0.1,0.9,0.1c0.4,0.1,0.9,0.1,1.4,0.2l0.1,0
			c0.7,0.1,1.2,0.2,1.7,0.3c0.2,0,0.4,0.1,0.6,0.2l0.1,0c0.1,0,0.1,0,0.2,0.1c0.2,0.1,0.4,0.1,0.6,0.2l0.1,0l0.3,0.1
			c0.5,0.1,0.9,0.3,1.4,0.5l0.4,0.1c0.6,0.2,1.1,0.4,1.7,0.5c0.4,0.1,0.8,0.2,1.2,0.3c0.8,0.2,1.6,0.5,2.5,0.7
			c1.2,0.3,2.6,0.4,4,0.5c0.2,0,0.4,0,0.5,0c0.6,0,1.2-0.1,1.8-0.1c0.8-0.1,1.7-0.2,2.6-0.6c0.5-0.2,0.9-0.4,1.3-0.6
			c0.1-0.1,0.3-0.2,0.4-0.3l0.1,0l0,0c0.2-0.1,0.3-0.2,0.5-0.3c0.5-0.3,1.2-0.7,1.9-1c0.3-0.1,0.7-0.2,1-0.3c0.1,0,0.3,0,0.4,0
			c0.2,0,0.5,0,0.8,0c0.3,0,0.5,0.1,0.8,0.1l0,0c0,0,0,0,0,0l0,0.1c-0.1,0.4-0.1,0.8,0,1.2c0.1,0.3,0.3,0.6,0.5,0.8
			c0.4,0.4,0.8,0.6,1.3,0.6c0.9,0,1.6-0.6,1.8-1.4l0-0.1l0,0c0,0,0,0,0,0l0,0l0.1,0c0,0,0,0,0,0l0,0l0,0l0,0c0,0,0,0,0,0l0,0
			l0.1,0.1c0.1,0.1,0.3,0.1,0.4,0.2c0,0,0,0,0,0c0,0,0,0,0,0l0.3,0.2l0.4,0.2c0.6,0.3,1.3,0.6,1.9,0.9c0.4,0.2,0.7,0.3,1.1,0.5
			c0.1,0,0.2,0.1,0.3,0.1c0,0,0,0,0,0c0,0,0,0,0,0c-0.2,0-0.4,0-0.6,0l-0.1,0l-0.1,0c-0.6,0-1,0.2-1.3,0.6c-0.4,0.4-0.6,0.8-0.6,1.3
			c0,0.5,0.2,1,0.6,1.3c0.3,0.3,0.8,0.6,1.2,0.6c0,0,0.1,0,0.1,0c0.5,0,1-0.1,1.4-0.1c0.4,0,0.8,0,1.1,0.1c0.3,0,0.6,0.1,0.8,0.2
			c0,0.1,0,0.3,0.1,0.4c0.1,0.3,0.3,0.6,0.5,0.9c0,0,0,0,0,0l0,0c0,0.5-0.1,1-0.1,1.5c-0.1,1.4-0.2,2.8-0.2,4l0,0.1
			c0,0.8-0.1,1.6-0.1,2.3c0,0.5-0.1,0.9-0.1,1.4l0,0.4c-0.4,5-1.3,10-2.1,14.8l-0.2,1.2c-0.2,1.2-0.4,2.4-0.6,3.7l0,0.1
			c-0.2,1.3-0.4,2.5-0.6,3.8c-0.2,1.1-0.4,2.4-0.5,3.8c0,0.7-0.1,1.4-0.1,2.3c0,0.4,0,0.7,0,1.1c0,0.3,0,0.6,0,0.9l0,0.5l0,0.5
			c0,0.7-0.1,1.3-0.1,2c-0.1,2.2-0.3,4.6-0.6,7.7c0,0.4-0.1,0.8-0.1,1.2l0,0.4c-0.2,2.2-0.4,4.6-0.5,6.9c0,0.6,0,1.3,0,1.9l0,0.2
			c0,0.4,0,0.8,0,1.3c0,0.9,0,1.9-0.1,2.8l0,0.3l0,0.2c0,0.1,0,0.1,0,0.2c0,0,0,0,0,0l0,0c-0.1-0.4-0.2-0.7-0.3-1.1
			c-0.1-0.5-0.3-1.1-0.5-1.8c-0.2-0.6-0.4-1.2-0.7-1.8c-0.5-1.2-0.9-2.4-1.3-3.5c-0.1-0.3-0.2-0.6-0.3-0.9c-0.2-0.5-0.4-1.1-0.6-1.6
			c-0.2-0.7-0.6-1.7-1-2.7l0,0c-0.3-0.8-0.6-1.7-0.9-2.5c-0.3-0.6-0.5-1.3-0.8-1.8l0-0.1c-0.1-0.3-0.3-0.6-0.4-0.9
			c-0.4-1.1-0.8-2.2-1.1-3.5c-0.3-1.1-0.6-2.3-1.1-3.5c-0.2-0.5-0.4-1-0.6-1.4c-0.3-0.7-0.6-1.3-0.8-2c-0.4-1.1-0.6-2.3-0.9-3.5
			l0-0.2c-0.4-1.8-1-3.5-1.5-5.2c-0.3-0.8-0.5-1.5-0.7-2.2c-0.7-2.1-1.1-4.3-1.5-7.3C218.9,334,218.8,333.3,218.7,332.6z M298,468
			L298,468C298,468,298,468.1,298,468C298,468.1,298,468.1,298,468z M350.9,445.9c-1.2-0.5-2.3-1-3.4-1.5c-0.8-0.3-1.7-0.7-2.6-1
			l-0.1,0c-0.8-0.3-1.6-0.6-2.4-0.8l-1.2-0.3l-1.2-0.3c-1.2-0.3-2.5-0.6-3.7-0.8l-0.1,0c-0.8-0.2-1.5-0.2-2.2-0.3
			c-0.1,0-0.2,0-0.3,0c-0.5,0-1,0.1-1.4,0.1l-0.2,0c-0.7,0.1-1.3,0.2-2,0.2l-0.5,0.1c-0.6,0.1-1.2,0.1-1.8,0.2
			c-0.2,0-0.3,0.1-0.5,0.1l0,0c-0.5,0.1-1,0.2-1.4,0.3l-0.4,0.1l0,0c-0.5,0.1-1.1,0.2-1.6,0.4c-0.6,0.2-1.3,0.4-2,0.6
			c-0.5,0.1-1,0.3-1.4,0.5c-0.2,0.1-0.4,0.1-0.6,0.2c-0.5,0.2-1.1,0.4-1.7,0.6c-1.1,0.4-2.2,0.7-3.3,1l-0.5,0.1l-0.6,0.2
			c-1,0.3-2.1,0.6-3.1,1c-0.7,0.3-1.3,0.6-1.8,0.9c-0.3,0.2-0.5,0.3-0.8,0.5c-0.6,0.4-1.1,0.8-1.6,1.1c-0.3,0.2-0.5,0.4-0.8,0.6
			c-0.8,0.6-1.7,1.2-2.4,1.8c-0.5,0.4-1,0.8-1.4,1.2c-0.4,0.4-0.9,0.8-1.3,1.3c-0.6,0.6-1,1.2-1.4,1.8c-0.1,0.2-0.3,0.5-0.4,0.7
			l-0.1,0.2c-0.2,0.3-0.3,0.7-0.5,1.1l-0.1,0.2l-0.1,0.2l-0.2,0.5c-0.3,0.8-0.7,1.5-1,2.2c-0.4,0.9-0.8,1.8-1,2.8l0,0c0,0,0,0,0,0.1
			c0,0,0,0,0,0c0,0,0,0,0,0c0,0,0,0,0,0c-0.2-0.5-0.4-0.9-0.6-1.4c-0.2-0.4-0.4-0.8-0.6-1.2l-0.1-0.1c-0.4-0.8-0.7-1.5-1.1-2.3
			l-0.1-0.3c-0.2-0.5-0.3-0.9-0.5-1.4c-0.2-0.7-0.4-1.3-0.5-2c-0.3-1.3-0.6-2.5-1-3.8c-0.2-0.7-0.4-1.5-0.6-2.2
			c-0.4-1.7-1-3.7-1.3-5.5c-0.1-0.4-0.1-0.8-0.2-1.1l0,0c-0.1-1.1-0.3-2.1-0.4-3.1l0,0h0l0,0l0,0c0.5-0.1,0.9-0.4,1.1-0.9
			c0.2-0.4,0.4-1,0.2-1.5c-0.5-1.4-1.1-2.8-1.7-4.2l-0.2-0.5l-0.3-0.8c0,0,0,0,0,0l0,0l0,0v0v0c0-0.2,0-0.3,0-0.5
			c0-0.6-0.3-1.2-0.8-1.6c0,0,0,0,0,0c0,0,0,0,0,0c-0.4-0.9-0.7-1.7-1.1-2.6c0,0,0,0,0,0l0,0c0.2-0.2,0.4-0.4,0.6-0.6
			c0.4-0.3,0.7-0.7,1.1-1c0.5-0.4,1-0.9,1.4-1.3c0.1-0.1,0.2-0.2,0.3-0.3l0.1-0.1l0.1,0c0.2-0.2,0.4-0.4,0.6-0.6
			c0.2-0.2,0.4-0.4,0.6-0.6l0.1-0.1c0.2-0.2,0.3-0.3,0.5-0.5c0.4-0.4,0.8-0.8,1.2-1.2c0.2-0.2,0.3-0.4,0.4-0.5l0,0
			c0.2-0.2,0.4-0.5,0.5-0.9c0.1-0.6,0.1-1.1-0.1-1.6c-0.1-0.3-0.2-0.5-0.3-0.8c-0.2-0.4-0.4-0.8-0.6-1.2c-0.3-0.5-0.6-1.1-0.9-1.7
			c-0.5-0.8-1-1.7-1.4-2.7c-0.3-0.8-0.6-1.7-0.9-2.6l-0.1-0.2c-0.4-1.1-0.8-2.3-1.2-3.4c-0.1-0.2-0.1-0.4-0.2-0.6l0-0.1
			c-0.1-0.3-0.2-0.5-0.3-0.8c-0.2-0.6-0.4-1-0.5-1.4c-0.1-0.3-0.2-0.6-0.3-0.9c-0.1-0.2-0.1-0.4-0.2-0.6c-0.2-0.4-0.3-0.8-0.4-1.4
			c0-0.3,0-0.6,0-0.9c0-0.2,0.1-0.3,0.1-0.5c0.1-0.1,0.1-0.2,0.2-0.3c0.1-0.1,0.2-0.2,0.3-0.3c0.4-0.3,0.8-0.5,1.2-0.8l0.1,0
			c0.6-0.4,1.2-0.7,1.8-1.2l0.1-0.1c0.6-0.4,1.1-0.9,1.6-1.4c0.2-0.3,0.4-0.6,0.6-0.9c0.1-0.1,0.1-0.3,0.2-0.4
			c0.1-0.3,0.2-0.5,0.4-0.8l0.2-0.4c0.2-0.6,0.5-1.2,0.7-1.8c0.2-0.6,0.3-1.2,0.5-1.9c0.3-1.4,0.5-2.9,0.7-4.3
			c0.1-0.9,0.2-1.7,0.2-2.6l0-0.1c0.1-0.9,0.1-1.7,0.2-2.6c0.1-0.7,0.2-1.3,0.3-1.8c0.2-0.6,0.4-1.2,0.6-1.8
			c0.2-0.5,0.5-1.1,0.8-1.6c0.2-0.4,0.4-0.7,0.8-1.2c0.2-0.2,0.3-0.4,0.5-0.6c0,0,0,0,0,0c0,0,0,0,0,0c0.3,0.7,0.5,1.4,0.7,2.1
			c0.1,0.3,0.2,0.7,0.3,1c0.3,1.1,0.8,2.2,1.2,3.3l0.1,0.3c0.4,1,0.8,2,1.1,3l0,0.1l0.3,0.8c0.4,1.2,0.9,2.5,1.2,3.7
			c0.2,0.5,0.3,1.1,0.5,1.6l0,0.1l0,0.1c0.2,0.6,0.3,1.2,0.5,1.8c0.4,1.4,0.9,2.8,1.5,4.1c0.3,0.6,0.6,1.2,0.9,1.7
			c0.1,0.2,0.2,0.4,0.3,0.6c0.2,0.3,0.4,0.7,0.6,1c0.7,1.3,1.3,2.6,1.8,3.7c0.3,0.6,0.6,1.2,0.9,1.8l0,0c0.2,0.5,0.5,1.1,0.7,1.6
			c0.6,1.4,1.2,2.5,1.8,3.6c1.4,2.6,2.8,4.8,4.1,6.8c1.6,2.3,3.3,4.5,5.1,6.5l0.1,0.1l0,0c1.7,1.9,3.4,3.8,5.2,5.7l0.4,0.4
			c0.3,0.4,0.7,0.7,1,1l0.8,0.8l0.8,0.8c0.1,0.1,0.3,0.2,0.4,0.4c0.1,0.1,0.1,0.1,0.2,0.2l0.6,0.5l0.5,0.4c0.4,0.3,0.7,0.6,1.1,0.9
			l0.3,0.3c1.1,0.9,2.3,1.9,3.7,3c0.3,0.2,0.6,0.5,0.9,0.7c0,0,0,0,0,0c0,0,0,0,0,0c-0.7-0.3-1.5-0.7-2.3-0.9
			c-1.4-0.5-2.9-0.9-4.2-1.3c-0.4-0.1-0.9-0.3-1.3-0.4c-1.1-0.3-2.2-0.7-3.3-1.2c-0.9-0.4-1.8-0.8-2.7-1.2l-0.1-0.1
			c-0.3-0.1-0.6-0.3-0.9-0.4c-0.9-0.4-1.8-0.7-2.7-1c-0.3-0.1-0.6-0.2-0.9-0.3l-0.1,0c-1.1-0.4-2.3-0.8-3.4-1.3
			c-0.6-0.3-1.1-0.5-1.6-0.9c-0.2-0.1-0.4-0.3-0.6-0.4l-0.1-0.1l-0.4-0.3c-0.6-0.4-1.2-0.8-1.7-1.1l0,0l-1-0.6
			c-0.6-0.4-1.3-0.8-1.9-1.2c-0.7-0.5-1.4-0.9-2.1-1.3c-0.4-0.2-0.9-0.5-1.3-0.7c-0.6-0.3-1.3-0.4-2-0.5c-0.1,0-0.3,0-0.4,0l-0.2,0
			c-0.8-0.1-1.5-0.1-2.3-0.1h0l-0.6,0c-0.8,0-1.7,0-2.5,0l-0.3,0c-0.5,0-1,0.3-1.3,0.7c-0.3,0.4-0.5,0.9-0.4,1.4
			c0,0.5,0.3,0.9,0.7,1.3l0.2,0.1l0.2,0.1c0.3,0.1,0.5,0.2,0.8,0.2c0.1,0,0.1,0,0.2,0c1.3,0,2.5,0,3.7,0.1l0.2,0
			c0.8,0,1.6,0.1,2.3,0.3c0.8,0.3,1.6,0.8,2.5,1.3c1,0.7,2.1,1.3,3.1,1.9l0.3,0.2c0.3,0.2,0.7,0.4,1,0.6c0.3,0.2,0.8,0.5,1.3,0.9
			c0.7,0.5,1.4,0.9,2,1.3c0.5,0.3,1.1,0.5,1.7,0.8c0.5,0.2,1.1,0.4,1.8,0.7c0.2,0.1,0.4,0.1,0.6,0.2l0.2,0.1
			c0.3,0.1,0.6,0.2,0.9,0.3c0.1,0,0.3,0.1,0.4,0.1c0.4,0.1,0.9,0.3,1.3,0.5c1.1,0.5,2.3,1,3.3,1.5l0.1,0l0.4,0.2
			c1.3,0.6,2.7,1.1,4,1.5c1.5,0.5,3,0.9,4.4,1.3c0.5,0.1,1,0.3,1.5,0.5c0.7,0.3,1.4,0.5,1.9,0.8c1.3,0.5,2.4,1,3.5,1.4l0.2,0.1
			c0.5,0.2,1,0.4,1.5,0.6l0.6,0.2c0.4,0.1,0.8,0.3,1.2,0.4c1.6,0.6,2.9,1,4.1,1.5c0.2,0.1,0.3,0.1,0.5,0.2c0,0,0,0,0,0c0,0,0,0,0,0
			c0,0,0,0,0,0h0c0.7,0.6,1.4,1.2,2.2,1.8l0.4,0.3L350.9,445.9C350.8,445.9,350.8,445.9,350.9,445.9
			C350.9,445.9,350.9,445.9,350.9,445.9L350.9,445.9z"/>
	</g>
	<g>
		<path style="fill:#F8A7DC;" d="M246.9,34.1L246.9,34.1C246.9,34.1,246.9,34.1,246.9,34.1C246.9,34.1,246.9,34.1,246.9,34.1
			c0,0.4,0.1,0.8,0.2,1.1c0.1,0.4,0.2,0.8,0.4,1.2c0.3,0.7,0.5,1.5,0.8,2.1l0.1,0.3c0.3,0.6,0.6,1.2,0.9,1.7
			c0.3,0.3,0.5,0.6,0.9,0.9l0.3,0.2c0.6,0.4,1.1,0.8,1.6,1.3c0.6,0.5,1.2,1,1.8,1.5l0.6,0.5c0.3,0.2,0.5,0.4,0.8,0.7
			c0.1,0.1,0.3,0.4,0.4,0.6c0.1,0.2,0.2,0.4,0.2,0.7c0,0.2,0,0.3-0.1,0.5c-0.1,0.2-0.2,0.4-0.4,0.6c-0.3,0.3-0.6,0.4-1.1,0.5
			c-0.2,0-0.4,0.1-0.5,0.1l-0.1,0c0,0.1,0,0.2-0.1,0.3c0,0.1,0,0.2,0,0.3l0,0.1c0,0.2,0,0.4-0.1,0.6c-0.1,0.6-0.1,1.1-0.2,1.6
			c-0.1,0.6-0.2,1.2-0.4,1.8c-0.1,0.4-0.2,0.7-0.2,1.1c-0.4,1.7-0.7,3.4-1.1,5l-0.3,1.4c-0.4,1.7-0.8,3.5-1.2,5.2l0,0.1
			c-0.1,0.5-0.2,0.9-0.3,1.4c-0.1,0.4-0.2,0.9-0.3,1.3c-0.2,0.7-0.3,1.4-0.5,2.2c-0.1,0.5-0.3,1.1-0.4,1.6l0,0.1
			c-0.1,0.5-0.3,1-0.4,1.6c-0.3,1.2-0.6,2.4-0.9,3.4c-0.3,1-0.5,2-0.7,3c-0.1,0.6-0.1,1.3-0.1,1.9c0.1,0,0.1,0,0.1,0
			c0.6-0.3,1.1-0.5,1.6-0.9l0.1,0l0-0.1c0-0.1,0.1-0.2,0.1-0.3c0.1-0.1,0.1-0.2,0.2-0.4l0.1-0.2c0.1-0.2,0.2-0.3,0.2-0.5
			c0.1-0.2,0.2-0.5,0.3-0.7c0.1-0.2,0.2-0.3,0.3-0.5c0.2-0.3,0.3-0.5,0.4-0.8c0.2-0.4,0.4-0.8,0.5-1.3c0.1-0.4,0.2-0.8,0.3-1.1
			c0.1-0.5,0.2-1.1,0.4-1.6l0,0c0.1-0.6,0.3-1.2,0.4-1.8c0.3-1.1,0.6-2.3,1-3.6c0.1-0.3,0.2-0.6,0.3-0.9l0.1-0.3
			c0.1-0.3,0.2-0.5,0.3-0.7l0.1-0.1c0.1-0.2,0.2-0.5,0.4-0.7c0.1-0.1,0.1-0.3,0.2-0.4c0.1-0.1,0.1-0.2,0.2-0.3c0.5-1,1.1-2,1.6-3.1
			c0.2-0.4,0.4-0.9,0.6-1.3c0.3-0.6,0.6-1.4,1-2.1c0.5-1,1-1.9,1.6-2.8l0.2-0.3c0.4-0.6,0.7-1.2,0.9-1.6c0.3-0.5,0.5-1,0.9-1.6
			c0.5-0.9,1.1-1.9,2-2.8c0.6-0.7,1.3-1.2,2-1.7c0.7-0.5,1.5-1,2.2-1.4c0.2-0.1,0.5-0.2,0.7-0.2c0.1,0,0.1,0,0.2,0
			c0.3,0.1,0.6,0.2,0.7,0.5c0.2,0.2,0.2,0.6,0.2,0.9c0,0.3-0.2,0.6-0.5,0.7c-1,0.6-2.2,1.3-3.3,2.3c-0.6,0.6-1.1,1.2-1.6,1.9
			c-0.4,0.6-0.8,1.3-1.2,2.1c-0.1,0.1-0.2,0.3-0.2,0.5l0,0.1c-0.2,0.5-0.5,0.9-0.8,1.4c-0.3,0.5-0.7,1.1-1,1.6
			c-0.4,0.6-0.6,1.1-0.8,1.5c-0.3,0.7-0.6,1.4-1,2.1c-0.2,0.4-0.4,0.9-0.6,1.3c-0.5,1.1-1.1,2.1-1.6,3.1c-0.1,0.1-0.1,0.2-0.2,0.3
			c-0.1,0.1-0.2,0.3-0.2,0.4c-0.1,0.2-0.3,0.5-0.4,0.8l0,0.1c-0.2,0.4-0.4,0.9-0.5,1.4l-0.1,0.2l0,0.1c-0.1,0.2-0.1,0.4-0.2,0.6
			c-0.4,1.3-0.6,2.4-0.9,3.6c-0.1,0.6-0.3,1.2-0.4,1.9c-0.1,0.5-0.2,0.9-0.3,1.4c0.2-0.2,0.3-0.4,0.5-0.6c0.2-0.2,0.4-0.5,0.5-0.7
			c0.4-0.5,0.7-1,1.1-1.4l0,0l0.3-0.4c0.2-0.3,0.5-0.6,0.7-0.8c0.1-0.2,0.3-0.3,0.4-0.5l0,0c0.1-0.1,0.1-0.1,0.2-0.2l0.1-0.1
			c0.4-0.4,0.9-0.9,1.3-1.4l0.2-0.3c0.2-0.3,0.4-0.5,0.6-0.8c0.6-0.8,1.2-1.7,1.9-2.5c0.6-0.7,1.3-1.5,1.8-2.3l0.3-0.4
			c0.1-0.2,0.3-0.4,0.4-0.5c0.5-0.7,0.8-1.4,1.2-2.1l0.1-0.1c0.1-0.2,0.3-0.5,0.4-0.7c0.3-0.5,0.5-0.9,0.8-1.3l0.1-0.1
			c0.3-0.4,0.7-0.9,1-1.4c0.4-0.5,0.8-0.9,1.2-1.3c0.4-0.4,0.9-0.7,1.5-1.1c0.4-0.2,0.8-0.5,1.3-0.8c0.2-0.1,0.4-0.3,0.6-0.4l0.1,0
			c0.2-0.1,0.4-0.3,0.6-0.4c0.1-0.1,0.2-0.2,0.3-0.3c0.2-0.3,0.4-0.7,0.6-1.1l0-0.1l0.1-0.1c-0.2-0.1-0.3-0.1-0.4-0.3
			c-0.4-0.4-0.4-1.1,0-1.5c0.2-0.2,0.3-0.3,0.4-0.4c0.2-0.4,0.4-0.7,0.6-1.1c0.2-0.3,0.3-0.6,0.5-1c0.2-0.4,0.4-0.9,0.6-1.4
			c-0.5-0.2-1.1-0.3-1.7-0.5c-0.7-0.2-1.5-0.3-2.4-0.5c-0.5-0.1-1.1-0.1-1.7-0.1c-0.1,0-0.2,0-0.3,0c-0.2,0-0.3,0-0.5,0l-0.1,0
			c-0.2,0-0.4,0-0.6,0l-0.2,0h-0.2l-0.3,0c-0.3,0-0.7,0-1.1,0c-0.6-0.1-1.3-0.1-1.9-0.3c-0.7-0.2-1.2-0.5-1.7-0.8
			c-0.4-0.3-0.9-0.6-1.4-1.1c-0.2-0.1-0.3-0.3-0.5-0.4l-0.1,0c-0.2-0.2-0.4-0.4-0.7-0.6c-0.2-0.2-0.5-0.5-0.7-0.7l-0.1-0.1
			c-0.1-0.1-0.2-0.2-0.4-0.3c-0.4-0.3-0.7-0.7-1.2-1c-1.3-1-2.7-2.1-4.3-2.9l-0.5-0.3l-0.2-0.1c-0.6-0.3-1.2-0.7-1.8-1
			c-0.7-0.4-1.5-0.7-2.2-1.1C247.7,34.3,247.4,34.2,246.9,34.1L246.9,34.1z"/>
		<path style="fill:#F8A7DC;" d="M285.9,14.4C285.9,14.4,285.9,14.4,285.9,14.4c-0.9,1.8-1.8,3.6-2.6,5.3c-0.8,1.7-1.7,3.5-2.5,5.3
			l0,0l-0.1,0.2c-0.3,0.6-0.5,1.2-0.7,1.7c-0.2,0.6-0.4,1.2-0.5,1.7l0,0.1c-0.1,0.5-0.3,1.2-0.5,1.8l0,0.1c-0.1,0.2-0.1,0.4-0.2,0.6
			c0,0.1-0.1,0.3-0.2,0.4c0.1,0.1,0.1,0.2,0.2,0.3l-0.2,0c-0.2,0-0.4,0.1-0.5,0.2c-0.2,0.2-0.4,0.5-0.4,0.8c0,0.3,0,0.6,0.2,0.8
			c0.2,0.2,0.5,0.4,0.8,0.4l0.1,0l0.1,0c0.2,0,0.4-0.1,0.5-0.2c0.2-0.2,0.4-0.5,0.4-0.8c0,0,0-0.1,0-0.1c0,0,0,0,0,0l0,0
			c0.1-0.1,0.3-0.3,0.4-0.4c0.1-0.1,0.2-0.2,0.3-0.4c0.2-0.2,0.4-0.4,0.5-0.6l0.1-0.1c0.2-0.3,0.5-0.7,0.8-0.9
			c0.1-0.1,0.2-0.2,0.3-0.2l0,0c0.3-0.2,0.6-0.5,0.8-0.7c0.1-0.2,0.3-0.4,0.4-0.7c0.1-0.2,0.2-0.5,0.3-0.7c0.2-0.6,0.4-1.3,0.5-1.9
			c0.1-0.3,0.1-0.7,0.2-1l0.1-0.3c0.1-0.3,0.1-0.6,0.2-0.9c0.1-0.5,0.2-1,0.3-1.5l0.1-0.3l0.1-0.4c0-0.2,0.1-0.4,0.1-0.7l0,0
			c0.1-0.5,0.2-1,0.3-1.6c0.1-1.2,0.1-2.5,0.1-3.7l0,0l0-0.2C286,15.3,286,14.8,285.9,14.4L285.9,14.4z"/>
		<path style="fill:#F8A7DC;" d="M297.3,69.2L297.3,69.2c-0.5,0-0.9,0-1.2,0.1c-0.1,0-0.2,0-0.2,0.1c-0.2,0.2-0.4,0.4-0.5,0.5
			c-0.1,0.1-0.2,0.2-0.3,0.3c-0.3,0.3-0.6,0.6-1,0.9c-0.4,0.3-0.8,0.6-1.4,0.9c-0.7,0.4-1.4,0.6-2.2,0.8l-0.1,0l-0.2,0.1
			c-0.5,0.1-1,0.3-1.5,0.5c-0.6,0.2-1.1,0.4-1.6,0.6c-0.5,0.2-1.1,0.3-1.6,0.3c0,0.2,0.1,0.3,0.1,0.5c0,0.1,0.1,0.2,0.1,0.3
			c0.2,0.1,0.3,0.2,0.5,0.2c0.2,0.1,0.5,0.2,0.7,0.3c0.7,0.3,1.3,0.5,2,0.8l0.1,0l0.1,0c0.3,0.1,0.5,0.2,0.8,0.4l0.2,0.1
			c0.1,0.1,0.3,0.1,0.4,0.2c0.2,0.1,0.3,0.1,0.5,0.2l0.1,0l0,0c0.3,0.1,0.5,0.2,0.8,0.4c0.4,0.2,0.9,0.5,1.3,0.8l0.3,0.2l0,0
			c0.3,0.2,0.6,0.4,0.9,0.6l0.3,0.2c0.3,0.2,0.6,0.4,0.9,0.6c0.4,0.3,0.8,0.6,1.3,1c0.3,0.3,0.6,0.7,0.9,1l0.2,0.2
			c0.4,0.5,0.8,0.9,1.1,1.3c0.6,0.7,1.3,1.4,2,2l0,0l0.4,0.3c0.4,0.4,0.8,0.8,1.2,1.1c0.4,0.4,0.9,0.9,1.3,1.3
			c0.2,0.2,0.3,0.3,0.5,0.5l0.1,0.1c0.6,0.6,1.2,1.2,1.9,1.8c0.3,0.2,0.6,0.4,1,0.6c0.2,0.1,0.4,0.2,0.5,0.3
			c0.2,0.1,0.3,0.2,0.5,0.2c0.3,0.2,0.6,0.4,0.9,0.5l0.1,0.1c0.1,0.1,0.3,0.2,0.4,0.2c0.4,0.2,0.9,0.5,1.3,0.7
			c1.1,0.6,2,1.4,2.9,2.2c0.5,0.4,0.9,0.8,1.4,1.2l0,0c0.4,0.4,0.8,0.7,1.2,1.1c0.9,0.8,1.7,1.5,2.5,2.1c0.5,0.4,0.9,0.6,1.3,0.9
			c0.4,0.2,0.8,0.5,1.4,0.8c0.5,0.2,1,0.5,1.4,0.7l0.1,0c0.4,0.2,0.9,0.4,1.3,0.6c1.1,0.6,2,1.2,2.9,1.9c0.4,0.3,0.8,0.7,1.2,1
			l0.1,0l0,0c0.3,0.3,0.7,0.6,1,0.9c0.1,0.1,0.3,0.2,0.4,0.3c0.2,0.1,0.4,0.3,0.6,0.4c0.3,0.2,0.5,0.4,0.8,0.6l0.2,0.2
			c0.2,0.2,0.5,0.4,0.9,0.5c0.4,0.1,0.8,0.3,1.2,0.3c0-0.2,0-0.4,0-0.5c0-0.1-0.1-0.2-0.1-0.4c-0.2-0.1-0.5-0.2-0.7-0.5
			c-0.1-0.2-0.3-0.4-0.4-0.6l-0.1-0.1l-0.1-0.1c-0.1-0.1-0.2-0.2-0.2-0.3l0-0.1c-0.2-0.3-0.4-0.5-0.6-0.8c-0.5-0.6-0.9-1.2-1.3-1.7
			c-0.2-0.2-0.3-0.5-0.5-0.7c-0.2-0.3-0.4-0.7-0.7-1c-0.3-0.5-0.7-0.9-1.1-1.3l-0.1-0.1c-0.6-0.6-1.2-1.2-1.8-1.9
			c-0.3-0.3-0.7-0.6-1-1l0,0c-0.3-0.2-0.5-0.5-0.8-0.7c-1.1-1.1-2.3-2.3-3.8-3.9c-0.4-0.4-0.7-0.8-1.1-1.1l-0.2-0.2
			c-0.3-0.3-0.7-0.6-1-0.9c-0.8-0.8-1.6-1.7-2.3-2.6c-0.6-0.9-1.3-1.8-1.9-2.8l-0.2-0.3c-0.2-0.3-0.5-0.7-0.7-1.1l-0.6-1
			c-0.1-0.1-0.2-0.3-0.2-0.4c-0.1-0.3-0.3-0.5-0.5-0.7c-0.5-0.8-1.1-1.5-1.7-2.2l-0.1-0.1c-0.3-0.3-0.5-0.6-0.8-0.9
			c-0.7-0.9-1.5-2-2.3-3c-0.4-0.5-0.8-1-1.2-1.7c-0.1-0.2-0.3-0.4-0.4-0.6l-0.1-0.1c-0.2-0.3-0.4-0.5-0.5-0.8
			c-0.3-0.5-0.7-1-1.1-1.6c-0.1-0.2-0.3-0.4-0.4-0.7c-0.2-0.3-0.3-0.6-0.4-1l0,0c-0.4,0.3-0.9,0.4-1.4,0.4c-0.3,0-0.6-0.1-0.9-0.2
			c-0.4-0.1-0.7-0.3-1-0.5l-0.1,0l0,0c-0.2-0.1-0.4-0.2-0.5-0.3c-0.2-0.1-0.5-0.2-0.9-0.2C298.1,69.2,297.7,69.2,297.3,69.2"/>
		<path style="fill:#F8A7DC;" d="M318.9,44.4C318.9,44.4,318.9,44.4,318.9,44.4c-0.1,0.2-0.1,0.3-0.2,0.5c-0.1,0.2-0.1,0.4-0.2,0.6
			c-0.2,0.5-0.3,1-0.5,1.5c-0.4,1.1-0.9,2.3-1.4,3.4c-0.1,0.3-0.3,0.6-0.4,0.9c-0.2,0.6-0.5,1.2-0.6,1.5c-0.2,0.5-0.4,1-0.6,1.5
			c-0.1,0.2-0.2,0.5-0.3,0.7l0,0c-0.1,0.2-0.2,0.5-0.3,0.7c-0.3,0.6-0.5,1.2-0.7,1.7c-0.1,0.3-0.3,0.6-0.4,0.9l-0.1,0.1
			c-0.1,0.2-0.2,0.3-0.2,0.5c-0.1,0.2-0.2,0.5-0.3,0.7l0,0c-0.1,0.3-0.2,0.5-0.4,0.8c-0.4,0.7-0.8,1.3-1.4,1.8
			c-0.5,0.4-1.1,0.8-1.8,1c-0.5,0.2-1.1,0.2-1.7,0.3c-0.3,0-0.6,0.1-0.9,0.2c-0.3,0.1-0.6,0.2-0.8,0.3c0,0-0.1,0-0.1,0.1
			c0,0,0,0.1-0.1,0.1c0,0.1-0.1,0.3-0.1,0.5c0,0.3,0,0.6,0,0.8l0,0.1c0,0.2,0.1,0.5,0,0.7c0,0.4-0.2,0.9-0.4,1.3
			c0,0.1-0.1,0.1-0.1,0.2c0,0,0,0.1,0,0.1c0,0.3,0.1,0.7,0.2,1.1c0.1,0.2,0.1,0.5,0.2,0.7c0.4,0.6,0.8,1.2,1.2,1.8
			c0.2,0.3,0.4,0.6,0.6,0.9c0.2,0.3,0.4,0.5,0.5,0.8c0.8,1.1,1.5,2.1,2.2,3l0.4,0.5c0.6,0.8,1.3,1.7,2,2.5c0.4,0.5,0.8,1,1.2,1.5
			c0.5,0.6,0.9,1.3,1.2,1.9l0,0.1c0.1,0.2,0.2,0.4,0.3,0.5c0.6,1,1.3,2,2.1,3.2c0.6,0.9,1.3,1.8,2.1,2.8c0.2,0.3,0.5,0.5,0.8,0.8
			c0.2,0.2,0.4,0.4,0.6,0.5c0.1,0.1,0.3,0.2,0.4,0.3l0.1,0.1l0,0l0,0c0.1,0.1,0.2,0.2,0.3,0.3l0.3,0.3l0.3,0.3
			c0.2,0.3,0.5,0.5,0.7,0.8l0,0l0.2,0.2c0.7,0.8,1.5,1.6,2.2,2.3c0.5,0.5,0.9,0.9,1.3,1.2l0.3,0.2c0.3,0.3,0.7,0.6,1.1,1
			c0.4,0.4,0.7,0.8,1.1,1.1l0.3,0.3l0.1,0.1c0.4,0.4,0.8,0.9,1.2,1.4c0.5,0.6,1,1.3,1.4,2l0.4,0.5c-0.3-1.1-0.7-2.3-1.2-3.6
			c-0.2-0.3-0.3-0.7-0.5-1l-0.1-0.1c-0.1-0.2-0.2-0.3-0.3-0.5c-0.2-0.4-0.3-0.7-0.5-1.1l0,0c-0.1-0.2-0.2-0.4-0.3-0.7
			c-0.3-0.6-0.5-1-0.8-1.4c-0.2-0.2-0.3-0.5-0.5-0.7c-0.2-0.2-0.3-0.4-0.5-0.6c-0.2-0.2-0.3-0.5-0.5-0.7c-0.2-0.2-0.3-0.5-0.5-0.7
			c-0.2-0.2-0.3-0.4-0.5-0.7c-0.2-0.2-0.3-0.5-0.5-0.7c-0.3-0.5-0.5-0.9-0.8-1.4c-0.2-0.5-0.5-1-0.7-1.5c-0.4-0.9-0.9-1.9-1.3-3
			c-0.1-0.1-0.1-0.3-0.2-0.4c-0.1-0.3-0.3-0.6-0.4-1l-0.1-0.2c-0.2-0.4-0.3-0.8-0.4-1.2c-0.2-0.8-0.3-1.7-0.4-2.5l0-0.3l0-0.3
			c-0.1-0.6-0.1-1.1-0.2-1.7c0-0.4-0.1-0.8-0.1-1.1l0-0.4c0-0.4-0.1-0.8-0.1-1.2c-0.1-0.6-0.1-1.1-0.2-1.7c-0.1-0.5-0.2-1.1-0.3-1.6
			l0-0.1c-0.1-0.4-0.2-0.9-0.4-1.4c0,0,0-0.1,0-0.1c0,0,0,0-0.1-0.1c-0.2-0.1-0.4-0.2-0.6-0.4l-0.1,0c-0.1-0.1-0.2-0.1-0.3-0.2
			c-0.2-0.2-0.5-0.4-0.8-0.6c-0.3-0.3-0.5-0.6-0.6-0.9c-0.1-0.3-0.1-0.6-0.1-0.9c0-0.8,0.2-1.6,0.4-2.3c0.1-0.3,0.1-0.5,0.2-0.8
			c0.2-0.9,0.4-1.7,0.6-2.7c0.1-0.7,0.2-1.4,0.3-2l0,0l0.1-0.5c0.2-1.9,0.4-3.6,0.4-5.4c0-1.6,0.1-3.4-0.2-5.3
			c-0.1-0.4-0.1-0.7-0.2-1.1c0-0.1-0.1-0.3-0.1-0.4c-0.1-0.2-0.1-0.5-0.2-0.7C319.1,44.9,319,44.7,318.9,44.4L318.9,44.4z"/>
		<path style="fill:#F8A7DC;" d="M273.6,108.5L273.6,108.5c0.2,0.5,0.4,0.8,0.5,1.2c0.3,0.6,0.5,1.1,0.7,1.5
			c0.2,0.4,0.5,0.7,0.7,1.1c0.2,0.3,0.5,0.5,0.7,0.8c0.1,0.1,0.1,0.1,0.2,0.2l0,0c0.2,0.1,0.3,0.3,0.5,0.5c0.3,0.3,0.5,0.6,0.8,1
			c0.2,0.3,0.4,0.7,0.6,1c0.2,0.4,0.5,0.9,0.7,1.3c0.1,0.2,0.3,0.5,0.4,0.7l0.1,0.2c0.2,0.3,0.3,0.6,0.5,0.9
			c0.2,0.3,0.4,0.6,0.6,0.9l0,0c0.2,0.2,0.4,0.5,0.6,0.7c0.2,0.2,0.4,0.5,0.7,0.8c0.4,0.3,0.8,0.5,1.1,0.7l0.1,0
			c0.3,0.2,0.6,0.4,0.9,0.6c0.2,0.1,0.3,0.2,0.5,0.3l0.2,0.1c0.1,0.1,0.2,0.1,0.3,0.2c0.2,0.1,0.4,0.3,0.6,0.5
			c0.2,0.2,0.4,0.4,0.5,0.6c0.1,0.1,0.2,0.3,0.2,0.4c0.1,0.2,0.1,0.4,0,0.6l0,0.1l-0.1,0.2c-0.1,0.2-0.3,0.3-0.5,0.4
			c0.1,0.1,0.1,0.1,0.2,0.2c0.5,0.4,0.9,0.9,1.4,1.3c0.3,0.3,0.7,0.7,1,1.1c0.2,0.3,0.4,0.5,0.5,0.8c0.1,0.2,0.2,0.4,0.3,0.6
			c0.2,0.3,0.3,0.7,0.4,1c0,0.1,0,0.1,0.1,0.2l0,0l0.1,0.2c0.2,0.5,0.5,1.1,0.8,1.6l0,0l0,0c0.1-0.2,0.2-0.3,0.3-0.5l0-0.1
			c0-0.1-0.1-0.2-0.1-0.4c0-1.8-0.1-3.5-0.2-5.2c0-0.6-0.1-1.2-0.1-1.7c0-0.2,0-0.4-0.1-0.6c0-0.4-0.1-0.8-0.1-1.1
			c0-0.4-0.1-0.8-0.1-1.2c-1.3-0.2-2.2-0.5-3-1c-0.5-0.3-1-0.7-1.4-1.1c-0.3-0.2-0.4-0.4-0.6-0.6c-0.2-0.2-0.4-0.5-0.6-0.7l0,0
			c-0.3-0.4-0.5-0.8-0.7-1.3c-0.6,0-1.2-0.5-1.6-1.1c-0.3-0.3-0.5-0.6-0.7-0.8l-0.1-0.1l0,0c-0.2-0.2-0.4-0.5-0.6-0.7
			c-0.4-0.4-0.9-0.8-1.3-1.1c-0.2-0.1-0.3-0.2-0.4-0.4c-0.3-0.2-0.6-0.5-0.8-0.7l-0.1,0c-0.3-0.2-0.5-0.5-0.8-0.7
			c-0.2-0.1-0.3-0.2-0.5-0.4c-0.5-0.4-1-0.7-1.4-1.1l-0.2-0.2l-0.1-0.1c-0.2-0.2-0.5-0.4-0.7-0.6c-0.1-0.1-0.2-0.2-0.4-0.3l-0.1-0.1
			l-0.1,0c-0.1-0.1-0.3-0.2-0.4-0.3C273.7,108.5,273.6,108.5,273.6,108.5C273.6,108.5,273.6,108.5,273.6,108.5"/>
		<path style="fill:#F8A7DC;" d="M292.5,122.2L292.5,122.2C292.5,122.2,292.5,122.2,292.5,122.2c0.1,0.7,0.1,1.5,0.2,2.2l0,0.1
			c0.1,0.8,0.2,1.5,0.2,2.2c-0.1,0-0.3,0.1-0.4,0.2c-0.2,0.2-0.4,0.5-0.4,0.8c0,0.3,0,0.6,0.2,0.8c0.2,0.2,0.5,0.4,0.8,0.4l0.1,0
			l0.1,0c0.2,0,0.4-0.1,0.5-0.2c0.2-0.2,0.4-0.5,0.4-0.8c0-0.3,0-0.6-0.2-0.8c-0.1-0.1-0.3-0.3-0.4-0.3c-0.1-0.3-0.2-0.6-0.1-0.9
			c0.1-0.3,0.3-0.5,0.5-0.6c0.1,0,0.1-0.1,0.2-0.1c0.1,0,0.1-0.1,0.2-0.1c0.1-0.1,0.3-0.1,0.4-0.2c0.1,0,0.2-0.1,0.3-0.1
			c0.1,0,0.3-0.1,0.4-0.1c0.5-0.2,1-0.5,1.4-0.8l0.2-0.1c0.3-0.2,0.5-0.3,0.8-0.5c0.3-0.2,0.6-0.4,1-0.6c0.1-0.1,0.3-0.2,0.4-0.2
			c-0.1,0-0.2,0-0.3,0l-0.1,0c-0.7,0.1-1.4,0.2-2,0.2l0,0c-0.4,0-0.9-0.1-1.3-0.1l-0.2,0c-0.3,0-0.6-0.1-0.8-0.1l0,0
			c-0.2,0-0.5,0-0.7-0.1c-0.2,0-0.3,0-0.5-0.1l0,0C293.1,122.2,292.8,122.2,292.5,122.2"/>
		<path style="fill:#F8A7DC;" d="M197.8,170L197.8,170L197.8,170c0.2,1.1,0.4,2.2,0.6,3.3c0.1,0.6,0.2,1.3,0.3,1.9
			c0,0.2,0.1,0.3,0.1,0.5l0,0.1c0.1,0.4,0.1,0.8,0.2,1.2c0.3,1.4,0.5,2.7,0.6,3.8c0,0.1,0.1,0.3,0.1,0.4c0,0.1,0,0.2,0,0.3l0,0
			c0,0.2,0.1,0.4,0.1,0.5l0,0.3l0,0.3c0.1,0.7,0.2,1.3,0.2,1.8c0.1,1.2,0.2,2.4,0.2,3.8c0,0.2,0,0.5,0,0.7c0,1.1,0,2.2-0.1,3.3
			c0,0.5-0.1,0.9-0.2,1.4l-0.1,0.4c0,0.3-0.1,0.6-0.1,0.9l0,0l0,0.2c0,0.3-0.1,0.5-0.1,0.8c-0.2,1.3-0.4,2.7-0.8,4.2
			c-0.1,0.5-0.2,1.1-0.4,1.6l0,0.2c-0.1,0.6-0.3,1.2-0.4,1.8l-0.1,0.4l0,0.1c-0.1,0.4-0.2,0.9-0.3,1.4c-0.2,0.6-0.4,1.3-0.6,1.9l0,0
			c-0.1,0.5-0.3,0.9-0.5,1.4c-0.2,0.7-0.5,1.4-0.7,2.1l0,0.1l0,0.1c-0.2,0.5-0.3,1.1-0.5,1.6l-0.1,0.3c-0.2,0.6-0.4,1.3-0.7,1.9
			c-0.3,0.7-0.6,1.4-1,2.1l-0.2,0.4l-0.2,0.4l-0.3,0.5c-0.2,0.4-0.4,0.8-0.7,1.2c-0.5,0.9-0.9,1.8-1.3,2.7c-0.1,0.2-0.2,0.4-0.3,0.6
			l-0.3,0.7c-0.3,0.8-0.6,1.6-1,2.4c-0.3,0.8-0.7,1.5-1.1,2.3l0,0l-0.2,0.4c-0.8,1.6-1.8,3.4-2.7,5.4c-0.2,0.4-0.3,0.9-0.5,1.3l0,0
			c-0.3,0.7-0.5,1.4-0.8,2.1c-0.3,0.7-0.7,1.5-1,2.1c-0.3,0.6-0.6,1.2-0.8,1.6c-0.1,0.3-0.3,0.6-0.4,0.9l-0.1,0.1
			c-0.1,0.2-0.2,0.5-0.3,0.7l0,0c0,0,0,0,0,0c0,0,0,0,0,0c0,0,0.1-0.1,0.1-0.1c0.5-0.5,1.1-1,1.5-1.4c0.6-0.5,1.3-1.1,1.9-1.7
			l0.6-0.5c-0.5-0.1-0.9-0.4-1.2-0.8c-0.3-0.4-0.4-0.9-0.3-1.4c0.1-0.5,0.4-0.9,0.8-1.2c0.1,0,0.1-0.1,0.2-0.1
			c0.4-0.4,0.8-0.9,1.2-1.4l0.1-0.2l0.2-0.2l0.1-0.1c0.4-0.5,0.9-1.1,1.3-1.7c0.4-0.6,0.8-1.3,1.1-1.9l0.1-0.2l0.3-0.5
			c0.7-1.3,1.4-2.3,2-3.1c0.8-1,1.6-2.1,2.5-3l0.1-0.1c0.6-0.7,1.3-1.5,1.9-2.3c0.4-0.5,0.8-1,1.2-1.5c0.3-0.4,0.6-0.9,0.9-1.3l0,0
			l0.1-0.2c0.3-0.4,0.5-0.8,0.8-1.2l0-0.1c0.4-0.6,0.8-1.3,1.3-1.9c0.6-0.9,1.3-1.8,2-2.6l0.4-0.6c0.4-0.5,0.7-0.9,1-1.4l0.2-0.2
			c0.3-0.3,0.5-0.7,0.7-1.1l0.1-0.1l0.8-1.2c0.5-0.8,0.9-1.6,1.4-2.5l0.1-0.3l0.3-0.6c0.3-0.5,0.6-1.1,0.9-1.6
			c0.3-0.6,0.6-1.2,1-1.8c0.4-0.6,0.6-1.1,0.9-1.6l0.2-0.3c0.3-0.5,0.7-1.1,1.1-1.6c1.6-2,3-3.4,4.5-4.3c-0.1-0.2-0.2-0.4-0.3-0.5
			c-0.2-0.4-0.4-0.9-0.6-1.4c-0.2-0.5-0.3-1.1-0.4-1.6l-0.1-0.3c-0.1-0.5-0.2-1.1-0.4-1.8c0-0.2-0.1-0.5-0.1-0.7
			c-0.1-0.4-0.1-0.8-0.2-1.2c-0.1-0.5-0.2-1-0.4-1.6c-0.3-0.6-0.6-1.3-1.1-1.9c-0.3-0.4-0.7-0.8-1-1.1l-0.1-0.1
			c-0.1-0.1-0.2-0.2-0.3-0.3c-0.2-0.2-0.4-0.4-0.5-0.6l0,0c-0.3-0.4-0.7-0.8-1-1.1c-0.4-0.3-0.8-0.7-1.1-1l-0.1-0.1
			c-0.2-0.2-0.5-0.4-0.7-0.6c-0.6-0.5-1.2-1-1.8-1.5l-0.2-0.1c-0.7-0.5-1.3-1-2-1.5l0.2,0.1c-1.6-1.3-3.2-2.5-4.9-3.9
			C198.4,170.5,198.1,170.2,197.8,170C197.8,170,197.8,170,197.8,170"/>
		<path style="fill:#F8A7DC;" d="M230.8,193.6L230.8,193.6c-0.3,0.1-0.6,0.1-0.9,0.2c-1,0.3-1.8,0.5-2.6,0.8l-0.2,0.1
			c-0.4,0.2-0.9,0.4-1.3,0.6c-0.4,0.2-0.9,0.3-1.4,0.4c-0.7,0.2-1.5,0.3-2.2,0.3c-0.3,0-0.7,0-1,0c-0.3,0-0.7,0-1-0.1
			c-0.5-0.1-0.9-0.1-1.3-0.2c-0.2,0.4-0.4,0.6-0.6,0.8c-0.7,0.4-1.4,0.9-2.1,1.5c-0.8,0.8-1.5,1.7-2.3,2.8c-0.3,0.5-0.7,1.1-1.1,1.8
			c-0.2,0.4-0.4,0.8-0.6,1.1c-0.2,0.4-0.4,0.8-0.6,1.2c-0.2,0.4-0.5,0.9-0.7,1.3c-0.4,0.7-0.7,1.3-1.1,2c-0.9,1.6-1.6,2.7-2.3,3.8
			c-0.7,1.1-1.5,2.2-2.3,3.3l-0.3,0.4l-0.2,0.2c-0.6,0.8-1.2,1.6-1.8,2.5c-0.3,0.4-0.5,0.8-0.7,1.1l-0.1,0.1c-0.4,0.7-0.9,1.3-1.3,2
			c-0.8,1.1-1.6,2.1-2.3,3.1c-0.5,0.7-1.1,1.3-1.6,1.9c-1,1.2-2.1,2.5-3,3.8c-0.4,0.6-0.7,1.3-1.1,1.9l0,0c-0.5,0.9-1,1.9-1.6,2.7
			c-0.5,0.7-1,1.3-1.5,1.9c0.1,0,0.2-0.1,0.4-0.2l0.1-0.1c1.1-0.6,2.2-1.2,3.4-1.9c1.1-0.6,2.2-1.2,3.3-1.7c1-0.5,2.2-1,3.2-1.8
			c0.4-0.3,0.7-0.6,0.9-0.9l0.2-0.3c0.3-0.5,0.7-0.9,1.1-1.3c0.4-0.4,0.8-0.9,1.3-1.3l0,0l0.1-0.1l0.3-0.3c0.8-0.7,1.6-1.5,2.3-2.3
			c0.3-0.3,0.5-0.7,0.7-1c0.2-0.3,0.4-0.6,0.7-0.9c0.5-0.7,1-1.3,1.5-1.9l0.3-0.4c0.9-1.1,1.6-2.4,2.4-3.6l0.2-0.3l0.3-0.5
			c0.3-0.5,0.6-1,0.9-1.4l0.1-0.2c0.1-0.2,0.3-0.4,0.4-0.6l0.2-0.2c0.3-0.4,0.5-0.8,0.9-1.1c0.3-0.3,0.7-0.6,1.1-0.9
			c0.2-0.1,0.4-0.2,0.6-0.3l0.1-0.1c0.2-0.1,0.5-0.2,0.7-0.3c0.6-0.2,1.3-0.2,2.2-0.3c2.9-0.1,5.1-0.2,7.2-0.5
			c1.2-0.2,2.2-0.4,3.2-0.6c0.9-0.2,1.9-0.5,2.8-0.9c1.9-0.8,3.5-1.6,4.8-2.4c0.2-0.1,0.4-0.2,0.5-0.3c0.6-0.3,1.2-0.7,1.8-1
			c0.3-0.1,0.5-0.2,0.8-0.4c-0.3-0.3-0.6-0.7-1-1.1c-0.3-0.3-0.5-0.6-0.8-1c-0.5-0.6-1-1.2-1.5-1.8c-1-1.1-1.8-1.9-2.7-2.8
			c-0.9-0.9-1.8-1.8-2.7-2.6l-0.5-0.5C231.1,194.5,230.9,194,230.8,193.6L230.8,193.6z"/>
		<path style="fill:#F8A7DC;" d="M255.4,292.3C255.4,292.3,255.4,292.3,255.4,292.3l0,0.4c0,0.4,0,0.7,0,1.1
			c-0.1,1.2-0.2,2.3-0.4,3.4l-0.1,0.4c-0.1,0.9-0.3,1.7-0.5,2.6c-0.2,0.9-0.5,1.8-1,3c-0.4,1-0.8,2-1.3,3l0,0l0,0
			c-0.1,0.3-0.3,0.6-0.4,0.9l-0.1,0.2c-0.5,1.1-0.9,2.1-1.5,3.1c-0.4,0.7-0.9,1.3-1.3,1.7c-0.3,0.3-0.7,0.7-1.1,1l-0.1,0.1l-0.2,0.2
			c-0.1,0.1-0.2,0.2-0.3,0.2c0,0.3-0.1,0.5-0.2,0.7c-0.2,0.4-0.7,0.7-1.1,0.9c-0.2,0-0.3,0.1-0.5,0.1c-0.2,0-0.3,0-0.5-0.1l-0.1-0.1
			c-0.3,0.1-0.5,0.2-0.7,0.2l0,0.2c-0.2,2-0.3,4.1-0.3,6c0,0.2,0,0.4,0,0.6l0,0.1l0,0c0,0.5,0,0.9-0.1,1.4c-0.1,0.8-0.1,1.6-0.2,2.3
			c-0.1,1.1-0.2,2.3-0.4,3.5c-0.3,2.4-0.7,4.9-1.3,8.2c-0.4,2.5-0.8,4.9-1.3,7.7c-0.1,0.3-0.1,0.7-0.2,1l0,0.3
			c-0.1,0.8-0.3,1.7-0.4,2.6c-0.2,1.3-0.3,2.6-0.4,3.8c0,0.7,0,1.5-0.1,2.2l0,0.1c0,0.9,0,1.7-0.1,2.6l0,0.1l0,0.1l0,0l0,0
			c-0.1,3-0.4,6-0.6,8.5c-0.1,0.6-0.1,1.2-0.2,1.8c-0.2,1.9-0.4,3.8-0.5,5.6c0,0.6,0,1.3,0,1.9l0,0.2c0,0.5,0,1.1,0,1.6
			c0,0.3,0,0.6,0,0.9c0.1-0.3,0.2-0.6,0.3-0.8l0.1-0.2c0.3-0.6,0.6-1.2,0.9-1.7c1.2-2.1,2.3-4.3,3.3-6.6l0.2-0.4
			c0.1-0.3,0.2-0.6,0.4-0.9c0.3-0.7,0.6-1.3,0.9-2l0.1-0.2c0.2-0.3,0.4-0.7,0.6-1c0.3-0.5,0.7-0.9,1-1.4l0,0
			c0.2-0.2,0.4-0.5,0.6-0.7l0.2-0.3l0.2-0.3c0.6-0.8,1.3-1.7,1.8-2.7c0.3-0.5,0.5-1,0.8-1.4l0.2-0.4c0.3-0.5,0.6-1,0.9-1.6
			c0.6-1,1.1-2.1,1.6-3.3c0.5-1.1,1-2.2,1.5-3.2l0.1-0.2c0.3-0.7,0.6-1.4,0.8-2c0.2-0.4,0.3-0.8,0.5-1.2l0.1-0.3l0.1-0.2
			c0.2-0.6,0.5-1.2,0.7-1.8c0.5-1.2,0.9-2.4,1.2-3.7c0.7-2.4,1-4.8,1.3-7.1c0.1-1,0.2-2,0.3-2.9l0-0.6c0-0.4,0.1-0.9,0.1-1.3l0-0.4
			l0-0.2c0.1-0.6,0.1-1.2,0.2-1.8l0-0.2c0-0.3,0.1-0.5,0.2-0.8c0.1-0.4,0.3-0.8,0.5-1.1c0.3-0.4,0.7-0.8,1.1-1
			c0.5-0.3,1.1-0.5,1.5-0.7c0.3-0.1,0.6-0.2,0.8-0.3c0.5-0.1,1-0.2,1.5-0.3l0.2,0c0.9-0.2,1.7-0.4,2.4-0.6c0.7-0.3,1.4-0.7,2.2-1.3
			c0.6-0.4,1.2-0.8,1.7-1.2c2-1.6,3.7-3.2,5.1-4.9c0.3-0.4,0.7-0.9,1-1.4l0.3-0.4l0.1-0.2c0.5-0.7,0.9-1.3,1.3-2.1
			c0.3-0.7,0.4-1.5,0.5-2.2c0-0.4,0-0.8,0-1.3c0-0.2-0.1-0.3-0.1-0.5c-0.1-0.3-0.3-0.6-0.5-0.9c-0.1-0.1-0.2-0.2-0.3-0.3
			c-0.7-0.5-1.5-1-2.3-1.4c-0.6-0.3-1.2-0.6-1.8-0.9c-0.3-0.1-0.7-0.3-1.1-0.4c-0.5-0.2-1-0.3-1.6-0.4c-0.7-0.2-1.4-0.3-2-0.4
			c-0.2,0-0.5-0.1-0.7-0.1l-0.4-0.1l0,0c-0.5-0.1-1-0.2-1.4-0.3c-0.6-0.2-1.2-0.3-1.8-0.5c-1.2-0.4-2.5-0.8-3.8-1.4
			c-0.5-0.2-1.1-0.5-1.5-0.8c-0.5-0.4-1.1-0.8-1.5-1.3c-0.6-0.6-1.1-1.4-1.6-2.1c-0.2-0.3-0.5-0.7-0.7-1
			C255.9,293,255.7,292.7,255.4,292.3L255.4,292.3L255.4,292.3z"/>
		<path style="fill:#F8A7DC;" d="M298.4,371.3C298.4,371.3,298.4,371.3,298.4,371.3c-0.2,0.2-0.3,0.4-0.5,0.6
			c-0.3,0.5-0.6,0.8-0.8,1.2c-0.3,0.6-0.6,1.1-0.8,1.6c-0.2,0.6-0.5,1.2-0.6,1.8c-0.1,0.5-0.2,1.1-0.3,1.8c-0.1,0.9-0.2,1.7-0.2,2.6
			l0,0.1c-0.1,0.8-0.1,1.7-0.2,2.6c-0.2,1.4-0.4,2.9-0.7,4.3c-0.1,0.7-0.3,1.3-0.5,1.9c-0.2,0.6-0.5,1.2-0.7,1.8l-0.2,0.4
			c-0.1,0.3-0.2,0.5-0.4,0.8c-0.1,0.1-0.1,0.3-0.2,0.4c-0.2,0.3-0.4,0.6-0.6,0.9c-0.4,0.6-1,1-1.6,1.4l-0.1,0.1
			c-0.6,0.4-1.2,0.8-1.8,1.2l-0.1,0c-0.4,0.2-0.8,0.5-1.2,0.8c-0.1,0.1-0.2,0.2-0.3,0.3c-0.1,0.1-0.1,0.2-0.2,0.3
			c-0.1,0.2-0.1,0.3-0.1,0.5c0,0.3,0,0.5,0,0.9c0.1,0.6,0.2,1,0.4,1.4c0.1,0.2,0.1,0.4,0.2,0.6c0.1,0.3,0.2,0.6,0.3,0.9
			c0.2,0.4,0.3,0.9,0.5,1.4c0.1,0.3,0.2,0.5,0.3,0.8l0,0.1c0.1,0.2,0.1,0.4,0.2,0.6c0.4,1.1,0.8,2.3,1.2,3.4l0.1,0.2
			c0.3,0.8,0.6,1.7,0.9,2.5c0.4,1,1,1.9,1.4,2.7c0.3,0.6,0.6,1.2,0.9,1.7c0.2,0.4,0.4,0.8,0.6,1.2c0.1,0.2,0.2,0.5,0.3,0.8
			c0.2,0.5,0.2,1,0.1,1.6c-0.1,0.3-0.3,0.6-0.5,0.9l0,0c-0.1,0.2-0.3,0.4-0.4,0.5c-0.4,0.4-0.8,0.8-1.2,1.2
			c-0.2,0.2-0.3,0.3-0.5,0.5l-0.1,0.1c-0.2,0.2-0.4,0.4-0.6,0.6c-0.2,0.2-0.4,0.4-0.6,0.6l-0.1,0l-0.1,0.1c-0.1,0.1-0.2,0.2-0.3,0.3
			c-0.5,0.4-1,0.9-1.4,1.3c-0.4,0.3-0.7,0.7-1.1,1c-0.2,0.2-0.4,0.4-0.6,0.6c0.3,0.9,0.7,1.7,1.1,2.6c0.5,0.4,0.8,0.9,0.8,1.6
			c0,0.2,0,0.3,0,0.5l0.3,0.8l0.2,0.5c0.6,1.4,1.1,2.8,1.7,4.2c0.2,0.5,0,1.1-0.2,1.5c-0.2,0.4-0.7,0.7-1.1,0.9l0,0
			c0.1,1,0.3,2,0.4,3.1l0,0c0.1,0.3,0.1,0.7,0.2,1.1c0.4,1.9,0.9,3.8,1.3,5.5c0.2,0.7,0.4,1.5,0.6,2.2c0.3,1.3,0.6,2.5,1,3.8
			c0.2,0.7,0.3,1.3,0.5,2c0.1,0.5,0.3,0.9,0.5,1.4l0.1,0.3c0.3,0.8,0.7,1.6,1.1,2.3l0.1,0.1c0.2,0.4,0.4,0.8,0.6,1.2
			c0.2,0.4,0.4,0.9,0.6,1.4c0,0,0-0.1,0-0.1l0,0c0.3-1,0.6-1.9,1-2.8c0.3-0.7,0.7-1.4,1-2.2l0.2-0.5l0.1-0.2l0.1-0.2
			c0.2-0.4,0.3-0.7,0.5-1.1l0.1-0.2c0.1-0.2,0.2-0.5,0.4-0.7c0.4-0.6,0.8-1.1,1.4-1.8c0.4-0.5,0.9-0.9,1.3-1.3
			c0.5-0.4,1-0.8,1.4-1.2c0.8-0.6,1.6-1.2,2.4-1.8c0.3-0.2,0.5-0.4,0.8-0.6c0.5-0.3,1-0.7,1.6-1.1c0.3-0.2,0.5-0.4,0.8-0.5
			c0.5-0.3,1.1-0.6,1.8-0.9c1-0.4,2.1-0.7,3.1-1l0.6-0.2l0.5-0.1c1.1-0.3,2.2-0.6,3.3-1c0.6-0.2,1.2-0.4,1.7-0.6
			c0.2-0.1,0.4-0.1,0.6-0.2c0.4-0.2,0.9-0.4,1.4-0.5c0.7-0.2,1.4-0.4,2-0.6c0.5-0.1,1.1-0.3,1.6-0.4l0,0l0.4-0.1
			c0.5-0.1,1-0.2,1.4-0.3l0,0c0.2,0,0.3-0.1,0.5-0.1c0.6-0.1,1.2-0.2,1.8-0.2l0.5-0.1c0.7-0.1,1.3-0.2,2-0.2l0.2,0
			c0.4-0.1,0.9-0.1,1.4-0.1c0.1,0,0.2,0,0.3,0c0.6,0,1.3,0.1,2.2,0.3l0.1,0c1.1,0.2,2.4,0.5,3.7,0.8l1.2,0.3l1.2,0.3
			c0.8,0.2,1.6,0.5,2.4,0.8l0.1,0c0.9,0.3,1.8,0.7,2.6,1c1.1,0.5,2.2,1,3.4,1.5l-0.2-0.2l-0.4-0.3c-0.7-0.6-1.4-1.2-2.2-1.9
			c-0.2-0.1-0.3-0.1-0.5-0.2c-1.2-0.5-2.6-0.9-4.1-1.5c-0.4-0.1-0.8-0.3-1.2-0.4l-0.6-0.2c-0.5-0.2-1-0.4-1.5-0.6l-0.2-0.1
			c-1.1-0.4-2.2-0.9-3.5-1.4c-0.5-0.2-1.2-0.5-1.9-0.8c-0.5-0.2-1.1-0.4-1.5-0.5c-1.4-0.4-2.9-0.9-4.4-1.3c-1.3-0.4-2.7-0.9-4-1.5
			l-0.4-0.2l-0.1,0c-1.1-0.5-2.2-1-3.3-1.5c-0.4-0.2-0.9-0.3-1.3-0.5c-0.1,0-0.3-0.1-0.4-0.1c-0.3-0.1-0.6-0.2-0.9-0.3l-0.2-0.1
			c-0.2-0.1-0.4-0.2-0.6-0.2c-0.7-0.3-1.3-0.5-1.8-0.7c-0.6-0.2-1.1-0.5-1.7-0.8c-0.6-0.3-1.3-0.8-2-1.3c-0.5-0.3-1-0.7-1.3-0.9
			c-0.3-0.2-0.7-0.4-1-0.6l-0.3-0.2c-1-0.6-2.1-1.3-3.1-1.9c-0.9-0.6-1.7-1-2.5-1.3c-0.8-0.2-1.6-0.2-2.3-0.3l-0.2,0
			c-1.2,0-2.4-0.1-3.7-0.1c-0.1,0-0.1,0-0.2,0c-0.3,0-0.5-0.1-0.8-0.2l-0.2-0.1l-0.2-0.1c-0.4-0.3-0.6-0.8-0.7-1.3
			c0-0.5,0.1-1,0.4-1.4c0.3-0.3,0.8-0.7,1.3-0.7l0.3,0c0.8,0,1.7,0,2.5,0l0.6,0l0,0c0.7,0,1.5,0,2.3,0.1l0.2,0c0.1,0,0.3,0,0.4,0
			c0.7,0.1,1.4,0.3,2,0.5c0.4,0.2,0.9,0.4,1.3,0.7c0.7,0.4,1.3,0.8,2.1,1.3c0.6,0.4,1.3,0.8,1.9,1.2l1,0.6l0,0
			c0.5,0.3,1.1,0.7,1.7,1.1l0.4,0.3l0.1,0.1c0.2,0.1,0.4,0.3,0.6,0.4c0.5,0.3,1.1,0.6,1.6,0.9c1.1,0.5,2.3,0.9,3.4,1.3l0.1,0
			c0.3,0.1,0.6,0.2,0.9,0.3c0.8,0.3,1.8,0.6,2.7,1c0.3,0.1,0.6,0.3,0.9,0.4l0.1,0.1c0.9,0.4,1.8,0.8,2.7,1.2
			c1.1,0.5,2.2,0.8,3.3,1.2c0.4,0.1,0.9,0.3,1.3,0.4c1.3,0.4,2.8,0.8,4.2,1.3c0.8,0.3,1.6,0.6,2.3,0.9c-1.8-1.4-3.3-2.6-4.6-3.7
			l-0.3-0.3c-0.4-0.3-0.7-0.6-1.1-0.9l-0.5-0.4l-0.6-0.5c-0.1-0.1-0.1-0.1-0.2-0.2c-0.1-0.1-0.3-0.2-0.4-0.4l-0.8-0.8l-0.8-0.8
			c-0.3-0.3-0.6-0.6-1-1l-0.4-0.4c-1.8-1.8-3.5-3.8-5.2-5.7l0,0l-0.1-0.1c-1.7-1.9-3.4-4.1-5.1-6.5c-1.4-2-2.7-4.2-4.1-6.8
			c-0.6-1.1-1.2-2.3-1.8-3.6c-0.3-0.5-0.5-1.1-0.7-1.6l0,0c-0.3-0.6-0.6-1.2-0.9-1.8c-0.5-1.1-1.1-2.4-1.8-3.7
			c-0.2-0.4-0.4-0.7-0.6-1c-0.1-0.2-0.2-0.4-0.3-0.6c-0.3-0.6-0.6-1.1-0.9-1.7c-0.6-1.4-1.1-2.8-1.5-4.1c-0.2-0.6-0.4-1.2-0.5-1.8
			l0-0.1l0-0.1c-0.2-0.5-0.3-1.1-0.5-1.6c-0.4-1.3-0.8-2.5-1.2-3.7l-0.3-0.8l0-0.1c-0.4-1-0.7-2-1.1-3l-0.1-0.3
			c-0.4-1.1-0.9-2.2-1.2-3.3c-0.1-0.3-0.2-0.7-0.3-1C298.9,372.7,298.7,372,298.4,371.3C298.4,371.3,298.4,371.3,298.4,371.3"/>
		<path style="fill:#F8A7DC;" d="M240.3,315.1c0-0.7-0.2-1.4-0.4-2.1c-0.3-0.9-0.7-1.8-1.4-2.4c-0.2-0.2-0.5-0.5-0.8-0.7
			c-0.3-0.2-0.5-0.4-0.9-0.5c0,0-0.1,0-0.1,0c0,0,0,0,0,0l-0.2-0.1c-0.1-0.1-0.2-0.1-0.3-0.2c-0.1,0-0.2-0.1-0.2-0.1
			c-0.1-0.1-0.3-0.1-0.5-0.1c-0.5-0.2-1-0.5-1.4-0.7c0-0.1-0.1-0.1-0.1-0.2c-0.2-0.2-0.4-0.4-0.6-0.6c-0.2-0.2-0.5-0.4-0.8-0.5
			c-0.4-0.2-0.8-0.5-1.2-0.6c-0.3-0.1-0.6-0.1-0.9-0.2c-0.2,0-0.3-0.1-0.5-0.1c-0.1,0-0.2,0-0.3-0.1c-0.1-0.1-0.3-0.1-0.4-0.2
			c-0.2-0.1-0.4-0.1-0.6-0.1c-0.4,0-0.7,0.1-0.9,0.4c-0.2,0-0.4,0-0.6,0c-0.1,0-0.3,0-0.4,0c-0.3,0.1-0.6,0.2-1,0.3
			c-0.7,0.3-1.3,0.7-1.9,1c-0.2,0.1-0.3,0.2-0.5,0.3l0,0l-0.1,0c-0.1,0.1-0.3,0.2-0.4,0.3c-0.4,0.2-0.8,0.4-1.3,0.6
			c-0.8,0.3-1.7,0.5-2.6,0.6c-0.6,0.1-1.2,0.1-1.8,0.1c-0.2,0-0.4,0-0.5,0c-1.4-0.1-2.7-0.3-4-0.5c-0.8-0.2-1.7-0.4-2.5-0.7
			c-0.4-0.1-0.8-0.2-1.2-0.3c-0.6-0.2-1.2-0.3-1.7-0.5l-0.4-0.1c-0.5-0.2-0.9-0.3-1.4-0.5l-0.3-0.1l-0.1,0c-0.2-0.1-0.4-0.1-0.6-0.2
			c-0.1,0-0.1,0-0.2-0.1l-0.1,0c-0.2-0.1-0.4-0.1-0.6-0.2c-0.5-0.1-1-0.2-1.7-0.3l-0.1,0c-0.5-0.1-0.9-0.1-1.4-0.2
			c-0.3-0.1-0.6-0.1-0.9-0.1c-0.5-0.1-1-0.1-1.4-0.1l0,0c-0.5,0-1.1-0.1-1.6-0.2c-0.1,0-0.3,0-0.4-0.1h0c0,0,0,0,0,0
			c0.5,0.6,1.1,1.2,1.7,1.8l0.3,0.4l0.1,0.1c0.9,0.9,1.7,1.8,2.7,2.6l0.3,0.2c0.8,0.7,1.7,1.5,2.4,2.3c0.6,0.6,1.2,1.3,1.9,1.9l0,0
			l0.3,0.3c0.2,0.2,0.4,0.4,0.5,0.6l0,0c0.9,0.9,1.8,1.8,2.7,2.6c0.2,0.2,0.5,0.4,0.8,0.6l0,0c0.2,0.2,0.4,0.3,0.6,0.5
			c0.5,0.4,1,0.8,1.4,1.3c0.9,0.9,1.8,2,2.7,3.1l0.2,0.2c0.7,0.9,1.4,1.8,1.9,2.8c0.3,0.5,0.5,1.1,0.8,1.6c0.4,0.9,0.7,1.6,0.8,2.3
			c0.2,0.7,0.3,1.4,0.4,2l0.1,0.4c0.1,0.7,0.2,1.4,0.3,2.1c0.4,3,0.9,5.3,1.5,7.3c0.2,0.7,0.5,1.4,0.7,2.2c0.6,1.7,1.2,3.4,1.5,5.2
			l0,0.2c0.2,1.2,0.5,2.4,0.9,3.5c0.2,0.7,0.5,1.4,0.8,2c0.2,0.5,0.4,1,0.6,1.4c0.5,1.2,0.8,2.4,1.1,3.5c0.3,1.3,0.7,2.4,1.1,3.5
			c0.1,0.3,0.3,0.6,0.4,0.9l0,0.1c0.3,0.6,0.6,1.2,0.8,1.8c0.3,0.8,0.6,1.7,0.9,2.5l0,0c0.3,1,0.7,2,1,2.7c0.2,0.5,0.4,1.1,0.6,1.6
			c0.1,0.3,0.2,0.6,0.3,0.9c0.4,1.1,0.8,2.3,1.3,3.5c0.2,0.6,0.5,1.2,0.7,1.8c0.2,0.7,0.4,1.2,0.5,1.8c0.1,0.4,0.2,0.7,0.3,1.1
			l0-0.4l0-0.3c0-0.9,0-1.9,0.1-2.8c0-0.4,0-0.8,0-1.3l0-0.2c0-0.6,0-1.3,0-1.9c0-2.3,0.3-4.6,0.5-6.9l0-0.4c0-0.4,0.1-0.8,0.1-1.2
			c0.3-3.1,0.5-5.5,0.6-7.7c0-0.7,0-1.3,0.1-2l0-0.5l0-0.5c0-0.3,0-0.6,0-0.9c0-0.4,0-0.7,0-1.1c0-0.9,0.1-1.6,0.1-2.3
			c0.1-1.3,0.3-2.6,0.5-3.8c0.2-1.3,0.4-2.5,0.6-3.8l0-0.1c0.2-1.2,0.4-2.5,0.6-3.7l0.2-1.2c0.8-4.9,1.7-9.9,2.1-14.8l0-0.4
			c0-0.4,0.1-0.9,0.1-1.4c0-0.8,0.1-1.6,0.1-2.3l0-0.1c0.1-1.2,0.1-2.6,0.2-4c0-0.2,0-0.4,0-0.6
			C240.2,315.6,240.4,315.3,240.3,315.1z"/>
	</g>
</g>
</svg>
